<svg width="64" height="65" viewBox="0 0 64 65" fill="none" xmlns="http://www.w3.org/2000/svg">
<g clip-path="url(#clip0)">
<path d="M30.7753 4.85147C30.0859 6.24396 29.4177 5.70329 29.4177 5.70329C25.7279 3.78672 24.1482 5.04676 24.1482 5.04676C24.1482 5.04676 26.9127 4.94912 28.1214 6.75341C29.3311 8.55799 26.8626 7.8395 26.8626 7.8395C19.94 6.51719 18.1062 7.7105 18.1062 7.7105C23.7438 7.87071 22.3696 9.41893 22.3696 9.41893C20.5036 9.25677 17.9857 10.0917 17.9857 10.0917C21.5176 10.1223 22.0184 11.3358 22.0184 11.3358C22.0184 11.3358 19.9317 10.5945 18.3166 10.9243C16.7016 11.257 15.9695 12.9351 16.0893 12.8032C16.2098 12.6738 17.7243 12.1946 17.7243 12.1946C19.4867 11.9919 19.2843 12.9076 19.2843 12.9076C18.4364 14.5696 17.9279 13.6206 13.1478 13.1459C8.36899 12.669 9.11456 15.2158 9.11456 15.2158C9.28361 14.1642 11.3176 13.5514 13.2836 14.4001C15.2497 15.2494 17.9625 15.7238 19.6904 15.1131C21.4195 14.5029 20.8096 12.1946 20.8096 12.1946C20.8096 12.1946 22.7412 14.0283 24.7419 12.7714C26.7412 11.5148 24.7419 9.13986 24.7419 9.13986C28.6394 9.30918 31.2839 11.3121 31.2839 11.3121C31.2839 11.3121 31.1486 7.54431 32.0981 7.5779C33.0476 7.61374 32.674 11.2453 32.674 11.2453C33.8599 9.88612 39.5211 8.83451 39.1831 9.20884C38.8425 9.58078 37.5546 10.735 38.9783 12.5331C40.4025 14.3334 43.351 12.2278 43.351 12.2278C43.351 12.2278 41.5551 14.1642 44.2656 15.2158C46.9783 16.2674 50.844 14.0615 52.5039 13.9592C54.1638 13.8589 55.2833 15.2158 55.2833 15.2158C55.1142 13.0435 52.2323 12.4664 49.3861 13.3152C46.5376 14.1642 44.673 13.1099 44.673 13.1099C43.556 11.0736 47.9954 12.569 47.9954 12.569C47.5216 10.2273 41.6914 11.2095 41.6914 11.2095C41.8271 10.499 46.1663 9.9554 46.1663 9.9554C45.1139 9.4119 41.5221 9.24243 41.5221 9.24243C41.115 7.95223 45.9283 7.54431 45.9283 7.54431C42.7081 6.45941 35.9457 7.91878 35.9457 7.91878C34.6739 6.05149 39.7931 4.86401 39.7931 4.86401C37.6568 3.70998 34.6405 6.35683 33.8605 5.91591C33.0804 5.47469 32.0981 2.41992 32.0981 2.41992C32.0981 2.41992 31.3429 3.70102 30.7753 4.85147Z" fill="#4F72E1"/>
<path d="M49.4095 15.9832C49.4095 15.9832 47.8171 15.9093 47.4953 16.7493C47.1758 17.5895 49.3093 17.2054 49.3475 17.1314C49.3856 17.0572 49.1497 17.6516 50.6062 18.5419C50.6062 18.5419 53.2355 20.8642 52.704 21.9884C52.704 21.9884 52.1485 21.4943 51.667 21.9026C51.667 21.9026 50.878 22.6186 50.9136 23.1245C50.9136 23.1245 47.631 21.6661 46.2984 23.0624C46.2984 23.0624 49.9147 24.5827 51.2354 27.1772C51.2354 27.1772 52.7334 33.6938 51.977 35.5547C51.977 35.5547 47.6814 32.327 44.999 36.0486C44.999 36.0486 49.2118 34.2057 49.853 37.9449C50.4941 41.6838 53.1292 42.9206 54.314 42.3935C55.4986 41.8646 56.3377 39.3616 53.6377 39.3616C53.6377 39.3616 53.9683 35.4893 54.1486 34.5842C54.3289 33.6764 54.1311 29.4934 53.7528 28.5202C53.7528 28.5202 54.6244 28.6854 54.7573 28.4225C54.8875 28.1591 55.0527 27.1032 54.642 26.9879C54.642 26.9879 54.4291 26.7572 54.7072 26.7572C54.7072 26.7572 55.7615 26.7747 55.8917 26.0501C56.0246 25.3252 55.9418 22.1453 54.4614 19.888C52.9788 17.6311 52.1397 17.5484 52.1397 17.5484C52.1397 17.5484 52.9311 15.424 52.2073 15.0452C52.2073 15.0452 50.5115 13.924 49.4095 15.9832Z" fill="#4F72E1"/>
<path d="M55.1677 29.6565C55.1677 29.6565 56.6007 29.6087 56.2702 31.5195C55.9418 33.4305 55.3331 33.4631 55.3331 33.4631C55.3331 33.4631 56.1548 31.4871 55.5635 31.4191C54.97 31.3543 54.0333 30.2182 55.1677 29.6565Z" fill="#4F72E1"/>
<path d="M48.5707 37.3501C48.5707 37.3501 47.0077 36.2967 45.9381 37.3501C44.8688 38.4058 47.3208 39.3113 48.175 38.7019C48.175 38.7019 48.3076 43.7277 44.0447 50.4488C44.0447 50.4488 41.7755 48.3573 41.1667 47.8956C40.5583 47.4342 37.2499 46.5264 37.9253 49.0496C37.9253 49.0496 38.8626 50.564 40.0149 48.7836C40.0149 48.7836 41.0191 48.2896 42.532 50.5465C42.532 50.5465 42.9274 54.5015 43.108 56.1491C43.108 56.1491 43.1077 53.0019 44.7536 51.0256C44.7536 51.0256 46.2987 48.7836 46.9576 48.4051L48.2902 50.2508C48.2902 50.2508 47.5839 45.4555 49.1968 43.6775C49.1968 43.6775 50.6447 44.5002 49.8056 45.5559C49.8056 45.5559 48.7363 45.9114 49.1144 46.5151C49.4924 47.1208 50.6047 46.7746 50.4681 45.8694C50.3315 44.9616 52.3553 44.9969 52.4858 46.2308C52.6185 47.4669 51.4664 48.4876 50.9228 48.5378C50.9228 48.5378 53.7531 48.4549 53.7046 46.594C53.6554 44.7309 51.0982 43.8907 50.4681 43.2813C49.8382 42.6721 50.7926 42.9529 50.7926 42.9529C50.7926 42.9529 51.4989 42.8374 51.6467 43.0353C51.7943 43.2336 51.7794 41.9972 50.1513 42.2282C50.1513 42.2282 50.4941 38.421 48.5707 37.3501Z" fill="#4F72E1"/>
<path d="M41.7988 52.0944C41.5331 51.6667 41.086 51.5648 40.8464 51.5109C40.7797 51.4969 40.7028 51.4785 40.6949 51.466C40.7688 51.3301 40.9154 50.7311 40.7141 50.3348C40.604 50.1225 40.4144 49.9971 40.1497 49.9639C39.9027 49.9327 39.7127 49.9962 39.5657 50.1476C39.2427 50.4832 39.2637 51.1309 39.2671 51.1529C38.4207 55.8804 32.3176 59.7593 32.0509 59.9266C31.7841 59.7593 25.6809 55.8807 24.8355 51.1569C24.8367 51.1309 24.8577 50.4832 24.5347 50.1476C24.3878 49.9962 24.1977 49.9327 23.9519 49.9639C23.686 49.9971 23.4965 50.1225 23.3875 50.3348C23.1861 50.7311 23.3327 51.3301 23.4076 51.4651C23.3989 51.4785 23.322 51.4969 23.2541 51.5109C23.0142 51.5648 22.5685 51.6667 22.3017 52.0944C22.0482 52.4995 22.0149 53.1136 22.2044 53.9153C22.21 53.9346 22.8185 55.8441 24.2363 55.7442L24.294 55.7412L24.2512 55.7015C24.2408 55.6917 23.211 54.7444 23.387 53.7953C23.3873 53.787 23.425 53.0444 23.832 53.0444C23.9161 53.0444 24.0129 53.0757 24.1182 53.1377C24.1353 53.1478 24.1538 53.1589 24.1719 53.1705C24.4658 53.366 24.6869 53.9982 24.9436 54.7313C25.3664 55.938 25.8911 57.4384 27.0545 58.2195C27.0138 58.43 26.6199 60.6035 27.3317 61.5799C27.5333 61.859 27.8089 62.0182 28.1479 62.0537L28.2147 62.0619L28.1684 62.0124C28.1614 62.0062 27.4234 61.2125 27.5361 60.5801C27.5779 60.346 27.7325 60.1591 27.9943 60.0266C27.9978 60.0257 28.3125 59.9217 28.7497 59.9217C29.3112 59.9217 30.1114 60.0943 30.7343 60.9103C30.7352 60.9136 30.7626 60.9397 30.7579 60.9995C30.7517 61.0862 30.6773 61.2392 30.358 61.4656C29.8847 61.8062 29.0947 63.1967 29.1522 63.97C29.1716 64.2226 29.2732 64.3987 29.4563 64.4897L29.4763 64.4999L29.488 64.4833C29.5004 64.4629 30.7922 62.4824 32.0509 61.9429C33.3094 62.4821 34.5999 64.4629 34.6137 64.4833L34.6253 64.4999L34.6454 64.4897C34.8279 64.3987 34.9302 64.2226 34.9495 63.97C35.0072 63.1967 34.217 61.8062 33.7437 61.4656C33.4245 61.2392 33.3497 61.0862 33.3427 60.9995C33.338 60.9397 33.3665 60.9136 33.3695 60.908C33.9903 60.0943 34.7893 59.9217 35.3508 59.9217C35.7889 59.9217 36.1031 60.0255 36.1037 60.0255C36.368 60.1591 36.5238 60.346 36.5654 60.5801C36.6773 61.2122 35.9403 62.0062 35.9322 62.0124L35.8858 62.0619L35.9528 62.0537C36.2928 62.0182 36.5672 61.859 36.7699 61.5799C37.481 60.6035 37.088 58.43 37.0471 58.2195C38.2104 57.4384 38.7353 55.938 39.1568 54.7313C39.4145 53.9982 39.6359 53.366 39.9297 53.1705C39.9486 53.1589 39.965 53.1478 39.9837 53.1377C40.0888 53.0757 40.1843 53.0444 40.2685 53.0444C40.6762 53.0444 40.7144 53.787 40.715 53.7978C40.8892 54.7444 39.8596 55.6917 39.849 55.7015L39.8065 55.7412L39.8654 55.7442C39.9006 55.7486 39.9351 55.7495 39.972 55.7495C41.3139 55.7495 41.8917 53.9343 41.8982 53.914C42.0849 53.1136 42.0522 52.4995 41.7988 52.0944Z" fill="#4F72E1"/>
<path d="M14.5895 15.9832C14.5895 15.9832 16.1819 15.9093 16.5025 16.7493C16.8231 17.5895 14.6884 17.2054 14.6515 17.1314C14.6145 17.0572 14.8493 17.6516 13.3928 18.5419C13.3928 18.5419 10.7647 20.8642 11.2951 21.9884C11.2951 21.9884 11.8505 21.4943 12.332 21.9026C12.332 21.9026 13.121 22.6186 13.0841 23.1245C13.0841 23.1245 16.3666 21.6661 17.7003 23.0624C17.7003 23.0624 14.0841 24.5827 12.7634 27.1772C12.7634 27.1772 11.2656 33.6938 12.0232 35.5547C12.0232 35.5547 16.3174 32.327 18.999 36.0486C18.999 36.0486 14.7872 34.2057 14.146 37.9449C13.5036 41.6838 10.871 42.9206 9.68633 42.3935C8.50154 41.8646 7.66265 39.3616 10.3614 39.3616C10.3614 39.3616 10.0318 35.4893 9.85031 34.5842C9.67008 33.6764 9.86749 29.4934 10.2461 28.5202C10.2461 28.5202 9.37341 28.6854 9.24168 28.4225C9.11015 28.1591 8.9463 27.1032 9.35709 26.9879C9.35709 26.9879 9.571 26.7572 9.29185 26.7572C9.29185 26.7572 8.23847 26.7747 8.10706 26.0501C7.9757 25.3252 8.05719 22.1453 9.53867 19.888C11.019 17.6311 11.8581 17.5484 11.8581 17.5484C11.8581 17.5484 11.0692 15.424 11.7931 15.0452C11.7931 15.0452 13.4873 13.924 14.5895 15.9832Z" fill="#4F72E1"/>
<path d="M8.83114 29.6565C8.83114 29.6565 7.39959 29.6087 7.72889 31.5195C8.0572 33.4305 8.66576 33.4631 8.66576 33.4631C8.66576 33.4631 7.84424 31.4871 8.43619 31.4191C9.02897 31.3543 9.96578 30.2182 8.83114 29.6565Z" fill="#4F72E1"/>
<path d="M15.3572 37.3501C15.3572 37.3501 16.9202 36.2967 17.9897 37.3501C19.0594 38.4058 16.6072 39.3113 15.7518 38.7019C15.7518 38.7019 15.6204 43.7277 19.8821 50.4488C19.8821 50.4488 22.1526 48.3573 22.7611 47.8956C23.3699 47.4342 26.6775 46.5264 26.0024 49.0496C26.0024 49.0496 25.0642 50.564 23.9133 48.7836C23.9133 48.7836 22.9088 48.2896 21.3948 50.5465C21.3948 50.5465 21.0004 54.5015 20.8195 56.1491C20.8195 56.1491 20.82 53.0019 19.1745 51.0256C19.1745 51.0256 17.6279 48.7836 16.9691 48.4051L15.6365 50.2508C15.6365 50.2508 16.3443 45.4555 14.731 43.6775C14.731 43.6775 13.2831 44.5002 14.1223 45.5559C14.1223 45.5559 15.1918 45.9114 14.8136 46.5151C14.4354 47.1208 13.3231 46.7746 13.4597 45.8694C13.5965 44.9616 11.5727 44.9969 11.441 46.2308C11.309 47.4669 12.4606 48.4876 13.004 48.5378C13.004 48.5378 10.1736 48.4549 10.2224 46.594C10.2725 44.7309 12.8289 43.8908 13.4597 43.2813C14.0898 42.6721 13.1355 42.9529 13.1355 42.9529C13.1355 42.9529 12.4279 42.8374 12.2801 43.0353C12.1313 43.2336 12.1483 41.9972 13.7766 42.2282C13.7766 42.2282 13.4321 38.421 15.3572 37.3501Z" fill="#4F72E1"/>
<path d="M34.7322 17.9398C34.4939 17.4503 34.023 17.2658 33.8867 17.2223V15.3844L33.8718 15.3707C33.6414 15.14 33.4138 15.0207 33.1939 15.0207C32.8154 15.0207 32.6057 15.3643 32.5965 15.3783L32.5897 18.1384C32.26 18.471 32.086 18.7146 32.0126 18.8286C31.9394 18.7146 31.7645 18.471 31.4348 18.1384V15.4052L31.4281 15.3783C31.419 15.3643 31.2091 15.0207 30.8307 15.0207C30.6108 15.0207 30.3833 15.14 30.1526 15.3707L30.138 15.3844V17.2223C30.0015 17.2658 29.5306 17.4503 29.2918 17.9398C29.0747 18.3865 29.1141 18.9535 29.4157 19.6388C29.4271 19.6501 30.5655 20.8263 31.9628 21.0111V21.024L32.0126 21.0193L32.0618 21.024V21.0111C33.4594 20.8263 34.5971 19.6498 34.618 19.6251C34.9104 18.9534 34.9498 18.3865 34.7322 17.9398Z" fill="#4F72E1"/>
<path d="M28.3618 22.0061C28.3618 22.0061 25.6657 20.4231 25.1206 20.1504C24.5757 19.8778 24.0579 19.9317 24.2762 20.8582C24.4943 21.7873 24.9844 25.4417 27.5175 24.214C27.5175 24.214 29.4785 23.5861 29.9696 23.2312C29.9696 23.2312 30.1599 23.3132 30.1329 24.0496C30.1329 24.0496 28.1716 29.5874 28.1986 31.25C28.1986 31.25 30.7596 34.5774 31.3318 35.9696C31.9037 37.3595 30.6506 42.0791 26.6192 40.36C26.6192 40.36 20.8438 35.4782 23.5683 31.3323C23.5683 31.3323 24.6306 29.9141 25.8828 29.3967C25.8828 29.3967 27.1365 26.3679 25.0384 25.8765C22.9411 25.3874 20.4635 23.508 21.8246 21.0239C23.1867 18.5422 23.841 17.7498 23.841 17.7498C23.841 17.7498 24.7676 16.8511 26.0746 18.0221C27.3815 19.1957 29.8606 21.2417 29.8606 21.2417C29.8606 21.2417 30.3515 22.4155 29.7514 22.6599C29.1525 22.9046 28.3618 22.0061 28.3618 22.0061Z" fill="#4F72E1"/>
<path d="M31.8476 22.8934L29.5807 27.1007C29.5807 27.1007 28.333 29.5124 30.4589 29.5809C32.586 29.6522 35.5029 30.1109 34.6947 27.7172L32.3753 22.8934C32.3753 22.8934 33.6758 27.6279 33.0954 27.8228H31.0037C31.0037 27.8228 30.1428 27.9094 31.8476 22.8934Z" fill="#4F72E1"/>
<path d="M29.0987 31.4681C28.5344 30.3743 29.5768 29.9459 29.5768 29.9459H34.5476C34.5476 29.9459 35.6582 30.3559 34.8337 31.4681C34.0539 32.5182 32.025 35.6397 32.025 35.6397L29.0987 31.4681Z" fill="#4F72E1"/>
<path d="M36.6015 42.3787C36.4722 41.9528 36.1722 41.7353 35.6928 41.7353C35.6925 41.7353 35.6916 41.7353 35.6916 41.7353H33.4848L31.9583 39.223V39.141L31.9342 39.1819L31.9096 39.141V39.223L30.3831 41.7353H28.1603C27.6959 41.7353 27.3957 41.9528 27.2662 42.3787C27.0493 43.0999 27.3975 44.1607 27.4436 44.1913C27.4949 44.2346 28.429 45.4608 29.044 46.2724C29.4453 46.8073 29.4665 48.6165 29.4666 48.6351L29.467 48.6856L29.507 48.6547C29.8169 48.4133 30.2679 47.4027 30.2679 47.3345C30.2679 47.2827 30.2708 47.1007 30.3198 46.9233C30.3983 46.6359 30.5478 46.516 30.7665 46.5734C31.2756 46.7038 31.9041 49.3672 31.91 49.3925L31.9342 49.3905L31.9579 49.3925C31.9639 49.3672 32.5924 46.7038 33.1014 46.5734C33.3199 46.5157 33.4705 46.6359 33.5485 46.9233C33.5972 47.1007 33.5998 47.2827 33.5998 47.3345C33.5998 47.4027 34.051 48.4133 34.362 48.6547L34.4007 48.6856L34.401 48.6351C34.4013 48.6165 34.4227 46.8073 34.8237 46.2724C35.4388 45.4608 36.3729 44.2346 36.4233 44.1922C36.4704 44.1607 36.8185 43.0999 36.6015 42.3787Z" fill="#4F72E1"/>
<path d="M35.6276 22.0061C35.6276 22.0061 38.325 20.4231 38.8699 20.1504C39.4145 19.8775 39.9312 19.9317 39.7127 20.8582C39.4943 21.7871 39.0062 25.4415 36.4719 24.214C36.4719 24.214 34.5106 23.5861 34.0206 23.2309C34.0206 23.2309 33.8293 23.3132 33.8567 24.0493C33.8567 24.0493 35.8186 29.5874 35.7907 31.25C35.7907 31.25 33.2305 34.5771 32.6588 35.9696C32.0869 37.3593 33.3398 42.0792 37.3713 40.36C37.3713 40.36 43.1465 35.4782 40.422 31.3323C40.422 31.3323 39.3583 29.9141 38.1065 29.3967C38.1065 29.3967 36.8534 26.3679 38.9497 25.8763C41.0468 25.3874 43.5268 23.5077 42.1647 21.0236C40.8024 18.5422 40.1494 17.7498 40.1494 17.7498C40.1494 17.7498 39.2217 16.8511 37.9155 18.0221C36.6076 19.1957 34.1287 21.2418 34.1287 21.2418C34.1287 21.2418 33.6391 22.4155 34.2379 22.6599C34.8368 22.9044 35.6276 22.0061 35.6276 22.0061Z" fill="#4F72E1"/>
</g>
<defs>
<clipPath id="clip0">
<rect width="64" height="64" fill="white" transform="translate(0 0.5)"/>
</clipPath>
</defs>
</svg>
