<svg width="24" height="24" viewBox="0 0 24 24" fill="none" xmlns="http://www.w3.org/2000/svg">
<g clip-path="url(#clip0)">
<path d="M-12 0V24H36V0H-12Z" fill="#012169"/>
<path d="M-12 0L36 24L-12 0ZM36 0L-12 24L36 0Z" fill="black"/>
<path d="M36 0L-12 24M-12 0L36 24L-12 0Z" stroke="white" stroke-width="4.8"/>
<path d="M-12 0L36 24L-12 0ZM36 0L-12 24L36 0Z" fill="black"/>
<path d="M36 0L-12 24M-12 0L36 24L-12 0Z" stroke="#C8102E" stroke-width="3.2"/>
<path d="M12 0V24V0ZM-12 12H36H-12Z" fill="black"/>
<path d="M-12 12H36M12 0V24V0Z" stroke="white" stroke-width="8"/>
<path d="M12 0V24V0ZM-12 12H36H-12Z" fill="black"/>
<path d="M-12 12H36M12 0V24V0Z" stroke="#C8102E" stroke-width="4.8"/>
</g>
<defs>
<clipPath id="clip0">
<path d="M0 0H24V24H0V0Z" fill="white"/>
</clipPath>
</defs>
</svg>
