<svg width="16" height="16" viewBox="0 0 16 16" fill="none" xmlns="http://www.w3.org/2000/svg">
<path fill-rule="evenodd" clip-rule="evenodd" d="M8 16C12.4183 16 16 12.4183 16 8C16 3.58172 12.4183 0 8 0C3.58172 0 0 3.58172 0 8C0 12.4183 3.58172 16 8 16ZM9.13818 9.48467C9.12712 10.3701 8.78125 10.8128 8.10059 10.8128C7.79622 10.8128 7.56104 10.7464 7.39502 10.6136C7.229 10.4752 7.11003 10.2622 7.03809 9.97441C6.96615 9.68112 6.93018 9.16924 6.93018 8.43877V7.52568C6.94124 6.69007 7.03532 6.12839 7.2124 5.84062C7.38949 5.54733 7.68278 5.40068 8.09229 5.40068C8.46305 5.40068 8.72868 5.53626 8.88916 5.80742C9.04964 6.07858 9.13265 6.46595 9.13818 6.96953H11.3462C11.3351 5.84616 11.0446 4.98011 10.4746 4.37139C9.90462 3.75713 9.12435 3.45 8.13379 3.45C6.96061 3.45 6.07243 3.82077 5.46924 4.5623C4.87158 5.30384 4.57275 6.38018 4.57275 7.79131V8.50518C4.58382 9.90524 4.89372 10.965 5.50244 11.6844C6.11117 12.4038 6.99381 12.7635 8.15039 12.7635C9.08561 12.7635 9.84928 12.4619 10.4414 11.8587C11.0335 11.2555 11.3351 10.4642 11.3462 9.48467H9.13818Z" fill="#2F3639"/>
</svg>
