<svg width="24" height="24" viewBox="0 0 24 24" fill="none" xmlns="http://www.w3.org/2000/svg">
<path fill-rule="evenodd" clip-rule="evenodd" d="M2.57859 2.31376C3.84083 1.8992 5.28165 1.96178 6.21376 2.12462C6.26148 2.13295 6.30854 2.14475 6.35455 2.15991L21.2123 7.05447C22.2993 7.41256 23.0879 8.35789 23.2452 9.49149L23.6748 12.5876C23.9251 14.3912 22.5241 16 20.7033 16H9.59026C8.10992 16 6.85088 14.9202 6.6253 13.4571L5.16922 4.0136C4.53051 3.97361 3.80438 4.01628 3.20266 4.2139C2.79505 4.34777 2.50224 4.53362 2.31429 4.75538C2.13981 4.96124 2 5.26196 2 5.75199C2 6.30427 1.55228 6.75199 1 6.75199C0.447715 6.75199 0 6.30427 0 5.75199C0 4.83279 0.280325 4.06192 0.788571 3.46225C1.28335 2.87848 1.93585 2.52486 2.57859 2.31376ZM7.27865 4.57006L20.5865 8.95405C20.9489 9.07341 21.2117 9.38852 21.2642 9.76639L21.6938 12.8625C21.7772 13.4637 21.3102 14 20.7033 14H9.59026C9.09682 14 8.67713 13.6401 8.60194 13.1524L7.27865 4.57006ZM11 19C10.4477 19 10 19.4477 10 20C10 20.5523 10.4477 21 11 21C11.5523 21 12 20.5523 12 20C12 19.4477 11.5523 19 11 19ZM8 20C8 18.3431 9.34315 17 11 17C12.6569 17 14 18.3431 14 20C14 21.6568 12.6569 23 11 23C9.34315 23 8 21.6568 8 20ZM19 20C19 19.4477 19.4477 19 20 19C20.5523 19 21 19.4477 21 20C21 20.5523 20.5523 21 20 21C19.4477 21 19 20.5523 19 20ZM20 17C18.3431 17 17 18.3431 17 20C17 21.6568 18.3431 23 20 23C21.6569 23 23 21.6568 23 20C23 18.3431 21.6569 17 20 17Z" fill="white"/>
</svg>
