<svg width="24" height="24" viewBox="0 0 24 24" fill="none" xmlns="http://www.w3.org/2000/svg">
<g clip-path="url(#clip0)">
<path fill-rule="evenodd" clip-rule="evenodd" d="M24 24V0H-0.111679V24H24Z" fill="#224B8C"/>
<path d="M12.3892 19.644L12.0002 18.5103L11.6112 19.644H10.4257L11.3705 20.3738L11.0273 21.5103L12.0002 20.8324L12.9732 21.5103L12.63 20.3738L13.5744 19.644H12.3892Z" fill="#F2CA30"/>
<path d="M12.3892 3.62338L12.0002 2.48969L11.6112 3.62338H10.4257L11.3705 4.35318L11.0273 5.48969L12.0002 4.81172L12.9732 5.48969L12.63 4.35318L13.5744 3.62338H12.3892Z" fill="#F2CA30"/>
<path d="M20.3995 11.6336L20.0105 10.4999L19.6215 11.6336H18.436L19.3808 12.3634L19.0376 13.4999L20.0105 12.822L20.9835 13.4999L20.6403 12.3634L21.5847 11.6336H20.3995Z" fill="#F2CA30"/>
<path d="M4.37891 11.6336L3.98989 10.4999L3.60088 11.6336H2.41534L3.36016 12.3634L3.01695 13.4999L3.98989 12.822L4.96283 13.4999L4.61963 12.3634L5.56404 11.6336H4.37891Z" fill="#F2CA30"/>
<path d="M16.3944 18.5708L16.0054 17.4371L15.6164 18.5708H14.4308L15.3756 19.3006L15.0324 20.4371L16.0054 19.7591L16.9783 20.4371L16.6351 19.3006L17.5795 18.5708H16.3944Z" fill="#F2CA30"/>
<path d="M8.38407 4.6965L7.99506 3.56281L7.60604 4.6965H6.42051L7.36532 5.4263L7.02212 6.56281L7.99506 5.88485L8.968 6.56281L8.6248 5.4263L9.5692 4.6965H8.38407Z" fill="#F2CA30"/>
<path d="M19.3263 7.62838L18.9373 6.49469L18.5483 7.62838H17.3628L18.3076 8.35819L17.9644 9.49469L18.9373 8.81673L19.9103 9.49469L19.5671 8.35819L20.5115 7.62838H19.3263Z" fill="#F2CA30"/>
<path d="M5.45204 15.6388L5.06303 14.5051L4.67401 15.6388H3.48848L4.43329 16.3686L4.09009 17.5051L5.06303 16.8271L6.03597 17.5051L5.69277 16.3686L6.63717 15.6388H5.45204Z" fill="#F2CA30"/>
<path d="M19.3264 15.6388L18.9374 14.5051L18.5483 15.6388H17.3628L18.3076 16.3686L17.9644 17.5051L18.9374 16.8271L19.9103 17.5051L19.5671 16.3686L20.5115 15.6388H19.3264Z" fill="#F2CA30"/>
<path d="M5.4521 7.6285L5.06309 6.49481L4.67408 7.6285H3.48854L4.43335 8.35831L4.09015 9.49481L5.06309 8.81685L6.03603 9.49481L5.69283 8.35831L6.63723 7.6285H5.4521Z" fill="#F2CA30"/>
<path d="M16.3943 4.69638L16.0053 3.56268L15.6163 4.69638H14.4308L15.3756 5.42618L15.0324 6.56268L16.0053 5.88472L16.9782 6.56268L16.635 5.42618L17.5794 4.69638H16.3943Z" fill="#F2CA30"/>
<path d="M8.38403 18.5708L7.99501 17.4371L7.606 18.5708H6.42046L7.36527 19.3006L7.02207 20.4371L7.99501 19.7591L8.96795 20.4371L8.62475 19.3006L9.56916 18.5708H8.38403Z" fill="#F2CA30"/>
</g>
<path d="M0 0V-1H-1V0H0ZM24 0H25V-1H24V0ZM24 24V25H25V24H24ZM0 24H-1V25H0V24ZM0 1H24V-1H0V1ZM23 0V24H25V0H23ZM24 23H0V25H24V23ZM1 24V0H-1V24H1Z" fill="white"/>
<defs>
<clipPath id="clip0">
<path d="M0 0H24V24H0V0Z" fill="white"/>
</clipPath>
</defs>
</svg>
