<svg width="20" height="21" viewBox="0 0 20 21" fill="none" xmlns="http://www.w3.org/2000/svg">
<path d="M18.3337 10.453C18.3337 5.85094 14.6024 2.11963 10.0003 2.11963C5.3983 2.11963 1.66699 5.85094 1.66699 10.453C1.66699 14.612 4.71392 18.0597 8.69835 18.6855V12.8624H6.58191V10.453H8.69835V8.61661C8.69835 6.52829 9.9429 5.37398 11.8461 5.37398C12.7578 5.37398 13.7117 5.53687 13.7117 5.53687V7.58768H12.6605C11.6257 7.58768 11.3023 8.22988 11.3023 8.88966V10.453H13.6133L13.2441 12.8624H11.3023V18.6855C15.2867 18.0609 18.3337 14.6132 18.3337 10.453Z" fill="#1977F3"/>
<path d="M13.2442 12.8624L13.6134 10.453H11.3024V8.8897C11.3024 8.2311 11.6247 7.58773 12.6606 7.58773H13.7118V5.53692C13.7118 5.53692 12.7579 5.37402 11.8462 5.37402C9.94302 5.37402 8.69847 6.52717 8.69847 8.61665V10.453H6.58203V12.8624H8.69847V18.6856C9.1227 18.7524 9.55747 18.7863 10.0004 18.7863C10.4434 18.7863 10.8782 18.7512 11.3024 18.6856V12.8624H13.2442Z" fill="#FEFEFE"/>
</svg>
