<svg width="24" height="24" viewBox="0 0 24 24" fill="none" xmlns="http://www.w3.org/2000/svg">
<path d="M11.4958 1.36674C11.6545 0.877754 12.3455 0.877754 12.5042 1.36674L14.7375 8.24817C14.8085 8.46685 15.012 8.61491 15.2417 8.61491H22.4689C22.9824 8.61491 23.1959 9.27283 22.7805 9.57504L16.9336 13.828C16.7478 13.9632 16.67 14.2027 16.741 14.4214L18.9743 21.3028C19.133 21.7918 18.574 22.1984 18.1585 21.8962L12.3116 17.6433C12.1258 17.5081 11.8742 17.5081 11.6884 17.6433L5.8415 21.8962C5.42603 22.1984 4.86701 21.7918 5.02571 21.3028L7.25903 14.4214C7.33 14.2027 7.25225 13.9632 7.06644 13.828L1.21954 9.57504C0.804073 9.27283 1.0176 8.61491 1.53115 8.61491H8.75831C8.98798 8.61491 9.19153 8.46685 9.2625 8.24817L11.4958 1.36674Z" fill="#ACAFB0"/>
</svg>
