<svg width="64" height="65" viewBox="0 0 64 65" fill="none" xmlns="http://www.w3.org/2000/svg">
<g clip-path="url(#clip0)">
<path d="M30.6717 0.705268C30.4655 0.807902 30.1176 1.06449 29.8986 1.25692C29.6924 1.44936 28.7389 2.24478 27.7854 3.0017C26.8319 3.77146 25.6335 4.79779 25.1053 5.2853C23.2369 7.00442 22.5668 6.95311 20.0413 4.87477L19.0749 4.07936L18.9847 4.69516C18.9461 5.02872 18.8688 6.32447 18.8172 7.55608C18.6884 10.8147 18.6884 10.8404 16.2917 13.9322C15.2609 15.2664 12.9802 18.4866 12.8771 18.7688C12.8385 18.8715 13.0704 18.9998 13.56 19.1537C14.6939 19.5001 16.5494 20.4366 17.3483 21.0653C18.6755 22.1301 19.513 23.7337 19.7063 25.671L19.7965 26.5305L19.3455 26.6203C18.7141 26.7358 17.5545 26.569 16.6912 26.2483C16.3046 26.1072 15.2738 25.5042 14.3976 24.914L12.7998 23.8364L12.89 24.2597C13.1477 25.4015 13.9466 27.6467 14.5135 28.7885C15.2738 30.3408 16.5365 32.0471 17.606 32.9708L18.392 33.6507L18.6626 33.2659C18.8043 33.0606 19.2553 32.5731 19.6548 32.1754C21.2912 30.5589 22.7086 31.0208 23.9842 33.6123C24.8604 35.3699 25.9686 38.7568 25.9686 39.6548C25.9686 40.1808 25.4274 41.3611 25.131 41.4637C24.5254 41.7075 22.8374 41.3739 21.8582 40.8351C21.5489 40.6683 21.2654 40.54 21.2397 40.5657C21.1624 40.6427 21.8195 42.644 22.4509 44.2477C23.2111 46.1721 24.2033 48.0965 25.2985 49.7643C26.2134 51.1498 27.721 53.0999 27.8885 53.0999C28.0173 53.0999 29.1255 50.0208 29.5378 48.5455C30.1949 46.1721 30.0661 43.773 28.9837 38.4745C28.1075 34.1639 27.3988 32.4448 24.8991 28.5447C22.9792 25.5555 22.3091 23.5541 22.3091 20.8985C22.3091 19.0767 22.5153 18.0632 23.2111 16.5622C24.3579 14.0733 26.5226 12.0335 29.3445 10.8019C30.9294 10.1091 31.4577 10.1348 33.2101 10.9815C37.0241 12.8161 38.9827 14.9714 39.9104 18.3583C40.1553 19.2563 40.1939 19.7567 40.1939 21.4758C40.2068 23.2591 40.1553 23.6696 39.8976 24.619C39.3177 26.6332 38.5317 28.2496 37.2818 29.9431C35.3748 32.5218 34.795 34.2024 34.6017 37.6406C34.4213 40.7068 34.1249 48.0195 33.8801 55.0756C33.7255 59.7069 33.7126 61.4132 33.8286 62.5165C34.009 64.3896 34.0476 64.5435 34.3053 64.4922C34.563 64.4409 34.679 64.056 35.4521 60.4767C36.4443 55.8453 37.0886 53.7542 38.1065 51.9452C38.5575 51.1242 39.3693 50.008 39.9233 49.4179C40.1424 49.187 40.297 48.9817 40.2583 48.956C40.2326 48.9304 39.7945 48.7764 39.2791 48.6225C38.055 48.2632 37.1916 47.5833 36.7149 46.5954C36.3541 45.8642 36.3412 45.8 36.3412 43.7987C36.3541 41.5536 36.5087 40.5272 37.1916 38.3462C38.0034 35.7804 40.2068 32.0214 41.2119 31.5083C42.2427 30.9823 43.1704 31.5981 44.6007 33.7534C45.0646 34.4462 45.4898 34.985 45.5542 34.9465C45.9408 34.7156 48.6467 29.9816 49.5486 27.9802C50.2187 26.4792 51.2495 23.6183 51.1979 23.4387C51.1722 23.3745 50.4893 23.8492 49.6775 24.4907C46.9329 26.6588 45.8506 27.1335 43.8533 27.0693C43.5054 27.0565 43.4925 27.0309 43.4925 26.3124C43.4925 24.5933 44.3559 22.6304 45.683 21.2962C46.5979 20.3725 47.4483 19.7695 49.0203 18.9356L50.0383 18.3968L48.8528 16.7803C48.2086 15.9079 47.1906 14.5608 46.585 13.7911C44.4203 11.0585 44.1368 10.4555 44.1368 8.65939C44.1368 7.74852 43.8147 4.50272 43.7245 4.41292C43.6987 4.38726 43.0029 4.78496 42.1654 5.2853C40.9155 6.0294 40.516 6.19618 39.962 6.2475C39.1502 6.31164 38.7765 6.14486 37.8101 5.2853C35.7356 3.42507 31.651 0.5 31.1484 0.5C31.0969 0.5 30.8907 0.589805 30.6717 0.705268Z" fill="#E9464B"/>
<path d="M30.2851 17.4602C27.7854 20.2442 27.27 20.8985 27.1798 21.3475C27.1154 21.7324 27.1927 21.9761 27.7596 22.9768C29.0224 25.2476 31.5737 29.4043 31.6896 29.3914C31.7541 29.3914 32.6689 27.7236 33.7255 25.6838C35.8258 21.5913 35.8773 21.4373 35.2846 20.5393C34.7048 19.6925 31.7154 16.1645 31.5737 16.1645C31.5092 16.1645 30.9294 16.7418 30.2851 17.4602Z" fill="#E9464B"/>
</g>
<defs>
<clipPath id="clip0">
<rect width="64" height="64" fill="white" transform="translate(0 0.5)"/>
</clipPath>
</defs>
</svg>
