<svg width="24" height="25" viewBox="0 0 24 25" fill="none" xmlns="http://www.w3.org/2000/svg">
<path d="M5.34891 20.4215C5.44181 20.4689 5.64603 20.5483 6.22325 20.5954C6.82642 20.6447 7.62036 20.6464 8.85714 20.6464H15.1429C16.3796 20.6464 17.1736 20.6447 17.7767 20.5954C18.354 20.5483 18.5582 20.4689 18.6511 20.4215C19.0394 20.2237 19.355 19.908 19.5529 19.5197C19.6002 19.4269 19.6796 19.2226 19.7268 18.6454C19.776 18.0422 19.7778 17.2483 19.7778 16.0115V9.7258C19.7778 8.48901 19.776 7.69508 19.7268 7.09191C19.6796 6.51468 19.6002 6.31046 19.5529 6.21756L21.5329 5.20869C22 6.12546 22 7.32557 22 9.7258V16.0115C22 18.4117 22 19.6118 21.5329 20.5286C21.122 21.335 20.4664 21.9907 19.66 22.4015C18.7432 22.8687 17.5431 22.8687 15.1429 22.8687H8.85714C6.45692 22.8687 5.25681 22.8687 4.34004 22.4015L5.34891 20.4215Z" fill="#828688"/>
<path d="M4.34004 22.4015C3.53363 21.9907 2.878 21.335 2.46712 20.5286C2 19.6118 2 18.4117 2 16.0115V9.7258C2 7.32557 2 6.12546 2.46712 5.20869C2.878 4.40228 3.53363 3.74665 4.34004 3.33577C5.25681 2.86865 6.45692 2.86865 8.85714 2.86865H15.1429C17.5431 2.86865 18.7432 2.86865 19.66 3.33577C20.4664 3.74665 21.122 4.40228 21.5329 5.20869L19.5529 6.21756C19.355 5.82929 19.0394 5.51362 18.6511 5.31578C18.5582 5.26845 18.354 5.18904 17.7767 5.14188C17.1736 5.0926 16.3796 5.09087 15.1429 5.09087H8.85714C7.62036 5.09087 6.82642 5.0926 6.22325 5.14188C5.64603 5.18904 5.44181 5.26845 5.34891 5.31578C4.96064 5.51362 4.64496 5.82929 4.44713 6.21756C4.3998 6.31046 4.32039 6.51468 4.27323 7.09191C4.22395 7.69508 4.22222 8.48901 4.22222 9.7258V16.0115C4.22222 17.2483 4.22395 18.0422 4.27323 18.6454C4.32039 19.2226 4.3998 19.4268 4.44713 19.5197C4.64496 19.908 4.96064 20.2237 5.34891 20.4215L4.34004 22.4015Z" fill="#828688"/>
<path fill-rule="evenodd" clip-rule="evenodd" d="M6.64288 12.8687C6.64288 9.90999 9.04135 7.51151 12 7.51151C14.9587 7.51151 17.3572 9.90999 17.3572 12.8687C17.3572 15.8273 14.9587 18.2258 12 18.2258C9.04135 18.2258 6.64288 15.8273 6.64288 12.8687ZM12 9.73373C10.2687 9.73373 8.8651 11.1373 8.8651 12.8687C8.8651 14.6 10.2687 16.0036 12 16.0036C13.7314 16.0036 15.1349 14.6 15.1349 12.8687C15.1349 11.1373 13.7314 9.73373 12 9.73373Z" fill="#828688"/>
<path d="M17.5556 8.42421C18.1692 8.42421 18.6667 7.92675 18.6667 7.3131C18.6667 6.69945 18.1692 6.20199 17.5556 6.20199C16.9419 6.20199 16.4444 6.69945 16.4444 7.3131C16.4444 7.92675 16.9419 8.42421 17.5556 8.42421Z" fill="#828688"/>
</svg>
