<svg width="142" height="43" viewBox="0 0 142 43" fill="none" xmlns="http://www.w3.org/2000/svg">
<g clip-path="url(#clip0)">
<path d="M22.1315 3.75098C18.6431 3.75098 15.2816 4.77018 12.3752 6.69765H7.39492V11.6779C5.46583 14.5844 4.44824 17.9458 4.44824 21.4342C4.44824 24.9227 5.46744 28.2841 7.39492 31.1906V36.1708H12.3752C15.2816 38.0999 18.6431 39.1175 22.1315 39.1175C25.6199 39.1175 28.9814 38.0983 31.8878 36.1708H36.8681V31.1906C38.7972 28.2841 39.8148 24.9227 39.8148 21.4342C39.8148 17.9458 38.7956 14.5844 36.8681 11.6779V6.69765H31.8878C28.9814 4.76857 25.6199 3.75098 22.1315 3.75098ZM22.1315 6.69765C25.1698 6.69765 28.0956 7.62361 30.5873 9.37908L30.9667 9.64432H33.9198V12.5974L34.185 12.9768C35.9405 15.475 36.8665 18.3991 36.8665 21.4326C36.8665 24.4709 35.9405 27.3967 34.185 29.8884L33.9198 30.2678V33.2209H30.9667L30.5873 33.4862C28.0956 35.2416 25.1698 36.1676 22.1315 36.1676C19.098 36.1676 16.1738 35.2416 13.6757 33.4862L13.2963 33.2209H10.3432V30.2678L10.0779 29.8884C8.32248 27.3967 7.39652 24.4709 7.39652 21.4326C7.39652 18.3991 8.32248 15.475 10.0779 12.9768L10.3432 12.5974V9.64432H13.2963L13.6757 9.37908C16.1738 7.62361 19.098 6.69765 22.1315 6.69765ZM11.8157 14.0667L12.9893 15.2403C13.1854 15.4364 13.322 15.684 13.3799 15.954L16.0613 28.014C16.1658 28.5091 16.0147 29.0204 15.6578 29.3788L14.7608 30.2775H20.6558L19.9774 28.9078L22.1299 22.91L24.2824 28.9078L23.604 30.2775H29.499L28.6004 29.3788C28.2435 29.022 28.094 28.5091 28.1969 28.014L30.8783 15.954C30.9362 15.684 31.0744 15.4364 31.2705 15.2403L32.4441 14.0667H26.5491L27.0442 15.057C27.2002 15.3689 27.2404 15.7306 27.1535 16.0698L25.4897 22.7123L22.1283 14.0667L18.7669 22.7123L17.103 16.0698C17.0178 15.7306 17.0564 15.3673 17.2123 15.057L17.7075 14.0667H11.8125H11.8157Z" fill="#C24DFE"/>
<path d="M59.5624 26.6828H66.151V28.6963H57.0406V14.1835H59.5624V26.6828ZM67.3969 23.2042C67.3969 22.1476 67.6062 21.1974 68.0249 20.3534C68.4435 19.5029 69.0316 18.8517 69.7891 18.3998C70.5467 17.9413 71.4172 17.712 72.4006 17.712C73.8559 17.712 75.0354 18.1805 75.9391 19.1175C76.8495 20.0544 77.3412 21.297 77.4143 22.8453L77.4243 23.4135C77.4243 24.4767 77.2183 25.4269 76.8063 26.2642C76.401 27.1015 75.8162 27.7494 75.052 28.2079C74.2945 28.6664 73.4173 28.8956 72.4206 28.8956C70.8989 28.8956 69.6795 28.3906 68.7625 27.3806C67.8521 26.3639 67.3969 25.0116 67.3969 23.3238V23.2042ZM69.819 23.4135C69.819 24.5232 70.0483 25.3937 70.5068 26.025C70.9653 26.6496 71.6032 26.9619 72.4206 26.9619C73.2379 26.9619 73.8725 26.643 74.3244 26.005C74.7829 25.3671 75.0121 24.4335 75.0121 23.2042C75.0121 22.1144 74.7762 21.2505 74.3045 20.6126C73.8393 19.9747 73.2047 19.6557 72.4006 19.6557C71.6099 19.6557 70.9819 19.9713 70.5168 20.6026C70.0516 21.2273 69.819 22.1642 69.819 23.4135ZM79.049 23.2241C79.049 21.5495 79.4411 20.2139 80.2252 19.2171C81.0159 18.2137 82.0625 17.712 83.365 17.712C84.5943 17.712 85.5612 18.1406 86.2655 18.9978L86.3752 17.9114H88.5581V28.3674C88.5581 29.7828 88.1162 30.8991 87.2324 31.7165C86.3552 32.5338 85.1691 32.9425 83.674 32.9425C82.8832 32.9425 82.1091 32.7763 81.3515 32.4441C80.6006 32.1185 80.0292 31.6899 79.6371 31.1583L80.7834 29.703C81.5276 30.5868 82.4446 31.0287 83.5344 31.0287C84.3385 31.0287 84.9731 30.8094 85.4382 30.3708C85.9034 29.9389 86.1359 29.301 86.1359 28.4571V27.7294C85.4382 28.5069 84.5079 28.8956 83.345 28.8956C82.0825 28.8956 81.0492 28.3939 80.2451 27.3905C79.4477 26.3871 79.049 24.9983 79.049 23.2241ZM81.4612 23.4334C81.4612 24.5166 81.6804 25.3704 82.119 25.9951C82.5642 26.6131 83.1789 26.9221 83.963 26.9221C84.9398 26.9221 85.6642 26.5034 86.1359 25.6661V20.9216C85.6774 20.1042 84.9598 19.6956 83.983 19.6956C83.1855 19.6956 82.5642 20.0112 82.119 20.6425C81.6804 21.2738 81.4612 22.2041 81.4612 23.4334ZM90.6014 23.2042C90.6014 22.1476 90.8107 21.1974 91.2294 20.3534C91.648 19.5029 92.2361 18.8517 92.9936 18.3998C93.7512 17.9413 94.6217 17.712 95.6051 17.712C97.0604 17.712 98.2399 18.1805 99.1436 19.1175C100.054 20.0544 100.546 21.297 100.619 22.8453L100.629 23.4135C100.629 24.4767 100.423 25.4269 100.011 26.2642C99.6055 27.1015 99.0207 27.7494 98.2565 28.2079C97.499 28.6664 96.6218 28.8956 95.6251 28.8956C94.1034 28.8956 92.884 28.3906 91.967 27.3806C91.0566 26.3639 90.6014 25.0116 90.6014 23.3238V23.2042ZM93.0235 23.4135C93.0235 24.5232 93.2528 25.3937 93.7113 26.025C94.1698 26.6496 94.8077 26.9619 95.6251 26.9619C96.4424 26.9619 97.077 26.643 97.5289 26.005C97.9874 25.3671 98.2166 24.4335 98.2166 23.2042C98.2166 22.1144 97.9807 21.2505 97.5089 20.6126C97.0438 19.9747 96.4092 19.6557 95.6051 19.6557C94.8144 19.6557 94.1864 19.9713 93.7213 20.6026C93.2561 21.2273 93.0235 22.1642 93.0235 23.4135ZM105.712 15.2899V17.9114H107.616V19.7055H105.712V25.726C105.712 26.1379 105.792 26.437 105.951 26.623C106.118 26.8025 106.41 26.8922 106.829 26.8922C107.108 26.8922 107.39 26.8589 107.676 26.7925V28.6664C107.124 28.8192 106.593 28.8956 106.081 28.8956C104.22 28.8956 103.29 27.869 103.29 25.8157V19.7055H101.516V17.9114H103.29V15.2899H105.712ZM113.248 25.2276L115.441 17.9114H118.022L113.736 30.331C113.078 32.1451 111.962 33.0521 110.387 33.0521C110.035 33.0521 109.646 32.9923 109.221 32.8727V30.9988L109.679 31.0287C110.291 31.0287 110.749 30.9157 111.055 30.6898C111.367 30.4705 111.613 30.0984 111.792 29.5734L112.141 28.6465L108.354 17.9114H110.965L113.248 25.2276ZM128.867 23.4135C128.867 25.0814 128.488 26.4137 127.731 27.4105C126.973 28.4006 125.956 28.8956 124.681 28.8956C123.498 28.8956 122.551 28.5069 121.84 27.7294V32.8428H119.418V17.9114H121.65L121.75 19.0078C122.461 18.144 123.428 17.712 124.651 17.712C125.966 17.712 126.996 18.2038 127.741 19.1872C128.491 20.1641 128.867 21.523 128.867 23.264V23.4135ZM126.455 23.2042C126.455 22.1277 126.239 21.2738 125.807 20.6425C125.382 20.0112 124.77 19.6956 123.973 19.6956C122.983 19.6956 122.272 20.1042 121.84 20.9216V25.706C122.278 26.5433 122.996 26.9619 123.993 26.9619C124.764 26.9619 125.365 26.6529 125.797 26.0349C126.235 25.4103 126.455 24.4667 126.455 23.2042ZM135.675 28.8956C134.14 28.8956 132.894 28.4139 131.937 27.4503C130.987 26.4802 130.512 25.191 130.512 23.5829V23.2839C130.512 22.2074 130.718 21.2472 131.13 20.4033C131.548 19.5527 132.133 18.8915 132.884 18.4197C133.635 17.9479 134.472 17.712 135.396 17.712C136.864 17.712 137.997 18.1805 138.795 19.1175C139.599 20.0544 140.001 21.3801 140.001 23.0945V24.0713H132.954C133.027 24.9618 133.322 25.6661 133.841 26.1845C134.366 26.7028 135.024 26.9619 135.814 26.9619C136.924 26.9619 137.828 26.5134 138.525 25.6163L139.831 26.8623C139.399 27.5068 138.821 28.0085 138.097 28.3674C137.379 28.7195 136.572 28.8956 135.675 28.8956ZM135.386 19.6557C134.721 19.6557 134.183 19.8883 133.771 20.3534C133.366 20.8186 133.106 21.4665 132.993 22.2971H137.608V22.1177C137.555 21.307 137.339 20.6957 136.961 20.2837C136.582 19.865 136.057 19.6557 135.386 19.6557Z" fill="#D5D7D7"/>
</g>
<defs>
<clipPath id="clip0">
<rect width="140.606" height="42.8685" fill="white" transform="translate(0.697266)"/>
</clipPath>
</defs>
</svg>
