<svg width="16" height="16" viewBox="0 0 16 16" fill="none" xmlns="http://www.w3.org/2000/svg">
<path d="M13 2C13 3.10457 12.1046 4 11 4C10.8208 4 10.6472 3.97644 10.482 3.93226L6.93226 7.48196C6.97644 7.64718 7 7.82084 7 8C7 8.17916 6.97644 8.35282 6.93226 8.51804L10.482 12.0677C10.6472 12.0236 10.8208 12 11 12C12.1046 12 13 12.8954 13 14C13 15.1046 12.1046 16 11 16C9.89543 16 9 15.1046 9 14C9 13.8208 9.02356 13.6472 9.06774 13.482L5.51804 9.93226C5.35282 9.97644 5.17916 10 5 10C3.89543 10 3 9.10457 3 8C3 6.89543 3.89543 6 5 6C5.17916 6 5.35282 6.02356 5.51804 6.06774L9.06774 2.51804C9.02356 2.35282 9 2.17916 9 2C9 0.895431 9.89543 0 11 0C12.1046 0 13 0.895431 13 2Z" fill="#ACAFB0"/>
</svg>
