<svg width="24" height="25" viewBox="0 0 24 25" fill="none" xmlns="http://www.w3.org/2000/svg">
<path fill-rule="evenodd" clip-rule="evenodd" d="M23 6.11934C22.1893 6.49969 21.3196 6.75791 20.4071 6.87306C21.3393 6.27986 22.0548 5.33771 22.3895 4.2176C21.5165 4.76893 20.5515 5.16672 19.5242 5.38307C18.7004 4.45139 17.5287 3.86865 16.229 3.86865C13.7379 3.86865 11.7161 6.01815 11.7161 8.66663C11.7161 9.04349 11.7555 9.40988 11.8343 9.75883C8.0828 9.55993 4.75802 7.64772 2.53275 4.7445C2.14546 5.45286 1.92227 6.27637 1.92227 7.1557C1.92227 8.82017 2.71983 10.2892 3.93093 11.1476C3.19245 11.1232 2.49664 10.9069 1.88617 10.5474C1.88617 10.5684 1.88617 10.5858 1.88617 10.6068C1.88617 12.9307 3.44189 14.8709 5.50634 15.3105C5.1289 15.4187 4.72848 15.478 4.31822 15.478C4.02611 15.478 3.74385 15.4466 3.46815 15.3908C4.04252 17.296 5.70983 18.6848 7.68238 18.7232C6.13651 20.0108 4.1935 20.7785 2.07653 20.7785C1.71222 20.7785 1.35447 20.7541 1 20.7122C2.99552 22.0731 5.36849 22.8687 7.91869 22.8687C16.2192 22.8687 20.7583 15.5583 20.7583 9.21796C20.7583 9.0086 20.755 8.80272 20.7452 8.59684C21.6281 7.91989 22.3928 7.07545 22.9967 6.11236L23 6.11934Z" fill="#828688"/>
</svg>
