<svg width="24" height="24" viewBox="0 0 24 24" fill="none" xmlns="http://www.w3.org/2000/svg">
<g clip-path="url(#clip0)">
<path d="M39.571 0H-6.02903V24H39.571V0Z" fill="#B22234"/>
<path d="M-6.02903 2.76923H39.571H-6.02903ZM39.571 6.46153H-6.02903H39.571ZM-6.02903 10.1538H39.571H-6.02903ZM39.571 13.8462H-6.02903H39.571ZM-6.02903 17.5385H39.571H-6.02903ZM39.571 21.2308H-6.02903H39.571Z" fill="black"/>
<path d="M39.571 21.2308H-6.02903M-6.02903 2.76923H39.571H-6.02903ZM39.571 6.46153H-6.02903H39.571ZM-6.02903 10.1538H39.571H-6.02903ZM39.571 13.8461H-6.02903H39.571ZM-6.02903 17.5385H39.571H-6.02903Z" stroke="white" stroke-width="1.84615"/>
<path d="M12.211 0H-6.02903V12.9231H12.211V0Z" fill="#3C3B6E"/>
<path d="M-4.50903 0.553833L-4.07497 1.88972L-5.21135 1.0641H-3.80671L-4.94309 1.88972L-4.50903 0.553833Z" fill="white"/>
<path d="M-1.4498 0.553868L-1.01574 1.88976L-2.15212 1.06413H-0.74748L-1.88386 1.88976L-1.4498 0.553868Z" fill="white"/>
<path d="M1.5779 0.553868L2.01195 1.88976L0.875577 1.06413H2.28021L1.14384 1.88976L1.5779 0.553868Z" fill="white"/>
<path d="M4.60559 0.553868L5.03965 1.88976L3.90327 1.06413H5.30791L4.17153 1.88976L4.60559 0.553868Z" fill="white"/>
<path d="M7.63328 0.553868L8.06733 1.88976L6.93096 1.06413H8.33559L7.19922 1.88976L7.63328 0.553868Z" fill="white"/>
<path d="M10.661 0.553868L11.095 1.88976L9.95865 1.06413H11.3633L10.2269 1.88976L10.661 0.553868Z" fill="white"/>
<path d="M-2.96364 2.2959L-2.52958 3.63179L-3.66595 2.80616H-2.26132L-3.39769 3.63179L-2.96364 2.2959Z" fill="white"/>
<path d="M0.0956082 2.29586L0.529665 3.63175L-0.60671 2.80612H0.797927L-0.338449 3.63175L0.0956082 2.29586Z" fill="white"/>
<path d="M3.12329 2.29586L3.55735 3.63175L2.42097 2.80612H3.82561L2.68924 3.63175L3.12329 2.29586Z" fill="white"/>
<path d="M6.15099 2.29586L6.58504 3.63175L5.44867 2.80612H6.85331L5.71693 3.63175L6.15099 2.29586Z" fill="white"/>
<path d="M9.17868 2.29586L9.61274 3.63175L8.47636 2.80612H9.881L8.74463 3.63175L9.17868 2.29586Z" fill="white"/>
<path d="M-4.50903 4.03796L-4.07497 5.37385L-5.21135 4.54823H-3.80671L-4.94309 5.37385L-4.50903 4.03796Z" fill="white"/>
<path d="M-1.4498 4.03795L-1.01574 5.37384L-2.15212 4.54822H-0.74748L-1.88386 5.37384L-1.4498 4.03795Z" fill="white"/>
<path d="M1.5779 4.03795L2.01195 5.37384L0.875577 4.54822H2.28021L1.14384 5.37384L1.5779 4.03795Z" fill="white"/>
<path d="M4.60559 4.03795L5.03965 5.37384L3.90327 4.54822H5.30791L4.17153 5.37384L4.60559 4.03795Z" fill="white"/>
<path d="M7.63328 4.03795L8.06733 5.37384L6.93096 4.54822H8.33559L7.19922 5.37384L7.63328 4.03795Z" fill="white"/>
<path d="M10.661 4.03795L11.095 5.37384L9.95865 4.54822H11.3633L10.2269 5.37384L10.661 4.03795Z" fill="white"/>
<path d="M-2.96364 5.77991L-2.52958 7.1158L-3.66595 6.29017H-2.26132L-3.39769 7.1158L-2.96364 5.77991Z" fill="white"/>
<path d="M0.0956082 5.77994L0.529665 7.11583L-0.60671 6.29021H0.797927L-0.338449 7.11583L0.0956082 5.77994Z" fill="white"/>
<path d="M3.12329 5.77994L3.55735 7.11583L2.42097 6.29021H3.82561L2.68924 7.11583L3.12329 5.77994Z" fill="white"/>
<path d="M6.15099 5.77994L6.58504 7.11583L5.44867 6.29021H6.85331L5.71693 7.11583L6.15099 5.77994Z" fill="white"/>
<path d="M9.17868 5.77994L9.61274 7.11583L8.47636 6.29021H9.881L8.74463 7.11583L9.17868 5.77994Z" fill="white"/>
<path d="M-4.50903 7.52209L-4.07497 8.85798L-5.21135 8.03236H-3.80671L-4.94309 8.85798L-4.50903 7.52209Z" fill="white"/>
<path d="M-1.4498 7.52204L-1.01574 8.85793L-2.15212 8.0323H-0.74748L-1.88386 8.85793L-1.4498 7.52204Z" fill="white"/>
<path d="M1.5779 7.52204L2.01195 8.85793L0.875577 8.0323H2.28021L1.14384 8.85793L1.5779 7.52204Z" fill="white"/>
<path d="M4.60559 7.52204L5.03965 8.85793L3.90327 8.0323H5.30791L4.17153 8.85793L4.60559 7.52204Z" fill="white"/>
<path d="M7.63328 7.52204L8.06733 8.85793L6.93096 8.0323H8.33559L7.19922 8.85793L7.63328 7.52204Z" fill="white"/>
<path d="M10.661 7.52204L11.095 8.85793L9.95865 8.0323H11.3633L10.2269 8.85793L10.661 7.52204Z" fill="white"/>
<path d="M-4.50903 11.0061L-4.07497 12.342L-5.21135 11.5164H-3.80671L-4.94309 12.342L-4.50903 11.0061Z" fill="white"/>
<path d="M-1.4498 11.0061L-1.01574 12.342L-2.15212 11.5164H-0.74748L-1.88386 12.342L-1.4498 11.0061Z" fill="white"/>
<path d="M1.5779 11.0061L2.01195 12.342L0.875577 11.5164H2.28021L1.14384 12.342L1.5779 11.0061Z" fill="white"/>
<path d="M4.60559 11.0061L5.03965 12.342L3.90327 11.5164H5.30791L4.17153 12.342L4.60559 11.0061Z" fill="white"/>
<path d="M7.63328 11.0061L8.06733 12.342L6.93096 11.5164H8.33559L7.19922 12.342L7.63328 11.0061Z" fill="white"/>
<path d="M10.661 11.0061L11.095 12.342L9.95865 11.5164H11.3633L10.2269 12.342L10.661 11.0061Z" fill="white"/>
<path d="M-2.96364 9.26404L-2.52958 10.5999L-3.66595 9.7743H-2.26132L-3.39769 10.5999L-2.96364 9.26404Z" fill="white"/>
<path d="M0.0956082 9.26403L0.529665 10.5999L-0.60671 9.77429H0.797927L-0.338449 10.5999L0.0956082 9.26403Z" fill="white"/>
<path d="M3.12329 9.26403L3.55735 10.5999L2.42097 9.77429H3.82561L2.68924 10.5999L3.12329 9.26403Z" fill="white"/>
<path d="M6.15099 9.26403L6.58504 10.5999L5.44867 9.77429H6.85331L5.71693 10.5999L6.15099 9.26403Z" fill="white"/>
<path d="M9.17868 9.26403L9.61274 10.5999L8.47636 9.77429H9.881L8.74463 10.5999L9.17868 9.26403Z" fill="white"/>
</g>
<path d="M0 0V-1H-1V0H0ZM24 0H25V-1H24V0ZM24 24V25H25V24H24ZM0 24H-1V25H0V24ZM0 1H24V-1H0V1ZM23 0V24H25V0H23ZM24 23H0V25H24V23ZM1 24V0H-1V24H1Z" fill="white"/>
<defs>
<clipPath id="clip0">
<path d="M0 0H24V24H0V0Z" fill="white"/>
</clipPath>
</defs>
</svg>
