<svg width="24" height="25" viewBox="0 0 24 25" fill="none" xmlns="http://www.w3.org/2000/svg">
<path d="M11.9932 5.86865C11.9932 5.86865 5.11728 5.86866 3.39152 6.30556C2.46749 6.5571 1.70662 7.2984 1.44844 8.21191C1.00001 9.89329 1 13.3753 1 13.3753C1 13.3753 1.00001 16.8705 1.44844 18.5254C1.70662 19.4389 2.4539 20.167 3.39152 20.4185C5.13087 20.8686 11.9932 20.8687 11.9932 20.8687C11.9932 20.8687 18.8827 20.8686 20.6084 20.4317C21.5461 20.1802 22.2933 19.4654 22.5379 18.5386C22.9999 16.8705 23 13.3885 23 13.3885C23 13.3885 23.0135 9.89329 22.5379 8.21191C22.2933 7.2984 21.5461 6.57035 20.6084 6.33205C18.8827 5.86867 11.9932 5.86865 11.9932 5.86865ZM9.80538 10.1582L15.5263 13.3753L9.80538 16.5791V10.1582Z" fill="#828688"/>
</svg>
