<svg width="1264" height="560" xmlns="http://www.w3.org/2000/svg">

 <g>
  <title>background</title>
  <rect fill="none" id="canvas_background" height="602" width="802" y="-1" x="-1"/>
 </g>
 <g>
  <title>Layer 1</title>
  <g stroke="null" id="svg_8">
   <path stroke="null" id="svg_6" fill="#2F3639" d="m886.43732,284.5097l-27.95715,-9.20258c11.26782,-33.38054 29.34253,-54.20352 54.61017,-60.44118c13.1554,-3.24774 33.04333,-24.15865 33.04333,-36.81035l29.4707,0c0,26.14928 -29.22931,58.58972 -55.36694,65.04221c-14.02539,3.46245 -25.42065,16.59009 -33.80011,41.4119z" opacity="0.3"/>
   <path stroke="null" id="svg_7" fill="#2F3639" d="m810.86237,265.35815l123.4942,0c19.98956,-3.94778 40.49365,6.20547 48.99872,25.02869l50.44781,111.65335c7.6095,16.84232 3.67883,36.59097 -9.82062,49.33621l-2.61334,2.46713c-18.0481,17.03876 -46.79559,15.94666 -63.46362,-2.41302l-36.83173,-40.56934l-94.81305,0l-36.83173,40.57019c-16.66772,18.35883 -45.41541,19.45178 -63.46326,2.41217l-2.94769,-2.7832c-13.33521,-12.58981 -17.34967,-32.03372 -10.07001,-48.77396l48.43665,-111.38269c8.35699,-19.21869 29.18134,-29.6644 49.47766,-25.54553zm32.13452,72.75159c0,16.07227 -13.19434,29.10037 -29.46985,29.10037c-16.27637,0 -29.46979,-13.02811 -29.46979,-29.10037c0,-16.07147 13.19342,-29.10046 29.46979,-29.10046c16.27551,0 29.46985,13.02899 29.46985,29.10046zm103.14569,0c8.13812,0 14.73535,-6.5145 14.73535,-14.55069c0,-8.03528 -6.59723,-14.54977 -14.73535,-14.54977c-8.13831,0 -14.73541,6.5145 -14.73541,14.54977c0,8.03619 6.59711,14.55069 14.73541,14.55069zm-14.73541,14.5506c0,8.03528 -6.59723,14.54977 -14.73444,14.54977c-8.13812,0 -14.73535,-6.5145 -14.73535,-14.54977c0,-8.03619 6.59723,-14.5506 14.73535,-14.5506c8.13721,0 14.73444,6.5144 14.73444,14.5506z" clip-rule="evenodd" fill-rule="evenodd"/>
  </g>
  <path id="svg_1" fill="#C24DFE" d="m1652.60999,-511c-642.60999,1377 -1855.10999,1288.5 -2060.513,1288.5l278.45302,166.81897l2046.45,0l-264.39001,-1455.31897z"/>
  <path id="svg_2" fill="#2F3639" d="m1828.60999,-599c-642.60999,1377 -1855.10999,1288.5 -2060.51299,1288.5l278.4527,166.81897l2046.4503,0l-264.39001,-1455.31897z"/>
 </g>
</svg>