<svg width="24" height="24" viewBox="0 0 24 24" fill="none" xmlns="http://www.w3.org/2000/svg">
<path fill-rule="evenodd" clip-rule="evenodd" d="M16 6C15.4477 6 15 5.55228 15 5V2C15 1.44771 15.4477 1 16 1C16.5523 1 17 1.44772 17 2V5C17 5.55228 16.5523 6 16 6ZM23 18C23 20.2091 21.2091 22 19 22L5 22C2.79086 22 1 20.2091 1 18V3C1 2.44771 1.44772 2 2 2C2.55229 2 3 2.44771 3 3L3 18C3 19.1046 3.89543 20 5 20L19 20C20.1046 20 21 19.1046 21 18L21 3C21 2.44772 21.4477 2 22 2C22.5523 2 23 2.44772 23 3L23 18ZM11 5C11 5.55228 11.4477 6 12 6C12.5523 6 13 5.55228 13 5V2C13 1.44772 12.5523 1 12 1C11.4477 1 11 1.44771 11 2V5ZM8 6C7.44772 6 7 5.55228 7 5L7 2C7 1.44771 7.44772 1 8 1C8.55229 1 9 1.44772 9 2V5C9 5.55228 8.55228 6 8 6ZM14.1641 18.5C14.6258 18.5 15 18.1258 15 17.6641C15 17.2025 14.6258 16.8283 14.1641 16.8283H11.6327L12.9048 14.9289C13.6122 14.0515 14.0998 13.314 14.3673 12.7165C14.6395 12.1142 14.7755 11.5213 14.7755 10.938C14.7755 9.99898 14.5306 9.27575 14.0408 8.76829C13.5556 8.2561 12.8707 8 11.9864 8C11.4104 8 10.8934 8.14702 10.4354 8.44106C9.98186 8.73035 9.62812 9.13821 9.37415 9.66463C9.25604 9.9139 9.16589 10.1754 9.10371 10.4491C8.98552 10.9694 9.43249 11.4075 9.96599 11.4075C10.4995 11.4075 10.8942 10.9612 11.0586 10.4537C11.098 10.3324 11.1464 10.2235 11.2041 10.127C11.39 9.82351 11.6395 9.67175 11.9524 9.67175C12.2381 9.67175 12.4558 9.80217 12.6054 10.063C12.7596 10.3238 12.8367 10.6843 12.8367 11.1443C12.8367 11.4858 12.7551 11.8438 12.5918 12.2185C12.4331 12.5884 12.1837 13.02 11.8435 13.5132L9.3774 16.7925C9.23842 16.9773 9.16327 17.2023 9.16327 17.4335C9.16327 18.0225 9.64075 18.5 10.2298 18.5H14.1641Z" fill="#C24DFE"/>
</svg>
