<svg width="128" height="58" viewBox="0 0 128 58" fill="none" xmlns="http://www.w3.org/2000/svg">
<path d="M33.6424 23.2734H46.5918V25.6792H41.4931V39.2409H38.6984V25.6792H33.6211L33.6424 23.2734ZM46.0371 27.6804H48.4264V29.9159H48.4691C48.5544 29.5965 48.7038 29.2985 48.9171 29.0004C49.1304 28.7024 49.3864 28.4256 49.7064 28.1914C50.0051 27.9359 50.3464 27.7443 50.7304 27.5953C51.0931 27.4463 51.4771 27.3611 51.8611 27.3611C52.1598 27.3611 52.3731 27.3824 52.4798 27.3824C52.5864 27.4037 52.7144 27.425 52.8211 27.425V29.8733C52.6504 29.8307 52.4584 29.8094 52.2664 29.7881C52.0744 29.7668 51.9038 29.7456 51.7118 29.7456C51.2851 29.7456 50.8798 29.8307 50.4958 30.001C50.1118 30.1714 49.7918 30.4268 49.4931 30.7462C49.2158 31.0868 48.9811 31.4913 48.8104 31.981C48.6398 32.4707 48.5544 33.0455 48.5544 33.6842V39.177H45.9944L46.0371 27.6804ZM64.5544 39.2409H62.0371V37.6228H61.9944C61.6744 38.2189 61.2051 38.666 60.5864 39.028C59.9678 39.3899 59.3278 39.5602 58.6878 39.5602C57.1731 39.5602 56.0638 39.1983 55.3811 38.4318C54.6984 37.6867 54.3571 36.537 54.3571 35.0255V27.6804H56.9171V34.77C56.9171 35.7919 57.1091 36.5157 57.5144 36.9202C57.8984 37.346 58.4531 37.5589 59.1571 37.5589C59.6904 37.5589 60.1384 37.4738 60.5011 37.3035C60.8638 37.1332 61.1624 36.9203 61.3758 36.6435C61.6104 36.3667 61.7598 36.0261 61.8664 35.6429C61.9731 35.2596 62.0158 34.8338 62.0158 34.3868V27.6804H64.5758V39.2409H64.5544ZM68.9064 35.5364C68.9918 36.2816 69.2691 36.7925 69.7598 37.1119C70.2504 37.4099 70.8478 37.5589 71.5304 37.5589C71.7651 37.5589 72.0424 37.5377 72.3411 37.4951C72.6398 37.4525 72.9384 37.3886 73.1944 37.2822C73.4718 37.1757 73.6851 37.0267 73.8558 36.8138C74.0264 36.6009 74.1118 36.3454 74.0904 36.0261C74.0691 35.7067 73.9624 35.43 73.7278 35.2171C73.4931 35.0042 73.2158 34.8551 72.8744 34.7061C72.5331 34.5784 72.1278 34.4719 71.6798 34.3868C71.2318 34.3016 70.7838 34.1951 70.3144 34.0887C69.8451 33.9822 69.3758 33.8545 68.9278 33.7055C68.4798 33.5565 68.0958 33.3648 67.7331 33.0881C67.3918 32.8326 67.0931 32.5132 66.9011 32.1087C66.6878 31.7042 66.5811 31.2358 66.5811 30.6397C66.5811 30.001 66.7304 29.4901 67.0504 29.0643C67.3491 28.6385 67.7544 28.2978 68.2238 28.0424C68.6931 27.7869 69.2264 27.5953 69.8024 27.4888C70.3784 27.3824 70.9331 27.3398 71.4451 27.3398C72.0424 27.3398 72.6184 27.4037 73.1518 27.5314C73.6851 27.6592 74.1971 27.8508 74.6238 28.1488C75.0718 28.4256 75.4344 28.8088 75.7118 29.2559C76.0104 29.703 76.1811 30.2565 76.2664 30.8952H73.5998C73.4718 30.2778 73.1944 29.8733 72.7678 29.6604C72.3198 29.4475 71.8291 29.3411 71.2531 29.3411C71.0824 29.3411 70.8478 29.3623 70.6131 29.3836C70.3571 29.4262 70.1438 29.4688 69.9091 29.554C69.6958 29.6391 69.5038 29.7668 69.3544 29.9159C69.2051 30.0649 69.1198 30.2778 69.1198 30.5333C69.1198 30.8526 69.2264 31.0868 69.4398 31.2784C69.6531 31.47 69.9304 31.6191 70.2931 31.7681C70.6344 31.8958 71.0398 32.0023 71.4878 32.0874C71.9358 32.1726 72.4051 32.2791 72.8744 32.3855C73.3438 32.492 73.7918 32.6197 74.2398 32.7687C74.6878 32.9178 75.0931 33.1094 75.4344 33.3861C75.7758 33.6416 76.0744 33.961 76.2878 34.3442C76.5011 34.7274 76.6078 35.2171 76.6078 35.7706C76.6078 36.4519 76.4584 37.0267 76.1384 37.5164C75.8184 37.9847 75.4131 38.3893 74.9224 38.6873C74.4318 38.9854 73.8558 39.1983 73.2584 39.3473C72.6398 39.475 72.0424 39.5602 71.4451 39.5602C70.7198 39.5602 70.0371 39.475 69.4184 39.3047C68.7998 39.1344 68.2451 38.8789 67.7971 38.5596C67.3491 38.2189 66.9864 37.8144 66.7304 37.3035C66.4744 36.8138 66.3251 36.2177 66.3038 35.5151H68.8851V35.5364H68.9064ZM77.3331 27.6804H79.2744V24.1889H81.8344V27.6591H84.1384V29.554H81.8344V35.728C81.8344 36.0048 81.8558 36.2177 81.8771 36.4306C81.8984 36.6222 81.9624 36.7925 82.0264 36.9202C82.1118 37.048 82.2398 37.1544 82.3891 37.2183C82.5598 37.2822 82.7731 37.3248 83.0718 37.3248C83.2424 37.3248 83.4344 37.3248 83.6051 37.3035C83.7758 37.2822 83.9678 37.2609 84.1384 37.2183V39.1983C83.8611 39.2408 83.5838 39.2621 83.3064 39.2834C83.0291 39.326 82.7731 39.326 82.4744 39.326C81.7918 39.326 81.2584 39.2621 80.8531 39.1344C80.4478 39.0067 80.1278 38.8151 79.8931 38.5809C79.6584 38.3254 79.5091 38.0273 79.4238 37.6654C79.3384 37.3035 79.2958 36.8564 79.2744 36.388V29.5752H77.3331V27.6379V27.6804ZM85.9304 27.6804H88.3411V29.2559H88.3838C88.7464 28.5746 89.2371 28.1062 89.8771 27.8082C90.5171 27.5101 91.1998 27.3611 91.9678 27.3611C92.8851 27.3611 93.6744 27.5101 94.3571 27.8508C95.0398 28.1701 95.5944 28.5959 96.0424 29.1707C96.4904 29.7243 96.8318 30.3843 97.0451 31.1294C97.2584 31.8746 97.3864 32.6836 97.3864 33.5139C97.3864 34.3016 97.2798 35.0467 97.0878 35.7706C96.8744 36.4945 96.5758 37.1544 96.1704 37.708C95.7651 38.2615 95.2531 38.7086 94.6131 39.0492C93.9731 39.3899 93.2478 39.5602 92.3944 39.5602C92.0318 39.5602 91.6478 39.5176 91.2851 39.4538C90.9224 39.3899 90.5598 39.2834 90.2184 39.1344C89.8771 38.9854 89.5571 38.7938 89.2798 38.5596C88.9811 38.3254 88.7464 38.0486 88.5544 37.7506H88.5118V43.5201H85.9518V27.6804H85.9304ZM94.8691 33.4713C94.8691 32.9603 94.8051 32.4494 94.6558 31.9597C94.5278 31.47 94.3144 31.0442 94.0371 30.661C93.7598 30.2778 93.4184 29.9798 93.0344 29.7456C92.6291 29.5114 92.1598 29.4049 91.6478 29.4049C90.5811 29.4049 89.7704 29.7669 89.2158 30.512C88.6824 31.2571 88.4051 32.2578 88.4051 33.4926C88.4051 34.0887 88.4691 34.6209 88.6184 35.1106C88.7678 35.6003 88.9598 36.0261 89.2584 36.388C89.5358 36.7499 89.8771 37.0267 90.2824 37.2396C90.6878 37.4525 91.1358 37.5589 91.6691 37.5589C92.2664 37.5589 92.7358 37.4312 93.1411 37.197C93.5464 36.9628 93.8664 36.6435 94.1438 36.2816C94.3998 35.8983 94.5918 35.4725 94.6984 34.9829C94.8051 34.4719 94.8691 33.9822 94.8691 33.4713ZM99.3704 23.2734H101.93V25.6792H99.3704V23.2734ZM99.3704 27.6804H101.93V39.2409H99.3704V27.6804ZM104.213 23.2734H106.773V39.2409H104.213V23.2734ZM114.581 39.5602C113.664 39.5602 112.832 39.4112 112.106 39.0918C111.381 38.7725 110.784 38.368 110.272 37.8357C109.781 37.3035 109.397 36.6435 109.141 35.8983C108.885 35.1532 108.736 34.3229 108.736 33.45C108.736 32.5771 108.864 31.7681 109.141 31.023C109.397 30.2778 109.781 29.6391 110.272 29.0856C110.762 28.5533 111.381 28.1275 112.106 27.8295C112.832 27.5314 113.664 27.3611 114.581 27.3611C115.498 27.3611 116.33 27.5101 117.056 27.8295C117.781 28.1275 118.378 28.5533 118.89 29.0856C119.381 29.6178 119.765 30.2778 120.021 31.023C120.277 31.7681 120.426 32.5771 120.426 33.45C120.426 34.3442 120.298 35.1532 120.021 35.8983C119.744 36.6435 119.381 37.2822 118.89 37.8357C118.4 38.368 117.781 38.7938 117.056 39.0918C116.33 39.3899 115.52 39.5602 114.581 39.5602ZM114.581 37.5377C115.136 37.5377 115.648 37.4099 116.053 37.1757C116.48 36.9415 116.8 36.6222 117.077 36.239C117.354 35.8558 117.546 35.4087 117.674 34.9403C117.802 34.4506 117.866 33.961 117.866 33.45C117.866 32.9603 117.802 32.4707 117.674 31.981C117.546 31.4913 117.354 31.0655 117.077 30.6823C116.8 30.2991 116.458 30.001 116.053 29.7669C115.626 29.5327 115.136 29.4049 114.581 29.4049C114.026 29.4049 113.514 29.5327 113.109 29.7669C112.682 30.001 112.362 30.3204 112.085 30.6823C111.808 31.0655 111.616 31.4913 111.488 31.981C111.36 32.4707 111.296 32.9603 111.296 33.45C111.296 33.961 111.36 34.4506 111.488 34.9403C111.616 35.43 111.808 35.8558 112.085 36.239C112.362 36.6222 112.704 36.9415 113.109 37.1757C113.536 37.4312 114.026 37.5377 114.581 37.5377ZM121.194 27.6804H123.136V24.1889H125.696V27.6591H128V29.554H125.696V35.728C125.696 36.0048 125.717 36.2177 125.738 36.4306C125.76 36.6222 125.824 36.7925 125.888 36.9202C125.973 37.048 126.101 37.1544 126.25 37.2183C126.421 37.2822 126.634 37.3248 126.933 37.3248C127.104 37.3248 127.296 37.3248 127.466 37.3035C127.637 37.2822 127.829 37.2609 128 37.2183V39.1983C127.722 39.2408 127.445 39.2621 127.168 39.2834C126.89 39.326 126.634 39.326 126.336 39.326C125.653 39.326 125.12 39.2621 124.714 39.1344C124.309 39.0067 123.989 38.8151 123.754 38.5809C123.52 38.3254 123.37 38.0273 123.285 37.6654C123.2 37.3035 123.157 36.8564 123.136 36.388V29.5752H121.194V27.6379V27.6804Z" fill="black"/>
<path d="M30.656 23.2735H18.944L15.3387 12.1602L11.712 23.2735L0 23.2522L9.472 30.1288L5.84533 41.2421L15.3173 34.3655L24.7893 41.2421L21.184 30.1288L30.656 23.2735Z" fill="#00B67A"/>
<path d="M21.9939 32.6411L21.1832 30.1289L15.3379 34.3656L21.9939 32.6411Z" fill="#005128"/>
</svg>
