<svg width="80" height="37" viewBox="0 0 80 37" fill="none" xmlns="http://www.w3.org/2000/svg">
<path d="M21.027 14.5459H29.1203V16.0495H25.9337V24.5255H24.187V16.0495H21.0137L21.027 14.5459ZM28.7737 17.3003H30.267V18.6974H30.2937C30.347 18.4978 30.4403 18.3115 30.5737 18.1253C30.707 17.939 30.867 17.766 31.067 17.6196C31.2537 17.4599 31.467 17.3402 31.707 17.2471C31.9337 17.1539 32.1737 17.1007 32.4137 17.1007C32.6003 17.1007 32.7337 17.114 32.8003 17.114C32.867 17.1273 32.947 17.1406 33.0137 17.1406V18.6708C32.907 18.6442 32.787 18.6309 32.667 18.6176C32.547 18.6043 32.4403 18.591 32.3203 18.591C32.0537 18.591 31.8003 18.6442 31.5603 18.7506C31.3203 18.8571 31.1203 19.0168 30.9337 19.2164C30.7603 19.4293 30.6137 19.6821 30.507 19.9881C30.4003 20.2942 30.347 20.6534 30.347 21.0526V24.4856H28.747L28.7737 17.3003ZM40.347 24.5255H38.7737V23.5143H38.747C38.547 23.8868 38.2537 24.1663 37.867 24.3925C37.4803 24.6187 37.0803 24.7251 36.6803 24.7251C35.7337 24.7251 35.0403 24.4989 34.6137 24.0199C34.187 23.5542 33.9737 22.8356 33.9737 21.8909V17.3003H35.5737V21.7312C35.5737 22.3699 35.6937 22.8223 35.947 23.0752C36.187 23.3413 36.5337 23.4743 36.9737 23.4743C37.307 23.4743 37.587 23.4211 37.8137 23.3147C38.0403 23.2082 38.227 23.0752 38.3603 22.9022C38.507 22.7292 38.6003 22.5163 38.667 22.2768C38.7337 22.0373 38.7603 21.7712 38.7603 21.4917V17.3003H40.3603V24.5255H40.347ZM43.067 22.2103C43.1203 22.676 43.2937 22.9953 43.6003 23.1949C43.907 23.3812 44.2803 23.4743 44.707 23.4743C44.8537 23.4743 45.027 23.461 45.2137 23.4344C45.4003 23.4078 45.587 23.3679 45.747 23.3014C45.9203 23.2348 46.0537 23.1417 46.1603 23.0086C46.267 22.8756 46.3203 22.7159 46.307 22.5163C46.2937 22.3167 46.227 22.1437 46.0803 22.0107C45.9337 21.8776 45.7603 21.7845 45.547 21.6913C45.3337 21.6115 45.0803 21.5449 44.8003 21.4917C44.5203 21.4385 44.2403 21.372 43.947 21.3054C43.6537 21.2389 43.3603 21.1591 43.0803 21.0659C42.8003 20.9728 42.5603 20.853 42.3337 20.68C42.1203 20.5204 41.9337 20.3208 41.8137 20.068C41.6803 19.8151 41.6137 19.5224 41.6137 19.1498C41.6137 18.7506 41.707 18.4313 41.907 18.1652C42.0937 17.8991 42.347 17.6862 42.6403 17.5265C42.9337 17.3668 43.267 17.2471 43.627 17.1805C43.987 17.114 44.3337 17.0874 44.6537 17.0874C45.027 17.0874 45.387 17.1273 45.7203 17.2071C46.0537 17.287 46.3737 17.4067 46.6403 17.593C46.9203 17.766 47.147 18.0055 47.3203 18.2849C47.507 18.5644 47.6137 18.9103 47.667 19.3095H46.0003C45.9203 18.9236 45.747 18.6708 45.4803 18.5378C45.2003 18.4047 44.8937 18.3382 44.5337 18.3382C44.427 18.3382 44.2803 18.3515 44.1337 18.3648C43.9737 18.3914 43.8403 18.418 43.6937 18.4712C43.5603 18.5244 43.4403 18.6043 43.347 18.6974C43.2537 18.7906 43.2003 18.9236 43.2003 19.0833C43.2003 19.2829 43.267 19.4293 43.4003 19.549C43.5337 19.6688 43.707 19.7619 43.9337 19.8551C44.147 19.9349 44.4003 20.0014 44.6803 20.0547C44.9603 20.1079 45.2537 20.1744 45.547 20.2409C45.8403 20.3075 46.1203 20.3873 46.4003 20.4805C46.6803 20.5736 46.9337 20.6934 47.147 20.8663C47.3603 21.026 47.547 21.2256 47.6803 21.4651C47.8137 21.7046 47.8803 22.0107 47.8803 22.3566C47.8803 22.7824 47.787 23.1417 47.587 23.4477C47.387 23.7405 47.1337 23.9933 46.827 24.1796C46.5203 24.3659 46.1603 24.4989 45.787 24.5921C45.4003 24.6719 45.027 24.7251 44.6537 24.7251C44.2003 24.7251 43.7737 24.6719 43.387 24.5654C43.0003 24.459 42.6537 24.2993 42.3737 24.0997C42.0937 23.8868 41.867 23.634 41.707 23.3147C41.547 23.0086 41.4537 22.6361 41.4403 22.197H43.0537V22.2103H43.067ZM48.3337 17.3003H49.547V15.1181H51.147V17.287H52.587V18.4712H51.147V22.33C51.147 22.503 51.1603 22.6361 51.1737 22.7691C51.187 22.8889 51.227 22.9953 51.267 23.0752C51.3203 23.155 51.4003 23.2215 51.4937 23.2614C51.6003 23.3014 51.7337 23.328 51.9203 23.328C52.027 23.328 52.147 23.328 52.2537 23.3147C52.3603 23.3014 52.4803 23.2881 52.587 23.2614V24.4989C52.4137 24.5255 52.2403 24.5388 52.067 24.5521C51.8937 24.5788 51.7337 24.5788 51.547 24.5788C51.1203 24.5788 50.787 24.5388 50.5337 24.459C50.2803 24.3792 50.0803 24.2594 49.9337 24.113C49.787 23.9534 49.6937 23.7671 49.6403 23.5409C49.587 23.3147 49.5603 23.0352 49.547 22.7425V18.4845H48.3337V17.2737V17.3003ZM53.707 17.3003H55.2137V18.2849H55.2403C55.467 17.8591 55.7737 17.5664 56.1737 17.3801C56.5737 17.1938 57.0003 17.1007 57.4803 17.1007C58.0537 17.1007 58.547 17.1938 58.9737 17.4067C59.4003 17.6063 59.747 17.8724 60.027 18.2317C60.307 18.5777 60.5203 18.9902 60.6537 19.4559C60.787 19.9216 60.867 20.4272 60.867 20.9462C60.867 21.4385 60.8003 21.9042 60.6803 22.3566C60.547 22.809 60.3603 23.2215 60.107 23.5675C59.8537 23.9134 59.5337 24.1929 59.1337 24.4058C58.7337 24.6187 58.2803 24.7251 57.747 24.7251C57.5203 24.7251 57.2803 24.6985 57.0537 24.6586C56.827 24.6187 56.6003 24.5521 56.387 24.459C56.1737 24.3659 55.9737 24.2461 55.8003 24.0997C55.6137 23.9534 55.467 23.7804 55.347 23.5941H55.3203V27.2001H53.7203V17.3003H53.707ZM59.2937 20.9196C59.2937 20.6002 59.2537 20.2809 59.1603 19.9748C59.0803 19.6688 58.947 19.4027 58.7737 19.1631C58.6003 18.9236 58.387 18.7373 58.147 18.591C57.8937 18.4446 57.6003 18.3781 57.2803 18.3781C56.6137 18.3781 56.107 18.6043 55.7603 19.07C55.427 19.5357 55.2537 20.1611 55.2537 20.9329C55.2537 21.3054 55.2937 21.6381 55.387 21.9441C55.4803 22.2502 55.6003 22.5163 55.787 22.7425C55.9603 22.9687 56.1737 23.1417 56.427 23.2747C56.6803 23.4078 56.9603 23.4743 57.2937 23.4743C57.667 23.4743 57.9603 23.3945 58.2137 23.2481C58.467 23.1018 58.667 22.9022 58.8403 22.676C59.0003 22.4365 59.1203 22.1703 59.187 21.8643C59.2537 21.5449 59.2937 21.2389 59.2937 20.9196ZM62.107 14.5459H63.707V16.0495H62.107V14.5459ZM62.107 17.3003H63.707V24.5255H62.107V17.3003ZM65.1337 14.5459H66.7337V24.5255H65.1337V14.5459ZM71.6137 24.7251C71.0403 24.7251 70.5203 24.632 70.067 24.4324C69.6137 24.2328 69.2403 23.98 68.9203 23.6473C68.6137 23.3147 68.3737 22.9022 68.2137 22.4365C68.0537 21.9707 67.9603 21.4518 67.9603 20.9063C67.9603 20.3607 68.0403 19.8551 68.2137 19.3893C68.3737 18.9236 68.6137 18.5244 68.9203 18.1785C69.227 17.8458 69.6137 17.5797 70.067 17.3934C70.5203 17.2071 71.0403 17.1007 71.6137 17.1007C72.187 17.1007 72.707 17.1938 73.1603 17.3934C73.6137 17.5797 73.987 17.8458 74.307 18.1785C74.6137 18.5111 74.8537 18.9236 75.0137 19.3893C75.1737 19.8551 75.267 20.3607 75.267 20.9063C75.267 21.4651 75.187 21.9707 75.0137 22.4365C74.8403 22.9022 74.6137 23.3014 74.307 23.6473C74.0003 23.98 73.6137 24.2461 73.1603 24.4324C72.707 24.6187 72.2003 24.7251 71.6137 24.7251ZM71.6137 23.461C71.9603 23.461 72.2803 23.3812 72.5337 23.2348C72.8003 23.0885 73.0003 22.8889 73.1737 22.6494C73.347 22.4098 73.467 22.1304 73.547 21.8377C73.627 21.5316 73.667 21.2256 73.667 20.9063C73.667 20.6002 73.627 20.2942 73.547 19.9881C73.467 19.6821 73.347 19.416 73.1737 19.1764C73.0003 18.9369 72.787 18.7507 72.5337 18.6043C72.267 18.4579 71.9603 18.3781 71.6137 18.3781C71.267 18.3781 70.947 18.4579 70.6937 18.6043C70.427 18.7507 70.227 18.9502 70.0537 19.1764C69.8803 19.416 69.7603 19.6821 69.6803 19.9881C69.6003 20.2942 69.5603 20.6002 69.5603 20.9063C69.5603 21.2256 69.6003 21.5316 69.6803 21.8377C69.7603 22.1437 69.8803 22.4098 70.0537 22.6494C70.227 22.8889 70.4403 23.0885 70.6937 23.2348C70.9603 23.3945 71.267 23.461 71.6137 23.461ZM75.747 17.3003H76.9604V15.1181H78.5603V17.287H80.0003V18.4712H78.5603V22.33C78.5603 22.503 78.5737 22.6361 78.587 22.7691C78.6003 22.8889 78.6403 22.9953 78.6803 23.0752C78.7337 23.155 78.8137 23.2215 78.907 23.2614C79.0137 23.3014 79.147 23.328 79.3337 23.328C79.4403 23.328 79.5603 23.328 79.667 23.3147C79.7737 23.3014 79.8937 23.2881 80.0003 23.2614V24.4989C79.827 24.5255 79.6537 24.5388 79.4803 24.5521C79.307 24.5788 79.147 24.5788 78.9604 24.5788C78.5337 24.5788 78.2003 24.5388 77.947 24.459C77.6937 24.3792 77.4937 24.2594 77.347 24.113C77.2003 23.9534 77.107 23.7671 77.0537 23.5409C77.0004 23.3147 76.9737 23.0352 76.9604 22.7425V18.4845H75.747V17.2737V17.3003Z" fill="black"/>
<path d="M19.16 14.5459H11.84L9.58667 7.6001L7.32 14.5459L0 14.5326L5.92 18.8305L3.65333 25.7763L9.57334 21.4784L15.4933 25.7763L13.24 18.8305L19.16 14.5459Z" fill="#00B67A"/>
<path d="M13.7469 20.4007L13.2402 18.8306L9.58691 21.4785L13.7469 20.4007Z" fill="#005128"/>
</svg>
