<svg width="24" height="24" viewBox="0 0 24 24" fill="none" xmlns="http://www.w3.org/2000/svg">
<path fill-rule="evenodd" clip-rule="evenodd" d="M7.00026 9C7.00026 6.23858 9.23883 4 12.0003 4C14.7617 4 17.0003 6.23858 17.0003 9C17.0003 11.7614 14.7617 14 12.0003 14C9.23883 14 7.00026 11.7614 7.00026 9ZM12.0003 2C8.13426 2 5.00026 5.13401 5.00026 9C5.00026 11.3844 6.19243 13.4904 8.01322 14.7543C5.30275 15.8247 3.14145 17.9548 2.07181 20.6286C1.86667 21.1413 2.11606 21.7233 2.62884 21.9285C3.14161 22.1336 3.72359 21.8842 3.92873 21.3714C5.18267 18.237 8.31627 16 12.0003 16C15.6843 16 18.8179 18.237 20.0718 21.3714C20.2769 21.8842 20.8589 22.1336 21.3717 21.9285C21.8845 21.7233 22.1339 21.1413 21.9287 20.6286C20.8591 17.9548 18.6978 15.8247 15.9873 14.7543C17.8081 13.4904 19.0003 11.3844 19.0003 9C19.0003 5.13401 15.8663 2 12.0003 2Z" fill="#2F3639"/>
</svg>
