<svg width="24" height="24" viewBox="0 0 24 24" fill="none" xmlns="http://www.w3.org/2000/svg">
<path fill-rule="evenodd" clip-rule="evenodd" d="M6.99978 9C6.99978 6.23858 9.23835 4 11.9998 4C14.7612 4 16.9998 6.23858 16.9998 9C16.9998 11.7614 14.7612 14 11.9998 14C9.23835 14 6.99978 11.7614 6.99978 9ZM11.9998 2C8.13378 2 4.99978 5.13401 4.99978 9C4.99978 11.3844 6.19195 13.4904 8.01274 14.7543C5.30227 15.8247 3.14097 17.9548 2.07133 20.6286C1.86619 21.1413 2.11558 21.7233 2.62836 21.9285C3.14113 22.1336 3.72311 21.8842 3.92825 21.3714C5.18219 18.237 8.31579 16 11.9998 16C15.6838 16 18.8174 18.237 20.0713 21.3714C20.2765 21.8842 20.8584 22.1336 21.3712 21.9285C21.884 21.7233 22.1334 21.1413 21.9282 20.6286C20.8586 17.9548 18.6973 15.8247 15.9868 14.7543C17.8076 13.4904 18.9998 11.3844 18.9998 9C18.9998 5.13401 15.8658 2 11.9998 2Z" fill="#C24DFE"/>
</svg>
