<svg width="24" height="24" viewBox="0 0 24 24" fill="none" xmlns="http://www.w3.org/2000/svg">
<path d="M17.0789 6.38489L17.0789 6.38491C17.0997 6.43481 17.1198 6.4851 17.1392 6.53576L17.1418 6.54271L17.1446 6.54962C17.5548 7.57595 17.5638 8.75342 17.5082 10.1029C17.5027 10.2347 17.5 10.367 17.5 10.5C17.5 13.5466 18.9352 16.2584 21.1623 17.9952C21.1643 17.9968 21.1664 17.9984 21.1684 18H2.83162C2.83364 17.9984 2.83566 17.9968 2.8377 17.9952C5.06481 16.2584 6.5 13.5466 6.5 10.5C6.5 10.367 6.49726 10.2347 6.49184 10.1029C6.43625 8.75342 6.44524 7.57595 6.85541 6.54962L6.85817 6.54271L6.86083 6.53576C6.88021 6.4851 6.90031 6.43481 6.92112 6.38489C7.75079 4.39538 9.71361 3 12 3C14.2864 3 16.2492 4.39538 17.0789 6.38489Z" stroke="#2F3639" stroke-width="2"/>
<path d="M12.5 22C13.9806 22 15.2733 21.1956 15.9649 20H9.03516C9.72678 21.1956 11.0195 22 12.5 22Z" fill="#2F3639"/>
</svg>
