<svg width="24" height="24" viewBox="0 0 24 24" fill="none" xmlns="http://www.w3.org/2000/svg">
<path d="M21.1684 18H2.83162C2.83364 17.9984 2.83566 17.9968 2.8377 17.9952C5.06481 16.2584 6.5 13.5466 6.5 10.5C6.5 10.367 6.49726 10.2347 6.49184 10.1029C6.46861 9.53909 6.45666 9.00529 6.48053 8.5H6.5C6.5 7.80864 6.62709 7.14928 6.85829 6.54242L6.92387 6.37833C7.75511 4.39231 9.71613 3 12 3C14.2839 3 16.2449 4.39231 17.0761 6.37833L17.1417 6.5424C17.3729 7.14926 17.5 7.80862 17.5 8.5H17.5195C17.5433 9.00529 17.5314 9.53909 17.5082 10.1029C17.5027 10.2347 17.5 10.367 17.5 10.5C17.5 13.5466 18.9352 16.2584 21.1623 17.9952C21.1643 17.9968 21.1664 17.9984 21.1684 18Z" stroke="#C24DFE" stroke-width="2"/>
<path d="M12.5 22C13.9806 22 15.2733 21.1956 15.9649 20H9.03516C9.72678 21.1956 11.0195 22 12.5 22Z" fill="#C24DFE"/>
</svg>
