<svg width="24" height="24" viewBox="0 0 24 24" fill="none" xmlns="http://www.w3.org/2000/svg">
<path fill-rule="evenodd" clip-rule="evenodd" d="M6.99985 10C6.99985 6.13401 10.1339 3 13.9998 3C17.8658 3 20.9998 6.13401 20.9998 10C20.9998 13.866 17.8658 17 13.9998 17C10.1339 17 6.99985 13.866 6.99985 10ZM13.9998 1C9.02929 1 4.99985 5.02944 4.99985 10C4.99985 12.0993 5.71861 14.0307 6.92346 15.5616L1.70696 20.7781C1.31643 21.1686 1.31643 21.8018 1.70696 22.1923C2.09748 22.5829 2.73065 22.5829 3.12117 22.1923L8.3265 16.987C9.87463 18.2456 11.8491 19 13.9998 19C18.9704 19 22.9998 14.9706 22.9998 10C22.9998 5.02944 18.9704 1 13.9998 1Z" fill="#C24DFE"/>
</svg>
