<svg width="24" height="24" viewBox="0 0 24 24" fill="none" xmlns="http://www.w3.org/2000/svg">
<path d="M9.85562 10.3623C9.20012 10.3623 8.68262 10.9373 8.68262 11.6388C8.68262 12.3403 9.21162 12.9153 9.85562 12.9153C10.5111 12.9153 11.0286 12.3403 11.0286 11.6388C11.0401 10.9373 10.5111 10.3623 9.85562 10.3623ZM14.0531 10.3623C13.3976 10.3623 12.8801 10.9373 12.8801 11.6388C12.8801 12.3403 13.4091 12.9153 14.0531 12.9153C14.7086 12.9153 15.2261 12.3403 15.2261 11.6388C15.2261 10.9373 14.7086 10.3623 14.0531 10.3623Z" fill="#7289DA"/>
<path d="M19.6425 0.713867H4.2325C2.933 0.713867 1.875 1.77187 1.875 3.08287V18.6309C1.875 19.9419 2.933 20.9999 4.2325 20.9999H17.2735L16.664 18.8724L18.136 20.2409L19.5275 21.5289L22 23.7139V3.08287C22 1.77187 20.942 0.713867 19.6425 0.713867ZM15.2035 15.7329C15.2035 15.7329 14.7895 15.2384 14.4445 14.8014C15.951 14.3759 16.526 13.4329 16.526 13.4329C16.0545 13.7434 15.606 13.9619 15.2035 14.1114C14.6285 14.3529 14.0765 14.5139 13.536 14.6059C12.432 14.8129 11.42 14.7554 10.5575 14.5944C9.902 14.4679 9.3385 14.2839 8.867 14.0999C8.6025 13.9964 8.315 13.8699 8.0275 13.7089C7.993 13.6859 7.9585 13.6744 7.924 13.6514C7.901 13.6399 7.8895 13.6284 7.878 13.6169C7.671 13.5019 7.556 13.4214 7.556 13.4214C7.556 13.4214 8.108 14.3414 9.5685 14.7784C9.2235 15.2154 8.798 15.7329 8.798 15.7329C6.2565 15.6524 5.2905 13.9849 5.2905 13.9849C5.2905 10.2819 6.9465 7.28037 6.9465 7.28037C8.6025 6.03837 10.178 6.07287 10.178 6.07287L10.293 6.21087C8.223 6.80887 7.2685 7.71737 7.2685 7.71737C7.2685 7.71737 7.5215 7.57937 7.947 7.38387C9.1775 6.84337 10.155 6.69387 10.5575 6.65937C10.6265 6.64787 10.684 6.63637 10.753 6.63637C11.4545 6.54437 12.248 6.52137 13.076 6.61337C14.1685 6.73987 15.3415 7.06187 16.5375 7.71737C16.5375 7.71737 15.629 6.85487 13.674 6.25687L13.835 6.07287C13.835 6.07287 15.4105 6.03837 17.0665 7.28037C17.0665 7.28037 18.7225 10.2819 18.7225 13.9849C18.7225 13.9849 17.745 15.6524 15.2035 15.7329Z" fill="#7289DA"/>
</svg>
