<svg width="24" height="24" viewBox="0 0 24 24" fill="none" xmlns="http://www.w3.org/2000/svg">
<path d="M21.9996 12.2291C21.9996 11.5494 21.9434 10.866 21.8235 10.1973H12.2012V14.0478H17.7114C17.4827 15.2897 16.7481 16.3883 15.6722 17.0864V19.5849H18.9596C20.8901 17.8433 21.9996 15.2713 21.9996 12.2291Z" fill="#4285F4"/>
<path d="M12.2012 22.0002C14.9526 22.0002 17.2729 21.1148 18.9634 19.5863L15.676 17.0878C14.7614 17.6978 13.5806 18.0431 12.205 18.0431C9.54355 18.0431 7.28698 16.2832 6.47731 13.917H3.08496V16.4926C4.81675 19.8692 8.34404 22.0002 12.2012 22.0002Z" fill="#34A853"/>
<path d="M6.47399 13.9168C6.04667 12.675 6.04667 11.3302 6.47399 10.0883V7.5127H3.08539C1.63849 10.3382 1.63806 13.6669 3.08497 16.4923L6.47399 13.9168Z" fill="#FBBC04"/>
<path d="M12.2008 5.95779C13.6552 5.93575 15.0609 6.47218 16.1142 7.45687L19.0267 4.60201C17.1825 2.90453 14.7347 1.97128 12.2008 2.00067C8.34362 2.00067 4.81675 4.13247 3.08496 7.51274L6.47356 10.0884C7.27948 7.71849 9.53938 5.95779 12.2008 5.95779Z" fill="#EA4335"/>
</svg>
