<svg width="24" height="24" viewBox="0 0 24 24" fill="none" xmlns="http://www.w3.org/2000/svg">
<path d="M5.34891 19.5529C5.44181 19.6002 5.64603 19.6796 6.22325 19.7268C6.82642 19.776 7.62036 19.7778 8.85714 19.7778H15.1429C16.3796 19.7778 17.1736 19.776 17.7767 19.7268C18.354 19.6796 18.5582 19.6002 18.6511 19.5529C19.0394 19.355 19.355 19.0394 19.5529 18.6511C19.6002 18.5582 19.6796 18.354 19.7268 17.7767C19.776 17.1736 19.7778 16.3796 19.7778 15.1429V8.85714C19.7778 7.62036 19.776 6.82642 19.7268 6.22325C19.6796 5.64603 19.6002 5.44181 19.5529 5.34891L21.5329 4.34004C22 5.25681 22 6.45692 22 8.85714V15.1429C22 17.5431 22 18.7432 21.5329 19.66C21.122 20.4664 20.4664 21.122 19.66 21.5329C18.7432 22 17.5431 22 15.1429 22H8.85714C6.45692 22 5.25681 22 4.34004 21.5329L5.34891 19.5529Z" fill="white"/>
<path d="M5.34891 19.5529C5.44181 19.6002 5.64603 19.6796 6.22325 19.7268C6.82642 19.776 7.62036 19.7778 8.85714 19.7778H15.1429C16.3796 19.7778 17.1736 19.776 17.7767 19.7268C18.354 19.6796 18.5582 19.6002 18.6511 19.5529C19.0394 19.355 19.355 19.0394 19.5529 18.6511C19.6002 18.5582 19.6796 18.354 19.7268 17.7767C19.776 17.1736 19.7778 16.3796 19.7778 15.1429V8.85714C19.7778 7.62036 19.776 6.82642 19.7268 6.22325C19.6796 5.64603 19.6002 5.44181 19.5529 5.34891L21.5329 4.34004C22 5.25681 22 6.45692 22 8.85714V15.1429C22 17.5431 22 18.7432 21.5329 19.66C21.122 20.4664 20.4664 21.122 19.66 21.5329C18.7432 22 17.5431 22 15.1429 22H8.85714C6.45692 22 5.25681 22 4.34004 21.5329L5.34891 19.5529Z" fill="url(#paint0_linear)"/>
<path d="M5.34891 19.5529C5.44181 19.6002 5.64603 19.6796 6.22325 19.7268C6.82642 19.776 7.62036 19.7778 8.85714 19.7778H15.1429C16.3796 19.7778 17.1736 19.776 17.7767 19.7268C18.354 19.6796 18.5582 19.6002 18.6511 19.5529C19.0394 19.355 19.355 19.0394 19.5529 18.6511C19.6002 18.5582 19.6796 18.354 19.7268 17.7767C19.776 17.1736 19.7778 16.3796 19.7778 15.1429V8.85714C19.7778 7.62036 19.776 6.82642 19.7268 6.22325C19.6796 5.64603 19.6002 5.44181 19.5529 5.34891L21.5329 4.34004C22 5.25681 22 6.45692 22 8.85714V15.1429C22 17.5431 22 18.7432 21.5329 19.66C21.122 20.4664 20.4664 21.122 19.66 21.5329C18.7432 22 17.5431 22 15.1429 22H8.85714C6.45692 22 5.25681 22 4.34004 21.5329L5.34891 19.5529Z" fill="url(#paint1_linear)" fill-opacity="0.7"/>
<path d="M4.34004 21.5329C3.53363 21.122 2.878 20.4664 2.46712 19.66C2 18.7432 2 17.5431 2 15.1429V8.85714C2 6.45692 2 5.25681 2.46712 4.34004C2.878 3.53363 3.53363 2.878 4.34004 2.46712C5.25681 2 6.45692 2 8.85714 2H15.1429C17.5431 2 18.7432 2 19.66 2.46712C20.4664 2.878 21.122 3.53363 21.5329 4.34004L19.5529 5.34891C19.355 4.96064 19.0394 4.64496 18.6511 4.44713C18.5582 4.3998 18.354 4.32039 17.7767 4.27323C17.1736 4.22395 16.3796 4.22222 15.1429 4.22222H8.85714C7.62036 4.22222 6.82642 4.22395 6.22325 4.27323C5.64603 4.32039 5.44181 4.3998 5.34891 4.44713C4.96064 4.64496 4.64496 4.96064 4.44713 5.34891C4.3998 5.44181 4.32039 5.64603 4.27323 6.22325C4.22395 6.82642 4.22222 7.62036 4.22222 8.85714V15.1429C4.22222 16.3796 4.22395 17.1736 4.27323 17.7767C4.32039 18.354 4.3998 18.5582 4.44713 18.6511C4.64496 19.0394 4.96064 19.355 5.34891 19.5529L4.34004 21.5329Z" fill="white"/>
<path d="M4.34004 21.5329C3.53363 21.122 2.878 20.4664 2.46712 19.66C2 18.7432 2 17.5431 2 15.1429V8.85714C2 6.45692 2 5.25681 2.46712 4.34004C2.878 3.53363 3.53363 2.878 4.34004 2.46712C5.25681 2 6.45692 2 8.85714 2H15.1429C17.5431 2 18.7432 2 19.66 2.46712C20.4664 2.878 21.122 3.53363 21.5329 4.34004L19.5529 5.34891C19.355 4.96064 19.0394 4.64496 18.6511 4.44713C18.5582 4.3998 18.354 4.32039 17.7767 4.27323C17.1736 4.22395 16.3796 4.22222 15.1429 4.22222H8.85714C7.62036 4.22222 6.82642 4.22395 6.22325 4.27323C5.64603 4.32039 5.44181 4.3998 5.34891 4.44713C4.96064 4.64496 4.64496 4.96064 4.44713 5.34891C4.3998 5.44181 4.32039 5.64603 4.27323 6.22325C4.22395 6.82642 4.22222 7.62036 4.22222 8.85714V15.1429C4.22222 16.3796 4.22395 17.1736 4.27323 17.7767C4.32039 18.354 4.3998 18.5582 4.44713 18.6511C4.64496 19.0394 4.96064 19.355 5.34891 19.5529L4.34004 21.5329Z" fill="url(#paint2_linear)"/>
<path d="M4.34004 21.5329C3.53363 21.122 2.878 20.4664 2.46712 19.66C2 18.7432 2 17.5431 2 15.1429V8.85714C2 6.45692 2 5.25681 2.46712 4.34004C2.878 3.53363 3.53363 2.878 4.34004 2.46712C5.25681 2 6.45692 2 8.85714 2H15.1429C17.5431 2 18.7432 2 19.66 2.46712C20.4664 2.878 21.122 3.53363 21.5329 4.34004L19.5529 5.34891C19.355 4.96064 19.0394 4.64496 18.6511 4.44713C18.5582 4.3998 18.354 4.32039 17.7767 4.27323C17.1736 4.22395 16.3796 4.22222 15.1429 4.22222H8.85714C7.62036 4.22222 6.82642 4.22395 6.22325 4.27323C5.64603 4.32039 5.44181 4.3998 5.34891 4.44713C4.96064 4.64496 4.64496 4.96064 4.44713 5.34891C4.3998 5.44181 4.32039 5.64603 4.27323 6.22325C4.22395 6.82642 4.22222 7.62036 4.22222 8.85714V15.1429C4.22222 16.3796 4.22395 17.1736 4.27323 17.7767C4.32039 18.354 4.3998 18.5582 4.44713 18.6511C4.64496 19.0394 4.96064 19.355 5.34891 19.5529L4.34004 21.5329Z" fill="url(#paint3_linear)" fill-opacity="0.7"/>
<path fill-rule="evenodd" clip-rule="evenodd" d="M6.64288 12C6.64288 9.04134 9.04135 6.64286 12 6.64286C14.9587 6.64286 17.3572 9.04134 17.3572 12C17.3572 14.9587 14.9587 17.3571 12 17.3571C9.04135 17.3571 6.64288 14.9587 6.64288 12ZM12 8.86508C10.2687 8.86508 8.8651 10.2686 8.8651 12C8.8651 13.7314 10.2687 15.1349 12 15.1349C13.7314 15.1349 15.1349 13.7314 15.1349 12C15.1349 10.2686 13.7314 8.86508 12 8.86508Z" fill="white"/>
<path fill-rule="evenodd" clip-rule="evenodd" d="M6.64288 12C6.64288 9.04134 9.04135 6.64286 12 6.64286C14.9587 6.64286 17.3572 9.04134 17.3572 12C17.3572 14.9587 14.9587 17.3571 12 17.3571C9.04135 17.3571 6.64288 14.9587 6.64288 12ZM12 8.86508C10.2687 8.86508 8.8651 10.2686 8.8651 12C8.8651 13.7314 10.2687 15.1349 12 15.1349C13.7314 15.1349 15.1349 13.7314 15.1349 12C15.1349 10.2686 13.7314 8.86508 12 8.86508Z" fill="url(#paint4_linear)"/>
<path fill-rule="evenodd" clip-rule="evenodd" d="M6.64288 12C6.64288 9.04134 9.04135 6.64286 12 6.64286C14.9587 6.64286 17.3572 9.04134 17.3572 12C17.3572 14.9587 14.9587 17.3571 12 17.3571C9.04135 17.3571 6.64288 14.9587 6.64288 12ZM12 8.86508C10.2687 8.86508 8.8651 10.2686 8.8651 12C8.8651 13.7314 10.2687 15.1349 12 15.1349C13.7314 15.1349 15.1349 13.7314 15.1349 12C15.1349 10.2686 13.7314 8.86508 12 8.86508Z" fill="url(#paint5_linear)" fill-opacity="0.7"/>
<path d="M17.5556 7.55556C18.1692 7.55556 18.6667 7.05809 18.6667 6.44444C18.6667 5.8308 18.1692 5.33333 17.5556 5.33333C16.9419 5.33333 16.4444 5.8308 16.4444 6.44444C16.4444 7.05809 16.9419 7.55556 17.5556 7.55556Z" fill="white"/>
<path d="M17.5556 7.55556C18.1692 7.55556 18.6667 7.05809 18.6667 6.44444C18.6667 5.8308 18.1692 5.33333 17.5556 5.33333C16.9419 5.33333 16.4444 5.8308 16.4444 6.44444C16.4444 7.05809 16.9419 7.55556 17.5556 7.55556Z" fill="url(#paint6_linear)"/>
<path d="M17.5556 7.55556C18.1692 7.55556 18.6667 7.05809 18.6667 6.44444C18.6667 5.8308 18.1692 5.33333 17.5556 5.33333C16.9419 5.33333 16.4444 5.8308 16.4444 6.44444C16.4444 7.05809 16.9419 7.55556 17.5556 7.55556Z" fill="url(#paint7_linear)" fill-opacity="0.7"/>
<defs>
<linearGradient id="paint0_linear" x1="22" y1="2" x2="2" y2="22" gradientUnits="userSpaceOnUse">
<stop stop-color="#BC2CC7"/>
<stop offset="0.510417" stop-color="#F6514F"/>
<stop offset="1" stop-color="#FED653"/>
</linearGradient>
<linearGradient id="paint1_linear" x1="2" y1="2" x2="22" y2="22" gradientUnits="userSpaceOnUse">
<stop stop-color="#416BCC"/>
<stop offset="0.644068" stop-color="#F6514F"/>
<stop offset="1" stop-color="#FED653"/>
</linearGradient>
<linearGradient id="paint2_linear" x1="22" y1="2" x2="2" y2="22" gradientUnits="userSpaceOnUse">
<stop stop-color="#BC2CC7"/>
<stop offset="0.510417" stop-color="#F6514F"/>
<stop offset="1" stop-color="#FED653"/>
</linearGradient>
<linearGradient id="paint3_linear" x1="2" y1="2" x2="22" y2="22" gradientUnits="userSpaceOnUse">
<stop stop-color="#416BCC"/>
<stop offset="0.644068" stop-color="#F6514F"/>
<stop offset="1" stop-color="#FED653"/>
</linearGradient>
<linearGradient id="paint4_linear" x1="22" y1="2" x2="2" y2="22" gradientUnits="userSpaceOnUse">
<stop stop-color="#BC2CC7"/>
<stop offset="0.510417" stop-color="#F6514F"/>
<stop offset="1" stop-color="#FED653"/>
</linearGradient>
<linearGradient id="paint5_linear" x1="2" y1="2" x2="22" y2="22" gradientUnits="userSpaceOnUse">
<stop stop-color="#416BCC"/>
<stop offset="0.644068" stop-color="#F6514F"/>
<stop offset="1" stop-color="#FED653"/>
</linearGradient>
<linearGradient id="paint6_linear" x1="22" y1="2" x2="2" y2="22" gradientUnits="userSpaceOnUse">
<stop stop-color="#BC2CC7"/>
<stop offset="0.510417" stop-color="#F6514F"/>
<stop offset="1" stop-color="#FED653"/>
</linearGradient>
<linearGradient id="paint7_linear" x1="2" y1="2" x2="22" y2="22" gradientUnits="userSpaceOnUse">
<stop stop-color="#416BCC"/>
<stop offset="0.644068" stop-color="#F6514F"/>
<stop offset="1" stop-color="#FED653"/>
</linearGradient>
</defs>
</svg>
