<svg width="24" height="24" viewBox="0 0 24 24" fill="none" xmlns="http://www.w3.org/2000/svg">
<path fill-rule="evenodd" clip-rule="evenodd" d="M23 5.25069C22.1893 5.63104 21.3196 5.88926 20.4071 6.00441C21.3393 5.4112 22.0548 4.46905 22.3895 3.34894C21.5165 3.90028 20.5515 4.29807 19.5242 4.51442C18.7004 3.58274 17.5287 3 16.229 3C13.7379 3 11.7161 5.14949 11.7161 7.79798C11.7161 8.17484 11.7555 8.54123 11.8343 8.89017C8.0828 8.69128 4.75802 6.77906 2.53275 3.87585C2.14546 4.58421 1.92227 5.40771 1.92227 6.28705C1.92227 7.95152 2.71983 9.42057 3.93093 10.279C3.19245 10.2545 2.49664 10.0382 1.88617 9.67879C1.88617 9.69972 1.88617 9.71717 1.88617 9.73811C1.88617 12.0621 3.44189 14.0022 5.50634 14.4419C5.1289 14.55 4.72848 14.6094 4.31822 14.6094C4.02611 14.6094 3.74385 14.578 3.46815 14.5221C4.04252 16.4274 5.70983 17.8162 7.68238 17.8545C6.13651 19.1421 4.1935 19.9098 2.07653 19.9098C1.71222 19.9098 1.35447 19.8854 1 19.8435C2.99552 21.2044 5.36849 22 7.91869 22C16.2192 22 20.7583 14.6896 20.7583 8.34931C20.7583 8.13995 20.755 7.93407 20.7452 7.72819C21.6281 7.05124 22.3928 6.2068 22.9967 5.24371L23 5.25069Z" fill="#41ABE1"/>
</svg>
