<svg width="24" height="24" viewBox="0 0 24 24" fill="none" xmlns="http://www.w3.org/2000/svg">
<g clip-path="url(#clip0)">
<path d="M22.7651 13.894C23.5136 7.87227 22.4054 4.07062 20.4065 2.35113L20.4075 2.35014C17.1813 -0.586276 6.2855 -1.02089 2.42567 2.48202C0.692301 4.19551 0.0817513 6.71029 0.0148413 9.82354C-0.0520657 12.9378 -0.131521 18.7717 5.55682 20.3543H5.56204L5.55682 22.7711C5.55682 22.7711 5.51813 23.7503 6.17259 23.9471C6.92114 24.1789 7.25987 23.7243 9.5881 21.0666C13.4814 21.3893 16.4714 20.65 16.8112 20.5421C17.5974 20.2903 22.0458 19.7278 22.7651 13.894ZM9.9718 19.3661C9.9718 19.3661 7.50764 22.3025 6.74132 23.0649C6.49041 23.3126 6.21545 23.2897 6.21964 22.7981C6.21964 22.4754 6.23845 18.7856 6.23845 18.7856C1.41576 17.4648 1.70012 12.4972 1.75239 9.89848C1.80467 7.29877 2.3023 5.16965 3.77013 3.73591C7.15637 0.701589 16.7087 1.37999 19.1425 3.56606C22.1179 6.08684 21.0589 13.2086 21.0651 13.4513C20.4535 18.321 16.8488 18.6298 16.186 18.8406C15.9027 18.9305 13.2733 19.5769 9.9718 19.3661Z" fill="#7B519D"/>
<path d="M12.2729 4C11.909 4 11.909 4.61505 12.2729 4.62017C15.0963 4.64375 17.4215 6.77796 17.447 10.6927C17.447 11.1058 18.0047 11.1007 18 10.6876C17.9697 6.46941 15.4299 4.02358 12.2729 4Z" fill="#7B519D"/>
<path d="M16.3167 9.73431C16.3062 10.0782 16.9927 10.0946 16.9985 9.7464C17.0557 7.78591 15.4251 6.17103 12.3609 6.00081C11.9122 5.97662 11.8656 6.49936 12.3131 6.52356C14.9705 6.67303 16.3703 8.01747 16.3167 9.73431Z" fill="#7B519D"/>
<path d="M15.3557 13.3909C14.8051 13.0826 14.2445 13.2744 14.0127 13.5774L13.5279 14.1843C13.2816 14.4926 12.8213 14.4516 12.8213 14.4516C9.4622 13.5925 8.56388 10.1925 8.56388 10.1925C8.56388 10.1925 8.52264 9.7322 8.83025 9.48534L9.4365 9.00025C9.7397 8.7674 9.9314 8.20685 9.6227 7.65601C8.79793 6.21474 8.24402 5.7178 7.96205 5.33619C7.66559 4.97722 7.21979 4.89637 6.75615 5.13892H6.74612C5.78207 5.68438 4.72664 6.70523 5.06433 7.75626C5.64053 8.86442 6.69931 12.397 10.074 15.0661C11.66 16.3284 14.1698 17.6219 15.2353 17.9205L15.2453 17.9356C16.2952 18.2741 17.3161 17.2134 17.8611 16.2529V16.2454C18.1029 15.7808 18.0227 15.3409 17.6694 15.0531C17.043 14.4624 16.0979 13.8102 15.3557 13.3909Z" fill="#7B519D"/>
<path d="M13.2352 7.48778C14.0575 7.53289 14.4563 7.9372 14.4991 8.76756C14.5145 9.09214 15.0151 9.06958 14.9997 8.745C14.9449 7.66094 14.3442 7.05689 13.2625 7.00051C12.9331 6.982 12.9023 7.46925 13.2352 7.48778Z" fill="#7B519D"/>
</g>
<defs>
<clipPath id="clip0">
<rect width="24" height="24" fill="white"/>
</clipPath>
</defs>
</svg>
