<svg width="24" height="24" viewBox="0 0 24 24" fill="none" xmlns="http://www.w3.org/2000/svg">
<path d="M23.8727 18.6435C23.8437 18.5795 23.8166 18.5264 23.7914 18.4838C23.375 17.7171 22.5793 16.7759 21.4047 15.6601L21.3799 15.6346L21.3675 15.6221L21.3549 15.6092H21.3423C20.8092 15.0896 20.4716 14.7403 20.3303 14.5614C20.0716 14.2207 20.0137 13.8759 20.155 13.5264C20.2549 13.2624 20.6301 12.7048 21.2797 11.853C21.6213 11.4015 21.892 11.0397 22.0918 10.7671C23.5331 8.80801 24.1579 7.55614 23.9662 7.01098L23.8918 6.88358C23.8418 6.80688 23.7127 6.73671 23.5046 6.67272C23.2961 6.60887 23.0296 6.59831 22.7047 6.64086L19.106 6.66628C19.0477 6.64516 18.9644 6.64713 18.856 6.67272C18.7477 6.69832 18.6935 6.71116 18.6935 6.71116L18.6308 6.74316L18.5811 6.7816C18.5395 6.80701 18.4936 6.85172 18.4436 6.91562C18.3938 6.97929 18.3522 7.05402 18.319 7.13918C17.9272 8.16977 17.4817 9.12796 16.9817 10.0137C16.6735 10.5419 16.3904 10.9996 16.1319 11.3872C15.8737 11.7746 15.6571 12.06 15.4823 12.243C15.3072 12.4262 15.1492 12.5729 15.0073 12.6837C14.8657 12.7946 14.7575 12.8415 14.6826 12.8243C14.6076 12.8072 14.5369 12.7902 14.47 12.7732C14.3534 12.6965 14.2597 12.5922 14.189 12.4602C14.118 12.3282 14.0702 12.162 14.0452 11.9619C14.0203 11.7616 14.0056 11.5893 14.0014 11.4444C13.9975 11.2998 13.9993 11.0951 14.0078 10.8311C14.0164 10.567 14.0203 10.3882 14.0203 10.2945C14.0203 9.97083 14.0265 9.61952 14.0389 9.2405C14.0515 8.86148 14.0617 8.56118 14.0702 8.33995C14.0787 8.11849 14.0827 7.88419 14.0827 7.63718C14.0827 7.39017 14.068 7.19646 14.0389 7.05586C14.0102 6.91544 13.9661 6.77914 13.908 6.64699C13.8496 6.51499 13.7641 6.41287 13.6519 6.34038C13.5394 6.26798 13.3996 6.21052 13.2333 6.16783C12.7917 6.06567 12.2294 6.01041 11.5462 6.00182C9.99681 5.98481 9.00124 6.08711 8.55972 6.30857C8.38478 6.40213 8.22648 6.52998 8.08494 6.6917C7.93495 6.87915 7.91402 6.98144 8.0223 6.99827C8.52221 7.07483 8.87611 7.25798 9.0844 7.54755L9.15946 7.70099C9.21784 7.8117 9.27614 8.00769 9.33448 8.28871C9.39273 8.56973 9.43033 8.88059 9.44687 9.22112C9.48845 9.84299 9.48845 10.3753 9.44687 10.8181C9.40516 11.2611 9.36577 11.606 9.32818 11.853C9.29058 12.1 9.23439 12.3002 9.15946 12.4535C9.0844 12.6068 9.03446 12.7005 9.00942 12.7345C8.98443 12.7685 8.9636 12.7899 8.94706 12.7983C8.83878 12.8407 8.72616 12.8624 8.60961 12.8624C8.49289 12.8624 8.35134 12.8027 8.18477 12.6834C8.01823 12.5641 7.8454 12.4002 7.66626 12.1915C7.48712 11.9827 7.28509 11.691 7.06009 11.3163C6.83526 10.9416 6.60198 10.4987 6.36039 9.9877L6.1605 9.6171C6.03555 9.37868 5.86486 9.03153 5.64825 8.57595C5.43152 8.12019 5.23995 7.67933 5.07342 7.25346C5.00685 7.07461 4.90684 6.93844 4.77357 6.84474L4.71103 6.8063C4.66945 6.77229 4.60271 6.73618 4.51115 6.69769C4.41945 6.65926 4.32378 6.63169 4.22373 6.61473L0.799884 6.64015C0.450012 6.64015 0.21262 6.72119 0.0876214 6.88304L0.0375958 6.9596C0.0126049 7.00225 0 7.07036 0 7.1641C0 7.25781 0.0249909 7.37281 0.0750165 7.50898C0.574835 8.71001 1.11838 9.86832 1.70564 10.9841C2.29291 12.0998 2.80323 12.9986 3.2363 13.6795C3.66946 14.361 4.11098 15.0042 4.56086 15.6087C5.01075 16.2135 5.30854 16.6011 5.45424 16.7713C5.60011 16.9419 5.71469 17.0694 5.79798 17.1546L6.11043 17.4612C6.31036 17.6656 6.60395 17.9105 6.99133 18.1957C7.3788 18.4812 7.80776 18.7622 8.27843 19.0392C8.74918 19.3158 9.29684 19.5415 9.9217 19.7161C10.5465 19.8908 11.1546 19.961 11.7461 19.9271H13.1831C13.4746 19.9014 13.6954 19.8077 13.8455 19.646L13.8952 19.5819C13.9286 19.5311 13.9599 19.4521 13.9888 19.3459C14.018 19.2394 14.0326 19.1221 14.0326 18.9945C14.024 18.6284 14.0513 18.2984 14.1136 18.0045C14.1759 17.7108 14.2469 17.4894 14.3263 17.3402C14.4056 17.1912 14.4952 17.0655 14.5948 16.9635C14.6947 16.8614 14.7659 16.7995 14.8076 16.7782C14.8491 16.7567 14.8822 16.7422 14.9072 16.7335C15.1072 16.6654 15.3425 16.7313 15.6135 16.9317C15.8842 17.1318 16.1382 17.379 16.3758 17.6727C16.6132 17.9667 16.8985 18.2965 17.2317 18.6627C17.565 19.029 17.8565 19.3013 18.1063 19.4804L18.3562 19.6337C18.523 19.736 18.7396 19.8297 19.0062 19.9149C19.2724 20 19.5056 20.0213 19.7058 19.9787L22.9046 19.9277C23.221 19.9277 23.4672 19.8742 23.6418 19.7679C23.8168 19.6614 23.9207 19.5441 23.9543 19.4166C23.9877 19.2888 23.9895 19.144 23.9606 18.982C23.931 18.8204 23.9018 18.7074 23.8727 18.6435Z" fill="#4F7DB3"/>
</svg>
