<svg width="147" height="57" viewBox="0 0 147 57" fill="none" xmlns="http://www.w3.org/2000/svg">
<path d="M53.76 28.16C51.68 26.24 48.48 24.8 45.28 24.8C42.08 24.8 38.88 26.24 36.8 28.16C31.04 33.12 27.52 46.08 27.52 56L0 55.84C0 36.96 6.24 21.6 15.84 12.16C24.16 4.00001 34.88 0 45.28 0C55.68 0 66.4 4.00001 74.72 12.16C84.32 21.6 90.56 36.96 90.56 55.84L63.04 56.16C63.04 46.72 59.36 33.12 53.76 28.16Z" fill="#C24DFE"/>
<path d="M103.426 2.4H146.306V55.76L118.626 56.16V25.92H103.426V2.4Z" fill="#C24DFE"/>
</svg>
