<svg width="182" height="57" viewBox="0 0 182 57" fill="none" xmlns="http://www.w3.org/2000/svg">
<path d="M53.76 28.3202C51.68 26.4002 48.48 24.9602 45.28 24.9602C42.08 24.9602 38.88 26.4002 36.8 28.3202C31.04 33.2802 27.52 46.2402 27.52 56.1602L0 56.0002C0 37.1202 6.24 21.7602 15.84 12.3202C24.16 4.16016 34.88 0.160156 45.28 0.160156C55.68 0.160156 66.4 4.16016 74.72 12.3202C84.32 21.7602 90.56 37.1202 90.56 56.0002L63.04 56.3202C63.04 46.8802 59.36 33.2802 53.76 28.3202Z" fill="#C24DFE"/>
<path d="M171.458 11.2002C175.778 15.5202 181.857 23.6802 181.857 37.4402C181.857 44.7609 180.006 50.8474 176.769 56.3202H144.784C145.322 55.5137 145.839 54.7139 146.338 53.9202C149.218 49.4402 152.098 44.1602 152.098 37.2802C152.098 36.1602 152.098 30.5602 148.898 27.0402C147.298 25.2802 144.578 23.8402 141.058 23.8402C136.578 23.8402 133.537 25.9202 131.777 28.1602C129.217 31.5202 128.098 37.6002 127.938 41.2802H99.2975C99.4575 27.3602 105.537 17.2802 111.137 11.6802C118.337 4.48016 128.098 0.160156 141.378 0.160156C157.378 0.160156 166.658 6.40016 171.458 11.2002Z" fill="#C24DFE"/>
</svg>
