<svg width="64" height="64" viewBox="0 0 64 64" fill="none" xmlns="http://www.w3.org/2000/svg">
<path opacity="0.3" fill-rule="evenodd" clip-rule="evenodd" d="M42.6667 18.6668C42.6667 18.6668 36 32.0002 29.3333 32.9344C29.3333 32.9344 33.3333 17.3335 28 9.3335C28 9.3335 27.4345 17.9054 21.72 28.1914C19.0413 33.013 16 36.2633 16 42.6668C16 51.81 25.3638 56.5353 32.0153 56.5353C38.6667 56.5353 48 53.3352 48 42.1348C48 35.2265 42.6667 18.6668 42.6667 18.6668Z" fill="#C24DFE"/>
<path fill-rule="evenodd" clip-rule="evenodd" d="M34.6667 18.6668C34.6667 18.6668 36 32.0002 29.3333 32.9344C29.3333 32.9344 33.3333 17.3335 28 9.3335C28 9.3335 27.4345 17.9054 21.72 28.1914C19.0413 33.013 16 36.2633 16 42.6668C16 51.81 25.3638 56.5353 32.0153 56.5353C38.6667 56.5353 48 53.3352 48 42.1348C48 35.2265 34.6667 18.6668 34.6667 18.6668Z" fill="#C24DFE"/>
</svg>
