<svg width="64" height="64" viewBox="0 0 64 64" fill="none" xmlns="http://www.w3.org/2000/svg">
<path opacity="0.3" fill-rule="evenodd" clip-rule="evenodd" d="M10.666 10.6668L31.6308 6.73593C31.8744 6.69026 32.1243 6.69026 32.3679 6.73593L53.3327 10.6668V41.9034C53.3327 45.6961 51.3789 49.2213 48.1627 51.2314L32.5294 61.0022C32.2051 61.2049 31.7936 61.2049 31.4694 61.0022L15.836 51.2314C12.6198 49.2213 10.666 45.6961 10.666 41.9034L10.666 10.6668Z" fill="#C24DFE"/>
<path fill-rule="evenodd" clip-rule="evenodd" d="M29.7995 39.3333C29.1606 39.3333 28.5217 39.0778 28.0106 38.5667L22.8995 33.4556C21.8773 32.4333 21.8773 30.9 22.8995 29.8778C23.9217 28.8556 25.5828 28.8556 26.4773 29.8778L29.7995 33.2L38.2328 24.7667C39.255 23.7444 40.7884 23.7444 41.8106 24.7667C42.8328 25.7889 42.8328 27.3222 41.8106 28.3444L31.5884 38.5667C31.0773 39.0778 30.4384 39.3333 29.7995 39.3333Z" fill="#C24DFE"/>
</svg>
