<svg width="64" height="64" viewBox="0 0 64 64" fill="none" xmlns="http://www.w3.org/2000/svg">
<path d="M47.9223 14.2402C46.7513 13.0693 44.8531 13.0686 43.6813 14.2386L13.6952 44.1787C12.9131 44.9595 12.9126 46.2267 13.6941 47.0082L17.0102 50.3243C17.7917 51.1058 19.0588 51.1053 19.8397 50.3232L49.7798 20.3371C50.9498 19.1653 50.9491 17.267 49.7781 16.0961L47.9223 14.2402Z" fill="white"/>
<path opacity="0.7" fill-rule="evenodd" clip-rule="evenodd" d="M18.4795 26.2856C22.7912 26.2856 26.2851 22.7927 26.2851 18.476C26.2851 14.1594 22.7912 10.6665 18.4795 10.6665C14.1678 10.6665 10.666 14.1594 10.666 18.476C10.666 22.7927 14.1678 26.2856 18.4795 26.2856ZM45.5271 53.3332C49.8388 53.3332 53.3327 49.8403 53.3327 45.5236C53.3327 41.1991 49.8388 37.7141 45.5271 37.7141C41.2154 37.7141 37.7136 41.1991 37.7136 45.5236C37.7136 49.8403 41.2154 53.3332 45.5271 53.3332Z" fill="white"/>
</svg>
