<svg width="189" height="588" viewBox="0 0 189 588" fill="none" xmlns="http://www.w3.org/2000/svg">
<g opacity="0.05">
<path d="M86.615 258.429C39.1814 334.569 46.5737 402.578 46.5737 402.578C75.5266 382.126 99.5515 361.797 132.447 320.524C122.714 312.392 122.591 312.762 86.615 258.429Z" fill="#2F3639"/>
<path d="M177.907 545.987C209.201 538.965 239.755 525.782 266.86 510.505C437.745 414.159 557.006 194.855 507.109 71.7742C481.605 8.81684 419.757 -9.04778 352.98 4.01187C486.903 12.513 509.696 155.06 410.516 305.616C367.395 371.037 307.764 428.327 243.821 468.492C241.973 431.038 251.706 390.257 264.889 354.898H265.135L231.501 300.564C209.57 265.328 194.786 240.81 181.233 220.112C140.576 224.671 81.6844 218.018 45.5856 190.42C43.9839 189.311 42.0126 191.159 43.1215 192.761C52.2386 206.436 60.2469 218.511 67.3927 229.229C22.3 299.579 -10.5956 402.331 16.3862 475.145C99.3026 414.159 147.229 330.38 147.229 330.38L151.295 332.721C154.745 334.692 157.332 336.047 157.332 336.047C163.492 338.881 169.159 341.099 175.073 343.07C163.492 362.783 117.66 439.046 64.0662 506.316C32.8955 543.523 0 541.182 0 541.182C6.28341 547.466 48.5425 581.101 132.814 588C103.245 576.788 99.9186 549.56 109.898 529.971L202.671 349.969C209.324 351.202 215.977 352.187 224.848 353.05C224.848 353.05 228.174 353.296 233.349 353.666C235.32 353.789 237.538 353.912 240.002 354.035C239.879 354.158 186.285 436.952 177.907 545.987ZM46.5712 402.578C46.5712 402.578 39.0557 334.569 86.6126 258.429C122.711 312.762 122.711 312.392 132.445 320.524C99.549 361.797 75.5242 382.126 46.5712 402.578ZM138.605 306.725L86.1198 227.135C86.1198 227.135 127.147 244.876 170.884 240.687L229.653 334.939C229.653 334.815 177.044 334.446 138.605 306.725Z" fill="#2F3639"/>
<path d="M223.615 108.12C212.896 165.163 141.561 184.383 103.368 141.755L103.244 141.631C79.8356 155.677 63.203 165.656 60.2461 167.504C69.7328 176.991 82.0532 182.412 97.577 186.355C140.082 196.95 187.886 195.102 188.748 195.102L306.408 25.573C308.133 23.2321 305.299 20.1521 302.835 21.7537C286.819 31.3636 255.525 50.2139 220.535 71.1586C224.847 82.863 226.079 95.553 223.615 108.12Z" fill="#2F3639"/>
<path d="M25.3812 140.523C25.3812 140.523 56.5519 84.958 128.38 91.3646C114.211 95.8 105.464 115.636 121.357 130.913C148.709 157.279 196.142 143.357 203.535 104.424C205.013 96.6624 204.52 89.0238 202.549 82.1243C190.352 39.126 131.953 36.5388 124.93 64.5061C131.337 62.9045 138.113 65.1221 142.425 70.1735C146.737 75.2249 147.846 82.2475 145.259 88.2845C142.918 93.8287 137.99 97.7713 132.076 98.7569C131.83 98.7569 131.706 98.8801 131.46 98.8801C131.09 99.0033 130.721 99.0033 130.351 99.0033C140.454 94.568 135.772 81.3851 128.38 83.4795C128.626 83.8491 128.873 84.0956 129.119 84.4652C113.595 83.2332 48.2972 81.7547 6.77734 140.77C7.51657 139.784 17.2497 132.268 25.3812 140.523Z" fill="#2F3639"/>
</g>
</svg>
