<svg width="282" height="689" viewBox="0 0 282 689" fill="none" xmlns="http://www.w3.org/2000/svg">
<g opacity="0.05">
<path d="M101.414 302.581C45.8765 391.73 54.5317 471.358 54.5317 471.358C88.4313 447.412 116.561 423.61 155.076 375.285C143.68 365.764 143.536 366.197 101.414 302.581Z" fill="white"/>
<path d="M208.302 639.269C244.942 631.046 280.717 615.611 312.453 597.724C512.533 484.917 652.17 228.146 593.747 84.0367C563.887 10.3232 491.472 -10.5936 413.286 4.69729C570.09 14.6508 596.777 181.552 480.653 357.83C430.164 434.429 360.345 501.506 285.478 548.533C283.314 504.68 294.71 456.932 310.145 415.531H310.434L271.052 351.916C245.375 310.659 228.065 281.953 212.197 257.718C164.593 263.055 95.6401 255.266 53.3738 222.953C51.4985 221.655 49.1904 223.818 50.4887 225.694C61.1635 241.706 70.54 255.843 78.9067 268.393C26.1099 350.762 -12.4058 471.069 19.1857 556.323C116.268 484.917 172.383 386.825 172.383 386.825L177.143 389.566C181.182 391.874 184.212 393.461 184.212 393.461C191.424 396.778 198.06 399.375 204.984 401.683C191.424 424.764 137.762 514.057 75.0118 592.819C38.5157 636.384 0 633.643 0 633.643C7.35693 641 56.8359 680.381 155.505 688.459C120.884 675.332 116.99 643.452 128.674 620.516L237.297 409.761C245.087 411.204 252.876 412.358 263.263 413.368C263.263 413.368 267.157 413.656 273.216 414.089C275.524 414.233 278.121 414.377 281.006 414.522C280.862 414.666 218.111 511.604 208.302 639.269ZM54.5278 471.357C54.5278 471.357 45.7284 391.729 101.41 302.581C143.676 366.197 143.676 365.764 155.073 375.285C116.557 423.61 88.4274 447.411 54.5278 471.357ZM162.285 359.128L100.833 265.94C100.833 265.94 148.87 286.713 200.08 281.808L268.889 392.162C268.889 392.018 207.292 391.585 162.285 359.128Z" fill="white"/>
<path d="M261.823 126.592C249.273 193.381 165.75 215.885 121.032 165.973L120.887 165.829C93.4793 182.274 74.0051 193.958 70.543 196.122C81.6505 207.229 96.0758 213.577 114.252 218.193C164.019 230.599 219.99 228.435 220.999 228.435L358.762 29.9419C360.781 27.2011 357.463 23.5948 354.578 25.47C335.825 36.7218 299.185 58.7926 258.217 83.3157C263.266 97.0198 264.708 111.878 261.823 126.592Z" fill="white"/>
<path d="M29.7159 164.532C29.7159 164.532 66.212 99.4733 150.312 106.974C133.723 112.168 123.481 135.392 142.089 153.28C174.114 184.15 229.651 167.849 238.306 122.265C240.038 113.177 239.461 104.234 237.152 96.1555C222.871 45.811 154.495 42.7817 146.273 75.5272C153.774 73.6519 161.708 76.2485 166.757 82.1629C171.806 88.0773 173.104 96.2997 170.075 103.368C167.334 109.86 161.564 114.476 154.639 115.63C154.351 115.63 154.207 115.774 153.918 115.774C153.485 115.918 153.053 115.918 152.62 115.918C164.449 110.725 158.967 95.2899 150.312 97.7422C150.6 98.175 150.889 98.4636 151.177 98.8963C133.001 97.4538 56.547 95.7227 7.93359 164.82C8.79912 163.666 20.1951 154.867 29.7159 164.532Z" fill="white"/>
<path d="M276.387 293.636L396.839 97.5959L381.981 69.3223L285.475 214.874C269.607 238.676 266.434 267.094 276.387 293.636Z" fill="white"/>
<path d="M634.283 146.209C647.121 225.981 627.214 315.995 577.158 402.836C501.714 533.674 373.184 637.969 235.422 681.678C263.263 677.783 303.365 668.262 350.248 645.182C438.819 601.617 501.425 537.857 538.354 491.985C577.88 442.939 597.065 403.557 597.787 401.826C652.747 296.088 652.747 220.644 643.227 176.069C640.774 164.673 637.601 154.72 634.283 146.209Z" fill="white"/>
</g>
</svg>
