<svg width="24" height="24" viewBox="0 0 24 24" fill="none" xmlns="http://www.w3.org/2000/svg">
<path fill-rule="evenodd" clip-rule="evenodd" d="M4.16912 4C2.66872 4 1.40031 5.10785 1.26086 6.60176C1.12823 8.02262 1 9.82857 1 11.5C1 13.1714 1.12823 14.9774 1.26086 16.3982C1.40031 17.8922 2.66871 19 4.16912 19H19.8308C21.3313 19 22.598 17.8918 22.7321 16.3974C22.8672 14.892 23 12.9073 23 10.9231C23 9.17084 22.8964 7.63563 22.7792 6.45907C22.6363 5.02593 21.4081 4 19.9678 4H4.16912ZM11.1822 14.8053C10.8503 15.0321 10.4 14.7945 10.4 14.3925V8.35352C10.4 7.95087 10.8516 7.71337 11.1834 7.94157L15.5868 10.9706C15.8762 11.1696 15.8755 11.5971 15.5856 11.7953L11.1822 14.8053Z" fill="#444B4D"/>
</svg>
