<svg width="28" height="32" viewBox="0 0 28 32" fill="none" xmlns="http://www.w3.org/2000/svg">
<path d="M11.1402 13.8169C10.2662 13.8169 9.57617 14.5836 9.57617 15.5189C9.57617 16.4542 10.2815 17.2209 11.1402 17.2209C12.0142 17.2209 12.7042 16.4542 12.7042 15.5189C12.7195 14.5836 12.0142 13.8169 11.1402 13.8169ZM16.7368 13.8169C15.8628 13.8169 15.1728 14.5836 15.1728 15.5189C15.1728 16.4542 15.8782 17.2209 16.7368 17.2209C17.6108 17.2209 18.3008 16.4542 18.3008 15.5189C18.3008 14.5836 17.6108 13.8169 16.7368 13.8169Z" fill="#7289DA"/>
<path d="M24.19 0.952148H3.64333C1.91067 0.952148 0.5 2.36281 0.5 4.11081V24.8415C0.5 26.5895 1.91067 28.0001 3.64333 28.0001H21.0313L20.2187 25.1635L22.1813 26.9881L24.0367 28.7055L27.3333 31.6188V4.11081C27.3333 2.36281 25.9227 0.952148 24.19 0.952148ZM18.2713 20.9775C18.2713 20.9775 17.7193 20.3181 17.2593 19.7355C19.268 19.1681 20.0347 17.9108 20.0347 17.9108C19.406 18.3248 18.808 18.6161 18.2713 18.8155C17.5047 19.1375 16.7687 19.3521 16.048 19.4748C14.576 19.7508 13.2267 19.6741 12.0767 19.4595C11.2027 19.2908 10.4513 19.0455 9.82267 18.8001C9.47 18.6621 9.08667 18.4935 8.70333 18.2788C8.65733 18.2481 8.61133 18.2328 8.56533 18.2021C8.53467 18.1868 8.51933 18.1715 8.504 18.1561C8.228 18.0028 8.07467 17.8955 8.07467 17.8955C8.07467 17.8955 8.81067 19.1221 10.758 19.7048C10.298 20.2875 9.73067 20.9775 9.73067 20.9775C6.342 20.8701 5.054 18.6468 5.054 18.6468C5.054 13.7095 7.262 9.70748 7.262 9.70748C9.47 8.05148 11.5707 8.09748 11.5707 8.09748L11.724 8.28148C8.964 9.07882 7.69133 10.2901 7.69133 10.2901C7.69133 10.2901 8.02867 10.1061 8.596 9.84548C10.2367 9.12481 11.54 8.92548 12.0767 8.87948C12.1687 8.86415 12.2453 8.84882 12.3373 8.84882C13.2727 8.72615 14.3307 8.69548 15.4347 8.81815C16.8913 8.98682 18.4553 9.41615 20.05 10.2901C20.05 10.2901 18.8387 9.14015 16.232 8.34281L16.4467 8.09748C16.4467 8.09748 18.5473 8.05148 20.7553 9.70748C20.7553 9.70748 22.9633 13.7095 22.9633 18.6468C22.9633 18.6468 21.66 20.8701 18.2713 20.9775Z" fill="#7289DA"/>
</svg>
