<svg width="32" height="32" viewBox="0 0 32 32" fill="none" xmlns="http://www.w3.org/2000/svg">
<path fill-rule="evenodd" clip-rule="evenodd" d="M6 8C4.89543 8 4 8.89543 4 10V23.3333C4 24.4379 4.89543 25.3333 6 25.3333H26C27.1046 25.3333 28 24.4379 28 23.3333V10C28 8.89543 27.1046 8 26 8H6ZM25.5471 10.8592C25.2853 10.373 24.6788 10.191 24.1926 10.4529L16 14.8643L7.80743 10.4529C7.32116 10.191 6.7147 10.373 6.45286 10.8592C6.19102 11.3455 6.37296 11.952 6.85923 12.2138L15.5259 16.8805C15.8219 17.0399 16.1781 17.0399 16.4741 16.8805L25.1408 12.2138C25.627 11.952 25.809 11.3455 25.5471 10.8592Z" fill="#C24DFE"/>
</svg>
