<svg width="32" height="32" viewBox="0 0 32 32" fill="none" xmlns="http://www.w3.org/2000/svg">
<path fill-rule="evenodd" clip-rule="evenodd" d="M15.9994 2.6665C23.3626 2.6665 29.3327 8.6366 29.3327 15.9998C29.3327 22.6562 24.4576 28.1725 18.0825 29.1719V19.8549H21.1895L21.7801 15.9999L21.7801 15.9998L18.0825 15.9999V13.4986C18.0825 13.199 18.1242 12.9013 18.222 12.6287C18.4253 12.062 18.8709 11.6042 19.6869 11.4616C19.8595 11.4314 20.0487 11.4154 20.2557 11.4154C20.2557 11.4154 20.2557 11.4154 20.2557 11.4154H21.9376V8.1341C21.9376 8.1341 21.9376 8.13409 21.9376 8.13409C21.9376 8.13409 20.4113 7.87348 18.9526 7.87347C18.9525 7.87347 18.9525 7.87346 18.9525 7.87346C18.7905 7.87346 18.6314 7.87869 18.4754 7.8891C15.9 8.06086 14.1772 9.64364 13.9434 12.4019C13.9254 12.6149 13.9162 12.8348 13.9162 13.0617V15.9998H10.5299V19.8549L10.5299 19.8549L13.9162 19.8549V29.1719C7.54109 28.1707 2.66602 22.6543 2.66602 15.9998C2.66602 8.6366 8.63611 2.6665 15.9994 2.6665Z" fill="#1977F3"/>
</svg>
