<svg width="104" height="104" viewBox="0 0 104 104" fill="none" xmlns="http://www.w3.org/2000/svg">
<path opacity="0.3" d="M71.5 19.5C64.5255 19.5 56.3691 27.4067 52 32.5C47.6309 27.4067 39.4745 19.5 32.5 19.5C20.1543 19.5 13 29.1294 13 41.3851C13 61.75 52 84.5 52 84.5C52 84.5 91 61.75 91 42.25C91 29.9943 83.8457 19.5 71.5 19.5Z" fill="#444B4D"/>
<path fill-rule="evenodd" clip-rule="evenodd" d="M52 32.5C47.6309 27.4067 39.4745 19.5 32.5 19.5C20.1543 19.5 13 29.1294 13 41.3851C13 61.75 52 84.5 52 84.5V32.5Z" fill="#444B4D"/>
</svg>
