<svg width="32" height="32" viewBox="0 0 32 32" fill="none" xmlns="http://www.w3.org/2000/svg">
<path d="M7.13123 26.0703C7.25509 26.1334 7.52739 26.2393 8.29702 26.3022C9.10125 26.3679 10.1598 26.3702 11.8089 26.3702H20.1898C21.8389 26.3702 22.8975 26.3679 23.7017 26.3022C24.4713 26.2393 24.7436 26.1334 24.8675 26.0703C25.3852 25.8066 25.8061 25.3857 26.0698 24.868C26.1329 24.7441 26.2388 24.4718 26.3017 23.7022C26.3674 22.8979 26.3697 21.8394 26.3697 20.1903V11.8094C26.3697 10.1603 26.3674 9.10174 26.3017 8.29751C26.2388 7.52787 26.133 7.25558 26.0698 7.13172L28.7099 5.78656C29.3327 7.00891 29.3327 8.60906 29.3327 11.8094V20.1903C29.3327 23.3906 29.3327 24.9908 28.7099 26.2131C28.162 27.2883 27.2878 28.1625 26.2126 28.7104C24.9903 29.3332 23.3901 29.3332 20.1898 29.3332H11.8089C8.60857 29.3332 7.00842 29.3332 5.78607 28.7104L7.13123 26.0703Z" fill="white"/>
<path d="M7.13123 26.0703C7.25509 26.1334 7.52739 26.2393 8.29702 26.3022C9.10125 26.3679 10.1598 26.3702 11.8089 26.3702H20.1898C21.8389 26.3702 22.8975 26.3679 23.7017 26.3022C24.4713 26.2393 24.7436 26.1334 24.8675 26.0703C25.3852 25.8066 25.8061 25.3857 26.0698 24.868C26.1329 24.7441 26.2388 24.4718 26.3017 23.7022C26.3674 22.8979 26.3697 21.8394 26.3697 20.1903V11.8094C26.3697 10.1603 26.3674 9.10174 26.3017 8.29751C26.2388 7.52787 26.133 7.25558 26.0698 7.13172L28.7099 5.78656C29.3327 7.00891 29.3327 8.60906 29.3327 11.8094V20.1903C29.3327 23.3906 29.3327 24.9908 28.7099 26.2131C28.162 27.2883 27.2878 28.1625 26.2126 28.7104C24.9903 29.3332 23.3901 29.3332 20.1898 29.3332H11.8089C8.60857 29.3332 7.00842 29.3332 5.78607 28.7104L7.13123 26.0703Z" fill="url(#paint0_linear)"/>
<path d="M7.13123 26.0703C7.25509 26.1334 7.52739 26.2393 8.29702 26.3022C9.10125 26.3679 10.1598 26.3702 11.8089 26.3702H20.1898C21.8389 26.3702 22.8975 26.3679 23.7017 26.3022C24.4713 26.2393 24.7436 26.1334 24.8675 26.0703C25.3852 25.8066 25.8061 25.3857 26.0698 24.868C26.1329 24.7441 26.2388 24.4718 26.3017 23.7022C26.3674 22.8979 26.3697 21.8394 26.3697 20.1903V11.8094C26.3697 10.1603 26.3674 9.10174 26.3017 8.29751C26.2388 7.52787 26.133 7.25558 26.0698 7.13172L28.7099 5.78656C29.3327 7.00891 29.3327 8.60906 29.3327 11.8094V20.1903C29.3327 23.3906 29.3327 24.9908 28.7099 26.2131C28.162 27.2883 27.2878 28.1625 26.2126 28.7104C24.9903 29.3332 23.3901 29.3332 20.1898 29.3332H11.8089C8.60857 29.3332 7.00842 29.3332 5.78607 28.7104L7.13123 26.0703Z" fill="url(#paint1_linear)" fill-opacity="0.7"/>
<path d="M5.78607 28.7104C4.71086 28.1625 3.83668 27.2883 3.28884 26.2131C2.66602 24.9908 2.66602 23.3906 2.66602 20.1903V11.8094C2.66602 8.60906 2.66602 7.00891 3.28884 5.78656C3.83668 4.71135 4.71086 3.83717 5.78607 3.28932C7.00842 2.6665 8.60857 2.6665 11.8089 2.6665H20.1898C23.3901 2.6665 24.9903 2.6665 26.2126 3.28932C27.2878 3.83717 28.162 4.71135 28.7099 5.78656L26.0698 7.13172C25.8061 6.61402 25.3852 6.19312 24.8675 5.92934C24.7436 5.86623 24.4713 5.76036 23.7017 5.69748C22.8975 5.63177 21.8389 5.62947 20.1898 5.62947H11.8089C10.1598 5.62947 9.10125 5.63177 8.29702 5.69748C7.52738 5.76036 7.25509 5.86623 7.13123 5.92934C6.61353 6.19312 6.19263 6.61402 5.92885 7.13172C5.86574 7.25558 5.75987 7.52787 5.69699 8.29751C5.63128 9.10174 5.62898 10.1603 5.62898 11.8094V20.1903C5.62898 21.8394 5.63128 22.8979 5.69699 23.7022C5.75987 24.4718 5.86574 24.7441 5.92885 24.868C6.19263 25.3857 6.61354 25.8066 7.13123 26.0703L5.78607 28.7104Z" fill="white"/>
<path d="M5.78607 28.7104C4.71086 28.1625 3.83668 27.2883 3.28884 26.2131C2.66602 24.9908 2.66602 23.3906 2.66602 20.1903V11.8094C2.66602 8.60906 2.66602 7.00891 3.28884 5.78656C3.83668 4.71135 4.71086 3.83717 5.78607 3.28932C7.00842 2.6665 8.60857 2.6665 11.8089 2.6665H20.1898C23.3901 2.6665 24.9903 2.6665 26.2126 3.28932C27.2878 3.83717 28.162 4.71135 28.7099 5.78656L26.0698 7.13172C25.8061 6.61402 25.3852 6.19312 24.8675 5.92934C24.7436 5.86623 24.4713 5.76036 23.7017 5.69748C22.8975 5.63177 21.8389 5.62947 20.1898 5.62947H11.8089C10.1598 5.62947 9.10125 5.63177 8.29702 5.69748C7.52738 5.76036 7.25509 5.86623 7.13123 5.92934C6.61353 6.19312 6.19263 6.61402 5.92885 7.13172C5.86574 7.25558 5.75987 7.52787 5.69699 8.29751C5.63128 9.10174 5.62898 10.1603 5.62898 11.8094V20.1903C5.62898 21.8394 5.63128 22.8979 5.69699 23.7022C5.75987 24.4718 5.86574 24.7441 5.92885 24.868C6.19263 25.3857 6.61354 25.8066 7.13123 26.0703L5.78607 28.7104Z" fill="url(#paint2_linear)"/>
<path d="M5.78607 28.7104C4.71086 28.1625 3.83668 27.2883 3.28884 26.2131C2.66602 24.9908 2.66602 23.3906 2.66602 20.1903V11.8094C2.66602 8.60906 2.66602 7.00891 3.28884 5.78656C3.83668 4.71135 4.71086 3.83717 5.78607 3.28932C7.00842 2.6665 8.60857 2.6665 11.8089 2.6665H20.1898C23.3901 2.6665 24.9903 2.6665 26.2126 3.28932C27.2878 3.83717 28.162 4.71135 28.7099 5.78656L26.0698 7.13172C25.8061 6.61402 25.3852 6.19312 24.8675 5.92934C24.7436 5.86623 24.4713 5.76036 23.7017 5.69748C22.8975 5.63177 21.8389 5.62947 20.1898 5.62947H11.8089C10.1598 5.62947 9.10125 5.63177 8.29702 5.69748C7.52738 5.76036 7.25509 5.86623 7.13123 5.92934C6.61353 6.19312 6.19263 6.61402 5.92885 7.13172C5.86574 7.25558 5.75987 7.52787 5.69699 8.29751C5.63128 9.10174 5.62898 10.1603 5.62898 11.8094V20.1903C5.62898 21.8394 5.63128 22.8979 5.69699 23.7022C5.75987 24.4718 5.86574 24.7441 5.92885 24.868C6.19263 25.3857 6.61354 25.8066 7.13123 26.0703L5.78607 28.7104Z" fill="url(#paint3_linear)" fill-opacity="0.7"/>
<path fill-rule="evenodd" clip-rule="evenodd" d="M8.85652 15.9998C8.85652 12.055 12.0545 8.85698 15.9994 8.85698C19.9443 8.85698 23.1422 12.055 23.1422 15.9998C23.1422 19.9447 19.9443 23.1427 15.9994 23.1427C12.0545 23.1427 8.85652 19.9447 8.85652 15.9998ZM15.9994 11.8199C13.6909 11.8199 11.8195 13.6913 11.8195 15.9998C11.8195 18.3083 13.6909 20.1797 15.9994 20.1797C18.3079 20.1797 20.1793 18.3083 20.1793 15.9998C20.1793 13.6913 18.3079 11.8199 15.9994 11.8199Z" fill="white"/>
<path fill-rule="evenodd" clip-rule="evenodd" d="M8.85652 15.9998C8.85652 12.055 12.0545 8.85698 15.9994 8.85698C19.9443 8.85698 23.1422 12.055 23.1422 15.9998C23.1422 19.9447 19.9443 23.1427 15.9994 23.1427C12.0545 23.1427 8.85652 19.9447 8.85652 15.9998ZM15.9994 11.8199C13.6909 11.8199 11.8195 13.6913 11.8195 15.9998C11.8195 18.3083 13.6909 20.1797 15.9994 20.1797C18.3079 20.1797 20.1793 18.3083 20.1793 15.9998C20.1793 13.6913 18.3079 11.8199 15.9994 11.8199Z" fill="url(#paint4_linear)"/>
<path fill-rule="evenodd" clip-rule="evenodd" d="M8.85652 15.9998C8.85652 12.055 12.0545 8.85698 15.9994 8.85698C19.9443 8.85698 23.1422 12.055 23.1422 15.9998C23.1422 19.9447 19.9443 23.1427 15.9994 23.1427C12.0545 23.1427 8.85652 19.9447 8.85652 15.9998ZM15.9994 11.8199C13.6909 11.8199 11.8195 13.6913 11.8195 15.9998C11.8195 18.3083 13.6909 20.1797 15.9994 20.1797C18.3079 20.1797 20.1793 18.3083 20.1793 15.9998C20.1793 13.6913 18.3079 11.8199 15.9994 11.8199Z" fill="url(#paint5_linear)" fill-opacity="0.7"/>
<path d="M23.4068 10.0739C24.225 10.0739 24.8882 9.41063 24.8882 8.59243C24.8882 7.77423 24.225 7.11095 23.4068 7.11095C22.5886 7.11095 21.9253 7.77423 21.9253 8.59243C21.9253 9.41063 22.5886 10.0739 23.4068 10.0739Z" fill="white"/>
<path d="M23.4068 10.0739C24.225 10.0739 24.8882 9.41063 24.8882 8.59243C24.8882 7.77423 24.225 7.11095 23.4068 7.11095C22.5886 7.11095 21.9253 7.77423 21.9253 8.59243C21.9253 9.41063 22.5886 10.0739 23.4068 10.0739Z" fill="url(#paint6_linear)"/>
<path d="M23.4068 10.0739C24.225 10.0739 24.8882 9.41063 24.8882 8.59243C24.8882 7.77423 24.225 7.11095 23.4068 7.11095C22.5886 7.11095 21.9253 7.77423 21.9253 8.59243C21.9253 9.41063 22.5886 10.0739 23.4068 10.0739Z" fill="url(#paint7_linear)" fill-opacity="0.7"/>
<defs>
<linearGradient id="paint0_linear" x1="29.3327" y1="2.6665" x2="2.66602" y2="29.3332" gradientUnits="userSpaceOnUse">
<stop stop-color="#BC2CC7"/>
<stop offset="0.510417" stop-color="#F6514F"/>
<stop offset="1" stop-color="#FED653"/>
</linearGradient>
<linearGradient id="paint1_linear" x1="2.66602" y1="2.6665" x2="29.3327" y2="29.3332" gradientUnits="userSpaceOnUse">
<stop stop-color="#416BCC"/>
<stop offset="0.644068" stop-color="#F6514F"/>
<stop offset="1" stop-color="#FED653"/>
</linearGradient>
<linearGradient id="paint2_linear" x1="29.3327" y1="2.6665" x2="2.66602" y2="29.3332" gradientUnits="userSpaceOnUse">
<stop stop-color="#BC2CC7"/>
<stop offset="0.510417" stop-color="#F6514F"/>
<stop offset="1" stop-color="#FED653"/>
</linearGradient>
<linearGradient id="paint3_linear" x1="2.66602" y1="2.6665" x2="29.3327" y2="29.3332" gradientUnits="userSpaceOnUse">
<stop stop-color="#416BCC"/>
<stop offset="0.644068" stop-color="#F6514F"/>
<stop offset="1" stop-color="#FED653"/>
</linearGradient>
<linearGradient id="paint4_linear" x1="29.3327" y1="2.6665" x2="2.66602" y2="29.3332" gradientUnits="userSpaceOnUse">
<stop stop-color="#BC2CC7"/>
<stop offset="0.510417" stop-color="#F6514F"/>
<stop offset="1" stop-color="#FED653"/>
</linearGradient>
<linearGradient id="paint5_linear" x1="2.66602" y1="2.6665" x2="29.3327" y2="29.3332" gradientUnits="userSpaceOnUse">
<stop stop-color="#416BCC"/>
<stop offset="0.644068" stop-color="#F6514F"/>
<stop offset="1" stop-color="#FED653"/>
</linearGradient>
<linearGradient id="paint6_linear" x1="29.3327" y1="2.6665" x2="2.66602" y2="29.3332" gradientUnits="userSpaceOnUse">
<stop stop-color="#BC2CC7"/>
<stop offset="0.510417" stop-color="#F6514F"/>
<stop offset="1" stop-color="#FED653"/>
</linearGradient>
<linearGradient id="paint7_linear" x1="2.66602" y1="2.6665" x2="29.3327" y2="29.3332" gradientUnits="userSpaceOnUse">
<stop stop-color="#416BCC"/>
<stop offset="0.644068" stop-color="#F6514F"/>
<stop offset="1" stop-color="#FED653"/>
</linearGradient>
</defs>
</svg>
