<svg width="400" height="400" viewBox="0 0 400 400" fill="none" xmlns="http://www.w3.org/2000/svg">
<path opacity="0.3" d="M215.802 138.604L184.18 128.063C196.925 89.8273 217.369 65.9757 245.949 58.8308C260.829 55.1107 283.324 31.1583 283.324 16.6665H316.658C316.658 46.6191 283.597 83.7779 254.033 91.1689C238.169 95.135 225.28 110.172 215.802 138.604Z" fill="#2F3639"/>
<path fill-rule="evenodd" clip-rule="evenodd" d="M130.32 116.667H270.003C292.613 112.145 315.805 123.775 325.425 145.336L382.486 273.229C391.093 292.521 386.647 315.142 371.378 329.741L368.422 332.567C348.008 352.084 315.492 350.833 296.639 329.803L254.979 283.333H147.737L106.077 329.804C87.2243 350.833 54.7081 352.085 34.2943 332.567L30.9602 329.379C15.8769 314.958 11.3362 292.686 19.5702 273.511L74.3563 145.928C83.8089 123.914 107.363 111.949 130.32 116.667ZM166.667 200C166.667 218.41 151.743 233.333 133.334 233.333C114.924 233.333 100.001 218.41 100.001 200C100.001 181.591 114.924 166.667 133.334 166.667C151.743 166.667 166.667 181.591 166.667 200ZM283.334 200C292.539 200 300.001 192.538 300.001 183.333C300.001 174.129 292.539 166.667 283.334 166.667C274.129 166.667 266.667 174.129 266.667 183.333C266.667 192.538 274.129 200 283.334 200ZM266.667 216.667C266.667 225.871 259.205 233.333 250.001 233.333C240.796 233.333 233.334 225.871 233.334 216.667C233.334 207.462 240.796 200 250.001 200C259.205 200 266.667 207.462 266.667 216.667Z" fill="#2F3639"/>
</svg>
