<svg width="28" height="28" viewBox="0 0 28 28" fill="none" xmlns="http://www.w3.org/2000/svg">
<path fill-rule="evenodd" clip-rule="evenodd" d="M11.7024 1.40537C12.4476 1.27035 13.2152 1.19984 13.9994 1.19984C21.0686 1.19984 26.7994 6.93059 26.7994 13.9998C26.7994 14.784 26.7288 15.5516 26.5938 16.2968C27.0677 17.2985 27.3327 18.4182 27.3327 19.5998C27.3327 23.8708 23.8703 27.3332 19.5993 27.3332C18.4177 27.3332 17.298 27.0682 16.2963 26.5943C15.5511 26.7293 14.7835 26.7998 13.9994 26.7998C6.93011 26.7998 1.19935 21.0691 1.19935 13.9998C1.19935 13.2157 1.26986 12.4481 1.40488 11.7029C0.931036 10.7012 0.666016 9.58148 0.666016 8.39984C0.666016 4.12883 4.12835 0.666504 8.39935 0.666504C9.58099 0.666504 10.7007 0.931524 11.7024 1.40537ZM9.46 12.4688C9.76199 12.9864 10.1795 13.4272 10.6799 13.7568H10.6798C11.343 14.1907 12.048 14.5571 12.7843 14.8504C13.6072 15.1939 14.2455 15.4856 14.6992 15.7253C15.0831 15.9137 15.4316 16.1669 15.7295 16.4738C15.9549 16.7131 16.0801 17.0296 16.0794 17.3584C16.089 17.59 16.0434 17.8206 15.9462 18.0311C15.849 18.2415 15.7031 18.4258 15.5205 18.5687C15.0329 18.8969 14.4495 19.0526 13.8631 19.0109C13.5315 19.0142 13.2006 18.98 12.8767 18.9089C12.6139 18.8511 12.3569 18.7698 12.1087 18.6659C11.8915 18.572 11.595 18.431 11.2193 18.243C10.9169 18.0816 10.5803 17.995 10.2376 17.9902C9.92967 17.9775 9.62864 18.0837 9.3968 18.2867C9.28636 18.3919 9.20005 18.5199 9.14385 18.6617C9.08764 18.8035 9.06287 18.9558 9.07124 19.1081C9.06429 19.3968 9.15128 19.68 9.31913 19.915C9.52163 20.1716 9.7835 20.3751 10.0822 20.5079C11.2493 21.0135 12.5144 21.2526 13.7855 21.2079C14.7104 21.2266 15.631 21.0767 16.5023 20.7655C17.2253 20.5089 17.855 20.0417 18.3101 19.424C18.7572 18.7716 18.9837 17.9932 18.9566 17.2028C18.974 16.5575 18.8125 15.92 18.49 15.3607C18.1623 14.8284 17.7208 14.3753 17.1972 14.0339C16.5344 13.6063 15.8312 13.2449 15.0977 12.9549C15.0192 12.9164 14.938 12.8839 14.8547 12.8576C14.103 12.5466 13.5377 12.2971 13.1585 12.1091C12.8202 11.9506 12.5138 11.7315 12.2545 11.4627C12.0364 11.2335 11.9162 10.9284 11.9192 10.6121C11.9086 10.371 11.963 10.1314 12.0767 9.9185C12.1904 9.70559 12.3593 9.52715 12.5656 9.40186C13.054 9.11114 13.616 8.96769 14.184 8.98876C14.6202 8.98408 15.055 9.03802 15.4767 9.14913C15.9348 9.28121 16.3831 9.44524 16.8182 9.63999C16.9949 9.72188 17.1872 9.76499 17.3819 9.76642C17.5234 9.77023 17.6642 9.74405 17.7948 9.68959C17.9255 9.63514 18.0432 9.55365 18.1401 9.45048C18.2425 9.33852 18.3218 9.20749 18.3735 9.06488C18.4252 8.92227 18.4483 8.77087 18.4415 8.61932C18.446 8.32759 18.344 8.0442 18.1547 7.82218C17.8979 7.55224 17.5793 7.34876 17.2264 7.22923C16.8422 7.08812 16.445 6.98554 16.0405 6.92302C15.4751 6.83027 14.9027 6.78636 14.3298 6.79179C13.4542 6.78647 12.5844 6.93283 11.7588 7.22436C10.9999 7.48069 10.3224 7.9335 9.79534 8.53672C9.28807 9.13741 9.01992 9.90396 9.04214 10.6899C9.02419 11.3091 9.16823 11.9223 9.46 12.4688Z" fill="#28A8EA"/>
</svg>
