<svg width="32" height="32" viewBox="0 0 32 32" fill="none" xmlns="http://www.w3.org/2000/svg">
<path fill-rule="evenodd" clip-rule="evenodd" d="M30.6673 7.00092C29.5864 7.50805 28.4267 7.85234 27.2102 8.00588C28.453 7.21494 29.407 5.95874 29.8534 4.46526C28.6893 5.20037 27.4027 5.73076 26.033 6.01922C24.9346 4.77698 23.3723 4 21.6393 4C18.3178 4 15.6221 6.86599 15.6221 10.3973C15.6221 10.8998 15.6746 11.3883 15.7797 11.8536C10.7777 11.5884 6.34468 9.03875 3.37765 5.1678C2.86126 6.11227 2.56368 7.21028 2.56368 8.38274C2.56368 10.602 3.62709 12.5608 5.24189 13.7053C4.25725 13.6727 3.32951 13.3843 2.51554 12.9051C2.51554 12.933 2.51554 12.9562 2.51554 12.9841C2.51554 16.0828 4.58984 18.6696 7.34244 19.2558C6.83918 19.4001 6.30529 19.4792 5.75827 19.4792C5.36879 19.4792 4.99245 19.4373 4.62485 19.3628C5.39068 21.9032 7.61376 23.7549 10.2438 23.8061C8.18266 25.5229 5.59198 26.5464 2.76936 26.5464C2.28361 26.5464 1.80661 26.5139 1.33398 26.458C3.99468 28.2725 7.15864 29.3333 10.5589 29.3333C21.6262 29.3333 27.6784 19.5862 27.6784 11.1324C27.6784 10.8533 27.674 10.5788 27.6609 10.3043C28.8381 9.40165 29.8577 8.27573 30.6629 6.99161L30.6673 7.00092Z" fill="#41ABE1"/>
</svg>
