<svg width="32" height="32" viewBox="0 0 32 32" fill="none" xmlns="http://www.w3.org/2000/svg">
<path d="M15.2836 1.35046C7.47357 1.71932 1.31036 8.17099 1.33405 15.9267C1.34127 18.2888 1.91619 20.5184 2.93037 22.4885L1.37323 29.9859C1.289 30.3915 1.65776 30.7466 2.06393 30.6512L9.4704 28.9106C11.3732 29.8508 13.5105 30.3938 15.7725 30.4281C23.7551 30.549 30.4112 24.2619 30.66 16.3467C30.9267 7.86225 23.8671 0.944977 15.2836 1.35046ZM24.1211 23.9365C21.9521 26.088 19.0681 27.2729 16.0007 27.2729C14.2046 27.2729 12.485 26.8732 10.8895 26.0849L9.85804 25.5752L5.31711 26.6424L6.27295 22.0398L5.7648 21.0528C4.93654 19.4438 4.51658 17.704 4.51658 15.8816C4.51658 12.8389 5.71112 9.97834 7.88016 7.82675C10.0298 5.69446 12.9608 4.49029 16.0009 4.49029C19.0683 4.49036 21.9521 5.67524 24.1212 7.82668C26.2902 9.9782 27.4848 12.8387 27.4848 15.8814C27.4848 18.897 26.2708 21.8043 24.1211 23.9365Z" fill="#0DC143"/>
<path d="M22.5977 19.249L19.8698 18.4069C19.5112 18.2962 19.125 18.4056 18.8637 18.6919L18.1966 19.4226C17.9153 19.7307 17.4885 19.8297 17.1162 19.6678C15.8258 19.1063 13.1113 16.5114 12.4181 15.2134C12.2181 14.839 12.2512 14.3709 12.4968 14.0293L13.0792 13.2192C13.3073 12.9018 13.3555 12.4755 13.2046 12.1086L12.0569 9.31781C11.782 8.64937 10.9876 8.45479 10.4685 8.92675C9.70719 9.61907 8.80386 10.6711 8.69405 11.8366C8.50044 13.8916 9.3201 16.4819 12.4197 19.5923C16.0006 23.1857 18.8681 23.6605 20.7351 23.1742C21.7941 22.8984 22.6404 21.7928 23.1745 20.8876C23.5386 20.2704 23.2511 19.4508 22.5977 19.249Z" fill="#0DC143"/>
</svg>
