<svg width="32" height="32" viewBox="0 0 32 32" fill="none" xmlns="http://www.w3.org/2000/svg">
<path d="M15.9916 6.6665C15.9916 6.6665 6.82369 6.66651 4.52268 7.24904C3.29064 7.58443 2.27615 8.57284 1.9319 9.79085C1.334 12.0327 1.33398 16.6753 1.33398 16.6753C1.33398 16.6753 1.334 21.3356 1.9319 23.5422C2.27615 24.7602 3.27252 25.7309 4.52268 26.0663C6.84181 26.6665 15.9916 26.6665 15.9916 26.6665C15.9916 26.6665 25.1776 26.6665 27.4786 26.084C28.7287 25.7486 29.7251 24.7955 30.0512 23.5598C30.6672 21.3356 30.6673 16.693 30.6673 16.693C30.6673 16.693 30.6854 12.0327 30.0512 9.79085C29.7251 8.57284 28.7287 7.60211 27.4786 7.28436C25.1776 6.66653 15.9916 6.6665 15.9916 6.6665ZM13.0745 12.3859L20.7024 16.6753L13.0745 20.9471V12.3859Z" fill="#F80000"/>
</svg>
