<svg width="72" height="32" viewBox="0 0 72 32" fill="none" xmlns="http://www.w3.org/2000/svg">
<g clip-path="url(#clip0)" filter="url(#filter0_d)">
<path d="M23.2904 31.1205V29.0949C23.3023 28.9246 23.2774 28.7536 23.2172 28.5936C23.1571 28.4335 23.063 28.2879 22.9414 28.1665C22.8198 28.0451 22.6734 27.9507 22.512 27.8896C22.3505 27.8285 22.1777 27.802 22.0051 27.812C21.7792 27.7974 21.5535 27.843 21.3514 27.9439C21.1494 28.0449 20.9785 28.1975 20.8566 28.386C20.7455 28.2032 20.5865 28.0534 20.3964 27.9524C20.2063 27.8514 19.9921 27.8029 19.7765 27.812C19.5885 27.8027 19.4013 27.842 19.2334 27.926C19.0655 28.0101 18.9228 28.1361 18.8194 28.2914V27.8931H18.1084V31.1205H18.8262V29.3447C18.811 29.2344 18.8206 29.122 18.8544 29.0158C18.8881 28.9095 18.9453 28.8119 19.0217 28.73C19.0981 28.6481 19.1919 28.5838 19.2964 28.5419C19.4009 28.4999 19.5135 28.4812 19.6261 28.4872C20.0978 28.4872 20.3371 28.7911 20.3371 29.338V31.134H21.0549V29.3447C21.0402 29.2345 21.0503 29.1224 21.0843 29.0164C21.1183 28.9104 21.1755 28.8131 21.2518 28.7313C21.3281 28.6495 21.4216 28.5852 21.5258 28.5431C21.63 28.5009 21.7423 28.4818 21.8547 28.4872C22.3401 28.4872 22.5726 28.7911 22.5726 29.338V31.134L23.2904 31.1205ZM33.9107 27.8931H32.7417V26.914H32.0239V27.8931H31.3744V28.5345H32.0376V30.0199C32.0376 30.7694 32.3315 31.215 33.1724 31.215C33.4866 31.2161 33.7946 31.1295 34.0611 30.9652L33.856 30.3643C33.6654 30.4766 33.449 30.5393 33.2271 30.5466C32.8853 30.5466 32.7554 30.3305 32.7554 30.0064V28.5345H33.9176L33.9107 27.8931ZM39.9746 27.812C39.8013 27.807 39.6298 27.8483 39.4782 27.9314C39.3266 28.0146 39.2005 28.1367 39.1132 28.2847V27.8931H38.4091V31.1205H39.1201V29.311C39.1201 28.7776 39.3525 28.4805 39.8037 28.4805C39.9558 28.4784 40.1068 28.506 40.2481 28.5615L40.4668 27.8863C40.3045 27.8289 40.1334 27.7993 39.9609 27.7985L39.9746 27.812ZM30.807 28.1496C30.4046 27.9133 29.9418 27.7961 29.4739 27.812C28.6467 27.812 28.1066 28.2037 28.1066 28.8451C28.1066 29.3717 28.5031 29.6958 29.2346 29.7971L29.5765 29.8444C29.9661 29.8984 30.1507 29.9997 30.1507 30.182C30.1507 30.4318 29.8909 30.5736 29.4055 30.5736C29.0151 30.5848 28.6322 30.4659 28.3186 30.236L27.9767 30.7829C28.3909 31.0685 28.8869 31.2153 29.3919 31.2015C30.3353 31.2015 30.8822 30.7627 30.8822 30.1482C30.8822 29.5338 30.4515 29.284 29.7405 29.1827L29.3987 29.1354C29.0911 29.0949 28.845 29.0342 28.845 28.8181C28.845 28.602 29.0774 28.44 29.4671 28.44C29.8272 28.4441 30.1803 28.5394 30.4925 28.7168L30.807 28.1496ZM49.8498 27.812C49.6764 27.807 49.5049 27.8483 49.3533 27.9314C49.2017 28.0146 49.0757 28.1367 48.9884 28.2847V27.8931H48.2843V31.1205H48.9952V29.311C48.9952 28.7776 49.2277 28.4805 49.6789 28.4805C49.831 28.4784 49.9819 28.506 50.1233 28.5615L50.342 27.8863C50.1796 27.8289 50.0086 27.7993 49.8361 27.7985L49.8498 27.812ZM40.689 29.5C40.6806 29.7268 40.7201 29.9529 40.8052 30.1637C40.8903 30.3746 41.019 30.5655 41.1831 30.7244C41.3472 30.8833 41.543 31.0066 41.7582 31.0864C41.9733 31.1663 42.2029 31.2009 42.4323 31.188C42.8592 31.2095 43.2787 31.0722 43.6082 30.8032L43.2663 30.236C43.0206 30.4211 42.7209 30.5229 42.4118 30.5263C42.149 30.5053 41.9038 30.3874 41.7251 30.196C41.5463 30.0046 41.447 29.7537 41.447 29.4933C41.447 29.2329 41.5463 28.982 41.7251 28.7906C41.9038 28.5992 42.149 28.4812 42.4118 28.4602C42.7209 28.4636 43.0206 28.5655 43.2663 28.7506L43.6082 28.1834C43.2787 27.9144 42.8592 27.7771 42.4323 27.7985C42.2029 27.7857 41.9733 27.8203 41.7582 27.9001C41.543 27.98 41.3472 28.1033 41.1831 28.2622C41.019 28.421 40.8903 28.612 40.8052 28.8228C40.7201 29.0337 40.6806 29.2597 40.689 29.4865V29.5ZM47.3477 29.5V27.8931H46.6367V28.2847C46.5159 28.1312 46.36 28.0084 46.1817 27.9262C46.0034 27.844 45.8079 27.8049 45.6112 27.812C45.1579 27.812 44.7232 27.9899 44.4027 28.3064C44.0822 28.623 43.9021 29.0524 43.9021 29.5C43.9021 29.9477 44.0822 30.3771 44.4027 30.6936C44.7232 31.0102 45.1579 31.188 45.6112 31.188C45.8079 31.1952 46.0034 31.1561 46.1817 31.0739C46.36 30.9917 46.5159 30.8688 46.6367 30.7154V31.107H47.3477V29.5ZM44.702 29.5C44.7133 29.3101 44.7807 29.1275 44.8957 28.9749C45.0108 28.8222 45.1685 28.7061 45.3495 28.6409C45.5306 28.5757 45.7269 28.5641 45.9145 28.6077C46.1021 28.6513 46.2726 28.7482 46.4052 28.8863C46.5377 29.0244 46.6264 29.1978 46.6605 29.3852C46.6945 29.5725 46.6723 29.7655 46.5967 29.9405C46.521 30.1156 46.3952 30.2649 46.2346 30.3702C46.0741 30.4755 45.886 30.5321 45.6933 30.5331C45.5579 30.5348 45.4237 30.5088 45.299 30.4568C45.1743 30.4047 45.0619 30.3278 44.9688 30.2308C44.8757 30.1337 44.8039 30.0187 44.758 29.893C44.7121 29.7672 44.693 29.6334 44.702 29.5ZM36.1223 27.812C35.669 27.8183 35.2368 28.0022 34.9208 28.3232C34.6048 28.6441 34.4308 29.076 34.4371 29.5237C34.4435 29.9714 34.6296 30.3982 34.9546 30.7103C35.2796 31.0225 35.7169 31.1943 36.1702 31.188C36.662 31.213 37.1456 31.0566 37.5272 30.7492L37.1854 30.2293C36.9155 30.443 36.5811 30.5618 36.2351 30.5669C36.0001 30.5868 35.7665 30.5154 35.5839 30.3679C35.4013 30.2204 35.2842 30.0083 35.2575 29.7769H37.6844C37.6844 29.6891 37.6844 29.6013 37.6844 29.5068C37.6844 28.494 37.0486 27.8188 36.1326 27.8188L36.1223 27.812ZM36.1223 28.44C36.2287 28.4377 36.3345 28.4562 36.4337 28.4944C36.5328 28.5325 36.6234 28.5896 36.7002 28.6623C36.777 28.7351 36.8386 28.822 36.8814 28.9183C36.9241 29.0145 36.9473 29.1181 36.9495 29.2232H35.2404C35.2528 29.0065 35.3506 28.8032 35.5129 28.6568C35.6751 28.5104 35.889 28.4326 36.1086 28.44H36.1223ZM53.9345 29.5068V26.5967H53.2509V28.2847C53.1302 28.1312 52.9742 28.0084 52.7959 27.9262C52.6176 27.844 52.4221 27.8049 52.2254 27.812C51.7722 27.812 51.3374 27.9899 51.0169 28.3064C50.6964 28.623 50.5163 29.0524 50.5163 29.5C50.5163 29.9477 50.6964 30.3771 51.0169 30.6936C51.3374 31.0102 51.7722 31.188 52.2254 31.188C52.4221 31.1952 52.6176 31.1561 52.7959 31.0739C52.9742 30.9917 53.1302 30.8688 53.2509 30.7154V31.107H53.9345V29.5068ZM55.1207 30.6513C55.1651 30.6507 55.2092 30.6587 55.2506 30.6749C55.2898 30.6907 55.3257 30.7136 55.3565 30.7424C55.3866 30.7715 55.4109 30.8059 55.4283 30.8437C55.4456 30.8831 55.4545 30.9256 55.4545 30.9686C55.4545 31.0116 55.4456 31.0541 55.4283 31.0935C55.4109 31.1313 55.3866 31.1657 55.3565 31.1948C55.3257 31.2236 55.2898 31.2465 55.2506 31.2623C55.2096 31.2801 55.1654 31.2893 55.1207 31.2893C55.0559 31.2888 54.9925 31.2702 54.9381 31.2355C54.8836 31.2008 54.8402 31.1516 54.813 31.0935C54.7959 31.054 54.7871 31.0115 54.7871 30.9686C54.7871 30.9257 54.7959 30.8832 54.813 30.8437C54.8304 30.8059 54.8548 30.7715 54.8848 30.7424C54.9156 30.7136 54.9515 30.6907 54.9908 30.6749C55.0353 30.6574 55.083 30.6493 55.1309 30.6513H55.1207ZM55.1207 31.2218C55.1548 31.222 55.1886 31.2151 55.2198 31.2015C55.2492 31.1886 55.2759 31.1702 55.2984 31.1475C55.3412 31.1015 55.3649 31.0412 55.3649 30.9787C55.3649 30.9162 55.3412 30.856 55.2984 30.8099C55.2759 30.7871 55.2492 30.7688 55.2198 30.7559C55.1885 30.7424 55.1548 30.7355 55.1207 30.7357C55.0866 30.7358 55.0529 30.7427 55.0215 30.7559C54.9908 30.7683 54.9629 30.7867 54.9395 30.8099C54.8967 30.856 54.873 30.9162 54.873 30.9787C54.873 31.0412 54.8967 31.1015 54.9395 31.1475C54.963 31.1707 54.9909 31.189 55.0215 31.2015C55.056 31.2162 55.0934 31.2231 55.1309 31.2218H55.1207ZM55.1412 30.8201C55.1731 30.8185 55.2045 30.8281 55.23 30.8471C55.2405 30.8556 55.2488 30.8665 55.2541 30.8788C55.2595 30.8912 55.2618 30.9046 55.2608 30.918C55.2613 30.9292 55.2594 30.9404 55.2553 30.9508C55.2512 30.9613 55.2449 30.9708 55.2369 30.9787C55.2171 30.9965 55.1918 31.0072 55.1651 31.0091L55.2642 31.1205H55.1856L55.0933 31.0091H55.0626V31.1205H54.9976V30.8234L55.1412 30.8201ZM55.066 30.8774V30.9585H55.1412C55.1546 30.9624 55.1688 30.9624 55.1822 30.9585C55.1846 30.9538 55.1858 30.9486 55.1858 30.9433C55.1858 30.938 55.1846 30.9328 55.1822 30.9281C55.1846 30.9234 55.1858 30.9182 55.1858 30.9129C55.1858 30.9076 55.1846 30.9024 55.1822 30.8977C55.1688 30.8938 55.1546 30.8938 55.1412 30.8977L55.066 30.8774ZM51.306 29.5068C51.3173 29.3168 51.3846 29.1343 51.4997 28.9816C51.6147 28.8289 51.7725 28.7129 51.9535 28.6476C52.1345 28.5824 52.3309 28.5709 52.5185 28.6145C52.706 28.6581 52.8766 28.7549 53.0091 28.8931C53.1417 29.0312 53.2304 29.2046 53.2644 29.3919C53.2985 29.5792 53.2763 29.7723 53.2006 29.9473C53.125 30.1223 52.9991 30.2717 52.8386 30.377C52.6781 30.4822 52.4899 30.5389 52.2972 30.5398C52.1619 30.5415 52.0277 30.5155 51.903 30.4635C51.7783 30.4115 51.6659 30.3345 51.5728 30.2375C51.4797 30.1405 51.4079 30.0255 51.362 29.8997C51.3161 29.774 51.297 29.6402 51.306 29.5068ZM27.2999 29.5068V27.8931H26.589V28.2847C26.4682 28.1312 26.3123 28.0084 26.134 27.9262C25.9557 27.844 25.7601 27.8049 25.5635 27.812C25.1102 27.812 24.6755 27.9899 24.355 28.3064C24.0345 28.623 23.8544 29.0524 23.8544 29.5C23.8544 29.9477 24.0345 30.3771 24.355 30.6936C24.6755 31.0102 25.1102 31.188 25.5635 31.188C25.7601 31.1952 25.9557 31.1561 26.134 31.0739C26.3123 30.9917 26.4682 30.8688 26.589 30.7154V31.107H27.2999V29.5068ZM24.6543 29.5068C24.6656 29.3168 24.7329 29.1343 24.848 28.9816C24.963 28.8289 25.1208 28.7129 25.3018 28.6476C25.4828 28.5824 25.6792 28.5709 25.8668 28.6145C26.0543 28.6581 26.2249 28.7549 26.3574 28.8931C26.49 29.0312 26.5787 29.2046 26.6127 29.3919C26.6468 29.5792 26.6246 29.7723 26.5489 29.9473C26.4733 30.1223 26.3474 30.2717 26.1869 30.377C26.0264 30.4822 25.8382 30.5389 25.6455 30.5398C25.5096 30.5425 25.3746 30.5172 25.2491 30.4656C25.1236 30.414 25.0104 30.3372 24.9165 30.24C24.8227 30.1429 24.7503 30.0276 24.704 29.9013C24.6577 29.7751 24.6384 29.6408 24.6474 29.5068H24.6543Z" fill="#2F3639"/>
<path d="M41.3386 3.29883H30.5713V22.4104H41.3386V3.29883Z" fill="#FF5F00"/>
<path d="M31.2551 12.8555C31.2531 11.0146 31.6752 9.19749 32.4895 7.54163C33.3038 5.88576 34.4889 4.4346 35.9551 3.29803C34.1397 1.88897 31.9596 1.01275 29.6639 0.769528C27.3682 0.526308 25.0495 0.925897 22.9728 1.92262C20.8962 2.91935 19.1453 4.47301 17.9204 6.40602C16.6955 8.33903 16.0459 10.5734 16.0459 12.8538C16.0459 15.1342 16.6955 17.3686 17.9204 19.3016C19.1453 21.2346 20.8962 22.7882 22.9728 23.785C25.0495 24.7817 27.3682 25.1813 29.6639 24.9381C31.9596 24.6949 34.1397 23.8186 35.9551 22.4096C34.4894 21.2734 33.3046 19.8227 32.4903 18.1675C31.676 16.5123 31.2536 14.6958 31.2551 12.8555Z" fill="#EB001B"/>
<path d="M55.8661 12.8559C55.866 15.1365 55.2163 17.371 53.9912 19.3041C52.766 21.2372 51.0149 22.7908 48.938 23.7874C46.8611 24.784 44.5422 25.1833 42.2463 24.9397C39.9505 24.6962 37.7703 23.8195 35.9551 22.41C37.4202 21.2728 38.6047 19.8218 39.4192 18.1664C40.2337 16.5111 40.6569 14.6947 40.6569 12.8542C40.6569 11.0138 40.2337 9.19737 39.4192 7.54204C38.6047 5.88671 37.4202 4.43569 35.9551 3.29846C37.7703 1.88895 39.9505 1.01231 42.2463 0.768741C44.5422 0.525172 46.8611 0.924503 48.938 1.92109C51.0149 2.91768 52.766 4.4713 53.9912 6.40438C55.2163 8.33746 55.866 10.572 55.8661 12.8525V12.8559Z" fill="#F79E1B"/>
<path d="M54.6904 20.3847V19.9931H54.8511V19.9121H54.4443V19.9931H54.6187V20.3847H54.6904ZM55.48 20.3847V19.9121H55.357L55.2134 20.2497L55.0699 19.9121H54.9605V20.3847H55.0494V20.0303L55.1827 20.3375H55.275L55.4083 20.0303V20.3881L55.48 20.3847Z" fill="#F79E1B"/>
</g>
<defs>
<filter id="filter0_d" x="-4" y="0" width="80" height="40" filterUnits="userSpaceOnUse" color-interpolation-filters="sRGB">
<feFlood flood-opacity="0" result="BackgroundImageFix"/>
<feColorMatrix in="SourceAlpha" type="matrix" values="0 0 0 0 0 0 0 0 0 0 0 0 0 0 0 0 0 0 127 0"/>
<feOffset dy="4"/>
<feGaussianBlur stdDeviation="2"/>
<feColorMatrix type="matrix" values="0 0 0 0 0 0 0 0 0 0 0 0 0 0 0 0 0 0 0.25 0"/>
<feBlend mode="normal" in2="BackgroundImageFix" result="effect1_dropShadow"/>
<feBlend mode="normal" in="SourceGraphic" in2="effect1_dropShadow" result="shape"/>
</filter>
<clipPath id="clip0">
<rect width="72" height="32" fill="white"/>
</clipPath>
</defs>
</svg>
