<svg width="72" height="32" viewBox="0 0 72 32" fill="none" xmlns="http://www.w3.org/2000/svg">
<g clip-path="url(#clip0)">
<path d="M13.177 8.47138C12.3314 7.51944 10.8028 7.11133 8.84735 7.11133H3.17194C2.77186 7.11133 2.43189 7.39871 2.36925 7.78836L0.00613461 22.5908C-0.0408448 22.8826 0.18799 23.1471 0.487547 23.1471H3.9913L4.87128 17.6345L4.844 17.8071C4.90664 17.4175 5.24408 17.1301 5.64366 17.1301H7.30865C10.5795 17.1301 13.1407 15.818 13.8888 12.0222C13.911 11.9099 13.9302 11.8007 13.9469 11.6939C13.8524 11.6445 13.8524 11.6445 13.9469 11.6939C14.1697 10.2909 13.9453 9.336 13.177 8.47138Z" fill="#003087"/>
<path d="M49.3771 15.4713H47.4913C47.311 15.4713 47.1422 15.5596 47.0412 15.7073L44.4397 19.4911L43.3374 15.855C43.2682 15.6275 43.0561 15.4713 42.8156 15.4713H40.9622C40.7384 15.4713 40.5808 15.6888 40.653 15.8979L42.7292 21.9178L40.7763 24.6394C40.6232 24.853 40.7779 25.1483 41.043 25.1483H42.9267C43.1051 25.1483 43.2723 25.062 43.3743 24.9173L49.6453 15.9777C49.7953 15.7637 49.6407 15.4713 49.3771 15.4713ZM36.7701 19.0779C36.5887 20.1366 35.738 20.8476 34.6525 20.8476C34.1084 20.8476 33.6725 20.6745 33.3926 20.3472C33.1153 20.0229 33.0107 19.5604 33.0986 19.046C33.2673 17.9963 34.1321 17.2629 35.2011 17.2629C35.734 17.2629 36.1664 17.4375 36.4518 17.7678C36.7392 18.1005 36.8524 18.5655 36.7701 19.0779ZM39.3847 15.4712H37.5086C37.348 15.4712 37.2111 15.5865 37.1858 15.7436L37.1035 16.2615L36.9726 16.0739C36.566 15.4917 35.6602 15.2966 34.756 15.2966C32.6834 15.2966 30.9128 16.8483 30.5683 19.024C30.389 20.1097 30.6435 21.1469 31.2669 21.8709C31.8392 22.5359 32.6561 22.8128 33.6295 22.8128C35.3006 22.8128 36.227 21.7531 36.227 21.7531L36.1432 22.268C36.1118 22.4636 36.2649 22.6407 36.466 22.6407H38.1552C38.4234 22.6407 38.6513 22.4486 38.6932 22.1872L39.7075 15.8439C39.7389 15.6484 39.5853 15.4712 39.3847 15.4712ZM28.1262 15.5157C27.912 16.9047 26.8381 16.9047 25.799 16.9047H25.2079L25.6227 14.3114C25.6474 14.1547 25.7843 14.0394 25.945 14.0394H26.2162C26.9234 14.0394 27.5913 14.0394 27.9358 14.4371C28.1419 14.6751 28.204 15.0283 28.1262 15.5157ZM27.6741 11.8916H23.7561C23.4879 11.8916 23.2601 12.0842 23.2181 12.3456L21.634 22.2681C21.6026 22.4637 21.7557 22.6408 21.9562 22.6408H23.8273C24.0951 22.6408 24.3229 22.4482 24.3648 22.1873L24.7927 19.5101C24.8341 19.2487 25.0624 19.0561 25.3302 19.0561H26.5698C29.1507 19.0561 30.6404 17.8227 31.0293 15.3775C31.2046 14.3089 31.0364 13.4687 30.5297 12.8805C29.9725 12.2339 28.985 11.8916 27.6741 11.8916Z" fill="#002F86"/>
<path d="M69.5404 12.1643L67.9325 22.2684C67.9012 22.4639 68.0542 22.641 68.2548 22.641H69.8723C70.14 22.641 70.3683 22.4485 70.4098 22.187L71.9954 12.2645C72.0268 12.069 71.8737 11.8919 71.6726 11.8919H69.8632C69.702 11.8919 69.5651 12.0071 69.5404 12.1643ZM64.7144 19.0779C64.5331 20.1366 63.6824 20.8476 62.5968 20.8476C62.0528 20.8476 61.6168 20.6745 61.337 20.3472C61.0591 20.0229 60.9551 19.5604 61.043 19.046C61.2117 17.9963 62.0765 17.2629 63.1454 17.2629C63.6784 17.2629 64.1108 17.4375 64.3962 17.7678C64.6836 18.1005 64.7968 18.5655 64.7144 19.0779ZM67.3291 15.4712H65.453C65.2923 15.4712 65.1554 15.5865 65.1302 15.7437L65.0478 16.2615L64.9165 16.0739C64.5104 15.4917 63.6046 15.2966 62.7004 15.2966C60.6277 15.2966 58.8572 16.8483 58.5127 19.024C58.3333 20.1097 58.5879 21.1469 59.2113 21.8709C59.7836 22.5359 60.6005 22.8128 61.5739 22.8128C63.2449 22.8128 64.1714 21.7531 64.1714 21.7531L64.0875 22.268C64.0562 22.4636 64.2093 22.6407 64.4103 22.6407H66.0996C66.3678 22.6407 66.5956 22.4486 66.6376 22.1872L67.6519 15.8439C67.6832 15.6484 67.5297 15.4712 67.3291 15.4712ZM56.0705 15.5157C55.8563 16.9047 54.7824 16.9047 53.7433 16.9047H53.1523L53.567 14.3114C53.5918 14.1547 53.7286 14.0394 53.8893 14.0394H54.1605C54.8678 14.0394 55.5356 14.0394 55.8801 14.4371C56.0862 14.6751 56.1483 15.0283 56.0705 15.5157ZM55.6184 11.8916H51.7004C51.4322 11.8916 51.2044 12.0842 51.1625 12.3456L49.5783 22.2681C49.547 22.4637 49.7005 22.6408 49.9006 22.6408H51.9111C52.0985 22.6408 52.2581 22.5061 52.2874 22.3235L52.737 19.5101C52.7784 19.2487 53.0068 19.0561 53.2745 19.0561H54.5142C57.095 19.0561 58.5847 17.8227 58.9737 15.3775C59.1489 14.3089 58.9807 13.4687 58.4741 12.8805C57.9169 12.2339 56.9293 11.8916 55.6184 11.8916Z" fill="#009CDE"/>
<path d="M13.177 8.47138C12.3314 7.51944 10.8028 7.11133 8.84735 7.11133H3.17194C2.77186 7.11133 2.43189 7.39871 2.36925 7.78836L0.00613461 22.5908C-0.0408448 22.8826 0.18799 23.1471 0.487547 23.1471H3.9913L4.87128 17.6345L4.844 17.8071C4.90664 17.4175 5.24408 17.1301 5.64366 17.1301H7.30865C10.5795 17.1301 13.1407 15.818 13.8888 12.0222C13.911 11.9099 13.9302 11.8007 13.9469 11.6939C13.8524 11.6445 13.8524 11.6445 13.9469 11.6939C14.1697 10.2909 13.9453 9.336 13.177 8.47138Z" fill="#003087"/>
<path d="M5.81693 11.7124C5.85431 11.4779 6.00687 11.2858 6.21196 11.1885C6.30542 11.1446 6.40948 11.1201 6.51859 11.1201H10.968C11.4949 11.1201 11.9864 11.1541 12.4355 11.2254C12.5643 11.2458 12.6891 11.2693 12.8103 11.2963C12.9315 11.3227 13.0492 11.3526 13.1634 11.3856C13.2205 11.402 13.2766 11.419 13.3316 11.4369C13.5524 11.5098 13.758 11.5946 13.9469 11.6939C14.1697 10.2904 13.9453 9.336 13.177 8.47138C12.3309 7.51944 10.8028 7.11133 8.84735 7.11133H3.17144C2.77186 7.11133 2.43189 7.39871 2.36925 7.78836L0.00613495 22.5903C-0.0408444 22.8826 0.187991 23.1466 0.487042 23.1466H3.9913L4.87128 17.634L5.81693 11.7124Z" fill="#002F86"/>
<path d="M13.947 11.6943C13.9299 11.8016 13.9111 11.9104 13.8889 12.0226C13.1408 15.8179 10.5797 17.1305 7.30879 17.1305H5.64329C5.24371 17.1305 4.90627 17.4179 4.84414 17.8076L3.99144 23.147L3.74947 24.6617C3.70855 24.9172 3.90859 25.1487 4.17026 25.1487H7.1239C7.47347 25.1487 7.771 24.8972 7.82556 24.5564L7.85438 24.4078L8.41106 20.9233L8.44694 20.7307C8.5015 20.39 8.79903 20.1385 9.1486 20.1385H9.59061C12.4518 20.1385 14.6922 18.9905 15.3469 15.6702C15.6201 14.2827 15.4787 13.1242 14.7558 12.3105C14.5366 12.064 14.2643 11.8605 13.9471 11.6943" fill="#009CDE"/>
<path d="M13.1641 11.3855C13.05 11.3526 12.9323 11.3227 12.811 11.2962C12.6898 11.2698 12.5645 11.2463 12.4362 11.2259C11.9866 11.154 11.4956 11.1201 10.9682 11.1201H6.51931C6.4097 11.1201 6.30563 11.1446 6.21269 11.189C6.00709 11.2863 5.85504 11.4778 5.81765 11.7128L4.872 17.6345L4.84473 17.8071C4.90686 17.4175 5.2443 17.1301 5.64388 17.1301H7.30938C10.5803 17.1301 13.1414 15.8179 13.8895 12.0222C13.9117 11.9099 13.9304 11.8011 13.9476 11.6939C13.7582 11.5951 13.5531 11.5098 13.3323 11.4374C13.2773 11.4195 13.2212 11.402 13.1641 11.3855Z" fill="#012069"/>
</g>
<defs>
<clipPath id="clip0">
<rect width="72" height="32" fill="white"/>
</clipPath>
</defs>
</svg>
