<svg width="72" height="32" viewBox="0 0 72 32" fill="none" xmlns="http://www.w3.org/2000/svg">
<g clip-path="url(#clip0)">
<path d="M32.4204 24.3836H28.0703L30.7912 7.76758H35.141L32.4204 24.3836Z" fill="#00579F"/>
<path d="M48.1897 8.17421C47.3316 7.838 45.9707 7.4668 44.288 7.4668C39.9921 7.4668 36.9671 9.72928 36.9485 12.964C36.9128 15.3505 39.1144 16.676 40.761 17.4718C42.444 18.2849 43.0161 18.8156 43.0161 19.5404C42.9989 20.6536 41.6561 21.1667 40.4037 21.1667C38.6669 21.1667 37.7364 20.9022 36.3222 20.2829L35.7494 20.0174L35.1406 23.7473C36.1609 24.2064 38.0406 24.6138 39.9921 24.6316C44.5566 24.6316 47.5281 22.4041 47.5633 18.9571C47.5807 17.0656 46.4182 15.6162 43.9119 14.4319C42.3904 13.6716 41.4587 13.159 41.4587 12.3811C41.4765 11.6739 42.2468 10.9496 43.9642 10.9496C45.3784 10.9141 46.4175 11.2498 47.2046 11.5858L47.5981 11.7622L48.1897 8.17421Z" fill="#00579F"/>
<path d="M53.9715 18.4971C54.3297 17.5426 55.7083 13.8481 55.7083 13.8481C55.6902 13.8836 56.0658 12.8759 56.2806 12.2573L56.5846 13.689C56.5846 13.689 57.4084 17.6664 57.5873 18.4971C56.9074 18.4971 54.8307 18.4971 53.9715 18.4971ZM59.3411 7.76758H55.9763C54.9387 7.76758 54.1504 8.06783 53.7027 9.14621L47.2412 24.3833H51.8056C51.8056 24.3833 52.5571 22.3325 52.7186 21.8908C53.2193 21.8908 57.6596 21.8908 58.3037 21.8908C58.4286 22.4742 58.8228 24.3833 58.8228 24.3833H62.8506L59.3411 7.76758Z" fill="#00579F"/>
<path d="M24.4372 7.76758L20.1771 19.0981L19.7115 16.8001C18.9239 14.1486 16.4538 11.2677 13.6973 9.8353L17.5994 24.366H22.1995L29.0371 7.76758H24.4372Z" fill="#00579F"/>
<path d="M16.2208 7.76758H9.22199L9.15039 8.10331C14.6099 9.48218 18.2257 12.8059 19.7112 16.8008L18.1898 9.16431C17.9393 8.10307 17.1695 7.80258 16.2208 7.76758Z" fill="#FAA61A"/>
</g>
<defs>
<clipPath id="clip0">
<rect width="72" height="32" fill="white"/>
</clipPath>
</defs>
</svg>
