<svg width="40" height="40" viewBox="0 0 40 40" fill="none" xmlns="http://www.w3.org/2000/svg">
<path d="M28.8215 7.98816C29.4724 7.33728 30.5277 7.33728 31.1785 7.98816C31.8294 8.63903 31.8294 9.6943 31.1785 10.3452L21.1785 20.3452C20.5476 20.9761 19.5316 20.9982 18.8738 20.3953L8.87381 11.2286C8.19528 10.6066 8.14944 9.55232 8.77143 8.87379C9.39342 8.19526 10.4477 8.14942 11.1262 8.77141L19.9499 16.8598L28.8215 7.98816Z" fill="#C24DFE"/>
<path opacity="0.3" d="M28.8215 19.6548C29.4724 19.0039 30.5277 19.0039 31.1785 19.6548C31.8294 20.3057 31.8294 21.361 31.1785 22.0118L21.1785 32.0118C20.5476 32.6428 19.5316 32.6649 18.8738 32.0619L8.87381 22.8953C8.19528 22.2733 8.14944 21.219 8.77143 20.5405C9.39342 19.8619 10.4477 19.8161 11.1262 20.4381L19.9499 28.5264L28.8215 19.6548Z" fill="#C24DFE"/>
</svg>
