<svg width="24" height="24" viewBox="0 0 24 24" fill="none" xmlns="http://www.w3.org/2000/svg">
<rect x="2" y="3.00098" width="20" height="4" rx="2" fill="#444B4D"/>
<path opacity="0.7" fill-rule="evenodd" clip-rule="evenodd" d="M3.5 9.62598C2.67157 9.62598 2 10.2975 2 11.126V11.876C2 12.7044 2.67157 13.376 3.5 13.376H13C13.8284 13.376 14.5 12.7044 14.5 11.876V11.126C14.5 10.2975 13.8284 9.62598 13 9.62598H3.5ZM3.5 15.876C2.67157 15.876 2 16.5475 2 17.376V18.126C2 18.9544 2.67157 19.626 3.5 19.626H20.5C21.3284 19.626 22 18.9544 22 18.126V17.376C22 16.5475 21.3284 15.876 20.5 15.876H3.5Z" fill="#444B4D"/>
</svg>
