<svg width="20" height="20" viewBox="0 0 20 20" fill="none" xmlns="http://www.w3.org/2000/svg">
<path fill-rule="evenodd" clip-rule="evenodd" d="M13.332 4.99968C12.8718 4.99968 12.4987 4.62658 12.4987 4.16634V1.66634C12.4987 1.2061 12.8718 0.833008 13.332 0.833008C13.7923 0.833008 14.1654 1.2061 14.1654 1.66634L14.1654 4.16634C14.1654 4.62658 13.7923 4.99968 13.332 4.99968ZM19.1654 14.9997C19.1654 16.8406 17.673 18.333 15.832 18.333L4.16536 18.333C2.32441 18.333 0.832031 16.8406 0.832031 14.9997L0.832032 2.49967C0.832032 2.03943 1.20513 1.66634 1.66536 1.66634C2.1256 1.66634 2.4987 2.03943 2.4987 2.49967L2.4987 14.9997C2.4987 15.9201 3.24489 16.6663 4.16536 16.6663L15.832 16.6663C16.7525 16.6663 17.4987 15.9201 17.4987 14.9997L17.4987 2.49967C17.4987 2.03944 17.8718 1.66634 18.332 1.66634C18.7923 1.66634 19.1654 2.03944 19.1654 2.49967V14.9997ZM9.16536 4.16634C9.16536 4.62658 9.53846 4.99968 9.9987 4.99968C10.4589 4.99968 10.832 4.62658 10.832 4.16634L10.832 1.66634C10.832 1.2061 10.4589 0.833008 9.9987 0.833008C9.53846 0.833008 9.16536 1.2061 9.16536 1.66634V4.16634ZM6.66536 4.99968C6.20513 4.99968 5.83203 4.62658 5.83203 4.16634L5.83203 1.66634C5.83203 1.2061 6.20513 0.833008 6.66536 0.833008C7.1256 0.833008 7.4987 1.2061 7.4987 1.66634V4.16634C7.4987 4.62658 7.1256 4.99968 6.66536 4.99968ZM11.8021 15.4163C12.1868 15.4163 12.4987 15.1045 12.4987 14.7198C12.4987 14.3351 12.1868 14.0232 11.8021 14.0232H9.69258L10.7527 12.4404C11.3422 11.7093 11.7485 11.0947 11.9715 10.5967C12.1982 10.0948 12.3116 9.60079 12.3116 9.11468C12.3116 8.33216 12.1075 7.72946 11.6994 7.30659C11.295 6.87976 10.7243 6.66634 9.98736 6.66634C9.50739 6.66634 9.07655 6.78886 8.69484 7.03389C8.31691 7.27497 8.02213 7.61485 7.81049 8.05354C7.71206 8.26126 7.63694 8.47918 7.58512 8.70728C7.48663 9.14082 7.8591 9.50594 8.30369 9.50594C8.74827 9.50594 9.07716 9.13403 9.21422 8.7111C9.24699 8.60998 9.2874 8.51924 9.33543 8.43887C9.49038 8.18593 9.69824 8.05946 9.95901 8.05946C10.1971 8.05946 10.3785 8.16815 10.5032 8.38552C10.6317 8.60288 10.696 8.90324 10.696 9.2866C10.696 9.57115 10.6279 9.86954 10.4919 10.1818C10.3596 10.49 10.1518 10.8497 9.86831 11.2607L7.8132 13.9934C7.69738 14.1474 7.63475 14.3349 7.63475 14.5276C7.63475 15.0184 8.03266 15.4163 8.5235 15.4163H11.8021Z" fill="#4F4F4F"/>
</svg>
