<svg width="24" height="24" viewBox="0 0 24 24" fill="none" xmlns="http://www.w3.org/2000/svg">
<path fill-rule="evenodd" clip-rule="evenodd" d="M2.57859 2.31425C3.84083 1.89969 5.28165 1.96227 6.21376 2.12511C6.26148 2.13344 6.30854 2.14524 6.35455 2.1604L21.2123 7.05496C22.2993 7.41304 23.0879 8.35838 23.2452 9.49197L23.6748 12.5881C23.9251 14.3917 22.5241 16.0005 20.7033 16.0005H9.59026C8.10992 16.0005 6.85088 14.9207 6.6253 13.4576L5.16922 4.01409C4.53051 3.9741 3.80438 4.01677 3.20266 4.21439C2.79505 4.34826 2.50224 4.53411 2.31429 4.75586C2.13981 4.96173 2 5.26245 2 5.75247C2 6.30476 1.55228 6.75247 1 6.75247C0.447715 6.75247 0 6.30476 0 5.75247C0 4.83328 0.280325 4.06241 0.788571 3.46274C1.28335 2.87897 1.93585 2.52534 2.57859 2.31425ZM7.27865 4.57055L20.5865 8.95454C20.9489 9.0739 21.2117 9.38901 21.2642 9.76688L21.6938 12.863C21.7772 13.4642 21.3102 14.0005 20.7033 14.0005H9.59026C9.09682 14.0005 8.67713 13.6405 8.60194 13.1529L7.27865 4.57055ZM11 19.0005C10.4477 19.0005 10 19.4482 10 20.0005C10 20.5528 10.4477 21.0005 11 21.0005C11.5523 21.0005 12 20.5528 12 20.0005C12 19.4482 11.5523 19.0005 11 19.0005ZM8 20.0005C8 18.3436 9.34315 17.0005 11 17.0005C12.6569 17.0005 14 18.3436 14 20.0005C14 21.6573 12.6569 23.0005 11 23.0005C9.34315 23.0005 8 21.6573 8 20.0005ZM19 20.0005C19 19.4482 19.4477 19.0005 20 19.0005C20.5523 19.0005 21 19.4482 21 20.0005C21 20.5528 20.5523 21.0005 20 21.0005C19.4477 21.0005 19 20.5528 19 20.0005ZM20 17.0005C18.3431 17.0005 17 18.3436 17 20.0005C17 21.6573 18.3431 23.0005 20 23.0005C21.6569 23.0005 23 21.6573 23 20.0005C23 18.3436 21.6569 17.0005 20 17.0005Z" fill="#2F3639"/>
</svg>
