<svg width="56" height="56" viewBox="0 0 56 56" fill="none" xmlns="http://www.w3.org/2000/svg">
<path opacity="0.3" fill-rule="evenodd" clip-rule="evenodd" d="M9.33337 35C9.33337 41.4433 14.5567 46.6667 21 46.6667C23.6265 46.6667 26.0502 45.7988 28.0001 44.3342C29.9499 45.7988 32.3736 46.6667 35.0001 46.6667C41.4434 46.6667 46.6667 41.4433 46.6667 35C46.6667 28.5567 41.4434 23.3333 35.0001 23.3333C32.3736 23.3333 29.9499 24.2012 28 25.6658C26.0502 24.2012 23.6265 23.3333 21 23.3333C14.5567 23.3333 9.33337 28.5567 9.33337 35ZM31.1118 29.1768C32.1008 30.8906 32.6667 32.8792 32.6667 35C32.6667 37.1208 32.1008 39.1093 31.1119 40.823C32.2441 41.5816 33.5857 42 35.0001 42C38.8661 42 42.0001 38.866 42.0001 35C42.0001 31.134 38.8661 28 35.0001 28C33.5839 28 32.2411 28.421 31.1118 29.1768Z" fill="#C24DFE"/>
<path fill-rule="evenodd" clip-rule="evenodd" d="M28 32.6667C34.4434 32.6667 39.6667 27.4433 39.6667 21C39.6667 14.5567 34.4434 9.33334 28 9.33334C21.5567 9.33334 16.3334 14.5567 16.3334 21C16.3334 27.4433 21.5567 32.6667 28 32.6667Z" fill="#C24DFE"/>
</svg>
