<svg width="72" height="72" viewBox="0 0 72 72" fill="none" xmlns="http://www.w3.org/2000/svg">
<rect width="72" height="72" rx="36" fill="#C24DFE" fill-opacity="0.15"/>
<path opacity="0.3" fill-rule="evenodd" clip-rule="evenodd" d="M38.2498 20.25C38.2498 19.0074 37.2425 18 35.9998 18C34.7572 18 33.7498 19.0074 33.7498 20.25V24H38.2498V20.25ZM32.2021 39.1617C30.8107 38.5378 29.5867 37.6072 28.6162 36.4558L24.75 44.9997L25.5 52.4997L32.2021 39.1617ZM43.5921 36.929C42.5631 38.0048 41.2979 38.8527 39.8798 39.3895L46.5 52.4999L47.25 44.9999L43.5921 36.929Z" fill="#C24DFE"/>
<path fill-rule="evenodd" clip-rule="evenodd" d="M28.5 30C28.5 34.1421 31.8579 37.5 36 37.5C40.1421 37.5 43.5 34.1421 43.5 30C43.5 25.8579 40.1421 22.5 36 22.5C31.8579 22.5 28.5 25.8579 28.5 30ZM39 29.9998C39 31.6567 37.6569 32.9998 36 32.9998C34.3431 32.9998 33 31.6567 33 29.9998C33 28.343 34.3431 26.9998 36 26.9998C37.6569 26.9998 39 28.343 39 29.9998Z" fill="#C24DFE"/>
</svg>
