<?xml version="1.0" encoding="iso-8859-1"?>
<!-- Generator: Adobe Illustrator 16.0.0, SVG Export Plug-In . SVG Version: 6.00 Build 0)  -->
<!DOCTYPE svg PUBLIC "-//W3C//DTD SVG 1.1//EN" "http://www.w3.org/Graphics/SVG/1.1/DTD/svg11.dtd">
<svg version="1.1" id="EU" xmlns="http://www.w3.org/2000/svg" xmlns:xlink="http://www.w3.org/1999/xlink" x="0px" y="0px"
	 width="4000px" height="2498px" viewBox="0 0 4000 2498" style="enable-background:new 0 0 4000 2498;" xml:space="preserve">
<rect x="0" style="fill:#243E90;" width="4000" height="2498"/>
<g>
	<polygon style="fill:#F6EC13;" points="1530.688,346.478 1611.839,405.939 1706.83,372.8 1675.354,468.353 1736.224,548.453 
		1635.619,548.046 1578.251,630.689 1547.549,534.882 1451.224,505.86 1532.854,447.056 	"/>
	<polygon style="fill:#F6EC13;" points="1140.212,699.025 1242.379,710.179 1309.49,632.344 1330.449,732.956 1425.212,772.728 
		1336,823.757 1327.458,926.167 1251.362,857.093 1151.321,880.62 1193.501,786.897 	"/>
	<polygon style="fill:#F6EC13;" points="977.479,1203.116 1071.977,1161.498 1091.271,1060.063 1160.047,1137.076 
		1262.479,1124.076 1210.491,1213.289 1254.505,1306.69 1153.595,1284.814 1078.367,1355.54 1067.988,1252.805 	"/>
	<polygon style="fill:#F6EC13;" points="1095.874,1719.245 1155.499,1637.867 1122.272,1542.615 1218.09,1574.179 1298.41,1513.139 
		1298.005,1614.025 1380.874,1671.551 1284.803,1702.338 1255.701,1798.934 1196.729,1717.076 	"/>
	<polygon style="fill:#F6EC13;" points="1451.228,2105.267 1462.042,2006.17 1386.548,1941.075 1484.14,1920.744 1522.714,1828.825 
		1572.213,1915.357 1671.548,1923.643 1604.548,1997.455 1627.369,2094.49 1536.461,2053.58 	"/>
	<polygon style="fill:#F6EC13;" points="1953.076,2267.227 1912.932,2176.082 1815.095,2157.475 1889.375,2091.128 
		1876.835,1992.332 1962.891,2042.475 2052.977,2000.021 2031.877,2097.354 2100.096,2169.912 2001.001,2179.928 	"/>
	<polygon style="fill:#F6EC13;" points="2468.864,2153.488 2387.709,2094.031 2292.723,2127.167 2324.193,2031.609 
		2263.326,1951.514 2363.935,1951.919 2421.297,1869.277 2452.002,1965.083 2548.326,1994.103 2466.701,2052.912 	"/>
	<polygon style="fill:#F6EC13;" points="2859.337,1800.936 2757.174,1789.793 2690.063,1867.619 2669.103,1767.012 
		2574.337,1727.24 2663.554,1676.21 2672.09,1573.8 2748.188,1642.875 2848.222,1619.351 2806.049,1713.066 	"/>
	<polygon style="fill:#F6EC13;" points="3022.071,1296.849 2927.576,1338.472 2908.285,1439.903 2839.502,1362.895 
		2737.071,1375.894 2789.061,1286.676 2745.04,1193.277 2845.954,1215.152 2921.177,1144.43 2931.561,1247.158 	"/>
	<polygon style="fill:#F6EC13;" points="2903.675,780.718 2844.053,862.102 2877.277,957.349 2781.46,925.791 2701.141,986.828 
		2701.547,885.94 2618.675,828.42 2714.748,797.63 2743.846,701.045 2802.817,782.891 	"/>
	<polygon style="fill:#F6EC13;" points="2548.325,394.694 2537.512,493.798 2613.001,558.892 2515.413,579.226 2476.836,671.142 
		2427.339,584.606 2328.001,576.326 2395.004,502.512 2372.185,405.48 2463.088,446.387 	"/>
	<polygon style="fill:#F6EC13;" points="2046.476,232.734 2086.629,323.885 2184.461,342.493 2110.186,408.834 2122.723,507.638 
		2036.661,457.495 1946.575,499.954 1967.678,402.613 1899.461,330.054 1998.544,320.036 	"/>
</g>
</svg>
