<svg width="56" height="56" viewBox="0 0 56 56" fill="none" xmlns="http://www.w3.org/2000/svg">
<path opacity="0.3" fill-rule="evenodd" clip-rule="evenodd" d="M37.3333 16.3333C37.3333 16.3333 31.5 28 25.6667 28.8174C25.6667 28.8174 29.1667 15.1667 24.5 8.16666C24.5 8.16666 24.0051 15.667 19.005 24.6673C16.6611 28.8862 14 31.7302 14 37.3333C14 45.3336 22.1934 49.4682 28.0133 49.4682C33.8333 49.4682 42 46.6681 42 36.8678C42 30.823 37.3333 16.3333 37.3333 16.3333Z" fill="#C24DFE"/>
<path fill-rule="evenodd" clip-rule="evenodd" d="M30.3333 16.3333C30.3333 16.3333 31.5 28 25.6667 28.8174C25.6667 28.8174 29.1667 15.1667 24.5 8.16666C24.5 8.16666 24.0051 15.667 19.005 24.6673C16.6611 28.8862 14 31.7302 14 37.3333C14 45.3336 22.1934 49.4682 28.0133 49.4682C33.8333 49.4682 42 46.6681 42 36.8678C42 30.823 30.3333 16.3333 30.3333 16.3333Z" fill="#C24DFE"/>
</svg>
