<svg width="20" height="20" viewBox="0 0 20 20" fill="none" xmlns="http://www.w3.org/2000/svg">
<path d="M12.744 9.41066C13.0695 9.08522 13.5971 9.08522 13.9225 9.41066C14.248 9.7361 14.248 10.2637 13.9225 10.5892L8.92255 15.5892C8.60707 15.9047 8.09908 15.9157 7.77019 15.6142L2.77019 11.0309C2.43092 10.7199 2.408 10.1927 2.719 9.85348C3.02999 9.51421 3.55713 9.4913 3.8964 9.80229L8.30823 13.8465L12.744 9.41066Z" fill="#444B4D"/>
<path opacity="0.3" d="M7.5 11.2499C7.5 11.7102 7.8731 12.0833 8.33333 12.0833C8.79357 12.0833 9.16667 11.7102 9.16667 11.2499L9.16667 5.83325C9.16667 5.37301 9.53976 4.99992 10 4.99992L18.368 4.99992C18.8282 4.99992 19.2013 4.62682 19.2013 4.16658C19.2013 3.70635 18.8282 3.33325 18.368 3.33325L10 3.33325C8.61929 3.33325 7.5 4.45254 7.5 5.83325L7.5 11.2499Z" fill="#444B4D"/>
</svg>
