<svg width="24" height="24" viewBox="0 0 24 24" fill="none" xmlns="http://www.w3.org/2000/svg">
<path d="M17.0789 6.38538L17.0789 6.38539C17.0997 6.4353 17.1198 6.48558 17.1392 6.53625L17.1418 6.5432L17.1446 6.55011C17.5548 7.57644 17.5638 8.75391 17.5082 10.1034C17.5027 10.2351 17.5 10.3675 17.5 10.5005C17.5 13.547 18.9352 16.2589 21.1623 17.9957C21.1643 17.9973 21.1664 17.9989 21.1684 18.0005H2.83162C2.83364 17.9989 2.83566 17.9973 2.8377 17.9957C5.06481 16.2589 6.5 13.547 6.5 10.5005C6.5 10.3675 6.49726 10.2351 6.49184 10.1034C6.43625 8.75391 6.44524 7.57644 6.85541 6.55011L6.85817 6.5432L6.86083 6.53625C6.88021 6.48559 6.90031 6.4353 6.92112 6.38538C7.75079 4.39586 9.71361 3.00049 12 3.00049C14.2864 3.00049 16.2492 4.39586 17.0789 6.38538Z" stroke="#2F3639" stroke-width="2"/>
<path d="M12.5 22.0005C13.9806 22.0005 15.2733 21.1961 15.9649 20.0005H9.03516C9.72678 21.1961 11.0195 22.0005 12.5 22.0005Z" fill="#2F3639"/>
</svg>
