<svg width="72" height="72" viewBox="0 0 72 72" fill="none" xmlns="http://www.w3.org/2000/svg">
<rect width="72" height="72" rx="36" fill="#C24DFE" fill-opacity="0.15"/>
<path fill-rule="evenodd" clip-rule="evenodd" d="M22.5 28C22.5 27.4477 22.9477 27 23.5 27H48.5C49.0523 27 49.5 27.4477 49.5 28V30.5C49.5 31.0523 49.0523 31.5 48.5 31.5H23.5C22.9477 31.5 22.5 31.0523 22.5 30.5V28ZM24 35.5C24 34.9477 24.4477 34.5 25 34.5H33.5C34.0523 34.5 34.5 34.9477 34.5 35.5V47C34.5 47.5523 34.0523 48 33.5 48H25C24.4477 48 24 47.5523 24 47V35.5ZM38.5 34.5C37.9477 34.5 37.5 34.9477 37.5 35.5V47C37.5 47.5523 37.9477 48 38.5 48H47C47.5523 48 48 47.5523 48 47V35.5C48 34.9477 47.5523 34.5 47 34.5H38.5Z" fill="#C24DFE"/>
<path opacity="0.3" d="M39.668 21.2518C40.3573 20.7923 41.2886 20.9786 41.7481 21.6679C42.2076 22.3572 42.0214 23.2885 41.3321 23.748L36 27.3027L30.668 23.748C29.9787 23.2885 29.7924 22.3572 30.252 21.6679C30.7115 20.9786 31.6428 20.7923 32.3321 21.2518L36 23.6971L39.668 21.2518Z" fill="#C24DFE"/>
</svg>
