<svg width="56" height="56" viewBox="0 0 56 56" fill="none" xmlns="http://www.w3.org/2000/svg">
<path opacity="0.3" fill-rule="evenodd" clip-rule="evenodd" d="M28 51.3333C40.8866 51.3333 51.3333 40.8866 51.3333 28C51.3333 15.1133 40.8866 4.66663 28 4.66663C15.1133 4.66663 4.66663 15.1133 4.66663 28C4.66663 40.8866 15.1133 51.3333 28 51.3333Z" fill="#F3DBFF"/>
<path d="M24.7123 30.821V34.692H27.6523C33.5813 34.692 38.2363 30.135 38.2363 24.255C38.2363 18.375 33.5813 13.818 27.6523 13.818C21.7233 13.818 17.1173 18.375 17.1173 24.255H21.2823C21.2823 20.531 23.8793 17.689 27.6523 17.689C31.3763 17.689 34.0713 20.531 34.0713 24.255C34.0713 27.979 31.3763 30.821 27.6523 30.821H24.7123Z" fill="#F3DBFF"/>
<path d="M28 37.3333C26.7113 37.3333 25.6666 38.378 25.6666 39.6667C25.6666 40.9553 26.7113 42 28 42C29.2886 42 30.3333 40.9553 30.3333 39.6667C30.3333 38.378 29.2886 37.3333 28 37.3333Z" fill="#F3DBFF"/>
</svg>
