<svg width="24" height="24" viewBox="0 0 24 24" fill="none" xmlns="http://www.w3.org/2000/svg">
<path opacity="0.7" d="M14.2929 16.7081C13.9024 16.3176 13.9024 15.6844 14.2929 15.2939C14.6834 14.9033 15.3166 14.9033 15.7071 15.2939L19.7071 19.2939C20.0976 19.6844 20.0976 20.3176 19.7071 20.7081C19.3166 21.0986 18.6834 21.0986 18.2929 20.7081L14.2929 16.7081Z" fill="#444B4D"/>
<path fill-rule="evenodd" clip-rule="evenodd" d="M4 11.001C4 14.867 7.13401 18.001 11 18.001C14.866 18.001 18 14.867 18 11.001C18 7.13498 14.866 4.00098 11 4.00098C7.13401 4.00098 4 7.13498 4 11.001ZM16 11.001C16 13.7624 13.7614 16.001 11 16.001C8.23858 16.001 6 13.7624 6 11.001C6 8.23955 8.23858 6.00098 11 6.00098C13.7614 6.00098 16 8.23955 16 11.001Z" fill="#444B4D"/>
</svg>
