<svg width="56" height="56" viewBox="0 0 56 56" fill="none" xmlns="http://www.w3.org/2000/svg">
<path opacity="0.3" fill-rule="evenodd" clip-rule="evenodd" d="M9.33337 9.33333L27.6315 5.90244C27.8751 5.85677 28.125 5.85677 28.3686 5.90244L46.6667 9.33333V35.9033C46.6667 39.696 44.7129 43.2211 41.4967 45.2313L28.53 53.3354C28.2058 53.5381 27.7943 53.5381 27.47 53.3354L14.5034 45.2313C11.2872 43.2211 9.33337 39.696 9.33337 35.9033L9.33337 9.33333Z" fill="#C24DFE"/>
<path fill-rule="evenodd" clip-rule="evenodd" d="M26.075 34.4167C25.516 34.4167 24.957 34.1931 24.5098 33.7458L20.0375 29.2736C19.1431 28.3792 19.1431 27.0375 20.0375 26.1431C20.932 25.2486 22.3854 25.2486 23.1681 26.1431L26.075 29.05L33.4542 21.6708C34.3486 20.7764 35.6903 20.7764 36.5848 21.6708C37.4792 22.5653 37.4792 23.9069 36.5848 24.8014L27.6403 33.7458C27.1931 34.1931 26.6341 34.4167 26.075 34.4167Z" fill="#C24DFE"/>
</svg>
