<svg width="82" height="20" viewBox="0 0 82 20" fill="none" xmlns="http://www.w3.org/2000/svg">
<path d="M21.455 7.08789H29.7135V8.62216H26.4618V17.2711H24.6795V8.62216H21.4414L21.455 7.08789ZM29.3597 9.89846H30.8835V11.3241H30.9107C30.9652 11.1205 31.0604 10.9304 31.1964 10.7403C31.3325 10.5502 31.4958 10.3737 31.6998 10.2243C31.8903 10.0614 32.108 9.9392 32.3529 9.84415C32.5842 9.74911 32.8291 9.6948 33.074 9.6948C33.2645 9.6948 33.4005 9.70838 33.4685 9.70838C33.5366 9.72195 33.6182 9.73553 33.6862 9.73553V11.297C33.5774 11.2698 33.4549 11.2562 33.3325 11.2426C33.21 11.2291 33.1012 11.2155 32.9788 11.2155C32.7066 11.2155 32.4481 11.2698 32.2032 11.3784C31.9584 11.487 31.7543 11.65 31.5638 11.8536C31.3869 12.0709 31.2373 12.3289 31.1284 12.6411C31.0196 12.9534 30.9652 13.32 30.9652 13.7274V17.2304H29.3325L29.3597 9.89846ZM41.1692 17.2711H39.5637V16.2392H39.5365C39.3325 16.6194 39.0331 16.9045 38.6386 17.1354C38.244 17.3662 37.8359 17.4748 37.4277 17.4748C36.4617 17.4748 35.7542 17.244 35.3189 16.7552C34.8835 16.28 34.6658 15.5468 34.6658 14.5828V9.89846H36.2985V14.4198C36.2985 15.0715 36.4209 15.5332 36.6794 15.7912C36.9243 16.0627 37.278 16.1985 37.727 16.1985C38.0672 16.1985 38.3529 16.1442 38.5842 16.0356C38.8155 15.9269 39.0059 15.7912 39.142 15.6147C39.2916 15.4381 39.3869 15.2209 39.4549 14.9765C39.5229 14.7321 39.5501 14.4606 39.5501 14.1754V9.89846H41.1828V17.2711H41.1692ZM43.9447 14.9086C43.9991 15.3838 44.176 15.7097 44.4889 15.9134C44.8018 16.1035 45.1828 16.1985 45.6181 16.1985C45.7678 16.1985 45.9447 16.1849 46.1351 16.1578C46.3256 16.1306 46.5161 16.0899 46.6793 16.022C46.8562 15.9541 46.9923 15.8591 47.1011 15.7233C47.21 15.5875 47.2644 15.4246 47.2508 15.2209C47.2372 15.0172 47.1691 14.8407 47.0195 14.7049C46.8698 14.5692 46.693 14.4741 46.4753 14.3791C46.2576 14.2976 45.9991 14.2297 45.7134 14.1754C45.4277 14.1211 45.1419 14.0532 44.8426 13.9853C44.5433 13.9174 44.244 13.836 43.9583 13.7409C43.6726 13.6459 43.4277 13.5237 43.1964 13.3472C42.9787 13.1843 42.7882 12.9806 42.6658 12.7226C42.5297 12.4646 42.4617 12.1659 42.4617 11.7858C42.4617 11.3784 42.5569 11.0526 42.761 10.781C42.9515 10.5095 43.21 10.2922 43.5093 10.1293C43.8086 9.96635 44.1488 9.84415 44.5161 9.77626C44.8834 9.70838 45.2372 9.68122 45.5637 9.68122C45.9447 9.68122 46.312 9.72196 46.6521 9.80342C46.9923 9.88489 47.3188 10.0071 47.5909 10.1972C47.8766 10.3737 48.1079 10.6181 48.2848 10.9032C48.4753 11.1883 48.5841 11.5414 48.6385 11.9487H46.9379C46.8562 11.5549 46.6793 11.297 46.4072 11.1612C46.1215 11.0254 45.8086 10.9575 45.4413 10.9575C45.3324 10.9575 45.1828 10.9711 45.0331 10.9847C44.8698 11.0118 44.7338 11.039 44.5841 11.0933C44.4481 11.1476 44.3256 11.2291 44.2304 11.3241C44.1351 11.4192 44.0807 11.5549 44.0807 11.7179C44.0807 11.9215 44.1488 12.0709 44.2848 12.1931C44.4209 12.3153 44.5977 12.4103 44.829 12.5054C45.0467 12.5868 45.3052 12.6547 45.5909 12.709C45.8766 12.7633 46.176 12.8312 46.4753 12.8991C46.7746 12.967 47.0603 13.0485 47.346 13.1435C47.6317 13.2386 47.8902 13.3608 48.1079 13.5373C48.3256 13.7002 48.5161 13.9039 48.6521 14.1483C48.7882 14.3927 48.8562 14.705 48.8562 15.058C48.8562 15.4925 48.761 15.8591 48.5569 16.1713C48.3528 16.47 48.0943 16.728 47.7814 16.9181C47.4685 17.1082 47.1011 17.244 46.7202 17.339C46.3256 17.4205 45.9447 17.4748 45.5637 17.4748C45.1011 17.4748 44.6658 17.4205 44.2712 17.3119C43.8766 17.2032 43.5229 17.0403 43.2372 16.8366C42.9515 16.6194 42.7202 16.3614 42.5569 16.0356C42.3937 15.7233 42.2984 15.3431 42.2848 14.895H43.9311V14.9086H43.9447ZM49.3188 9.89846H50.5569V7.67173H52.1895V9.88488H53.6589V11.0933H52.1895V15.0308C52.1895 15.2073 52.2031 15.3431 52.2167 15.4789C52.2303 15.6011 52.2712 15.7097 52.312 15.7912C52.3664 15.8726 52.448 15.9405 52.5433 15.9813C52.6521 16.022 52.7882 16.0491 52.9786 16.0491C53.0875 16.0491 53.2099 16.0491 53.3188 16.0356C53.4276 16.022 53.5501 16.0084 53.6589 15.9813V17.244C53.482 17.2711 53.3052 17.2847 53.1283 17.2983C52.9514 17.3254 52.7882 17.3254 52.5977 17.3254C52.1623 17.3254 51.8222 17.2847 51.5637 17.2032C51.3052 17.1218 51.1011 16.9996 50.9514 16.8502C50.8018 16.6873 50.7065 16.4972 50.6521 16.2664C50.5977 16.0356 50.5705 15.7504 50.5569 15.4517V11.1069H49.3188V9.87131V9.89846ZM54.8017 9.89846H56.3392V10.9032H56.3664C56.5977 10.4687 56.9106 10.17 57.3187 9.97993C57.7269 9.78984 58.1623 9.6948 58.6521 9.6948C59.2371 9.6948 59.7405 9.78984 60.1759 10.0071C60.6112 10.2108 60.965 10.4823 61.2507 10.8489C61.5364 11.2019 61.7541 11.6228 61.8901 12.098C62.0262 12.5733 62.1078 13.0892 62.1078 13.6187C62.1078 14.1211 62.0398 14.5963 61.9174 15.058C61.7813 15.5196 61.5908 15.9405 61.3323 16.2935C61.0738 16.6466 60.7473 16.9317 60.3391 17.1489C59.931 17.3662 59.4684 17.4748 58.9242 17.4748C58.6929 17.4748 58.448 17.4476 58.2167 17.4069C57.9854 17.3662 57.7541 17.2983 57.5364 17.2032C57.3187 17.1082 57.1147 16.986 56.9378 16.8366C56.7473 16.6873 56.5977 16.5108 56.4752 16.3207H56.448V20.0002H54.8154V9.89846H54.8017ZM60.5024 13.5916C60.5024 13.2657 60.4616 12.9399 60.3663 12.6276C60.2847 12.3153 60.1487 12.0437 59.9718 11.7993C59.7949 11.5549 59.5772 11.3649 59.3323 11.2155C59.0738 11.0661 58.7745 10.9983 58.448 10.9983C57.7677 10.9983 57.2507 11.2291 56.897 11.7043C56.5568 12.1795 56.38 12.8177 56.38 13.6052C56.38 13.9853 56.4208 14.3248 56.516 14.6371C56.6113 14.9493 56.7337 15.2209 56.9242 15.4517C57.1011 15.6825 57.3187 15.8591 57.5772 15.9948C57.8357 16.1306 58.1215 16.1985 58.4616 16.1985C58.8425 16.1985 59.1419 16.117 59.4004 15.9677C59.6589 15.8183 59.8629 15.6147 60.0398 15.3838C60.2031 15.1394 60.3255 14.8679 60.3936 14.5556C60.4616 14.2297 60.5024 13.9174 60.5024 13.5916ZM63.3731 7.08789H65.0058V8.62216H63.3731V7.08789ZM63.3731 9.89846H65.0058V17.2711H63.3731V9.89846ZM66.4615 7.08789H68.0942V17.2711H66.4615V7.08789ZM73.0737 17.4748C72.4887 17.4748 71.9581 17.3797 71.4955 17.1761C71.0329 16.9724 70.652 16.7144 70.3255 16.375C70.0125 16.0356 69.7676 15.6147 69.6044 15.1394C69.4411 14.6642 69.3459 14.1347 69.3459 13.578C69.3459 13.0213 69.4275 12.5054 69.6044 12.0302C69.7676 11.5549 70.0125 11.1476 70.3255 10.7946C70.6384 10.4551 71.0329 10.1836 71.4955 9.99351C71.9581 9.80342 72.4887 9.6948 73.0737 9.6948C73.6588 9.6948 74.1894 9.78984 74.652 9.99351C75.1146 10.1836 75.4955 10.4551 75.822 10.7946C76.135 11.134 76.3798 11.5549 76.5431 12.0302C76.7064 12.5054 76.8016 13.0213 76.8016 13.578C76.8016 14.1483 76.72 14.6642 76.5431 15.1394C76.3662 15.6147 76.135 16.022 75.822 16.375C75.5091 16.7144 75.1146 16.986 74.652 17.1761C74.1894 17.3662 73.6724 17.4748 73.0737 17.4748ZM73.0737 16.1849C73.4275 16.1849 73.754 16.1034 74.0125 15.9541C74.2846 15.8047 74.4887 15.6011 74.6656 15.3567C74.8424 15.1123 74.9649 14.8272 75.0465 14.5284C75.1282 14.2162 75.169 13.9039 75.169 13.578C75.169 13.2657 75.1282 12.9534 75.0465 12.6411C74.9649 12.3289 74.8424 12.0573 74.6656 11.8129C74.4887 11.5685 74.271 11.3784 74.0125 11.2291C73.7404 11.0797 73.4275 10.9983 73.0737 10.9983C72.72 10.9983 72.3935 11.0797 72.135 11.2291C71.8629 11.3784 71.6588 11.5821 71.4819 11.8129C71.3051 12.0573 71.1826 12.3289 71.101 12.6411C71.0193 12.9534 70.9785 13.2657 70.9785 13.578C70.9785 13.9039 71.0193 14.2162 71.101 14.5284C71.1826 14.8407 71.3051 15.1123 71.4819 15.3567C71.6588 15.6011 71.8765 15.8047 72.135 15.9541C72.4071 16.117 72.72 16.1849 73.0737 16.1849ZM77.2914 9.89846H78.5295V7.67173H80.1621V9.88488H81.6315V11.0933H80.1621V15.0308C80.1621 15.2073 80.1758 15.3431 80.1894 15.4789C80.203 15.6011 80.2438 15.7097 80.2846 15.7912C80.339 15.8726 80.4206 15.9405 80.5159 15.9813C80.6247 16.022 80.7608 16.0491 80.9513 16.0491C81.0601 16.0491 81.1825 16.0491 81.2914 16.0356C81.4002 16.022 81.5227 16.0084 81.6315 15.9813V17.244C81.4547 17.2711 81.2778 17.2847 81.1009 17.2983C80.924 17.3254 80.7608 17.3254 80.5703 17.3254C80.1349 17.3254 79.7948 17.2847 79.5363 17.2032C79.2778 17.1218 79.0737 16.9996 78.924 16.8502C78.7744 16.6873 78.6792 16.4972 78.6247 16.2664C78.5703 16.0356 78.5431 15.7504 78.5295 15.4517V11.1069H77.2914V9.87131V9.89846Z" fill="black"/>
<path d="M19.5509 7.08754H12.0816L9.78225 0L7.46934 7.08754L0 7.07396L6.04078 11.4595L3.72787 18.5471L9.76865 14.1615L15.8094 18.5471L13.5101 11.4595L19.5509 7.08754Z" fill="#00B67A"/>
<path d="M14.0261 13.0616L13.5091 11.4595L9.78125 14.1614L14.0261 13.0616Z" fill="#005128"/>
</svg>
