<svg width="24" height="24" viewBox="0 0 24 24" fill="none" xmlns="http://www.w3.org/2000/svg">
<path fill-rule="evenodd" clip-rule="evenodd" d="M7.00026 9.00049C7.00026 6.23906 9.23883 4.00049 12.0003 4.00049C14.7617 4.00049 17.0003 6.23906 17.0003 9.00049C17.0003 11.7619 14.7617 14.0005 12.0003 14.0005C9.23883 14.0005 7.00026 11.7619 7.00026 9.00049ZM12.0003 2.00049C8.13426 2.00049 5.00026 5.1345 5.00026 9.00049C5.00026 11.3849 6.19243 13.4909 8.01322 14.7548C5.30275 15.8252 3.14145 17.9553 2.07181 20.6291C1.86667 21.1418 2.11606 21.7238 2.62884 21.9289C3.14161 22.1341 3.72359 21.8847 3.92873 21.3719C5.18267 18.2374 8.31627 16.0005 12.0003 16.0005C15.6843 16.0005 18.8179 18.2374 20.0718 21.3719C20.2769 21.8847 20.8589 22.1341 21.3717 21.9289C21.8845 21.7238 22.1339 21.1418 21.9287 20.6291C20.8591 17.9553 18.6978 15.8252 15.9873 14.7548C17.8081 13.4909 19.0003 11.3849 19.0003 9.00049C19.0003 5.1345 15.8663 2.00049 12.0003 2.00049Z" fill="#2F3639"/>
</svg>
