<svg width="100" height="100" viewBox="0 0 100 100" fill="none" xmlns="http://www.w3.org/2000/svg">
<path d="M27.8927 74.0572C27.1248 74.8511 25.8586 74.8723 25.0647 74.1044C24.2707 73.3365 24.2496 72.0703 25.0175 71.2763C31.35 64.7288 40.0501 60.6667 49.6661 60.6667C59.282 60.6667 67.9821 64.7288 74.3147 71.2763C75.0826 72.0703 75.0615 73.3365 74.2675 74.1044C73.4735 74.8723 72.2074 74.8511 71.4395 74.0572C65.8058 68.2323 58.1218 64.6667 49.6661 64.6667C41.2104 64.6667 33.5263 68.2323 27.8927 74.0572Z" fill="#F2994A"/>
<path d="M77.332 42.0002C77.332 45.314 74.6457 48.0002 71.332 48.0002C68.0183 48.0002 65.332 45.314 65.332 42.0002C65.332 38.6865 68.0183 36.0002 71.332 36.0002C74.6457 36.0002 77.332 38.6865 77.332 42.0002Z" fill="#F2994A"/>
<path d="M28.666 48.0002C31.9797 48.0002 34.666 45.314 34.666 42.0002C34.666 38.6865 31.9797 36.0002 28.666 36.0002C25.3523 36.0002 22.666 38.6865 22.666 42.0002C22.666 45.314 25.3523 48.0002 28.666 48.0002Z" fill="#F2994A"/>
<path fill-rule="evenodd" clip-rule="evenodd" d="M100 50C100 77.6142 77.6142 100 50 100C22.3858 100 0 77.6142 0 50C0 22.3858 22.3858 0 50 0C77.6142 0 100 22.3858 100 50ZM94.6667 50C94.6667 74.6687 74.6687 94.6667 50 94.6667C25.3313 94.6667 5.33333 74.6687 5.33333 50C5.33333 25.3313 25.3313 5.33333 50 5.33333C74.6687 5.33333 94.6667 25.3313 94.6667 50Z" fill="#F2994A"/>
</svg>
