<svg width="100" height="100" viewBox="0 0 100 100" fill="none" xmlns="http://www.w3.org/2000/svg">
<path d="M71.332 48.0002C74.6457 48.0002 77.332 45.314 77.332 42.0002C77.332 38.6865 74.6457 36.0002 71.332 36.0002C68.0183 36.0002 65.332 38.6865 65.332 42.0002C65.332 45.314 68.0183 48.0002 71.332 48.0002Z" fill="#56CCF2"/>
<path d="M50.0033 83.333C63.9945 83.333 75.3366 71.9908 75.3366 57.9996H24.6699C24.6699 71.9908 36.012 83.333 50.0033 83.333Z" fill="#56CCF2"/>
<path d="M28.666 48.0002C31.9797 48.0002 34.666 45.314 34.666 42.0002C34.666 38.6865 31.9797 36.0002 28.666 36.0002C25.3523 36.0002 22.666 38.6865 22.666 42.0002C22.666 45.314 25.3523 48.0002 28.666 48.0002Z" fill="#56CCF2"/>
<path fill-rule="evenodd" clip-rule="evenodd" d="M100 50C100 77.6142 77.6142 100 50 100C22.3858 100 0 77.6142 0 50C0 22.3858 22.3858 0 50 0C77.6142 0 100 22.3858 100 50ZM94.6667 50C94.6667 74.6687 74.6687 94.6667 50 94.6667C25.3313 94.6667 5.33333 74.6687 5.33333 50C5.33333 25.3313 25.3313 5.33333 50 5.33333C74.6687 5.33333 94.6667 25.3313 94.6667 50Z" fill="#56CCF2"/>
</svg>
