<svg width="100" height="100" viewBox="0 0 100 100" fill="none" xmlns="http://www.w3.org/2000/svg">
<path d="M27.8927 61.2765C27.1248 60.4825 25.8586 60.4613 25.0647 61.2293C24.2707 61.9972 24.2496 63.2633 25.0175 64.0573C31.35 70.6048 40.0501 74.6669 49.6661 74.6669C59.282 74.6669 67.9821 70.6048 74.3147 64.0573C75.0826 63.2633 75.0615 61.9972 74.2675 61.2293C73.4735 60.4613 72.2074 60.4825 71.4395 61.2765C65.8058 67.1013 58.1218 70.6669 49.6661 70.6669C41.2104 70.6669 33.5263 67.1013 27.8927 61.2765Z" fill="#F2C94C"/>
<path d="M77.332 42.0002C77.332 45.314 74.6457 48.0002 71.332 48.0002C68.0183 48.0002 65.332 45.314 65.332 42.0002C65.332 38.6865 68.0183 36.0002 71.332 36.0002C74.6457 36.0002 77.332 38.6865 77.332 42.0002Z" fill="#F2C94C"/>
<path d="M28.666 48.0002C31.9797 48.0002 34.666 45.314 34.666 42.0002C34.666 38.6865 31.9797 36.0002 28.666 36.0002C25.3523 36.0002 22.666 38.6865 22.666 42.0002C22.666 45.314 25.3523 48.0002 28.666 48.0002Z" fill="#F2C94C"/>
<path fill-rule="evenodd" clip-rule="evenodd" d="M100 50C100 77.6142 77.6142 100 50 100C22.3858 100 0 77.6142 0 50C0 22.3858 22.3858 0 50 0C77.6142 0 100 22.3858 100 50ZM94.6667 50C94.6667 74.6687 74.6687 94.6667 50 94.6667C25.3313 94.6667 5.33333 74.6687 5.33333 50C5.33333 25.3313 25.3313 5.33333 50 5.33333C74.6687 5.33333 94.6667 25.3313 94.6667 50Z" fill="#F2C94C"/>
</svg>
