<svg width="160" height="160" viewBox="0 0 160 160" fill="none" xmlns="http://www.w3.org/2000/svg">
<path d="M76.9393 10.8787C75.2158 14.3599 73.5452 13.0082 73.5452 13.0082C64.3207 8.21681 60.3715 11.3669 60.3715 11.3669C60.3715 11.3669 67.2827 11.1228 70.3044 15.6335C73.3286 20.145 67.1574 18.3487 67.1574 18.3487C49.851 15.043 45.2665 18.0262 45.2665 18.0262C59.3604 18.4268 55.9249 22.2973 55.9249 22.2973C51.2599 21.8919 44.9653 23.9793 44.9653 23.9793C53.795 24.0558 55.0469 27.0895 55.0469 27.0895C55.0469 27.0895 49.8301 25.2361 45.7925 26.0607C41.755 26.8924 39.9248 31.0877 40.2242 30.7581C40.5254 30.4344 44.3117 29.2366 44.3117 29.2366C48.7176 28.7297 48.2117 31.019 48.2117 31.019C46.0919 35.174 44.8206 32.8014 32.8704 31.6148C20.9235 30.4225 22.7874 36.7895 22.7874 36.7895C23.21 34.1605 28.2949 32.6286 33.21 34.7503C38.1252 36.8735 44.9071 38.0594 49.2269 36.5327C53.5497 35.0071 52.0249 29.2366 52.0249 29.2366C52.0249 29.2366 56.854 33.8208 61.8556 30.6786C66.854 27.537 61.8556 21.5997 61.8556 21.5997C71.5995 22.023 78.2106 27.0301 78.2106 27.0301C78.2106 27.0301 77.8725 17.6108 80.2462 17.6948C82.6199 17.7843 81.686 26.8633 81.686 26.8633C84.6506 23.4653 98.8038 20.8363 97.9586 21.7721C97.1071 22.7019 93.8875 25.5874 97.4468 30.0828C101.007 34.5835 108.378 29.3195 108.378 29.3195C108.378 29.3195 103.889 34.1605 110.665 36.7895C117.447 39.4186 127.111 33.9037 131.261 33.648C135.41 33.3972 138.209 36.7895 138.209 36.7895C137.786 31.3587 130.582 29.916 123.466 32.0381C116.345 34.1605 111.683 31.5248 111.683 31.5248C108.891 26.434 119.989 30.1724 119.989 30.1724C118.805 24.3183 104.229 26.7737 104.229 26.7737C104.569 24.9976 115.417 23.6385 115.417 23.6385C112.786 22.2798 103.806 21.8561 103.806 21.8561C102.788 18.6306 114.822 17.6108 114.822 17.6108C106.771 14.8985 89.8652 18.547 89.8652 18.547C86.6858 13.8787 99.4838 10.91 99.4838 10.91C94.1429 8.02494 86.6023 14.6421 84.6521 13.5398C82.7019 12.4367 80.2462 4.7998 80.2462 4.7998C80.2462 4.7998 78.3583 8.00255 76.9393 10.8787Z" fill="#C24DFE"/>
<path d="M123.525 38.7079C123.525 38.7079 119.544 38.5232 118.739 40.6232C117.94 42.7237 123.274 41.7636 123.37 41.5784C123.465 41.3929 122.875 42.879 126.517 45.1048C126.517 45.1048 133.09 50.9105 131.761 53.7209C131.761 53.7209 130.372 52.4857 129.168 53.5066C129.168 53.5066 127.196 55.2965 127.285 56.5612C127.285 56.5612 119.079 52.9153 115.747 56.4059C115.747 56.4059 124.788 60.2066 128.089 66.6931C128.089 66.6931 131.834 82.9845 129.944 87.6367C129.944 87.6367 119.205 79.5675 112.498 88.8716C112.498 88.8716 123.03 84.2642 124.634 93.6122C126.236 102.96 132.824 106.051 135.786 104.734C138.748 103.412 140.845 97.1539 134.095 97.1539C134.095 97.1539 134.922 87.4732 135.372 85.2104C135.823 82.9409 135.329 72.4834 134.383 70.0504C134.383 70.0504 136.562 70.4636 136.894 69.8063C137.22 69.1478 137.633 66.508 136.606 66.2198C136.606 66.2198 136.074 65.6431 136.769 65.6431C136.769 65.6431 139.405 65.6867 139.73 63.8752C140.062 62.0629 139.856 54.1132 136.155 48.4699C132.448 42.8278 130.35 42.621 130.35 42.621C130.35 42.621 132.329 37.31 130.519 36.363C130.519 36.363 126.28 33.56 123.525 38.7079Z" fill="#C24DFE"/>
<path d="M137.92 72.8912C137.92 72.8912 141.503 72.7718 140.676 77.5486C139.856 82.3263 138.334 82.4076 138.334 82.4076C138.334 82.4076 140.388 77.4676 138.91 77.2978C137.426 77.1358 135.084 74.2955 137.92 72.8912Z" fill="#C24DFE"/>
<path d="M121.428 92.1253C121.428 92.1253 117.52 89.4918 114.846 92.1253C112.173 94.7644 118.303 97.0284 120.439 95.5046C120.439 95.5046 120.77 108.069 110.113 124.872C110.113 124.872 104.44 119.643 102.918 118.489C101.397 117.336 93.1258 115.066 94.8143 121.374C94.8143 121.374 97.1574 125.16 100.038 120.709C100.038 120.709 102.549 119.474 106.331 125.116C106.331 125.116 107.32 135.004 107.771 139.123C107.771 139.123 107.77 131.255 111.885 126.314C111.885 126.314 115.748 120.709 117.395 119.763L120.726 124.377C120.726 124.377 118.961 112.389 122.993 107.944C122.993 107.944 126.613 110.001 124.515 112.64C124.515 112.64 121.842 113.528 122.787 115.038C123.732 116.552 126.513 115.686 126.171 113.424C125.83 111.154 130.889 111.242 131.216 114.327C131.547 117.417 128.667 119.969 127.308 120.094C127.308 120.094 134.384 119.887 134.263 115.235C134.14 110.577 127.746 108.477 126.171 106.953C124.597 105.43 126.983 106.132 126.983 106.132C126.983 106.132 128.748 105.843 129.118 106.338C129.487 106.834 129.45 103.743 125.379 104.32C125.379 104.32 126.236 94.8025 121.428 92.1253Z" fill="#C24DFE"/>
<path d="M104.498 128.986C103.834 127.917 102.716 127.662 102.117 127.527C101.95 127.492 101.758 127.446 101.738 127.415C101.923 127.075 102.29 125.578 101.786 124.587C101.511 124.056 101.037 123.743 100.375 123.66C99.7577 123.582 99.2828 123.74 98.9152 124.119C98.1077 124.958 98.1602 126.577 98.1688 126.632C96.0527 138.451 80.7949 148.148 80.1283 148.566C79.4613 148.148 64.2031 138.452 62.0897 126.642C62.0926 126.577 62.1452 124.958 61.3377 124.119C60.9705 123.74 60.4951 123.582 59.8807 123.66C59.216 123.743 58.7422 124.056 58.4696 124.587C57.9663 125.578 58.3328 127.075 58.52 127.413C58.4983 127.446 58.306 127.492 58.1363 127.527C57.5365 127.662 56.4221 127.917 55.7552 128.986C55.1214 129.999 55.0382 131.534 55.5121 133.538C55.5259 133.586 57.0473 138.36 60.5917 138.111L60.736 138.103L60.629 138.004C60.6029 137.979 58.0286 135.611 58.4685 133.238C58.4693 133.218 58.5636 131.361 59.581 131.361C59.7913 131.361 60.0332 131.439 60.2964 131.594C60.3393 131.62 60.3855 131.647 60.4306 131.676C61.1655 132.165 61.7183 133.745 62.36 135.578C63.4169 138.595 64.7288 142.346 67.6371 144.299C67.5354 144.825 66.5508 150.259 68.3302 152.7C68.8343 153.398 69.5232 153.795 70.3706 153.884L70.5376 153.905L70.4221 153.781C70.4045 153.766 68.5595 151.781 68.8413 150.2C68.9457 149.615 69.3323 149.148 69.9866 148.817C69.9956 148.814 70.7822 148.554 71.8753 148.554C73.2789 148.554 75.2795 148.986 76.8367 151.026C76.839 151.034 76.9076 151.099 76.8956 151.249C76.8803 151.465 76.6943 151.848 75.8961 152.414C74.7128 153.265 72.7376 156.742 72.8815 158.675C72.93 159.307 73.1839 159.747 73.6417 159.974L73.6917 160L73.7211 159.958C73.752 159.907 76.9814 154.956 80.1283 153.607C83.2745 154.955 86.5008 159.907 86.5351 159.958L86.5642 160L86.6145 159.974C87.0709 159.747 87.3266 159.307 87.3747 158.675C87.519 156.742 85.5434 153.265 84.3601 152.414C83.5623 151.848 83.3751 151.465 83.3576 151.249C83.3461 151.099 83.4173 151.034 83.4247 151.02C84.9767 148.986 86.9743 148.554 88.3779 148.554C89.4733 148.554 90.2588 148.814 90.2603 148.814C90.9209 149.148 91.3105 149.615 91.4145 150.2C91.6941 151.78 89.8517 153.766 89.8315 153.781L89.7156 153.905L89.883 153.884C90.733 153.795 91.419 153.398 91.9256 152.7C93.7036 150.259 92.7209 144.825 92.6187 144.299C95.527 142.346 96.8393 138.595 97.8929 135.578C98.5371 133.745 99.0908 132.165 99.8252 131.676C99.8726 131.647 99.9136 131.62 99.9602 131.594C100.223 131.439 100.462 131.361 100.672 131.361C101.692 131.361 101.787 133.218 101.788 133.244C102.224 135.611 99.65 137.979 99.6235 138.004L99.5173 138.103L99.6645 138.111C99.7525 138.121 99.8386 138.124 99.9311 138.124C103.286 138.124 104.73 133.586 104.746 133.535C105.213 131.534 105.131 129.999 104.498 128.986Z" fill="#C24DFE"/>
<path d="M36.4747 38.7079C36.4747 38.7079 40.4556 38.5232 41.2572 40.6232C42.0587 42.7237 36.7219 41.7636 36.6298 41.5784C36.5373 41.3929 37.1241 42.879 33.4829 45.1048C33.4829 45.1048 26.9127 50.9105 28.2388 53.7209C28.2388 53.7209 29.6272 52.4857 30.831 53.5066C30.831 53.5066 32.8036 55.2965 32.7111 56.5612C32.7111 56.5612 40.9175 52.9153 44.2516 56.4059C44.2516 56.4059 35.2112 60.2066 31.9096 66.6931C31.9096 66.6931 28.165 82.9846 30.0589 87.6367C30.0589 87.6367 40.7945 79.5676 47.4985 88.8716C47.4985 88.8716 36.969 84.2642 35.3659 93.6122C33.7599 102.96 27.1786 106.051 24.2168 104.734C21.2548 103.412 19.1576 97.1539 25.9045 97.1539C25.9045 97.1539 25.0805 87.4732 24.6268 85.2104C24.1762 82.9409 24.6697 72.4834 25.6162 70.0504C25.6162 70.0504 23.4345 70.4636 23.1052 69.8063C22.7764 69.1478 22.3667 66.508 23.3937 66.2198C23.3937 66.2198 23.9285 65.6431 23.2306 65.6431C23.2306 65.6431 20.5972 65.6867 20.2686 63.8752C19.9402 62.0629 20.144 54.1132 23.8476 48.4699C27.5484 42.8278 29.6462 42.621 29.6462 42.621C29.6462 42.621 27.674 37.31 29.4837 36.363C29.4837 36.363 33.7192 33.56 36.4747 38.7079Z" fill="#C24DFE"/>
<path d="M22.0788 72.8912C22.0788 72.8912 18.4999 72.7718 19.3232 77.5486C20.144 82.3263 21.6654 82.4076 21.6654 82.4076C21.6654 82.4076 19.6116 77.4676 21.0915 77.2978C22.5734 77.1358 24.9154 74.2955 22.0788 72.8912Z" fill="#C24DFE"/>
<path d="M38.3939 92.1253C38.3939 92.1253 42.3014 89.4918 44.9752 92.1253C47.6494 94.7644 41.5189 97.0284 39.3804 95.5046C39.3804 95.5046 39.052 108.069 49.7063 124.872C49.7063 124.872 55.3824 119.643 56.9038 118.489C58.4257 117.336 66.6947 115.066 65.007 121.374C65.007 121.374 62.6616 125.16 59.7842 120.709C59.7842 120.709 57.2729 119.474 53.4881 125.116C53.4881 125.116 52.502 135.004 52.0498 139.123C52.0498 139.123 52.0509 131.255 47.9373 126.314C47.9373 126.314 44.0708 120.709 42.4237 119.763L39.0922 124.377C39.0922 124.377 40.8616 112.389 36.8285 107.944C36.8285 107.944 33.2088 110.001 35.3067 112.64C35.3067 112.64 37.9805 113.528 37.035 115.038C36.0896 116.552 33.3088 115.686 33.6503 113.424C33.9921 111.154 28.9327 111.242 28.6035 114.327C28.2735 117.417 31.1524 119.969 32.5109 120.094C32.5109 120.094 25.435 119.887 25.5569 115.235C25.6823 110.577 32.0732 108.477 33.6503 106.953C35.2254 105.43 32.8398 106.132 32.8398 106.132C32.8398 106.132 31.0707 105.843 30.7013 106.338C30.3292 106.834 30.3717 103.743 34.4425 104.32C34.4425 104.32 33.5813 94.8025 38.3939 92.1253Z" fill="#C24DFE"/>
<path d="M86.8316 43.5994C86.2358 42.3758 85.0585 41.9144 84.7177 41.8058V37.2111L84.6804 37.1768C84.1044 36.6 83.5355 36.3018 82.9856 36.3018C82.0394 36.3018 81.5152 37.1607 81.4921 37.1958L81.4753 44.0959C80.651 44.9276 80.216 45.5364 80.0325 45.8216C79.8495 45.5364 79.4122 44.9276 78.5879 44.0959V37.263L78.5711 37.1958C78.5484 37.1607 78.0238 36.3018 77.0776 36.3018C76.5281 36.3018 75.9592 36.6 75.3824 37.1768L75.3459 37.2111V41.8058C75.0048 41.9144 73.8274 42.3758 73.2305 43.5994C72.6877 44.7163 72.7862 46.1336 73.5404 47.847C73.5687 47.8754 76.4148 50.8157 79.908 51.2778V51.3099L80.0325 51.2983L80.1556 51.3099V51.2778C83.6496 50.8157 86.4938 47.8746 86.546 47.8126C87.2771 46.1336 87.3755 44.7163 86.8316 43.5994Z" fill="#C24DFE"/>
<path d="M70.9056 53.7652C70.9056 53.7652 64.1651 49.8077 62.8025 49.1261C61.4402 48.4444 60.1458 48.5792 60.6916 50.8954C61.2367 53.2183 62.4621 62.3544 68.7947 59.2849C68.7947 59.2849 73.6972 57.7152 74.9249 56.8279C74.9249 56.8279 75.4006 57.0329 75.3331 58.8739C75.3331 58.8739 70.4299 72.7185 70.4974 76.875C70.4974 76.875 76.9001 85.1935 78.3306 88.674C79.7603 92.1488 76.6276 103.948 66.5489 99.6499C66.5489 99.6499 52.1105 87.4455 58.9218 77.0806C58.9218 77.0806 61.5774 73.5352 64.7079 72.2418C64.7079 72.2418 67.8422 64.6698 62.5971 63.4414C57.3538 62.2185 51.1598 57.52 54.5625 51.3097C57.9678 45.1055 59.6034 43.1245 59.6034 43.1245C59.6034 43.1245 61.92 40.8777 65.1874 43.8053C68.4547 46.7393 74.6524 51.8544 74.6524 51.8544C74.6524 51.8544 75.8797 54.7887 74.3795 55.3998C72.8823 56.0116 70.9056 53.7652 70.9056 53.7652Z" fill="#C24DFE"/>
<path d="M79.6199 55.9835L73.9527 66.5018C73.9527 66.5018 70.8334 72.531 76.1482 72.7024C81.4661 72.8804 88.7583 74.0271 86.7377 68.0431L80.9393 55.9835C80.9393 55.9835 84.1906 67.8199 82.7396 68.307H77.5101C77.5101 68.307 75.3579 68.5235 79.6199 55.9835Z" fill="#C24DFE"/>
<path d="M72.7478 77.4203C71.337 74.6856 73.943 73.6147 73.943 73.6147H86.37C86.37 73.6147 89.1464 74.6397 87.0851 77.4203C85.1357 80.0456 80.0635 87.8494 80.0635 87.8494L72.7478 77.4203Z" fill="#C24DFE"/>
<path d="M91.5048 104.697C91.1816 103.632 90.4315 103.088 89.2329 103.088C89.2321 103.088 89.2299 103.088 89.2299 103.088H83.713L79.8969 96.8074V96.6025L79.8365 96.7047L79.7749 96.6025V96.8074L75.9588 103.088H70.4016C69.2407 103.088 68.4902 103.632 68.1666 104.697C67.6242 106.5 68.4947 109.152 68.6099 109.228C68.7381 109.337 71.0735 112.402 72.6109 114.431C73.6142 115.768 73.6671 120.291 73.6675 120.338L73.6686 120.464L73.7685 120.387C74.5432 119.783 75.6706 117.257 75.6706 117.086C75.6706 116.957 75.6781 116.502 75.8004 116.058C75.9968 115.34 76.3704 115.04 76.9173 115.184C78.1901 115.509 79.7611 122.168 79.7761 122.231L79.8365 122.226L79.8957 122.231C79.9106 122.168 81.4821 115.509 82.7545 115.184C83.3006 115.039 83.6772 115.34 83.8722 116.058C83.9941 116.502 84.0004 116.957 84.0004 117.086C84.0004 117.257 85.1286 119.783 85.9059 120.387L86.0028 120.464L86.0036 120.338C86.0043 120.291 86.0576 115.768 87.0601 114.431C88.598 112.402 90.9333 109.337 91.0593 109.231C91.1771 109.152 92.0473 106.5 91.5048 104.697Z" fill="#C24DFE"/>
<path d="M89.0699 53.7652C89.0699 53.7652 95.8134 49.8077 97.1757 49.1261C98.5372 48.4437 99.829 48.5792 99.2828 50.8954C98.7366 53.2176 97.5164 62.3537 91.1808 59.2849C91.1808 59.2849 86.2776 57.7153 85.0525 56.8272C85.0525 56.8272 84.5742 57.0329 84.6428 58.8732C84.6428 58.8732 89.5475 72.7185 89.4778 76.875C89.4778 76.875 83.0773 85.1928 81.6479 88.674C80.2182 92.1481 83.3506 103.948 93.4293 99.65C93.4293 99.65 107.867 87.4455 101.056 77.0807C101.056 77.0807 98.3966 73.5353 95.2672 72.2418C95.2672 72.2418 92.1345 64.6699 97.3751 63.4406C102.618 62.2185 108.818 57.5193 105.413 51.309C102.007 45.1055 100.374 43.1245 100.374 43.1245C100.374 43.1245 98.0551 40.8777 94.7897 43.8054C91.5201 46.7394 85.3228 51.8544 85.3228 51.8544C85.3228 51.8544 84.0988 54.7888 85.5957 55.3998C87.0929 56.0109 89.0699 53.7652 89.0699 53.7652Z" fill="#C24DFE"/>
</svg>
