<svg width="76" height="76" viewBox="0 0 76 76" fill="none" xmlns="http://www.w3.org/2000/svg">
<g clip-path="url(#clip0)">
<path d="M4.73535 40.2012V68.6105C4.73535 71.2241 6.86131 73.3454 9.47024 73.3454H33.1447V40.2012H4.73535Z" fill="#C24DFE"/>
<path d="M71.0233 21.2615H56.0421C57.1169 20.5276 58.0402 19.7984 58.6842 19.145C62.5052 15.305 62.5052 9.05495 58.6842 5.21496C54.972 1.4744 48.5042 1.48387 44.7968 5.21496C42.7418 7.27463 37.2967 15.6601 38.0495 21.2615H37.7086C38.4567 15.6601 33.0116 7.27463 30.9614 5.21496C27.2493 1.48387 20.7814 1.48387 17.074 5.21496C13.2577 9.05495 13.2577 15.305 17.0693 19.145C17.7179 19.7984 18.6412 20.5276 19.7161 21.2615H4.73489C2.12596 21.2615 0 23.3874 0 25.9964V33.0987C0 34.4055 1.06061 35.4661 2.36744 35.4661H33.1442V25.9964H42.614V35.4661H73.3907C74.6975 35.4661 75.7582 34.4055 75.7582 33.0987V25.9964C75.7582 23.3874 73.6369 21.2615 71.0233 21.2615ZM32.8648 21.1052C32.8648 21.1052 32.666 21.2615 31.9889 21.2615C28.7171 21.2615 22.4718 17.8618 20.431 15.8069C18.4471 13.8088 18.4471 10.5512 20.431 8.55305C21.3922 7.58713 22.6659 7.05683 24.0201 7.05683C25.3695 7.05683 26.6432 7.58713 27.6044 8.55305C30.7957 11.7633 33.9681 19.9641 32.8648 21.1052ZM43.7645 21.2615C43.0922 21.2615 42.8933 21.11 42.8933 21.1052C41.7901 19.9641 44.9625 11.7633 48.1538 8.55305C50.0619 6.62595 53.4 6.61648 55.3271 8.55305C57.3158 10.5512 57.3158 13.8088 55.3271 15.8069C53.2864 17.8618 47.0411 21.2615 43.7645 21.2615Z" fill="#C24DFE"/>
<path d="M42.6143 40.2012V73.3454H66.2887C68.9023 73.3454 71.0236 71.2241 71.0236 68.6105V40.2012H42.6143Z" fill="#C24DFE"/>
</g>
<defs>
<clipPath id="clip0">
<rect width="75.7582" height="75.7582" fill="white"/>
</clipPath>
</defs>
</svg>
