<svg width="76" height="76" viewBox="0 0 76 76" fill="none" xmlns="http://www.w3.org/2000/svg">
<g clip-path="url(#clip0)">
<path d="M4.40936 41.9159C4.71125 41.1007 4.62068 41.4501 5.18566 40.7816C6.17328 36.788 5.97058 32.2164 8.80838 27.6837C13.367 20.4124 25.4298 8.68166 30.0013 6.87461C30.2385 6.78836 30.4412 6.73229 30.631 6.68916C30.7819 5.5549 31.4246 4.51121 32.9383 3.79098C37.622 1.59147 43.0432 -0.901312 46.0233 0.323514C47.7225 1.0265 49.0681 -0.366529 49.6158 1.27232C49.9608 2.30308 51.824 4.2697 51.4272 6.52096C51.315 7.16357 50.0773 10.0704 48.6713 10.8984C48.4384 11.5626 50.4568 10.4283 49.2708 12.9125C48.0848 15.3966 37.5487 11.0149 35.4096 13.6543C33.0591 17.1606 32.6235 28.8094 28.3107 36.2532C29.0525 36.1583 33.4559 29.6115 41.0895 31.4531C48.7188 33.2903 50.7501 39.8112 50.7501 39.8112C58.0775 32.9798 70.1705 37.7066 71.8223 44.3267L71.7748 75.7582L64.3267 75.6288L61.5104 70.6346C56.6068 68.7499 52.7512 60.6635 48.7274 55.4968C43.2717 56.2946 34.9438 54.7938 31.679 54.3884C28.6946 54.0175 17.3261 50.7872 14.0829 49.5969C6.52262 46.8324 2.49449 47.1473 4.40936 41.9159Z" fill="#C24DFE"/>
</g>
<defs>
<clipPath id="clip0">
<rect width="75.7582" height="75.7582" fill="white"/>
</clipPath>
</defs>
</svg>
