<svg width="80" height="80" viewBox="0 0 80 80" fill="none" xmlns="http://www.w3.org/2000/svg">
<path d="M57.0656 38.4002C59.7166 38.4002 61.8656 36.2512 61.8656 33.6002C61.8656 30.9492 59.7166 28.8002 57.0656 28.8002C54.4147 28.8002 52.2656 30.9492 52.2656 33.6002C52.2656 36.2512 54.4147 38.4002 57.0656 38.4002Z" fill="#C24DFE"/>
<path d="M40.0026 66.6664C51.1956 66.6664 60.2693 57.5927 60.2693 46.3997H19.7359C19.7359 57.5927 28.8096 66.6664 40.0026 66.6664Z" fill="#C24DFE"/>
<path d="M22.9328 38.4002C25.5838 38.4002 27.7328 36.2512 27.7328 33.6002C27.7328 30.9492 25.5838 28.8002 22.9328 28.8002C20.2818 28.8002 18.1328 30.9492 18.1328 33.6002C18.1328 36.2512 20.2818 38.4002 22.9328 38.4002Z" fill="#C24DFE"/>
<path fill-rule="evenodd" clip-rule="evenodd" d="M80 40C80 62.0914 62.0914 80 40 80C17.9086 80 0 62.0914 0 40C0 17.9086 17.9086 0 40 0C62.0914 0 80 17.9086 80 40ZM75.7333 40C75.7333 59.735 59.735 75.7333 40 75.7333C20.265 75.7333 4.26667 59.735 4.26667 40C4.26667 20.265 20.265 4.26667 40 4.26667C59.735 4.26667 75.7333 20.265 75.7333 40Z" fill="#C24DFE"/>
</svg>
