<svg width="160" height="160" viewBox="0 0 160 160" fill="none" xmlns="http://www.w3.org/2000/svg">
<path d="M76.6797 0.513169C76.1643 0.769754 75.2945 1.41122 74.7469 1.89231C74.2315 2.37341 71.8477 4.36194 69.464 6.25425C67.0802 8.17864 64.0844 10.7445 62.7636 11.9633C58.0927 16.2611 56.4176 16.1328 50.1038 10.9369L47.6878 8.94839L47.4623 10.4879C47.3657 11.3218 47.1724 14.5612 47.0436 17.6402C46.7214 25.7868 46.7214 25.8509 40.7298 33.5805C38.1527 36.9161 32.451 44.9665 32.1933 45.6721C32.0966 45.9287 32.6765 46.2494 33.9006 46.6343C36.7353 47.5002 41.374 49.8416 43.3713 51.4132C46.6892 54.0752 48.7831 58.0844 49.2663 62.9274L49.4918 65.0763L48.3643 65.3008C46.7859 65.5895 43.8867 65.1725 41.7284 64.3707C40.762 64.0179 38.1849 62.5105 35.9944 61.0351L32 58.341L32.2255 59.3994C32.8698 62.2539 34.867 67.8667 36.2844 70.7212C38.1849 74.602 41.3418 78.8677 44.0155 81.177L45.9805 82.8769L46.657 81.9147C47.0114 81.4015 48.1388 80.1827 49.1374 79.1885C53.2285 75.1473 56.772 76.3019 59.9611 82.7806C62.1516 87.1747 64.9219 95.642 64.9219 97.8871C64.9219 99.2021 63.5689 102.153 62.828 102.409C61.314 103.019 57.0941 102.185 54.6459 100.838C53.8728 100.421 53.1641 100.1 53.0996 100.164C52.9064 100.357 54.5492 105.36 56.1277 109.369C58.0283 114.18 60.5087 118.991 63.2468 123.161C65.5339 126.625 69.3029 131.5 69.7217 131.5C70.0438 131.5 72.8141 123.802 73.845 120.114C75.4878 114.18 75.1657 108.183 72.4598 94.9363C70.2693 84.1598 68.4976 79.862 62.2482 70.1118C57.4484 62.6387 55.7733 57.6353 55.7733 50.9962C55.7733 46.4418 56.2888 43.9081 58.0283 40.1555C60.8952 33.9333 66.3071 28.8337 73.3618 25.7547C77.324 24.0227 78.6447 24.0869 83.0257 26.2037C92.5608 30.7902 97.4572 36.1784 99.7766 44.6457C100.389 46.8909 100.485 48.1417 100.485 52.4395C100.517 56.8977 100.389 57.924 99.7444 60.2974C98.2948 65.3329 96.3298 69.3741 93.2051 73.6077C88.4375 80.0544 86.9879 84.256 86.5047 92.8516C86.0538 100.517 85.3129 118.799 84.7008 136.439C84.3142 148.017 84.282 152.283 84.5719 155.041C85.0229 159.724 85.1196 160.109 85.7638 159.981C86.4081 159.852 86.698 158.89 88.6308 149.942C91.1112 138.363 92.7219 133.135 95.2667 128.613C96.3942 126.56 98.4236 123.77 99.8088 122.295C100.356 121.717 100.743 121.204 100.646 121.14C100.582 121.076 99.4867 120.691 98.1981 120.306C95.1379 119.408 92.9796 117.708 91.7877 115.239C90.8857 113.41 90.8535 113.25 90.8535 108.247C90.8857 102.634 91.2723 100.068 92.9796 94.6156C95.009 88.201 100.517 78.8036 103.03 77.5207C105.607 76.2057 107.927 77.7452 111.502 83.1335C112.662 84.8654 113.725 86.2125 113.886 86.1162C114.852 85.5389 121.617 73.704 123.872 68.7006C125.547 64.948 128.124 57.7957 127.995 57.3467C127.931 57.1863 126.224 58.373 124.194 59.9767C117.333 65.397 114.627 66.5837 109.634 66.4234C108.764 66.3913 108.732 66.3271 108.732 64.5311C108.732 60.2333 110.89 55.3261 114.208 51.9905C116.495 49.6812 118.621 48.1738 122.551 46.089L125.096 44.742L122.133 40.7008C120.522 38.5198 117.977 35.1521 116.463 33.2277C111.051 26.3962 110.343 24.8887 110.343 20.3985C110.343 18.1213 109.537 10.0068 109.312 9.78229C109.247 9.71815 107.508 10.7124 105.414 11.9633C102.289 13.8235 101.291 14.2405 99.9054 14.3687C97.876 14.5291 96.9418 14.1122 94.5258 11.9633C89.3395 7.31266 79.1279 0 77.8716 0C77.7428 0 77.2273 0.224512 76.6797 0.513169Z" fill="#C24DFE"/>
<path d="M75.7133 42.4006C69.464 49.3605 68.1754 50.9962 67.9499 52.1188C67.7889 53.081 67.9822 53.6903 69.3995 56.192C72.5564 61.869 78.9346 72.2607 79.2246 72.2286C79.3856 72.2286 81.6728 68.0591 84.3142 62.9595C89.565 52.7282 89.6939 52.3433 88.212 50.0982C86.7624 47.9813 79.289 39.1612 78.9346 39.1612C78.7736 39.1612 77.324 40.6045 75.7133 42.4006Z" fill="#C24DFE"/>
</svg>
