<svg width="16" height="17" viewBox="0 0 16 17" fill="none" xmlns="http://www.w3.org/2000/svg">
<g clip-path="url(#clip0)">
<circle cx="8" cy="8.84863" r="7.5" fill="white" stroke="#C24DFE"/>
<path d="M6.93991 10.9924C6.93991 10.3973 6.9973 9.92544 7.11208 9.57686C7.2311 9.22404 7.44152 8.88821 7.74334 8.56939C8.06216 8.21657 8.2747 7.9275 8.38097 7.70221C8.48725 7.47691 8.54038 7.24948 8.54038 7.01993C8.54038 6.31003 8.31083 5.95508 7.85174 5.95508C7.64769 5.95508 7.47765 6.05285 7.34162 6.24839C7.2056 6.44393 7.13333 6.70749 7.12483 7.03906H5.32031C5.32881 6.21438 5.55836 5.57462 6.00896 5.11977C6.46381 4.66492 7.07807 4.4375 7.85174 4.4375C8.64241 4.4375 9.25666 4.65855 9.69451 5.10064C10.1324 5.53849 10.3513 6.15275 10.3513 6.94342C10.3513 7.59806 10.0813 8.23995 9.54148 8.86908L9.01224 9.46846C8.83795 9.67676 8.71467 9.89356 8.64241 10.1189C8.57014 10.3399 8.52976 10.6311 8.52125 10.9924H6.93991ZM6.77413 12.9436C6.77413 12.6545 6.86552 12.4186 7.04831 12.2358C7.23535 12.053 7.47128 11.9616 7.75609 11.9616C8.0494 11.9616 8.28745 12.0551 8.47024 12.2422C8.65303 12.425 8.74443 12.6588 8.74443 12.9436C8.74443 13.2242 8.65516 13.458 8.47662 13.645C8.29808 13.832 8.0579 13.9256 7.75609 13.9256C7.45853 13.9256 7.22047 13.832 7.04193 13.645C6.8634 13.458 6.77413 13.2242 6.77413 12.9436Z" fill="#C24DFE"/>
</g>
<defs>
<clipPath id="clip0">
<rect width="16" height="16" fill="white" transform="translate(0 0.848633)"/>
</clipPath>
</defs>
</svg>
