<svg width="16" height="17" viewBox="0 0 16 17" fill="none" xmlns="http://www.w3.org/2000/svg">
<g clip-path="url(#clip0)">
<path d="M10 2.5C10 3.60457 9.10457 4.5 8 4.5C6.89543 4.5 6 3.60457 6 2.5C6 1.39543 6.89543 0.5 8 0.5C9.10457 0.5 10 1.39543 10 2.5Z" fill="#C24DFE"/>
<path d="M5.33333 5.83333C5.33333 5.09695 5.93029 4.5 6.66667 4.5H9.33333C10.0697 4.5 10.6667 5.09695 10.6667 5.83333V11.8333C10.6667 12.5697 10.0697 13.1667 9.33333 13.1667H6.66667C5.93029 13.1667 5.33333 12.5697 5.33333 11.8333V5.83333Z" fill="#C24DFE"/>
<path d="M8 5.83333C8 5.09695 8.59695 4.5 9.33333 4.5H10.6667C11.403 4.5 12 5.09695 12 5.83333V8.5C12 9.23638 11.403 9.83333 10.6667 9.83333H9.33333C8.59695 9.83333 8 9.23638 8 8.5V5.83333Z" fill="#C24DFE"/>
<path d="M8 12.5C8 11.7636 8.59695 11.1667 9.33333 11.1667C10.0697 11.1667 10.6667 11.7636 10.6667 12.5V15.1667C10.6667 15.903 10.0697 16.5 9.33333 16.5C8.59695 16.5 8 15.903 8 15.1667V12.5Z" fill="#C24DFE"/>
<path d="M5.33333 12.5C5.33333 11.7636 5.93029 11.1667 6.66667 11.1667C7.40305 11.1667 8 11.7636 8 12.5V15.1667C8 15.903 7.40305 16.5 6.66667 16.5C5.93029 16.5 5.33333 15.903 5.33333 15.1667V12.5Z" fill="#C24DFE"/>
<path d="M4 5.83333C4 5.09695 4.59695 4.5 5.33333 4.5H6.66667C7.40305 4.5 8 5.09695 8 5.83333V8.5C8 9.23638 7.40305 9.83333 6.66667 9.83333H5.33333C4.59695 9.83333 4 9.23638 4 8.5V5.83333Z" fill="#C24DFE"/>
</g>
<defs>
<clipPath id="clip0">
<rect width="16" height="16" fill="white" transform="translate(0 0.5)"/>
</clipPath>
</defs>
</svg>
