<svg width="76" height="76" viewBox="0 0 76 76" fill="none" xmlns="http://www.w3.org/2000/svg">
<g clip-path="url(#clip0)">
<path d="M66.5664 15.3389L38.0932 0.166933C37.6708 -0.0585111 37.1645 -0.0553471 36.7452 0.174843L9.05988 15.3469C8.60583 15.596 8.32422 16.0722 8.32422 16.5904V36.4089C8.34083 52.7002 17.993 67.4387 32.9198 73.9655L36.7626 75.6402C37.1218 75.7968 37.5307 75.7976 37.8907 75.6417L42.2208 73.7717C57.4244 67.3865 67.3155 52.5056 67.3171 36.0157V16.5904C67.3171 16.0667 67.0284 15.585 66.5664 15.3389V15.3389ZM51.7203 32.0898L34.2812 46.277C33.6847 46.7627 32.8091 46.6836 32.3091 46.0982L24.8212 37.3297C24.3126 36.734 24.383 35.8393 24.9786 35.3307C25.5743 34.8229 26.4689 34.8933 26.9776 35.4881L33.5661 43.2039L49.9302 29.8908C50.5377 29.3964 51.4308 29.4881 51.9244 30.0957C52.4188 30.7032 52.327 31.5962 51.7195 32.0898H51.7203Z" fill="#C24DFE"/>
</g>
<defs>
<clipPath id="clip0">
<rect width="75.7582" height="75.7582" fill="white"/>
</clipPath>
</defs>
</svg>
