<svg width="24" height="24" viewBox="0 0 24 24" fill="none" xmlns="http://www.w3.org/2000/svg">
<path d="M16 6C17.6569 6 19 4.65685 19 3C19 1.34315 17.6569 0 16 0C14.3431 0 13 1.34315 13 3C13 3.46315 13.105 3.90178 13.2924 4.29342L8.29342 9.29237C7.90178 9.10495 7.46315 9 7 9C5.34315 9 4 10.3431 4 12C4 13.6569 5.34315 15 7 15C7.46315 15 7.90178 14.895 8.29342 14.7076L13.2924 19.7066C13.105 20.0982 13 20.5369 13 21C13 22.6569 14.3431 24 16 24C17.6569 24 19 22.6569 19 21C19 19.3431 17.6569 18 16 18C15.5369 18 15.0982 18.105 14.7066 18.2924L9.70763 13.2934C9.89505 12.9018 10 12.4631 10 12C10 11.5369 9.89505 11.0982 9.70763 10.7066L14.7066 5.70763C15.0982 5.89505 15.5369 6 16 6Z" fill="#C24DFE"/>
</svg>
