<svg width="76" height="76" viewBox="0 0 76 76" fill="none" xmlns="http://www.w3.org/2000/svg">
<g clip-path="url(#clip0)">
<path d="M75.1079 52.1611L67.9299 44.9722L53.0808 59.8425C50.4301 62.497 47.1032 64.2276 43.4896 64.8753L52.9507 74.3499C53.8171 75.2181 55.2228 75.2181 56.0892 74.3499L75.1079 55.3046C75.9749 54.4364 75.9749 53.0287 75.1079 52.1611Z" fill="#C24DFE"/>
<path d="M65.0058 41.614C67.5079 39.1089 67.5085 35.0323 65.0093 32.5254C65.0064 32.5225 65.0035 32.5197 65.0006 32.5168C64.3822 31.898 63.6597 31.4211 62.8731 31.1021C63.5551 29.3744 63.699 26.4525 61.4396 24.1894C61.4339 24.1836 61.4281 24.1772 61.4217 24.1714C60.8062 23.559 60.0883 23.0867 59.3069 22.7695C59.9889 21.0429 60.1334 18.1205 57.8752 15.8585C57.8735 15.8568 57.8723 15.8556 57.8711 15.8545C57.2521 15.2346 56.5291 14.7565 55.7413 14.4375C56.4233 12.7098 56.5672 9.78735 54.3078 7.52419C54.3073 7.52419 54.3073 7.52361 54.3067 7.52361C54.3061 7.52303 54.3055 7.52245 54.3049 7.52187C51.8017 5.01504 47.7292 5.01504 45.2259 7.52187L41.0176 11.7356L43.1694 13.8906C46.7553 17.4815 46.7553 23.3241 43.17 26.915C41.9632 28.123 40.4806 28.953 38.8646 29.3483C38.4779 30.9262 37.671 32.4218 36.4416 33.6524C35.2365 34.8592 33.7563 35.6887 32.142 36.0846C31.7472 37.7006 30.9184 39.1835 29.7138 40.3898C28.5087 41.5966 27.0285 42.426 25.4142 42.8219C25.0194 44.438 24.1906 45.9209 22.986 47.1277C21.2492 48.8665 18.9395 49.825 16.4831 49.825C14.0266 49.825 11.717 48.8671 9.98013 47.1272L7.82828 44.9722L0.650238 52.1611C-0.216746 53.0293 -0.216746 54.4364 0.650238 55.3046L19.6684 74.3499C20.5354 75.2181 21.9405 75.2175 22.8074 74.3499L36.4214 60.7171H40.2569C43.9156 60.7171 47.3552 59.2898 49.9423 56.6996L65.0058 41.614Z" fill="#C24DFE"/>
<path d="M13.1192 43.9842C14.9768 45.8451 17.9893 45.8451 19.847 43.9842C21.7052 42.1239 21.7052 39.1077 19.847 37.2468C21.7052 39.1077 24.7171 39.1077 26.5754 37.2468C28.433 35.3865 28.433 32.3697 26.5754 30.5094C28.433 32.3697 31.4455 32.3697 33.3031 30.5094C35.1608 28.6491 35.1608 25.6324 33.3031 23.7721C35.1608 25.6324 38.1733 25.6324 40.0309 23.7721C41.8892 21.9112 41.8892 18.895 40.0309 17.0341L30.545 7.53461C28.6873 5.6743 25.6748 5.6743 23.8172 7.53461C21.9595 9.39491 21.9595 12.4117 23.8172 14.272L25.0055 15.4626C23.1479 13.6017 20.1354 13.6017 18.2777 15.4626C16.4201 17.3229 16.4201 20.3397 18.2777 22.2L20.655 24.5807C18.7974 22.7203 15.7849 22.7203 13.9272 24.5807C12.069 26.441 12.069 29.4577 13.9272 31.318L16.3045 33.6993C14.4463 31.8384 11.4344 31.8384 9.57612 33.6993C7.71846 35.5596 7.71846 38.5758 9.57612 40.4367L13.1192 43.9842Z" fill="#C24DFE"/>
<path d="M42.0868 4.37834C42.4151 4.04958 42.7625 3.74744 43.1238 3.46671L41.8256 2.1667C41.1505 1.49006 40.1176 1.32279 39.2639 1.74995L33.7858 4.49295L37.8791 8.59268L42.0868 4.37834Z" fill="#C24DFE"/>
</g>
<defs>
<clipPath id="clip0">
<rect width="75.7582" height="75.7582" fill="white"/>
</clipPath>
</defs>
</svg>
