<svg width="160" height="65" viewBox="0 0 160 65" fill="none" xmlns="http://www.w3.org/2000/svg">
<path d="M158.457 14.3364H147.167C141.873 14.3364 139.456 16.1731 138.429 21.0754C137.011 27.9224 135.377 32.217 143.386 32.217H154.676C155.189 32.217 155.5 31.9604 155.594 31.4472L156.31 28.125C156.404 27.6118 156.202 27.3552 155.702 27.3552H144.48C142.629 27.3552 142.454 26.869 142.764 25.3429H155.972C156.485 25.3429 156.796 25.0863 156.891 24.5732L157.471 21.8452C157.579 21.332 157.377 21.0754 156.864 21.0754H143.656C144.034 19.5223 144.52 19.1847 146.208 19.1847H157.431C157.944 19.1847 158.241 18.9281 158.349 18.4149L159.065 15.0927C159.173 14.593 158.97 14.3364 158.457 14.3364Z" fill="white"/>
<path d="M154.176 37.0112H139.172C138.794 37.0112 138.564 37.2003 138.483 37.5919L137.93 40.1714C137.849 40.5495 138.011 40.7521 138.389 40.7521H143.885L141.954 49.8409C141.873 50.2191 142.035 50.4081 142.413 50.4081H145.29C145.668 50.4081 145.897 50.2191 145.979 49.8409L147.91 40.7521H153.406C153.784 40.7521 154.014 40.563 154.095 40.1714L154.649 37.5919C154.703 37.2003 154.554 37.0112 154.176 37.0112Z" fill="white"/>
<path d="M115.795 32.217H119.63C120.144 32.217 120.441 31.9604 120.549 31.4472L121.872 25.181C125.829 25.181 126.032 25.0054 126.464 25.8967L129.53 31.7984C129.827 32.3386 129.705 32.2035 134.945 32.2035C135.607 32.2035 135.661 31.5688 135.553 31.3662C131.609 24.2626 131.447 23.7764 130.542 22.9526C131.096 22.4935 131.204 22.3584 138.335 15.0793C138.591 14.7957 138.618 14.3095 138.078 14.3095C132.852 14.3095 133.041 14.1879 132.555 14.7146L127.193 20.4407C126.396 21.3185 126.207 21.1565 122.696 21.1565L124.006 15.0793C124.114 14.5661 123.925 14.3095 123.412 14.3095H119.603C119.09 14.3095 118.766 14.5661 118.658 15.0793L115.187 31.4337C115.079 31.9739 115.282 32.217 115.795 32.217Z" fill="white"/>
<path d="M136.97 37.0112H127.017C124.546 37.0112 123.02 38.3347 122.601 40.3064C122.223 42.0891 122.182 42.4132 122.182 42.7238C122.182 44.3579 123.236 45.2627 125.207 45.2627H131.798C132.068 45.2627 132.176 45.3843 132.176 45.6139C132.176 46.1135 132 46.7753 131.447 46.7753H121.818C121.44 46.7753 121.21 46.9644 121.129 47.356L120.589 49.8409C120.508 50.2191 120.67 50.4081 121.048 50.4081H131.487C133.959 50.4081 135.471 49.0846 135.89 47.1129C136.295 45.2357 136.335 44.8981 136.335 44.5875C136.335 42.9804 135.296 42.0621 133.324 42.0621H126.747C126.477 42.0621 126.369 41.954 126.369 41.7244C126.369 41.2248 126.517 40.6576 127.058 40.6576H136.2C136.579 40.6576 136.835 40.4685 136.903 40.0768L137.416 37.5919C137.483 37.2003 137.362 37.0112 136.97 37.0112Z" fill="white"/>
<path d="M116.025 37.0112H109.988C106.031 37.0112 104.208 38.3887 103.438 42.0621C102.371 47.1939 101.156 50.4081 107.152 50.4081H113.189C117.146 50.4081 118.969 49.0306 119.739 45.3573C120.562 41.3733 120.643 40.7656 120.643 40.2254C120.643 37.9026 119.252 37.0112 116.025 37.0112ZM115.782 45.0467C115.471 46.4782 115.174 46.7753 113.81 46.7753H108.084C107.084 46.7753 106.706 46.5997 106.706 45.9515C106.706 45.7219 106.76 45.4383 107.409 42.3727C107.719 40.9412 108.016 40.6576 109.38 40.6576H115.106C116.106 40.6576 116.484 40.8331 116.484 41.4814C116.484 41.6974 116.43 41.981 115.782 45.0467Z" fill="white"/>
<path d="M89.8513 32.2169C94.9697 32.2169 94.9697 32.3654 95.3478 31.8117L97.2115 29.1243H107.381L108.151 31.8117C108.232 32.1224 108.38 32.2169 108.785 32.2169H113.309C113.877 32.2169 114.025 31.8793 113.904 31.4471L109.474 16.9158C108.839 14.8225 107.894 14.3364 106.152 14.3364C103.356 14.3364 102.154 13.9852 100.048 16.9158L89.5947 31.4471C89.2841 31.8928 89.2841 32.2169 89.8513 32.2169ZM100.858 23.9114C100.912 23.8303 100.979 23.7358 101.033 23.6548C101.155 23.4927 101.263 23.3307 101.371 23.1686C101.412 23.1011 101.466 23.0335 101.506 22.966C101.506 22.9525 101.52 22.9525 101.52 22.939C101.533 22.9255 101.547 22.912 101.547 22.8985C101.574 22.858 101.587 22.831 101.614 22.7904C102.938 20.8727 103.545 19.9949 103.842 19.6033C103.707 19.7789 103.505 20.0625 103.208 20.4946C103.505 20.0625 103.707 19.7924 103.842 19.6033C103.856 19.5898 103.869 19.5763 103.883 19.5628C103.896 19.5493 103.91 19.5358 103.923 19.5223C104.086 19.3197 104.14 19.2792 104.194 19.2792C104.221 19.2792 104.234 19.2792 104.261 19.2792C104.369 19.2792 104.464 19.2657 104.531 19.3197C104.572 19.3467 104.599 19.3872 104.612 19.4682L104.666 19.6708L105.693 23.2496C105.733 23.3982 105.774 23.5332 105.814 23.6953L106.219 25.1133H100.007C100.318 24.6811 100.601 24.2895 100.858 23.9114Z" fill="white"/>
<path d="M97.2525 37.0112H91.2293C87.2723 37.0112 85.4491 38.3887 84.6794 42.0621C83.6125 47.1939 82.397 50.4081 88.3932 50.4081H94.4299C98.3869 50.4081 100.21 49.0306 100.98 45.3573C101.804 41.3733 101.885 40.7656 101.885 40.2254C101.871 37.9026 100.467 37.0112 97.2525 37.0112ZM97.0094 45.0467C96.6988 46.4782 96.4016 46.7753 95.0376 46.7753H89.3116C88.3122 46.7753 87.9341 46.5997 87.9341 45.9515C87.9341 45.7219 87.9881 45.4383 88.6363 42.3727C88.9469 40.9412 89.244 40.6576 90.608 40.6576H96.3341C97.3335 40.6576 97.7116 40.8331 97.7116 41.4814C97.7116 41.6974 97.6576 41.981 97.0094 45.0467Z" fill="white"/>
<path d="M76.0361 32.217H87.6098C88.123 32.217 88.4336 31.9604 88.5281 31.4472L89.2709 28.0034C89.3654 27.4902 89.1628 27.2336 88.6632 27.2336H77.292C75.9685 27.2336 75.4553 27.0041 75.4553 26.1397C75.4553 25.8291 75.5364 25.451 76.3467 21.6156C76.7518 19.6979 77.157 19.3197 78.9801 19.3197H90.3513C90.8645 19.3197 91.1751 19.0632 91.2696 18.55L92.0124 15.1062C92.1204 14.593 91.9179 14.3364 91.4047 14.3364H79.8309C74.537 14.3364 72.1196 16.1731 71.0932 21.0754C69.6617 27.9359 68.0276 32.217 76.0361 32.217Z" fill="white"/>
<path d="M80.1819 37.0112H68.9053C68.5271 37.0112 68.2705 37.2003 68.203 37.5919L65.5966 49.8409C65.5155 50.2191 65.6776 50.4081 66.0557 50.4081H77.7915C80.3304 50.4081 81.4648 49.0171 81.8835 46.9238C82.1536 45.6139 82.5047 44.4119 81.4784 43.4801C82.2481 42.9399 82.8018 42.1566 83.0044 41.1707C83.2745 39.8878 83.315 39.5367 83.315 39.2125C83.315 37.727 82.3967 37.0112 80.1819 37.0112ZM78.0481 46.2081C77.9536 46.6132 77.7105 46.8023 77.2243 46.8023H70.5124C70.4988 46.8023 70.4853 46.8023 70.4583 46.8023C70.4313 46.8023 70.4043 46.7888 70.3773 46.7888C70.2828 46.7483 70.2828 46.6132 70.3503 46.2756C70.3773 46.1406 70.4178 45.9785 70.4583 45.7759C70.4988 45.5733 70.5529 45.3303 70.6204 45.0467H77.5889C77.6835 45.0467 77.7645 45.0602 77.8185 45.0737C77.859 45.0872 77.886 45.0872 77.9266 45.1007C77.9671 45.1142 77.9941 45.1277 78.0211 45.1547C78.0346 45.1682 78.0481 45.1682 78.0616 45.1817C78.2777 45.3708 78.1561 45.7759 78.0481 46.2081ZM79.034 41.6569C78.9529 42.0351 78.6828 42.2376 78.2102 42.2376H71.2281C71.2956 41.927 71.3497 41.6704 71.3902 41.4679C71.3902 41.4408 71.4037 41.4138 71.4037 41.3868C71.5387 40.7251 71.5792 40.617 71.8358 40.617H78.5478C78.9529 40.617 79.142 40.7656 79.142 41.0357C79.142 41.0897 79.142 41.1167 79.034 41.6569Z" fill="white"/>
<path d="M20.4093 59.8479C23.8396 59.0782 27.1888 57.6331 30.1599 55.9585C48.8912 45.3977 61.964 21.3589 56.4945 7.86747C53.699 0.96645 46.9195 -0.991765 39.5998 0.439757C54.2797 1.3716 56.7781 16.9968 45.9066 33.4998C41.1799 40.6709 34.6435 46.9507 27.6345 51.3533C27.4319 47.2478 28.4988 42.7777 29.9438 38.9018H29.9708L26.284 32.9461C23.8801 29.0837 22.2595 26.3962 20.774 24.1274C16.3173 24.6271 9.86197 23.8978 5.90503 20.8727C5.72946 20.7512 5.51338 20.9537 5.63493 21.1293C6.63429 22.6284 7.51211 23.9518 8.2954 25.1268C3.3526 32.8381 -0.253221 44.1012 2.70436 52.0826C11.7932 45.3977 17.0466 36.2143 17.0466 36.2143L17.4923 36.4709C17.8704 36.687 18.154 36.8355 18.154 36.8355C18.8292 37.1462 19.4505 37.3892 20.0987 37.6053C18.8292 39.7661 13.8054 48.1257 7.93077 55.4994C4.51402 59.5779 0.908203 59.3213 0.908203 59.3213C1.59695 60.01 6.22915 63.6968 15.4665 64.4531C12.2253 63.2242 11.8607 60.2396 12.9546 58.0923L23.1238 38.3616C23.8531 38.4967 24.5823 38.6047 25.5547 38.6992C25.5547 38.6992 25.9193 38.7262 26.4865 38.7668C26.7026 38.7803 26.9457 38.7938 27.2158 38.8073C27.2023 38.8208 21.3277 47.8961 20.4093 59.8479ZM6.01307 44.1282C6.01307 44.1282 5.18927 36.6735 10.4022 28.3274C14.3591 34.2831 14.3591 34.2426 15.426 35.1339C11.8202 39.6581 9.18672 41.8864 6.01307 44.1282ZM16.1012 33.6214L10.3481 24.8972C10.3481 24.8972 14.8453 26.8419 19.6395 26.3827L26.0814 36.714C26.0814 36.7005 20.3148 36.66 16.1012 33.6214Z" fill="#C24DFE"/>
<path d="M25.4202 11.8515C24.2453 18.1042 16.4259 20.211 12.2394 15.5383L12.2259 15.5248C9.65998 17.0644 7.83681 18.1583 7.5127 18.3608C8.55257 19.4007 9.90307 19.9949 11.6047 20.4271C16.2639 21.5885 21.5038 21.386 21.5983 21.386L34.4955 2.80316C34.6846 2.54657 34.374 2.20895 34.1039 2.38451C32.3483 3.4379 28.918 5.50415 25.0826 7.79999C25.5553 9.08296 25.6903 10.474 25.4202 11.8515Z" fill="#C24DFE"/>
<path d="M3.69061 15.4031C3.69061 15.4031 7.10736 9.31237 14.9807 10.0146C13.4277 10.5008 12.4688 12.6751 14.211 14.3497C17.209 17.2398 22.4084 15.7137 23.2187 11.4461C23.3808 10.5953 23.3268 9.75803 23.1107 9.00175C21.7737 4.28853 15.3724 4.00493 14.6026 7.07055C15.3049 6.89498 16.0476 7.13807 16.5203 7.69177C16.993 8.24547 17.1145 9.01526 16.8309 9.677C16.5743 10.2847 16.0341 10.7169 15.3859 10.8249C15.3589 10.8249 15.3454 10.8384 15.3184 10.8384C15.2778 10.8519 15.2373 10.8519 15.1968 10.8519C16.3042 10.3658 15.791 8.92072 14.9807 9.1503C15.0077 9.19082 15.0348 9.21783 15.0618 9.25835C13.3601 9.1233 6.20253 8.96123 1.65137 15.4301C1.7324 15.3221 2.79929 14.4983 3.69061 15.4031Z" fill="#C24DFE"/>
<path d="M29.7275 33.2431L31.078 35.4444L40.0588 19.1304C41.0176 17.4018 41.2067 15.3896 40.626 13.5259L29.7275 32.1087C29.5114 32.4598 29.5114 32.8919 29.7275 33.2431Z" fill="#C24DFE"/>
<path d="M26.7841 27.4899L38.0607 9.13671L36.6697 6.48975L27.6349 20.1162C26.1494 22.3445 25.8523 25.005 26.7841 27.4899Z" fill="#C24DFE"/>
<path d="M60.2894 13.688C61.4913 21.1562 59.6276 29.5833 54.9414 37.7133C47.8783 49.9622 35.8455 59.7263 22.9482 63.8183C25.5547 63.4537 29.3091 62.5623 33.6982 60.4015C41.9902 56.323 47.8513 50.3539 51.3086 46.0593C55.0089 41.4676 56.8051 37.7808 56.8726 37.6187C62.018 27.7196 62.018 20.6565 61.1267 16.4835C60.8971 15.4166 60.6 14.4848 60.2894 13.688Z" fill="#C24DFE"/>
</svg>
