<svg width="209" height="85" viewBox="0 0 209 85" fill="none" xmlns="http://www.w3.org/2000/svg">
<path d="M38.4849 73.0204C63.1139 59.2378 80.2796 27.8726 73.0921 10.274C69.4091 1.25729 60.518 -1.30281 50.8967 0.581035C70.2041 1.80473 73.4977 22.1889 59.1875 43.7162C52.9735 53.071 44.3906 61.2665 35.1588 66.9986C34.8992 61.653 36.3108 55.8082 38.1928 50.7524H38.2253L33.3741 42.9756C30.2103 37.9359 28.0686 34.4258 26.1217 31.4793C20.2646 32.1233 11.7791 31.1734 6.57098 27.2286C6.34384 27.0675 6.06802 27.3252 6.21404 27.5667C7.52824 29.531 8.68019 31.2539 9.70234 32.7835C2.33635 44.2154 -2.77442 61.6369 4.46178 71.9578C11.4222 64.9376 15.2998 60.4132 22.6821 48.0635C23.5582 48.4822 24.3857 48.7881 25.2293 49.0618C23.5582 51.8795 16.9548 62.7962 9.23183 72.4086C4.75382 77.7542 0 77.4161 0 77.4161C0.90858 78.3177 6.99282 83.132 19.1451 84.1142C14.8942 82.5041 14.3913 78.6076 15.8515 75.8221L29.2206 50.0762C30.1941 50.2533 31.1513 50.3982 32.4006 50.527C26.4949 60.703 23.2337 67.1113 20.297 78.833C26.5922 78.5432 33.0334 76.0636 38.4849 73.0204ZM6.73323 57.5794C6.73323 57.5794 5.6624 47.8542 12.493 36.9537C17.6849 44.7145 17.7011 44.6823 19.0964 45.8416C14.3588 51.7346 10.903 54.6489 6.73323 57.5794Z" fill="#C24DFE"/>
<path d="M37.1539 43.8458L39.7336 48.0322L52.2753 25.3938C53.9302 22.399 53.9951 18.7601 52.3564 15.6526L37.1215 41.4307C36.6834 42.1874 36.6834 43.1213 37.1539 43.8458Z" fill="#C24DFE"/>
<path d="M33.8921 38.6454C33.9732 38.5165 49.8409 12.8834 50.4088 11.9817C47.6182 6.71663 48.2834 7.95642 47.894 7.24797C47.5695 6.62002 46.6771 6.57172 46.2877 7.16746C44.065 10.4843 38.1592 19.34 34.0219 25.5068C31.5233 29.2583 31.1826 34.2658 33.8921 38.6454Z" fill="#C24DFE"/>
<path d="M14.9094 20.29C14.9094 20.2739 14.9094 20.2739 14.9094 20.29C11.5184 22.2866 9.13338 23.7196 8.69531 23.9772C10.0744 25.3458 11.8429 26.1187 14.0819 26.6661C20.2148 28.1796 27.1103 27.922 27.2239 27.922L44.1786 3.65748C44.422 3.31936 44.0164 2.88462 43.6594 3.11004C41.3555 4.47864 36.8451 7.16755 31.7992 10.1785C32.4157 11.853 32.5942 13.6724 32.2373 15.4597C30.6959 23.623 20.4095 26.3763 14.9094 20.29Z" fill="#C24DFE"/>
<path d="M21.707 84.196C24.9195 84.9045 33.3401 84.5985 43.5292 79.6394C64.9619 69.1897 74.4047 49.514 74.4047 49.514C87.7576 23.9775 75.7027 12.1592 75.7027 12.1592C85.8269 40.4651 55.3083 77.9649 21.707 84.196Z" fill="#C24DFE"/>
<path d="M3.68217 20.0969C3.68217 20.0969 8.1764 12.159 18.5115 13.0606C16.4672 13.6886 15.2179 16.5385 17.4893 18.7122C21.4319 22.4799 28.2625 20.4994 29.3333 14.9123C29.5443 13.8013 29.4794 12.7225 29.2035 11.7242C27.3053 5.05834 17.538 5.17104 17.9274 10.3073C18.5439 10.2429 19.1605 10.4522 19.5986 10.8065C20.9939 11.9497 20.2962 14.0267 18.7873 14.1233C20.2313 13.4954 19.5823 11.6115 18.4953 11.9014C18.5277 11.9497 18.5602 11.998 18.5926 12.0463C16.3861 11.8692 6.95955 11.6437 0.972656 20.0969C0.972656 20.0969 2.4491 18.8732 3.68217 20.0969Z" fill="#C24DFE"/>
<path d="M98.7921 42.0426H114.011C114.676 42.0426 115.082 41.7045 115.228 41.0443L116.201 36.536C116.331 35.8758 116.071 35.5377 115.39 35.5377H100.431C98.6785 35.5377 98.0133 35.2318 98.0133 34.1047C98.0133 33.7021 98.1106 33.203 99.1814 28.2116C99.7169 25.7159 100.252 25.2168 102.637 25.2168H117.58C118.245 25.2168 118.651 24.8787 118.797 24.2185L119.771 19.7102C119.9 19.05 119.641 18.7119 118.959 18.7119H103.741C96.7802 18.7119 93.6002 21.111 92.2535 27.5193C90.4201 36.4555 88.2623 42.0426 98.7921 42.0426Z" fill="#565656"/>
<path d="M116.948 42.0427C123.681 42.0427 123.681 42.2359 124.168 41.5114L126.618 38.0174H139.987L140.993 41.5114C141.09 41.9139 141.301 42.0427 141.836 42.0427H147.775C148.521 42.0427 148.716 41.608 148.553 41.0444L142.745 22.0772C141.901 19.34 140.668 18.712 138.381 18.712C134.698 18.712 133.124 18.2612 130.349 22.0772L116.607 41.0444C116.218 41.608 116.218 42.0427 116.948 42.0427ZM135.898 25.1686C136.125 25.1686 136.32 25.1364 136.369 25.394L138.478 32.7684H130.317C136.012 24.6695 135.557 25.1686 135.898 25.1686Z" fill="#565656"/>
<path d="M151.069 42.0425H156.115C156.78 42.0425 157.186 41.7043 157.332 41.0442L159.084 32.8809C164.292 32.8809 164.552 32.6554 165.136 33.8147L169.16 41.5111C169.549 42.2196 169.387 42.0425 176.282 42.0425C177.158 42.0425 177.223 41.2052 177.093 40.9476C171.918 31.6733 171.691 31.0292 170.506 29.9826C171.236 29.3869 171.382 29.1937 180.76 19.7101C181.101 19.3397 181.133 18.7118 180.419 18.7118C173.54 18.7118 173.8 18.5508 173.167 19.2431L166.109 26.7141C165.055 27.8573 164.811 27.648 160.204 27.648L161.923 19.7101C162.053 19.0499 161.826 18.7118 161.145 18.7118H156.082C155.417 18.7118 154.979 19.0499 154.833 19.7101L150.258 41.0442C150.128 41.7043 150.404 42.0425 151.069 42.0425Z" fill="#565656"/>
<path d="M207.157 18.7119H192.311C185.351 18.7119 182.171 21.111 180.824 27.5193C178.958 36.4555 176.817 42.0587 187.346 42.0587H202.192C202.857 42.0587 203.263 41.7206 203.409 41.0604L204.35 36.7292C204.48 36.069 204.22 35.7309 203.539 35.7309H188.79C186.357 35.7309 186.13 35.103 186.535 33.0903H203.896C204.561 33.0903 204.966 32.7522 205.112 32.092L205.891 28.5176C206.021 27.8574 205.761 27.5193 205.08 27.5193H187.72C188.223 25.4905 188.855 25.0558 191.078 25.0558H205.826C206.491 25.0558 206.897 24.7177 207.043 24.0575L207.984 19.7263C208.098 19.0339 207.838 18.7119 207.157 18.7119Z" fill="#565656"/>
<path d="M104.245 48.29H89.4154C88.9125 48.29 88.588 48.5477 88.4906 49.0468L85.0672 65.0353C84.9699 65.5345 85.1646 65.7921 85.6675 65.7921H101.097C104.439 65.7921 105.932 63.9726 106.484 61.2515C106.824 59.5448 107.295 57.9669 105.948 56.7593C106.954 56.0669 107.684 55.0365 107.96 53.7323C108.317 52.0577 108.366 51.6069 108.366 51.1883C108.366 49.24 107.165 48.29 104.245 48.29ZM101.454 60.3016C101.324 60.8329 101 61.0744 100.367 61.0744H91.5409C91.1028 61.0744 91.265 60.8007 91.6869 58.7719H100.854C101.892 58.7719 101.633 59.4965 101.454 60.3016ZM102.736 54.3602C102.639 54.8593 102.282 55.117 101.649 55.117H92.4657C92.8713 53.2653 92.8226 52.9916 93.2769 52.9916H102.103C102.639 52.9916 102.882 53.1848 102.882 53.539C102.882 53.6034 102.882 53.6517 102.736 54.3602Z" fill="#565656"/>
<path d="M126.7 48.29H118.766C113.558 48.29 111.173 50.0934 110.151 54.8915C108.755 61.5897 107.149 65.776 115.034 65.776H122.968C128.176 65.776 130.561 63.9726 131.584 59.1745C132.671 53.9738 132.768 53.1848 132.768 52.4764C132.768 49.4654 130.918 48.29 126.7 48.29ZM126.375 58.7719C125.97 60.6397 125.564 61.0261 123.779 61.0261H116.251C114.937 61.0261 114.434 60.8007 114.434 59.9473C114.434 59.6414 114.515 59.2711 115.359 55.278C115.765 53.4102 116.17 53.0238 117.955 53.0238H125.483C126.797 53.0238 127.3 53.2492 127.3 54.1026C127.3 54.4085 127.219 54.7788 126.375 58.7719Z" fill="#565656"/>
<path d="M151.376 48.29H143.442C138.234 48.29 135.849 50.0934 134.827 54.8915C133.431 61.5897 131.825 65.776 139.71 65.776H147.644C152.852 65.776 155.237 63.9726 156.259 59.1745C157.346 53.9738 157.444 53.1848 157.444 52.4764C157.444 49.4654 155.61 48.29 151.376 48.29ZM151.051 58.7719C150.646 60.6397 150.24 61.0261 148.455 61.0261H140.927C139.613 61.0261 139.11 60.8007 139.11 59.9473C139.11 59.6414 139.191 59.2711 140.035 55.278C140.44 53.4102 140.846 53.0238 142.631 53.0238H150.159C151.473 53.0238 151.976 53.2492 151.976 54.1026C151.976 54.4085 151.911 54.7788 151.051 58.7719Z" fill="#565656"/>
<path d="M178.91 48.29H165.817C162.572 48.29 160.56 50.0129 160.008 52.5891C159.505 54.9076 159.456 55.3424 159.456 55.7288C159.456 57.8542 160.836 59.0457 163.432 59.0457H172.095C172.452 59.0457 172.598 59.1906 172.598 59.4965C172.598 60.1405 172.371 61.0261 171.641 61.0261H158.986C158.483 61.0261 158.175 61.2837 158.077 61.7829L157.38 65.0353C157.282 65.5345 157.477 65.7921 157.98 65.7921H171.69C174.935 65.7921 176.93 64.0692 177.482 61.493C178.017 59.0457 178.066 58.5948 178.066 58.1923C178.066 56.0991 176.703 54.8915 174.107 54.8915H165.443C165.086 54.8915 164.94 54.7466 164.94 54.4407C164.94 53.7967 165.135 53.0399 165.849 53.0399H177.871C178.374 53.0399 178.699 52.7823 178.796 52.2831L179.478 49.0307C179.591 48.5316 179.413 48.29 178.91 48.29Z" fill="#565656"/>
<path d="M201.525 48.29H181.796C181.293 48.29 180.985 48.5477 180.887 49.0468L180.157 52.412C180.06 52.9111 180.254 53.1687 180.757 53.1687H187.977L185.43 65.0353C185.333 65.5345 185.527 65.7921 186.03 65.7921H189.811C190.314 65.7921 190.622 65.5345 190.719 65.0353L193.267 53.1687H200.487C200.99 53.1687 201.298 52.9111 201.395 52.412L202.125 49.0468C202.223 48.5316 202.028 48.29 201.525 48.29Z" fill="#565656"/>
</svg>
