<svg width="57" height="56" viewBox="0 0 57 56" fill="none" xmlns="http://www.w3.org/2000/svg">
<path d="M29.1834 15.6499C28.2722 14.7387 28.2722 13.2613 29.1834 12.35C30.0946 11.4388 31.572 11.4388 32.4832 12.35L46.4832 26.35C47.3666 27.2334 47.3975 28.6558 46.5534 29.5766L33.72 43.5767C32.8492 44.5266 31.3733 44.5908 30.4233 43.72C29.4734 42.8492 29.4092 41.3732 30.28 40.4233L41.6037 28.0701L29.1834 15.6499Z" fill="#C24DFE"/>
<path d="M12.8498 15.6499C11.9385 14.7387 11.9385 13.2613 12.8498 12.35C13.761 11.4388 15.2384 11.4388 16.1496 12.35L30.1496 26.35C31.0329 27.2334 31.0638 28.6558 30.2197 29.5766L17.3864 43.5767C16.5156 44.5266 15.0396 44.5908 14.0896 43.72C13.1397 42.8492 13.0755 41.3732 13.9463 40.4233L25.27 28.0701L12.8498 15.6499Z" fill="#C24DFE"/>
</svg>
