<svg width="160" height="160" viewBox="0 0 160 160" fill="none" xmlns="http://www.w3.org/2000/svg">
<path opacity="0.3" fill-rule="evenodd" clip-rule="evenodd" d="M79.9998 113.333C109.455 113.333 133.333 89.4551 133.333 60C133.333 30.5448 109.455 6.66663 79.9998 6.66663C50.5446 6.66663 26.6665 30.5448 26.6665 60C26.6665 89.4551 50.5446 113.333 79.9998 113.333Z" fill="#444B4D"/>
<path opacity="0.3" fill-rule="evenodd" clip-rule="evenodd" d="M43.5874 60L70.453 129.083L79.8393 125.433L89.163 129.116L116.468 60H43.5874ZM63.0794 73.3333H96.8653L79.8394 116.43L63.0794 73.3333Z" fill="#444B4D"/>
<path opacity="0.3" d="M66.6665 146.667H93.3332C93.3332 154.031 87.3636 160 79.9998 160C72.636 160 66.6665 154.031 66.6665 146.667Z" fill="#444B4D"/>
<path fill-rule="evenodd" clip-rule="evenodd" d="M53.3332 113.333C53.3332 109.652 56.3179 106.667 59.9998 106.667H99.9998C103.682 106.667 106.667 109.652 106.667 113.333C106.667 117.015 103.682 120 99.9998 120H59.9998C56.3179 120 53.3332 117.015 53.3332 113.333ZM53.333 126.667C53.333 122.985 56.3178 120 59.9997 120H99.9997C103.682 120 106.666 122.985 106.666 126.667C106.666 130.349 103.682 133.334 99.9997 133.334C103.682 133.334 106.666 136.318 106.666 140C106.666 143.682 103.682 146.667 99.9997 146.667H59.9997C56.3178 146.667 53.333 143.682 53.333 140C53.333 136.318 56.3178 133.334 59.9997 133.334C56.3178 133.334 53.333 130.349 53.333 126.667Z" fill="#444B4D"/>
</svg>
