<svg width="24" height="24" viewBox="0 0 24 24" fill="none" xmlns="http://www.w3.org/2000/svg">
<path fill-rule="evenodd" clip-rule="evenodd" d="M12 2C17.5224 2 22 6.47757 22 12C22 16.9923 18.3437 21.1295 13.5624 21.8791V14.8913H15.8926L16.3356 12H16.3355L16.3355 12H13.5624V10.124C13.5624 9.43241 13.8586 8.75478 14.7657 8.59633C14.8325 8.58465 14.9026 8.5758 14.9762 8.56996C15.0451 8.56449 15.1171 8.56168 15.1923 8.56168H16.4537V6.1007C16.4537 6.1007 16.4537 6.10069 16.4537 6.10069C16.4537 6.10069 15.309 5.90522 14.2149 5.90522C14.0967 5.90522 13.9806 5.90893 13.8667 5.91631C11.9072 6.04327 10.6035 7.25721 10.4524 9.37432C10.4426 9.51125 10.4376 9.65195 10.4376 9.79637V12H7.8979V14.8913H7.89792V14.8913H10.4376V21.8791C5.65631 21.1281 2 16.9909 2 12C2 6.47757 6.47757 2 12 2Z" fill="#1977F3"/>
</svg>
