<svg width="209" height="85" viewBox="0 0 209 85" fill="none" xmlns="http://www.w3.org/2000/svg">
<path d="M38.4849 73.0204C63.1139 59.2378 80.2796 27.8726 73.0921 10.274C69.4091 1.25729 60.518 -1.30281 50.8967 0.581035C70.2041 1.80473 73.4977 22.1889 59.1875 43.7162C52.9735 53.071 44.3906 61.2665 35.1588 66.9986C34.8992 61.653 36.3108 55.8082 38.1928 50.7524H38.2253L33.3741 42.9756C30.2103 37.9359 28.0686 34.4258 26.1217 31.4793C20.2646 32.1233 11.7791 31.1734 6.57098 27.2286C6.34384 27.0675 6.06802 27.3252 6.21404 27.5667C7.52824 29.531 8.68019 31.2539 9.70234 32.7835C2.33635 44.2154 -2.77442 61.6369 4.46178 71.9578C11.4222 64.9376 15.2998 60.4132 22.6821 48.0635C23.5582 48.4822 24.3857 48.7881 25.2293 49.0618C23.5582 51.8795 16.9548 62.7962 9.23183 72.4086C4.75382 77.7542 0 77.4161 0 77.4161C0.90858 78.3177 6.99282 83.132 19.1451 84.1142C14.8942 82.5041 14.3913 78.6076 15.8515 75.8221L29.2206 50.0762C30.1941 50.2533 31.1513 50.3982 32.4006 50.527C26.4949 60.703 23.2337 67.1113 20.297 78.833C26.5922 78.5432 33.0334 76.0636 38.4849 73.0204ZM6.73323 57.5794C6.73323 57.5794 5.6624 47.8542 12.493 36.9537C17.6849 44.7145 17.7011 44.6823 19.0964 45.8416C14.3588 51.7346 10.903 54.6489 6.73323 57.5794Z" fill="#C24DFE"/>
<path d="M37.1547 43.8461L39.7344 48.0324L52.276 25.3941C53.9309 22.3992 53.9958 18.7604 52.3572 15.6528L37.1222 41.4309C36.6841 42.1877 36.6841 43.1215 37.1547 43.8461Z" fill="#C24DFE"/>
<path d="M33.8931 38.6454C33.9742 38.5165 49.8419 12.8834 50.4098 11.9817C47.6191 6.71663 48.2844 7.95642 47.895 7.24797C47.5705 6.62002 46.6781 6.57172 46.2887 7.16746C44.0659 10.4843 38.1602 19.34 34.0229 25.5068C31.5243 29.2583 31.1836 34.2658 33.8931 38.6454Z" fill="#C24DFE"/>
<path d="M14.9103 20.29C14.9103 20.2739 14.9103 20.2739 14.9103 20.29C11.5194 22.2866 9.13435 23.7196 8.69629 23.9772C10.0754 25.3458 11.8439 26.1187 14.0829 26.6661C20.2158 28.1796 27.1113 27.922 27.2248 27.922L44.1796 3.65748C44.423 3.31936 44.0173 2.88462 43.6604 3.11004C41.3565 4.47864 36.8461 7.16755 31.8002 10.1785C32.4167 11.853 32.5952 13.6724 32.2383 15.4597C30.6969 23.623 20.4105 26.3763 14.9103 20.29Z" fill="#C24DFE"/>
<path d="M21.7087 84.196C24.9212 84.9045 33.3418 84.5985 43.5309 79.6394C64.9637 69.1897 74.4064 49.514 74.4064 49.514C87.7593 23.9775 75.7044 12.1592 75.7044 12.1592C85.8286 40.4651 55.31 77.9649 21.7087 84.196Z" fill="#C24DFE"/>
<path d="M3.6829 20.0966C3.6829 20.0966 8.17713 12.1587 18.5122 13.0604C16.4679 13.6883 15.2186 16.5383 17.4901 18.7119C21.4327 22.4796 28.2632 20.4992 29.3341 14.912C29.545 13.8011 29.4801 12.7223 29.2043 11.724C27.306 5.05809 17.5388 5.1708 17.9281 10.3071C18.5447 10.2427 19.1612 10.452 19.5993 10.8062C20.9946 11.9494 20.2969 14.0265 18.7881 14.1231C20.232 13.4951 19.5831 11.6113 18.496 11.9011C18.5285 11.9494 18.5609 11.9977 18.5934 12.046C16.3868 11.8689 6.96028 11.6435 0.973389 20.0966C0.973389 20.0966 2.44983 18.8729 3.6829 20.0966Z" fill="#C24DFE"/>
<path d="M98.7918 42.0426H114.011C114.676 42.0426 115.081 41.7045 115.227 41.0443L116.201 36.536C116.331 35.8758 116.071 35.5377 115.39 35.5377H100.431C98.6782 35.5377 98.013 35.2318 98.013 34.1047C98.013 33.7021 98.1104 33.203 99.1812 28.2116C99.7166 25.7159 100.252 25.2168 102.637 25.2168H117.58C118.245 25.2168 118.651 24.8787 118.797 24.2185L119.77 19.7102C119.9 19.05 119.64 18.7119 118.959 18.7119H103.74C96.78 18.7119 93.5999 21.111 92.2533 27.5193C90.4199 36.4555 88.262 42.0426 98.7918 42.0426Z" fill="#565656"/>
<path d="M116.947 42.0429C123.681 42.0429 123.681 42.2362 124.167 41.5116L126.617 38.0176H139.986L140.992 41.5116C141.09 41.9141 141.301 42.0429 141.836 42.0429H147.774C148.521 42.0429 148.715 41.6082 148.553 41.0447L142.745 22.0774C141.901 19.3402 140.668 18.7123 138.38 18.7123C134.697 18.7123 133.123 18.2614 130.349 22.0774L116.607 41.0447C116.217 41.6082 116.217 42.0429 116.947 42.0429ZM135.898 25.1689C136.125 25.1689 136.32 25.1367 136.368 25.3943L138.478 32.7686H130.317C136.011 24.6697 135.557 25.1689 135.898 25.1689Z" fill="#565656"/>
<path d="M151.067 42.0427H156.113C156.778 42.0427 157.184 41.7046 157.33 41.0444L159.082 32.8811C164.29 32.8811 164.55 32.6557 165.134 33.815L169.158 41.5114C169.547 42.2198 169.385 42.0427 176.28 42.0427C177.157 42.0427 177.221 41.2054 177.092 40.9478C171.916 31.6735 171.689 31.0295 170.504 29.9829C171.235 29.3871 171.381 29.1939 180.758 19.7103C181.099 19.34 181.132 18.712 180.418 18.712C173.538 18.712 173.798 18.551 173.165 19.2434L166.108 26.7143C165.053 27.8575 164.81 27.6482 160.202 27.6482L161.922 19.7103C162.051 19.0502 161.824 18.712 161.143 18.712H156.081C155.416 18.712 154.977 19.0502 154.831 19.7103L150.256 41.0444C150.126 41.7046 150.402 42.0427 151.067 42.0427Z" fill="#565656"/>
<path d="M207.157 18.7119H192.311C185.351 18.7119 182.171 21.111 180.824 27.5193C178.958 36.4555 176.817 42.0587 187.346 42.0587H202.192C202.857 42.0587 203.263 41.7206 203.409 41.0604L204.35 36.7292C204.48 36.069 204.22 35.7309 203.539 35.7309H188.79C186.357 35.7309 186.13 35.103 186.535 33.0903H203.896C204.561 33.0903 204.966 32.7522 205.112 32.092L205.891 28.5176C206.021 27.8574 205.761 27.5193 205.08 27.5193H187.72C188.223 25.4905 188.855 25.0558 191.078 25.0558H205.826C206.491 25.0558 206.897 24.7177 207.043 24.0575L207.984 19.7263C208.098 19.0339 207.838 18.7119 207.157 18.7119Z" fill="#565656"/>
<path d="M104.243 48.29H89.4137C88.9108 48.29 88.5863 48.5477 88.4889 49.0468L85.0655 65.0353C84.9682 65.5345 85.1629 65.7921 85.6658 65.7921H101.095C104.438 65.7921 105.93 63.9726 106.482 61.2515C106.823 59.5448 107.293 57.9669 105.947 56.7593C106.953 56.0669 107.683 55.0365 107.959 53.7323C108.315 52.0577 108.364 51.6069 108.364 51.1883C108.364 49.24 107.163 48.29 104.243 48.29ZM101.452 60.3016C101.323 60.8329 100.998 61.0744 100.365 61.0744H91.5392C91.1011 61.0744 91.2633 60.8007 91.6852 58.7719H100.852C101.89 58.7719 101.631 59.4965 101.452 60.3016ZM102.734 54.3602C102.637 54.8593 102.28 55.117 101.647 55.117H92.464C92.8696 53.2653 92.8209 52.9916 93.2752 52.9916H102.101C102.637 52.9916 102.88 53.1848 102.88 53.539C102.88 53.6034 102.88 53.6517 102.734 54.3602Z" fill="#565656"/>
<path d="M126.698 48.29H118.765C113.556 48.29 111.171 50.0934 110.149 54.8915C108.754 61.5897 107.148 65.776 115.033 65.776H122.967C128.175 65.776 130.56 63.9726 131.582 59.1745C132.669 53.9738 132.766 53.1848 132.766 52.4764C132.766 49.4654 130.917 48.29 126.698 48.29ZM126.374 58.7719C125.968 60.6397 125.563 61.0261 123.778 61.0261H116.25C114.936 61.0261 114.433 60.8007 114.433 59.9473C114.433 59.6414 114.514 59.2711 115.357 55.278C115.763 53.4102 116.169 53.0238 117.953 53.0238H125.482C126.796 53.0238 127.299 53.2492 127.299 54.1026C127.299 54.4085 127.218 54.7788 126.374 58.7719Z" fill="#565656"/>
<path d="M151.376 48.29H143.442C138.234 48.29 135.849 50.0934 134.827 54.8915C133.432 61.5897 131.826 65.776 139.711 65.776H147.645C152.853 65.776 155.238 63.9726 156.26 59.1745C157.347 53.9738 157.444 53.1848 157.444 52.4764C157.444 49.4654 155.611 48.29 151.376 48.29ZM151.052 58.7719C150.646 60.6397 150.24 61.0261 148.456 61.0261H140.928C139.613 61.0261 139.11 60.8007 139.11 59.9473C139.11 59.6414 139.191 59.2711 140.035 55.278C140.441 53.4102 140.846 53.0238 142.631 53.0238H150.159C151.474 53.0238 151.977 53.2492 151.977 54.1026C151.977 54.4085 151.912 54.7788 151.052 58.7719Z" fill="#565656"/>
<path d="M178.909 48.29H165.816C162.571 48.29 160.559 50.0129 160.007 52.5891C159.504 54.9076 159.456 55.3424 159.456 55.7288C159.456 57.8542 160.835 59.0457 163.431 59.0457H172.095C172.452 59.0457 172.598 59.1906 172.598 59.4965C172.598 60.1405 172.371 61.0261 171.64 61.0261H158.985C158.482 61.0261 158.174 61.2837 158.077 61.7829L157.379 65.0353C157.282 65.5345 157.476 65.7921 157.979 65.7921H171.689C174.934 65.7921 176.93 64.0692 177.481 61.493C178.017 59.0457 178.065 58.5948 178.065 58.1923C178.065 56.0991 176.703 54.8915 174.107 54.8915H165.443C165.086 54.8915 164.94 54.7466 164.94 54.4407C164.94 53.7967 165.134 53.0399 165.848 53.0399H177.871C178.374 53.0399 178.698 52.7823 178.796 52.2831L179.477 49.0307C179.591 48.5316 179.412 48.29 178.909 48.29Z" fill="#565656"/>
<path d="M201.526 48.29H181.797C181.294 48.29 180.986 48.5477 180.889 49.0468L180.159 52.412C180.061 52.9111 180.256 53.1687 180.759 53.1687H187.979L185.432 65.0353C185.334 65.5345 185.529 65.7921 186.032 65.7921H189.812C190.315 65.7921 190.623 65.5345 190.721 65.0353L193.268 53.1687H200.488C200.991 53.1687 201.299 52.9111 201.397 52.412L202.127 49.0468C202.224 48.5316 202.029 48.29 201.526 48.29Z" fill="#565656"/>
</svg>
