<svg width="96" height="96" viewBox="0 0 96 96" fill="none" xmlns="http://www.w3.org/2000/svg">
<path opacity="0.3" d="M51.7945 33.2649L44.2051 30.7351C47.2639 21.5586 52.1705 15.8342 59.0297 14.1194C62.601 13.2266 67.9998 7.47804 67.9998 4H75.9998C75.9998 11.1886 68.0653 20.1067 60.97 21.8806C57.1624 22.8324 54.069 26.4414 51.7945 33.2649Z" fill="#444B4D"/>
<path fill-rule="evenodd" clip-rule="evenodd" d="M31.2722 28H64.81C70.2345 26.9179 75.7977 29.7089 78.1057 34.8818L91.8003 65.5759C93.8661 70.2061 92.799 75.635 89.1344 79.1388L88.4249 79.8171C83.5257 84.5013 75.7217 84.2009 71.1971 79.1538L61.1977 68H35.4588L25.4593 79.1539C20.9347 84.201 13.1308 84.5014 8.23145 79.8172L7.43127 79.0521C3.81128 75.591 2.72152 70.2457 4.69767 65.6437L17.8463 35.0237C20.1142 29.7422 25.7643 26.8706 31.2722 28ZM39.9997 48C39.9997 52.4183 36.4179 56 31.9997 56C27.5814 56 23.9997 52.4183 23.9997 48C23.9997 43.5817 27.5814 40 31.9997 40C36.4179 40 39.9997 43.5817 39.9997 48ZM67.9997 48C70.2088 48 71.9997 46.2091 71.9997 44C71.9997 41.7908 70.2088 40 67.9997 40C65.7905 40 63.9997 41.7908 63.9997 44C63.9997 46.2091 65.7905 48 67.9997 48ZM63.9997 52C63.9997 54.2091 62.2088 56 59.9997 56C57.7905 56 55.9997 54.2091 55.9997 52C55.9997 49.7908 57.7905 48 59.9997 48C62.2088 48 63.9997 49.7908 63.9997 52Z" fill="#444B4D"/>
</svg>
