<svg width="96" height="96" viewBox="0 0 96 96" fill="none" xmlns="http://www.w3.org/2000/svg">
<path opacity="0.3" d="M51.7926 37.2649L44.2031 34.7351C47.262 25.5586 52.1686 19.8342 59.0277 18.1194C62.599 17.2266 67.9979 11.478 67.9979 8H75.9979C75.9979 15.1886 68.0634 24.1067 60.968 25.8806C57.1605 26.8324 54.0671 30.4414 51.7926 37.2649Z" fill="#444B4D"/>
<path fill-rule="evenodd" clip-rule="evenodd" d="M70 76C82.1503 76 92 66.1503 92 54C92 41.8497 82.1503 32 70 32C69.2484 32 68.5057 32.0377 67.7735 32.1113C67.1927 32.0378 66.6008 32 66 32H30C29.3992 32 28.8073 32.0378 28.2265 32.1113C27.4943 32.0377 26.7515 32 26 32C13.8497 32 4 41.8497 4 54C4 66.1503 13.8497 76 26 76C32.8317 76 38.9362 72.886 42.9714 68H53.0286C57.0638 72.886 63.1682 76 70 76ZM20 42C20 40.8954 20.8954 40 22 40H26C27.1046 40 28 40.8954 28 42V46C28 47.1046 27.1046 48 26 48H22C20.8954 48 20 47.1046 20 46V42ZM30 48C28.8954 48 28 48.8954 28 50V54C28 55.1046 28.8954 56 30 56H34C35.1046 56 36 55.1046 36 54V50C36 48.8954 35.1046 48 34 48H30ZM76 48C78.2091 48 80 46.2091 80 44C80 41.7909 78.2091 40 76 40C73.7909 40 72 41.7909 72 44C72 46.2091 73.7909 48 76 48ZM76 56C76 58.2091 74.2091 60 72 60C69.7909 60 68 58.2091 68 56C68 53.7909 69.7909 52 72 52C74.2091 52 76 53.7909 76 56ZM20 58C20 56.8954 20.8954 56 22 56H26C27.1046 56 28 56.8954 28 58V62C28 63.1046 27.1046 64 26 64H22C20.8954 64 20 63.1046 20 62V58ZM14 48C12.8954 48 12 48.8954 12 50V54C12 55.1046 12.8954 56 14 56H18C19.1046 56 20 55.1046 20 54V50C20 48.8954 19.1046 48 18 48H14Z" fill="#444B4D"/>
</svg>
