<svg width="20" height="20" viewBox="0 0 20 20" fill="none" xmlns="http://www.w3.org/2000/svg">
<path d="M7.1875 10C7.1875 8.4467 8.4467 7.1875 10 7.1875C11.5533 7.1875 12.8125 8.4467 12.8125 10C12.8125 11.5533 11.5533 12.8125 10 12.8125C8.4467 12.8125 7.1875 11.5533 7.1875 10Z" fill="#F9EEFF"/>
<path fill-rule="evenodd" clip-rule="evenodd" d="M1.25 7.25C1.25 5.1498 1.25 4.0997 1.65873 3.29754C2.01825 2.59193 2.59193 2.01825 3.29754 1.65873C4.0997 1.25 5.1498 1.25 7.25 1.25H12.75C14.8502 1.25 15.9003 1.25 16.7025 1.65873C17.4081 2.01825 17.9818 2.59193 18.3413 3.29754C18.75 4.0997 18.75 5.1498 18.75 7.25V12.75C18.75 14.8502 18.75 15.9003 18.3413 16.7025C17.9818 17.4081 17.4081 17.9818 16.7025 18.3413C15.9003 18.75 14.8502 18.75 12.75 18.75H7.25C5.1498 18.75 4.0997 18.75 3.29754 18.3413C2.59193 17.9818 2.01825 17.4081 1.65873 16.7025C1.25 15.9003 1.25 14.8502 1.25 12.75V7.25ZM16.9676 5.04632C16.9676 5.76226 16.3873 6.34264 15.6713 6.34264C14.9554 6.34264 14.375 5.76226 14.375 5.04632C14.375 4.33038 14.9554 3.75 15.6713 3.75C16.3873 3.75 16.9676 4.33038 16.9676 5.04632ZM10 5.3125C7.41117 5.3125 5.3125 7.41117 5.3125 10C5.3125 12.5888 7.41117 14.6875 10 14.6875C12.5888 14.6875 14.6875 12.5888 14.6875 10C14.6875 7.41117 12.5888 5.3125 10 5.3125Z" fill="#F9EEFF"/>
</svg>
