<svg width="40" height="40" viewBox="0 0 40 40" fill="none" xmlns="http://www.w3.org/2000/svg">
<rect opacity="0.3" x="6.66699" y="6.66669" width="6.66667" height="6.66667" rx="1.66667" fill="#C24DFE"/>
<path fill-rule="evenodd" clip-rule="evenodd" d="M18.3337 6.66669C17.4132 6.66669 16.667 7.41288 16.667 8.33335V11.6667C16.667 12.5872 17.4132 13.3334 18.3337 13.3334H21.667C22.5875 13.3334 23.3337 12.5872 23.3337 11.6667V8.33335C23.3337 7.41288 22.5875 6.66669 21.667 6.66669H18.3337ZM8.33366 16.6667C7.41318 16.6667 6.66699 17.4129 6.66699 18.3334V21.6667C6.66699 22.5872 7.41318 23.3334 8.33366 23.3334H11.667C12.5875 23.3334 13.3337 22.5872 13.3337 21.6667V18.3334C13.3337 17.4129 12.5875 16.6667 11.667 16.6667H8.33366ZM16.667 18.3334C16.667 17.4129 17.4132 16.6667 18.3337 16.6667H21.667C22.5875 16.6667 23.3337 17.4129 23.3337 18.3334V21.6667C23.3337 22.5872 22.5875 23.3334 21.667 23.3334H18.3337C17.4132 23.3334 16.667 22.5872 16.667 21.6667V18.3334ZM28.3337 6.66669C27.4132 6.66669 26.667 7.41288 26.667 8.33335V11.6667C26.667 12.5872 27.4132 13.3334 28.3337 13.3334H31.667C32.5875 13.3334 33.3337 12.5872 33.3337 11.6667V8.33335C33.3337 7.41288 32.5875 6.66669 31.667 6.66669H28.3337ZM26.667 18.3334C26.667 17.4129 27.4132 16.6667 28.3337 16.6667H31.667C32.5875 16.6667 33.3337 17.4129 33.3337 18.3334V21.6667C33.3337 22.5872 32.5875 23.3334 31.667 23.3334H28.3337C27.4132 23.3334 26.667 22.5872 26.667 21.6667V18.3334ZM8.33366 26.6667C7.41318 26.6667 6.66699 27.4129 6.66699 28.3334V31.6667C6.66699 32.5872 7.41318 33.3334 8.33366 33.3334H11.667C12.5875 33.3334 13.3337 32.5872 13.3337 31.6667V28.3334C13.3337 27.4129 12.5875 26.6667 11.667 26.6667H8.33366ZM16.667 28.3334C16.667 27.4129 17.4132 26.6667 18.3337 26.6667H21.667C22.5875 26.6667 23.3337 27.4129 23.3337 28.3334V31.6667C23.3337 32.5872 22.5875 33.3334 21.667 33.3334H18.3337C17.4132 33.3334 16.667 32.5872 16.667 31.6667V28.3334ZM28.3337 26.6667C27.4132 26.6667 26.667 27.4129 26.667 28.3334V31.6667C26.667 32.5872 27.4132 33.3334 28.3337 33.3334H31.667C32.5875 33.3334 33.3337 32.5872 33.3337 31.6667V28.3334C33.3337 27.4129 32.5875 26.6667 31.667 26.6667H28.3337Z" fill="#C24DFE"/>
</svg>
