<svg width="208" height="85" viewBox="0 0 208 85" fill="none" xmlns="http://www.w3.org/2000/svg">
<path d="M207.164 18.8512H192.318C185.357 18.8512 182.179 21.2663 180.829 27.7124C178.964 36.7157 176.816 42.3627 187.346 42.3627H202.192C202.867 42.3627 203.275 42.0253 203.399 41.3505L204.34 36.982C204.465 36.3072 204.198 35.9698 203.541 35.9698H188.784C186.352 35.9698 186.121 35.3305 186.529 33.3239H203.897C204.571 33.3239 204.98 32.9865 205.104 32.3117L205.868 28.7246C206.01 28.0498 205.743 27.7124 205.069 27.7124H187.701C188.198 25.6702 188.838 25.2263 191.058 25.2263H205.814C206.489 25.2263 206.88 24.8889 207.022 24.2141L207.963 19.8456C208.105 19.1886 207.839 18.8512 207.164 18.8512Z" fill="white"/>
<path d="M201.535 48.6667H181.806C181.308 48.6667 181.006 48.9154 180.9 49.4303L180.172 52.8221C180.065 53.3193 180.278 53.5857 180.776 53.5857H188.003L185.464 65.5368C185.357 66.034 185.57 66.2826 186.067 66.2826H189.85C190.347 66.2826 190.649 66.034 190.756 65.5368L193.295 53.5857H200.522C201.02 53.5857 201.321 53.3371 201.428 52.8221L202.156 49.4303C202.227 48.9154 202.032 48.6667 201.535 48.6667Z" fill="white"/>
<path d="M151.067 42.3627H156.11C156.785 42.3627 157.175 42.0253 157.317 41.3505L159.058 33.1109C164.261 33.1109 164.527 32.88 165.095 34.052L169.126 41.8122C169.517 42.5226 169.357 42.345 176.247 42.345C177.118 42.345 177.189 41.5104 177.047 41.244C171.861 31.9033 171.648 31.264 170.458 30.1808C171.186 29.577 171.328 29.3995 180.705 19.8279C181.042 19.455 181.078 18.8157 180.367 18.8157C173.495 18.8157 173.744 18.6559 173.104 19.3485L166.054 26.8778C165.007 28.0321 164.758 27.819 160.141 27.819L161.863 19.8279C162.006 19.1531 161.757 18.8157 161.082 18.8157H156.074C155.4 18.8157 154.973 19.1531 154.831 19.8279L150.268 41.3328C150.125 42.0431 150.392 42.3627 151.067 42.3627Z" fill="white"/>
<path d="M178.911 48.6667H165.824C162.574 48.6667 160.567 50.407 160.017 52.9997C159.52 55.3437 159.466 55.7699 159.466 56.1783C159.466 58.3271 160.852 59.5168 163.444 59.5168H172.11C172.465 59.5168 172.607 59.6766 172.607 59.9785C172.607 60.6356 172.376 61.5057 171.648 61.5057H158.987C158.49 61.5057 158.188 61.7543 158.081 62.2693L157.371 65.5368C157.264 66.034 157.478 66.2826 157.975 66.2826H171.702C174.951 66.2826 176.94 64.5423 177.491 61.9497C178.024 59.4813 178.077 59.0374 178.077 58.6289C178.077 56.5157 176.709 55.3082 174.117 55.3082H165.469C165.114 55.3082 164.971 55.1661 164.971 54.8643C164.971 54.2072 165.167 53.4614 165.877 53.4614H177.899C178.396 53.4614 178.734 53.2128 178.823 52.6978L179.497 49.4303C179.586 48.9154 179.426 48.6667 178.911 48.6667Z" fill="white"/>
<path d="M151.368 48.6667H143.431C138.228 48.6667 135.83 50.478 134.818 55.3082C133.415 62.0562 131.817 66.2826 139.701 66.2826H147.639C152.842 66.2826 155.24 64.4713 156.252 59.6411C157.335 54.4026 157.442 53.6034 157.442 52.8931C157.442 49.8388 155.613 48.6667 151.368 48.6667ZM151.049 59.2327C150.64 61.115 150.25 61.5057 148.456 61.5057H140.927C139.613 61.5057 139.115 61.2749 139.115 60.4225C139.115 60.1206 139.186 59.7477 140.039 55.7166C140.447 53.8343 140.838 53.4614 142.631 53.4614H150.161C151.475 53.4614 151.972 53.6922 151.972 54.5446C151.972 54.8287 151.901 55.2017 151.049 59.2327Z" fill="white"/>
<path d="M116.954 42.3627C123.684 42.3627 123.684 42.5581 124.181 41.83L126.632 38.2962H140.003L141.016 41.83C141.122 42.2384 141.318 42.3627 141.85 42.3627H147.799C148.545 42.3627 148.74 41.9188 148.581 41.3505L142.756 22.243C141.921 19.4905 140.678 18.8512 138.387 18.8512C134.712 18.8512 133.131 18.3895 130.361 22.243L116.616 41.3505C116.208 41.9365 116.208 42.3627 116.954 42.3627ZM131.426 31.4416C131.497 31.3351 131.586 31.2107 131.657 31.1042C131.817 30.8911 131.959 30.678 132.101 30.4649C132.154 30.3761 132.225 30.2873 132.279 30.1985C132.279 30.1808 132.297 30.1808 132.297 30.163C132.314 30.1453 132.332 30.1275 132.332 30.1098C132.368 30.0565 132.385 30.021 132.421 29.9677C134.161 27.4461 134.96 26.2918 135.351 25.7768C135.173 26.0077 134.907 26.3806 134.516 26.9488C134.907 26.3806 135.173 26.0254 135.351 25.7768C135.369 25.7591 135.386 25.7413 135.404 25.7236C135.422 25.7058 135.44 25.688 135.457 25.6703C135.671 25.4039 135.742 25.3506 135.813 25.3506C135.848 25.3506 135.866 25.3506 135.901 25.3506C136.043 25.3506 136.168 25.3329 136.257 25.4039C136.31 25.4394 136.345 25.4927 136.363 25.5992L136.434 25.8656L137.784 30.5715C137.837 30.7668 137.89 30.9444 137.944 31.1575L138.476 33.022H130.308C130.716 32.4538 131.089 31.9388 131.426 31.4416Z" fill="white"/>
<path d="M126.685 48.6667H118.765C113.562 48.6667 111.165 50.478 110.152 55.3082C108.75 62.0562 107.151 66.2826 115.036 66.2826H122.974C128.177 66.2826 130.574 64.4713 131.586 59.6411C132.67 54.4026 132.776 53.6034 132.776 52.8931C132.758 49.8388 130.911 48.6667 126.685 48.6667ZM126.365 59.2327C125.957 61.115 125.566 61.5057 123.773 61.5057H116.243C114.929 61.5057 114.432 61.2749 114.432 60.4225C114.432 60.1206 114.503 59.7477 115.356 55.7166C115.764 53.8343 116.155 53.4614 117.948 53.4614H125.478C126.792 53.4614 127.289 53.6922 127.289 54.5446C127.289 54.8287 127.218 55.2017 126.365 59.2327Z" fill="white"/>
<path d="M98.7876 42.3627H114.006C114.681 42.3627 115.089 42.0253 115.214 41.3505L116.19 36.8222C116.315 36.1474 116.048 35.81 115.391 35.81H100.439C98.6988 35.81 98.024 35.5081 98.024 34.3716C98.024 33.9632 98.1306 33.466 99.1961 28.4227C99.7288 25.9011 100.262 25.4039 102.659 25.4039H117.611C118.286 25.4039 118.694 25.0665 118.819 24.3917L119.795 19.8634C119.937 19.1886 119.671 18.8512 118.996 18.8512H103.778C96.8165 18.8512 93.6378 21.2663 92.2882 27.7124C90.4059 36.7334 88.2572 42.3627 98.7876 42.3627Z" fill="white"/>
<path d="M104.239 48.6667H89.4112C88.914 48.6667 88.5766 48.9154 88.4878 49.4303L85.0605 65.5368C84.9539 66.034 85.167 66.2826 85.6643 66.2826H101.096C104.434 66.2826 105.926 64.4535 106.477 61.7011C106.832 59.9785 107.293 58.3981 105.944 57.1728C106.956 56.4625 107.684 55.4325 107.95 54.1362C108.306 52.4492 108.359 51.9875 108.359 51.5613C108.359 49.6079 107.151 48.6667 104.239 48.6667ZM101.433 60.7599C101.309 61.2926 100.989 61.5412 100.35 61.5412H91.5244C91.5066 61.5412 91.4889 61.5412 91.4533 61.5412C91.4178 61.5412 91.3823 61.5235 91.3468 61.5235C91.2225 61.4702 91.2225 61.2926 91.3113 60.8487C91.3468 60.6711 91.4001 60.458 91.4533 60.1916C91.5066 59.9253 91.5776 59.6056 91.6664 59.2327H100.83C100.954 59.2327 101.06 59.2505 101.131 59.2682C101.185 59.286 101.22 59.286 101.273 59.3037C101.327 59.3215 101.362 59.3393 101.398 59.3748C101.416 59.3925 101.433 59.3925 101.451 59.4103C101.735 59.6589 101.575 60.1916 101.433 60.7599ZM102.73 54.7755C102.623 55.2727 102.268 55.5391 101.646 55.5391H92.4655C92.5543 55.1306 92.6254 54.7932 92.6786 54.5269C92.6786 54.4913 92.6964 54.4558 92.6964 54.4203C92.874 53.5502 92.9273 53.4081 93.2647 53.4081H102.09C102.623 53.4081 102.872 53.6034 102.872 53.9586C102.872 54.0296 102.872 54.0651 102.73 54.7755Z" fill="white"/>
<path d="M25.6424 78.6953C30.1529 77.6831 34.5569 75.783 38.4636 73.581C63.0938 59.6944 80.2835 28.0853 73.0916 10.3451C69.4157 1.27081 60.5012 -1.30409 50.8764 0.578246C70.1793 1.80354 73.4645 22.3495 59.1693 44.0496C52.9541 53.4791 44.3593 61.7365 35.1429 67.5256C34.8765 62.1272 36.2794 56.2493 38.1795 51.1528H38.215L33.3671 43.3215C30.2062 38.2428 28.0753 34.709 26.1219 31.7256C20.2618 32.3827 11.7735 31.4238 6.57043 27.446C6.33957 27.2862 6.05545 27.5525 6.21527 27.7834C7.52935 29.7545 8.68362 31.4948 9.71358 33.0397C3.21418 43.1795 -1.52718 57.9896 2.3618 68.4845C14.3129 59.6944 21.2207 47.619 21.2207 47.619L21.8067 47.9564C22.3039 48.2405 22.6769 48.4358 22.6769 48.4358C23.5647 48.8443 24.3816 49.1639 25.234 49.448C23.5647 52.2893 16.9588 63.2814 9.23411 72.9773C4.74136 78.3402 0 78.0028 0 78.0028C0.905653 78.9084 6.99662 83.7563 19.143 84.7508C14.8811 83.1348 14.4017 79.2103 15.8401 76.3868L29.2118 50.4425C30.1707 50.6201 31.1296 50.7621 32.4082 50.8864C32.4082 50.8864 32.8876 50.9219 33.6335 50.9752C33.9176 50.993 34.2372 51.0107 34.5924 51.0285C34.5746 51.0462 26.85 62.9796 25.6424 78.6953ZM6.71249 58.0251C6.71249 58.0251 5.62926 48.2227 12.4838 37.2483C17.6869 45.0796 17.6869 45.0263 19.0898 46.1983C14.3484 52.1472 10.8856 55.0773 6.71249 58.0251ZM19.9776 44.2094L12.4128 32.7378C12.4128 32.7378 18.3262 35.295 24.6302 34.6912L33.1007 48.276C33.1007 48.2583 25.5181 48.205 19.9776 44.2094Z" fill="#C24DFE"/>
<path d="M32.2311 15.5837C30.6861 23.8056 20.4043 26.5759 14.8994 20.4316L14.8816 20.4139C11.5076 22.4383 9.11027 23.8766 8.68408 24.143C10.0514 25.5104 11.8272 26.2917 14.0647 26.86C20.1912 28.3872 27.0813 28.1208 27.2056 28.1208L44.1644 3.6859C44.413 3.3485 44.0046 2.90456 43.6494 3.13541C41.3409 4.52053 36.8304 7.23748 31.7871 10.2563C32.4087 11.9433 32.5862 13.7724 32.2311 15.5837Z" fill="#C24DFE"/>
<path d="M3.65801 20.254C3.65801 20.254 8.15076 12.2452 18.5036 13.1686C16.4615 13.8079 15.2007 16.6669 17.4914 18.8689C21.4337 22.669 28.2705 20.6624 29.336 15.0509C29.5491 13.9322 29.478 12.8312 29.1939 11.8367C27.4359 5.63922 19.0186 5.26631 18.0064 9.29735C18.9298 9.0665 19.9065 9.38614 20.528 10.1142C21.1496 10.8423 21.3094 11.8545 20.9365 12.7246C20.5991 13.5237 19.8888 14.092 19.0364 14.234C19.0009 14.234 18.9831 14.2518 18.9476 14.2518C18.8943 14.2696 18.841 14.2696 18.7878 14.2696C20.2439 13.6303 19.5691 11.7302 18.5036 12.0321C18.5392 12.0853 18.5747 12.1209 18.6102 12.1741C16.3727 11.9966 6.96098 11.7835 0.976562 20.2895C1.08311 20.1474 2.48599 19.0642 3.65801 20.254Z" fill="#C24DFE"/>
<path d="M37.8952 43.7122L39.671 46.6068L51.48 25.1552C52.7408 22.8822 52.9895 20.2362 52.2259 17.7856L37.8952 42.2205C37.6111 42.6822 37.6111 43.2505 37.8952 43.7122Z" fill="#C24DFE"/>
<path d="M34.024 36.1475L48.8518 12.0145L47.0227 8.53394L35.1427 26.4517C33.1893 29.3817 32.7987 32.88 34.024 36.1475Z" fill="#C24DFE"/>
<path d="M78.0816 17.9988C79.6621 27.8189 77.2115 38.8998 71.0495 49.5901C61.7621 65.6965 45.9398 78.5355 28.981 83.9162C32.4082 83.4367 37.3449 82.2647 43.1163 79.4234C54.0196 74.0605 61.7266 66.2115 66.2726 60.5645C71.1383 54.5268 73.5001 49.6789 73.5888 49.4658C80.3546 36.4493 80.3546 27.1619 79.1826 21.6747C78.8807 20.2718 78.49 19.0465 78.0816 17.9988Z" fill="#C24DFE"/>
</svg>
