<svg width="80" height="80" viewBox="0 0 80 80" fill="none" xmlns="http://www.w3.org/2000/svg">
<path opacity="0.3" fill-rule="evenodd" clip-rule="evenodd" d="M19.9998 6.66675C18.1589 6.66675 16.6665 8.15913 16.6665 10.0001V43.3334C16.6665 45.1744 18.1589 46.6667 19.9998 46.6667H59.9998C61.8408 46.6667 63.3332 45.1744 63.3332 43.3334V10.0001C63.3332 8.15913 61.8408 6.66675 59.9998 6.66675H19.9998ZM39.9994 17.3333C41.3438 15.7662 43.8534 13.3333 45.9994 13.3333C49.7981 13.3333 51.9994 16.5624 51.9994 20.3333C51.9994 26.3333 39.9994 33.3333 39.9994 33.3333C39.9994 33.3333 27.9994 26.3333 27.9994 20.0672C27.9994 16.2962 30.2008 13.3333 33.9994 13.3333C36.1454 13.3333 38.6551 15.7662 39.9994 17.3333Z" fill="white"/>
<path fill-rule="evenodd" clip-rule="evenodd" d="M10 20.978C10 20.5701 10.4621 20.3338 10.7927 20.5727L40 41.6668L69.2073 20.5727C69.5379 20.3338 70 20.5701 70 20.978V61.3335C70 62.438 69.1046 63.3335 68 63.3335H12C10.8954 63.3335 10 62.438 10 61.3335V20.978Z" fill="white"/>
</svg>
