<svg width="72" height="32" viewBox="0 0 72 32" fill="none" xmlns="http://www.w3.org/2000/svg">
<g clip-path="url(#clip0)">
<path d="M23.2909 31.12V29.0944C23.3028 28.9241 23.2779 28.7532 23.2177 28.5931C23.1575 28.433 23.0635 28.2874 22.9419 28.166C22.8203 28.0446 22.6739 27.9502 22.5125 27.8891C22.351 27.828 22.1782 27.8015 22.0056 27.8116C21.7797 27.7969 21.5539 27.8425 21.3519 27.9434C21.1499 28.0444 20.979 28.197 20.8571 28.3855C20.746 28.2027 20.587 28.0529 20.3969 27.9519C20.2068 27.8509 19.9926 27.8024 19.777 27.8116C19.589 27.8022 19.4018 27.8415 19.2339 27.9255C19.066 28.0096 18.9233 28.1356 18.8199 28.2909V27.8926H18.1089V31.12H18.8267V29.3443C18.8114 29.2339 18.821 29.1216 18.8548 29.0153C18.8886 28.909 18.9458 28.8114 19.0222 28.7295C19.0986 28.6476 19.1924 28.5833 19.2969 28.5414C19.4014 28.4994 19.5139 28.4808 19.6266 28.4868C20.0983 28.4868 20.3376 28.7906 20.3376 29.3375V31.1335H21.0554V29.3443C21.0407 29.234 21.0508 29.1219 21.0848 29.0159C21.1188 28.9099 21.176 28.8126 21.2523 28.7308C21.3286 28.649 21.4221 28.5848 21.5263 28.5426C21.6305 28.5004 21.7428 28.4814 21.8552 28.4868C22.3406 28.4868 22.5731 28.7906 22.5731 29.3375V31.1335L23.2909 31.12ZM33.9112 27.8926H32.7422V26.9135H32.0244V27.8926H31.3749V28.534H32.038V30.0195C32.038 30.7689 32.332 31.2146 33.1729 31.2146C33.487 31.2156 33.7951 31.129 34.0616 30.9647L33.8565 30.3638C33.6659 30.4761 33.4495 30.5389 33.2276 30.5461C32.8858 30.5461 32.7559 30.33 32.7559 30.0059V28.534H33.9181L33.9112 27.8926ZM39.9751 27.8116C39.8018 27.8065 39.6302 27.8478 39.4786 27.9309C39.327 28.0141 39.201 28.1362 39.1137 28.2842V27.8926H38.4096V31.12H39.1206V29.3105C39.1206 28.7771 39.353 28.48 39.8042 28.48C39.9563 28.4779 40.1073 28.5055 40.2486 28.561L40.4673 27.8858C40.305 27.8285 40.1339 27.7988 39.9614 27.798L39.9751 27.8116ZM30.8075 28.1492C30.405 27.9128 29.9423 27.7956 29.4744 27.8116C28.6472 27.8116 28.1071 28.2032 28.1071 28.8446C28.1071 29.3713 28.5036 29.6954 29.2351 29.7966L29.5769 29.8439C29.9666 29.8979 30.1512 29.9992 30.1512 30.1815C30.1512 30.4313 29.8914 30.5731 29.406 30.5731C29.0156 30.5843 28.6327 30.4654 28.319 30.2355L27.9772 30.7824C28.3914 31.068 28.8874 31.2148 29.3924 31.2011C30.3358 31.2011 30.8827 30.7622 30.8827 30.1477C30.8827 29.5333 30.452 29.2835 29.741 29.1822L29.3992 29.1349C29.0916 29.0944 28.8455 29.0337 28.8455 28.8176C28.8455 28.6015 29.0779 28.4395 29.4676 28.4395C29.8277 28.4436 30.1808 28.5389 30.493 28.7163L30.8075 28.1492ZM49.8503 27.8116C49.6769 27.8065 49.5054 27.8478 49.3538 27.9309C49.2022 28.0141 49.0762 28.1362 48.9889 28.2842V27.8926H48.2847V31.12H48.9957V29.3105C48.9957 28.7771 49.2282 28.48 49.6794 28.48C49.8314 28.4779 49.9824 28.5055 50.1237 28.561L50.3425 27.8858C50.1801 27.8285 50.0091 27.7988 49.8366 27.798L49.8503 27.8116ZM40.6895 29.4995C40.6811 29.7264 40.7206 29.9524 40.8057 30.1632C40.8908 30.3741 41.0195 30.565 41.1836 30.7239C41.3477 30.8828 41.5435 31.0061 41.7586 31.086C41.9737 31.1658 42.2034 31.2004 42.4328 31.1875C42.8597 31.209 43.2792 31.0717 43.6087 30.8027L43.2668 30.2355C43.0211 30.4206 42.7214 30.5225 42.4123 30.5259C42.1495 30.5049 41.9043 30.3869 41.7255 30.1955C41.5468 30.0041 41.4475 29.7532 41.4475 29.4928C41.4475 29.2324 41.5468 28.9815 41.7255 28.7901C41.9043 28.5987 42.1495 28.4807 42.4123 28.4597C42.7214 28.4631 43.0211 28.565 43.2668 28.7501L43.6087 28.1829C43.2792 27.9139 42.8597 27.7766 42.4328 27.798C42.2034 27.7852 41.9737 27.8198 41.7586 27.8996C41.5435 27.9795 41.3477 28.1028 41.1836 28.2617C41.0195 28.4206 40.8908 28.6115 40.8057 28.8224C40.7206 29.0332 40.6811 29.2592 40.6895 29.486V29.4995ZM47.3482 29.4995V27.8926H46.6372V28.2842C46.5164 28.1308 46.3605 28.0079 46.1822 27.9257C46.0039 27.8435 45.8083 27.8044 45.6117 27.8116C45.1584 27.8116 44.7237 27.9894 44.4032 28.306C44.0827 28.6225 43.9026 29.0519 43.9026 29.4995C43.9026 29.9472 44.0827 30.3766 44.4032 30.6931C44.7237 31.0097 45.1584 31.1875 45.6117 31.1875C45.8083 31.1947 46.0039 31.1556 46.1822 31.0734C46.3605 30.9912 46.5164 30.8683 46.6372 30.7149V31.1065H47.3482V29.4995ZM44.7025 29.4995C44.7138 29.3096 44.7812 29.127 44.8962 28.9744C45.0113 28.8217 45.169 28.7056 45.35 28.6404C45.5311 28.5752 45.7274 28.5636 45.915 28.6073C46.1025 28.6509 46.2731 28.7477 46.4056 28.8858C46.5382 29.0239 46.6269 29.1973 46.661 29.3847C46.695 29.572 46.6728 29.765 46.5971 29.9401C46.5215 30.1151 46.3957 30.2644 46.2351 30.3697C46.0746 30.475 45.8864 30.5316 45.6938 30.5326C45.5584 30.5343 45.4242 30.5083 45.2995 30.4563C45.1748 30.4042 45.0624 30.3273 44.9693 30.2303C44.8762 30.1332 44.8044 30.0182 44.7585 29.8925C44.7126 29.7667 44.6935 29.6329 44.7025 29.4995ZM36.1228 27.8116C35.6695 27.8178 35.2373 28.0017 34.9213 28.3227C34.6053 28.6437 34.4313 29.0755 34.4376 29.5232C34.444 29.9709 34.6301 30.3977 34.9551 30.7099C35.2801 31.022 35.7174 31.1938 36.1707 31.1875C36.6624 31.2125 37.1461 31.0561 37.5277 30.7487L37.1859 30.2288C36.9159 30.4426 36.5816 30.5614 36.2356 30.5664C36.0006 30.5863 35.7669 30.515 35.5844 30.3674C35.4018 30.2199 35.2847 30.0079 35.258 29.7764H37.6849C37.6849 29.6886 37.6849 29.6008 37.6849 29.5063C37.6849 28.4935 37.0491 27.8183 36.1331 27.8183L36.1228 27.8116ZM36.1228 28.4395C36.2292 28.4372 36.335 28.4557 36.4341 28.4939C36.5333 28.532 36.6239 28.5891 36.7007 28.6618C36.7775 28.7346 36.8391 28.8215 36.8818 28.9178C36.9246 29.014 36.9478 29.1176 36.95 29.2227H35.2409C35.2533 29.006 35.3511 28.8027 35.5134 28.6563C35.6756 28.5099 35.8895 28.4321 36.1091 28.4395H36.1228ZM53.935 29.5063V26.5962H53.2514V28.2842C53.1307 28.1308 52.9747 28.0079 52.7964 27.9257C52.6181 27.8435 52.4226 27.8044 52.2259 27.8116C51.7727 27.8116 51.3379 27.9894 51.0174 28.306C50.6969 28.6225 50.5168 29.0519 50.5168 29.4995C50.5168 29.9472 50.6969 30.3766 51.0174 30.6931C51.3379 31.0097 51.7727 31.1875 52.2259 31.1875C52.4226 31.1947 52.6181 31.1556 52.7964 31.0734C52.9747 30.9912 53.1307 30.8683 53.2514 30.7149V31.1065H53.935V29.5063ZM55.1212 30.6508C55.1656 30.6502 55.2097 30.6583 55.251 30.6744C55.2903 30.6902 55.3262 30.7131 55.357 30.7419C55.387 30.771 55.4114 30.8054 55.4288 30.8432C55.4461 30.8826 55.455 30.9251 55.455 30.9681C55.455 31.0111 55.4461 31.0536 55.4288 31.093C55.4114 31.1309 55.387 31.1652 55.357 31.1943C55.3262 31.2231 55.2903 31.246 55.251 31.2618C55.2101 31.2797 55.1659 31.2889 55.1212 31.2888C55.0564 31.2883 54.993 31.2697 54.9386 31.235C54.8841 31.2003 54.8407 31.1511 54.8135 31.093C54.7964 31.0535 54.7876 31.0111 54.7876 30.9681C54.7876 30.9252 54.7964 30.8827 54.8135 30.8432C54.8309 30.8054 54.8553 30.771 54.8853 30.7419C54.9161 30.7131 54.952 30.6902 54.9913 30.6744C55.0358 30.6569 55.0835 30.6489 55.1314 30.6508H55.1212ZM55.1212 31.2213C55.1553 31.2215 55.189 31.2146 55.2203 31.2011C55.2497 31.1881 55.2764 31.1698 55.2989 31.147C55.3417 31.101 55.3654 31.0407 55.3654 30.9782C55.3654 30.9157 55.3417 30.8555 55.2989 30.8094C55.2764 30.7867 55.2497 30.7683 55.2203 30.7554C55.189 30.742 55.1553 30.7351 55.1212 30.7352C55.0871 30.7353 55.0534 30.7422 55.022 30.7554C54.9913 30.7679 54.9634 30.7862 54.94 30.8094C54.8972 30.8555 54.8735 30.9157 54.8735 30.9782C54.8735 31.0407 54.8972 31.101 54.94 31.147C54.9635 31.1702 54.9914 31.1885 55.022 31.2011C55.0565 31.2157 55.0939 31.2227 55.1314 31.2213H55.1212ZM55.1417 30.8196C55.1736 30.818 55.205 30.8276 55.2305 30.8466C55.241 30.8551 55.2492 30.866 55.2546 30.8783C55.2599 30.8907 55.2622 30.9041 55.2613 30.9175C55.2618 30.9287 55.2599 30.9399 55.2558 30.9503C55.2517 30.9608 55.2454 30.9703 55.2374 30.9782C55.2176 30.996 55.1923 31.0067 55.1656 31.0086L55.2647 31.12H55.1861L55.0938 31.0086H55.063V31.12H54.9981V30.8229L55.1417 30.8196ZM55.0665 30.877V30.958H55.1417C55.155 30.9619 55.1693 30.9619 55.1827 30.958C55.1851 30.9533 55.1863 30.9481 55.1863 30.9428C55.1863 30.9375 55.1851 30.9323 55.1827 30.9276C55.1851 30.9229 55.1863 30.9177 55.1863 30.9124C55.1863 30.9071 55.1851 30.9019 55.1827 30.8972C55.1693 30.8933 55.155 30.8933 55.1417 30.8972L55.0665 30.877ZM51.3064 29.5063C51.3178 29.3163 51.3851 29.1338 51.5002 28.9811C51.6152 28.8285 51.773 28.7124 51.954 28.6471C52.135 28.5819 52.3314 28.5704 52.5189 28.614C52.7065 28.6576 52.8771 28.7544 53.0096 28.8926C53.1421 29.0307 53.2309 29.2041 53.2649 29.3914C53.2989 29.5787 53.2768 29.7718 53.2011 29.9468C53.1254 30.1218 52.9996 30.2712 52.8391 30.3765C52.6786 30.4817 52.4904 30.5384 52.2977 30.5394C52.1624 30.541 52.0281 30.5151 51.9035 30.463C51.7788 30.411 51.6664 30.334 51.5732 30.237C51.4801 30.14 51.4084 30.025 51.3625 29.8992C51.3165 29.7735 51.2975 29.6397 51.3064 29.5063ZM27.3004 29.5063V27.8926H26.5894V28.2842C26.4687 28.1308 26.3127 28.0079 26.1344 27.9257C25.9561 27.8435 25.7606 27.8044 25.564 27.8116C25.1107 27.8116 24.676 27.9894 24.3555 28.306C24.0349 28.6225 23.8549 29.0519 23.8549 29.4995C23.8549 29.9472 24.0349 30.3766 24.3555 30.6931C24.676 31.0097 25.1107 31.1875 25.564 31.1875C25.7606 31.1947 25.9561 31.1556 26.1344 31.0734C26.3127 30.9912 26.4687 30.8683 26.5894 30.7149V31.1065H27.3004V29.5063ZM24.6547 29.5063C24.6661 29.3163 24.7334 29.1338 24.8485 28.9811C24.9635 28.8285 25.1213 28.7124 25.3023 28.6471C25.4833 28.5819 25.6797 28.5704 25.8672 28.614C26.0548 28.6576 26.2254 28.7544 26.3579 28.8926C26.4904 29.0307 26.5792 29.2041 26.6132 29.3914C26.6472 29.5787 26.6251 29.7718 26.5494 29.9468C26.4737 30.1218 26.3479 30.2712 26.1874 30.3765C26.0269 30.4817 25.8387 30.5384 25.646 30.5394C25.5101 30.542 25.3751 30.5167 25.2496 30.4651C25.1241 30.4135 25.0109 30.3367 24.917 30.2395C24.8232 30.1424 24.7508 30.0271 24.7045 29.9008C24.6581 29.7746 24.6389 29.6403 24.6479 29.5063H24.6547Z" fill="#EBEBEC"/>
<path d="M41.3386 3.29834H30.5713V22.4099H41.3386V3.29834Z" fill="#FF5F00"/>
<path d="M31.2551 12.8555C31.2531 11.0146 31.6752 9.19749 32.4895 7.54163C33.3038 5.88576 34.4889 4.4346 35.9551 3.29803C34.1397 1.88896 31.9596 1.01275 29.6639 0.769528C27.3682 0.526308 25.0495 0.925896 22.9728 1.92262C20.8962 2.91935 19.1453 4.47301 17.9204 6.40602C16.6955 8.33903 16.0459 10.5734 16.0459 12.8538C16.0459 15.1342 16.6955 17.3686 17.9204 19.3016C19.1453 21.2346 20.8962 22.7882 22.9728 23.785C25.0495 24.7817 27.3682 25.1813 29.6639 24.9381C31.9596 24.6949 34.1397 23.8186 35.9551 22.4096C34.4894 21.2733 33.3046 19.8227 32.4903 18.1675C31.676 16.5123 31.2536 14.6958 31.2551 12.8555Z" fill="#EB001B"/>
<path d="M55.8661 12.8559C55.866 15.1365 55.2163 17.371 53.9912 19.3041C52.766 21.2372 51.0149 22.7908 48.938 23.7874C46.8611 24.784 44.5422 25.1833 42.2463 24.9397C39.9505 24.6962 37.7703 23.8195 35.9551 22.41C37.4202 21.2728 38.6047 19.8218 39.4192 18.1664C40.2337 16.5111 40.6569 14.6947 40.6569 12.8542C40.6569 11.0138 40.2337 9.19737 39.4192 7.54204C38.6047 5.88671 37.4202 4.43569 35.9551 3.29846C37.7703 1.88895 39.9505 1.01231 42.2463 0.768741C44.5422 0.525172 46.8611 0.924503 48.938 1.92109C51.0149 2.91768 52.766 4.4713 53.9912 6.40438C55.2163 8.33746 55.866 10.572 55.8661 12.8525V12.8559Z" fill="#F79E1B"/>
<path d="M54.6904 20.3843V19.9926H54.8511V19.9116H54.4443V19.9926H54.6187V20.3843H54.6904ZM55.48 20.3843V19.9116H55.357L55.2134 20.2492L55.0699 19.9116H54.9605V20.3843H55.0494V20.0298L55.1827 20.337H55.275L55.4083 20.0298V20.3876L55.48 20.3843Z" fill="#F79E1B"/>
</g>
<defs>
<clipPath id="clip0">
<rect width="72" height="32" fill="white"/>
</clipPath>
</defs>
</svg>
