<svg width="72" height="32" viewBox="0 0 72 32" fill="none" xmlns="http://www.w3.org/2000/svg">
<g clip-path="url(#clip0)">
<path d="M13.177 8.47138C12.3314 7.51944 10.8028 7.11133 8.84735 7.11133H3.17194C2.77186 7.11133 2.43189 7.39871 2.36925 7.78836L0.0061346 22.5908C-0.0408448 22.8826 0.18799 23.1471 0.487547 23.1471H3.9913L4.87128 17.6345L4.844 17.8071C4.90664 17.4175 5.24408 17.1301 5.64366 17.1301H7.30865C10.5795 17.1301 13.1407 15.818 13.8888 12.0222C13.911 11.9099 13.9302 11.8007 13.9469 11.6939C13.8524 11.6445 13.8524 11.6445 13.9469 11.6939C14.1697 10.2909 13.9453 9.336 13.177 8.47138" fill="#003087"/>
<path d="M49.3771 15.4708H47.4913C47.311 15.4708 47.1422 15.5591 47.0412 15.7068L44.4397 19.4906L43.3374 15.8545C43.2682 15.627 43.0561 15.4708 42.8156 15.4708H40.9622C40.7384 15.4708 40.5808 15.6883 40.653 15.8974L42.7292 21.9173L40.7763 24.6389C40.6232 24.8525 40.7779 25.1478 41.043 25.1478H42.9267C43.1051 25.1478 43.2723 25.0615 43.3743 24.9168L49.6453 15.9772C49.7953 15.7632 49.6407 15.4708 49.3771 15.4708V15.4708ZM36.7701 19.0774C36.5887 20.1361 35.738 20.8471 34.6525 20.8471C34.1084 20.8471 33.6725 20.674 33.3926 20.3467C33.1153 20.0224 33.0107 19.5599 33.0986 19.0455C33.2673 17.9958 34.1321 17.2624 35.2011 17.2624C35.734 17.2624 36.1664 17.437 36.4518 17.7673C36.7392 18.1001 36.8524 18.565 36.7701 19.0774V19.0774ZM39.3847 15.4708H37.5086C37.348 15.4708 37.2111 15.586 37.1858 15.7432L37.1035 16.261L36.9726 16.0734C36.566 15.4912 35.6602 15.2961 34.756 15.2961C32.6834 15.2961 30.9128 16.8478 30.5683 19.0235C30.389 20.1092 30.6435 21.1464 31.2669 21.8704C31.8392 22.5354 32.6561 22.8123 33.6295 22.8123C35.3006 22.8123 36.227 21.7526 36.227 21.7526L36.1432 22.2675C36.1118 22.4631 36.2649 22.6402 36.466 22.6402H38.1552C38.4234 22.6402 38.6513 22.4481 38.6932 22.1867L39.7075 15.8434C39.7389 15.6479 39.5853 15.4708 39.3847 15.4708V15.4708ZM28.1262 15.5153C27.912 16.9042 26.8381 16.9042 25.799 16.9042H25.2079L25.6227 14.3109C25.6474 14.1542 25.7843 14.039 25.945 14.039H26.2162C26.9234 14.039 27.5913 14.039 27.9358 14.4366C28.1419 14.6746 28.204 15.0278 28.1262 15.5153V15.5153ZM27.6741 11.8911H23.7561C23.4879 11.8911 23.2601 12.0837 23.2181 12.3451L21.634 22.2676C21.6026 22.4632 21.7557 22.6403 21.9562 22.6403H23.8273C24.0951 22.6403 24.3229 22.4477 24.3648 22.1868L24.7927 19.5096C24.8341 19.2482 25.0624 19.0556 25.3302 19.0556H26.5698C29.1507 19.0556 30.6404 17.8223 31.0293 15.3771C31.2046 14.3084 31.0364 13.4682 30.5297 12.88C29.9725 12.2334 28.985 11.8911 27.6741 11.8911" fill="#002F86"/>
<path d="M69.5409 12.1638L67.933 22.2679C67.9016 22.4634 68.0547 22.6406 68.2552 22.6406H69.8728C70.1405 22.6406 70.3688 22.448 70.4102 22.1865L71.9959 12.2641C72.0272 12.0685 71.8742 11.8914 71.6731 11.8914H69.8637C69.7025 11.8914 69.5656 12.0066 69.5409 12.1638V12.1638ZM64.7149 19.0774C64.5336 20.1361 63.6829 20.8471 62.5973 20.8471C62.0533 20.8471 61.6173 20.674 61.3375 20.3467C61.0596 20.0224 60.9556 19.5599 61.0435 19.0455C61.2122 17.9958 62.077 17.2624 63.1459 17.2624C63.6789 17.2624 64.1113 17.437 64.3967 17.7673C64.6841 18.1001 64.7973 18.565 64.7149 19.0774V19.0774ZM67.3296 15.4708H65.4535C65.2928 15.4708 65.1559 15.586 65.1307 15.7432L65.0483 16.261L64.917 16.0734C64.5108 15.4912 63.6051 15.2961 62.7009 15.2961C60.6282 15.2961 58.8577 16.8478 58.5131 19.0236C58.3338 20.1092 58.5884 21.1464 59.2118 21.8704C59.7841 22.5354 60.6009 22.8123 61.5744 22.8123C63.2454 22.8123 64.1719 21.7526 64.1719 21.7526L64.088 22.2675C64.0567 22.4631 64.2098 22.6402 64.4108 22.6402H66.1001C66.3683 22.6402 66.5961 22.4481 66.6381 22.1867L67.6524 15.8434C67.6837 15.6479 67.5302 15.4708 67.3296 15.4708V15.4708ZM56.071 15.5153C55.8568 16.9042 54.7829 16.9042 53.7438 16.9042H53.1527L53.5675 14.3109C53.5922 14.1542 53.7291 14.039 53.8898 14.039H54.161C54.8683 14.039 55.5361 14.039 55.8806 14.4366C56.0867 14.6746 56.1488 15.0278 56.071 15.5153V15.5153ZM55.6189 11.8911H51.7009C51.4327 11.8911 51.2049 12.0837 51.1629 12.3451L49.5788 22.2676C49.5475 22.4632 49.701 22.6403 49.9011 22.6403H51.9116C52.099 22.6403 52.2586 22.5056 52.2879 22.323L52.7375 19.5096C52.7789 19.2482 53.0073 19.0556 53.275 19.0556H54.5146C57.0955 19.0556 58.5852 17.8223 58.9741 15.3771C59.1494 14.3084 58.9812 13.4682 58.4745 12.88C57.9174 12.2334 56.9298 11.8911 55.6189 11.8911" fill="#009CDE"/>
<path d="M13.177 8.47138C12.3314 7.51944 10.8028 7.11133 8.84735 7.11133H3.17194C2.77186 7.11133 2.43189 7.39871 2.36925 7.78836L0.0061346 22.5908C-0.0408448 22.8826 0.18799 23.1471 0.487547 23.1471H3.9913L4.87128 17.6345L4.844 17.8071C4.90664 17.4175 5.24408 17.1301 5.64366 17.1301H7.30865C10.5795 17.1301 13.1407 15.818 13.8888 12.0222C13.911 11.9099 13.9302 11.8007 13.9469 11.6939C13.8524 11.6445 13.8524 11.6445 13.9469 11.6939C14.1697 10.2909 13.9453 9.336 13.177 8.47138" fill="#003087"/>
<path d="M5.81693 11.7124C5.85431 11.4779 6.00687 11.2858 6.21196 11.1885C6.30542 11.1446 6.40948 11.1201 6.51859 11.1201H10.968C11.4949 11.1201 11.9864 11.1541 12.4355 11.2254C12.5643 11.2458 12.6891 11.2693 12.8103 11.2963C12.9315 11.3227 13.0492 11.3526 13.1634 11.3856C13.2205 11.402 13.2766 11.419 13.3316 11.437C13.5524 11.5098 13.758 11.5946 13.9469 11.6939C14.1697 10.2904 13.9453 9.336 13.177 8.47138C12.3309 7.51944 10.8028 7.11133 8.84735 7.11133H3.17144C2.77186 7.11133 2.43189 7.39871 2.36925 7.78836L0.00613495 22.5903C-0.0408444 22.8826 0.187991 23.1466 0.487042 23.1466H3.9913L4.87128 17.634L5.81693 11.7124V11.7124Z" fill="#002F86"/>
<path d="M13.947 11.6938C13.9299 11.8011 13.9111 11.9099 13.8889 12.0221C13.1408 15.8174 10.5797 17.1301 7.30879 17.1301H5.64329C5.24371 17.1301 4.90627 17.4174 4.84414 17.8071L3.99144 23.1465L3.74947 24.6612C3.70855 24.9167 3.90859 25.1482 4.17026 25.1482H7.1239C7.47347 25.1482 7.771 24.8967 7.82556 24.556L7.85438 24.4073L8.41106 20.9228L8.44694 20.7303C8.5015 20.3895 8.79903 20.138 9.1486 20.138H9.59061C12.4518 20.138 14.6922 18.99 15.3469 15.6697C15.6201 14.2822 15.4787 13.1237 14.7558 12.31C14.5366 12.0635 14.2643 11.86 13.9471 11.6938" fill="#009CDE"/>
<path d="M13.1636 11.3855C13.0495 11.3526 12.9318 11.3227 12.8105 11.2962C12.6893 11.2698 12.564 11.2463 12.4357 11.2259C11.9861 11.154 11.4951 11.1201 10.9677 11.1201H6.51883C6.40921 11.1201 6.30515 11.1446 6.2122 11.189C6.0066 11.2863 5.85455 11.4778 5.81717 11.7128L4.87152 17.6345L4.84424 17.8071C4.90637 17.4175 5.24382 17.1301 5.64339 17.1301H7.30889C10.5798 17.1301 13.1409 15.8179 13.889 12.0222C13.9113 11.9099 13.93 11.8011 13.9471 11.6939C13.7577 11.5951 13.5526 11.5098 13.3318 11.4374C13.2768 11.4195 13.2207 11.402 13.1636 11.3855" fill="#012069"/>
</g>
<defs>
<clipPath id="clip0">
<rect width="72" height="32" fill="white"/>
</clipPath>
</defs>
</svg>
