<svg width="80" height="80" viewBox="0 0 80 80" fill="none" xmlns="http://www.w3.org/2000/svg">
<g id=" Communication / Readed-mail">
<path id="check" opacity="0.3" d="M16.2501 69.1663C15.4515 69.1663 14.6529 68.8469 14.014 68.208L7.62508 61.8191C6.3473 60.5413 6.3473 58.6246 7.62508 57.3469C8.90286 56.0691 10.9792 56.0691 12.0973 57.3469L16.2501 61.4996L26.7917 50.958C28.0695 49.6802 29.9862 49.6802 31.264 50.958C32.5417 52.2357 32.5417 54.1524 31.264 55.4302L18.4862 68.208C17.8473 68.8469 17.0487 69.1663 16.2501 69.1663Z" fill="white"/>
<path id="Combined Shape" fill-rule="evenodd" clip-rule="evenodd" d="M13.3333 23.333C13.3333 19.6511 16.318 16.6663 19.9999 16.6663H66.6666C70.3485 16.6663 73.3333 19.6511 73.3333 23.333V53.333C73.3333 57.0149 70.3485 59.9996 66.6666 59.9996H43.2784C42.4208 46.9695 31.5802 36.6662 18.3331 36.6662C16.6208 36.6662 14.9488 36.8383 13.3333 37.1663V23.333ZM63.815 22.798C65.0307 22.1434 66.5468 22.5983 67.2014 23.814C67.856 25.0296 67.4012 26.5458 66.1855 27.2004L44.5188 38.8671C43.7789 39.2655 42.8883 39.2655 42.1483 38.8671L20.4817 27.2004C19.266 26.5458 18.8111 25.0296 19.4657 23.814C20.1203 22.5983 21.6365 22.1434 22.8522 22.798L43.3336 33.8265L63.815 22.798Z" fill="white"/>
</g>
</svg>
