<svg width="20" height="20" viewBox="0 0 20 20" fill="none" xmlns="http://www.w3.org/2000/svg">
<path opacity="0.7" d="M11.9111 13.9226C11.5856 13.5972 11.5856 13.0695 11.9111 12.7441C12.2365 12.4186 12.7641 12.4186 13.0896 12.7441L16.4229 16.0774C16.7484 16.4028 16.7484 16.9305 16.4229 17.2559C16.0975 17.5814 15.5698 17.5814 15.2444 17.2559L11.9111 13.9226Z" fill="#444B4D"/>
<path fill-rule="evenodd" clip-rule="evenodd" d="M3.33496 9.16701C3.33496 12.3887 5.94663 15.0003 9.16829 15.0003C12.39 15.0003 15.0016 12.3887 15.0016 9.16701C15.0016 5.94535 12.39 3.33368 9.16829 3.33368C5.94663 3.33368 3.33496 5.94535 3.33496 9.16701ZM13.335 9.16701C13.335 11.4682 11.4695 13.3337 9.16829 13.3337C6.86711 13.3337 5.00163 11.4682 5.00163 9.16701C5.00163 6.86583 6.86711 5.00035 9.16829 5.00035C11.4695 5.00035 13.335 6.86583 13.335 9.16701Z" fill="#444B4D"/>
</svg>
