<svg width="164" height="40" viewBox="0 0 164 40" fill="none" xmlns="http://www.w3.org/2000/svg">
<path d="M42.9115 14.175H59.4286V17.2436H52.9251V34.5417H49.3605V17.2436H42.8843L42.9115 14.175ZM58.7211 19.7963H61.7687V22.6476H61.8231C61.932 22.2403 62.1225 21.8601 62.3946 21.4799C62.6667 21.0997 62.9932 20.7467 63.4014 20.448C63.7823 20.1221 64.2177 19.8777 64.7075 19.6876C65.1701 19.4975 65.6599 19.3889 66.1497 19.3889C66.5306 19.3889 66.8028 19.4161 66.9388 19.4161C67.0749 19.4432 67.2381 19.4704 67.3742 19.4704V22.5933C67.1565 22.539 66.9116 22.5118 66.6667 22.4847C66.4218 22.4575 66.2041 22.4303 65.9592 22.4303C65.415 22.4303 64.898 22.539 64.4082 22.7562C63.9184 22.9735 63.5102 23.2993 63.1293 23.7067C62.7755 24.1411 62.4762 24.6571 62.2585 25.2817C62.0408 25.9063 61.932 26.6395 61.932 27.4541V34.4603H58.6667L58.7211 19.7963ZM82.3402 34.5417H79.1293V32.4779H79.0749C78.6668 33.2383 78.0681 33.8085 77.279 34.2702C76.4899 34.7318 75.6735 34.9491 74.8572 34.9491C72.9252 34.9491 71.5103 34.4874 70.6395 33.5098C69.7688 32.5594 69.3334 31.093 69.3334 29.1649V19.7963H72.5987V28.8391C72.5987 30.1425 72.8436 31.0658 73.3606 31.5818C73.8504 32.1249 74.5579 32.3964 75.4559 32.3964C76.1361 32.3964 76.7076 32.2878 77.1702 32.0706C77.6327 31.8533 78.0137 31.5818 78.2858 31.2288C78.5851 30.8757 78.7756 30.4412 78.9117 29.9524C79.0477 29.4636 79.1021 28.9205 79.1021 28.3503V19.7963H82.3675V34.5417H82.3402ZM87.8913 29.8167C88.0001 30.7671 88.3539 31.4188 88.9797 31.8262C89.6056 32.2064 90.3675 32.3964 91.2382 32.3964C91.5376 32.3964 91.8913 32.3693 92.2723 32.315C92.6532 32.2607 93.0342 32.1792 93.3607 32.0434C93.7145 31.9076 93.9866 31.7176 94.2043 31.446C94.4219 31.1744 94.5308 30.8486 94.5036 30.4412C94.4764 30.0339 94.3403 29.6809 94.041 29.4093C93.7417 29.1378 93.3879 28.9477 92.9525 28.7576C92.5172 28.5947 92.0002 28.4589 91.4287 28.3503C90.8573 28.2416 90.2859 28.1059 89.6872 27.9701C89.0886 27.8343 88.4899 27.6714 87.9185 27.4813C87.3471 27.2912 86.8573 27.0468 86.3947 26.6938C85.9593 26.3679 85.5784 25.9606 85.3335 25.4446C85.0613 24.9287 84.9253 24.3312 84.9253 23.5709C84.9253 22.7562 85.1158 22.1045 85.5239 21.5614C85.9049 21.0183 86.4219 20.5838 87.0205 20.2579C87.6192 19.932 88.2995 19.6876 89.0342 19.5519C89.7689 19.4161 90.4763 19.3618 91.1294 19.3618C91.8913 19.3618 92.626 19.4432 93.3063 19.6062C93.9866 19.7691 94.6396 20.0135 95.1838 20.3937C95.7553 20.7467 96.2179 21.2355 96.5716 21.8058C96.9526 22.376 97.1702 23.0821 97.2791 23.8967H93.8777C93.7144 23.1092 93.3607 22.5933 92.8165 22.3217C92.2451 22.0502 91.6192 21.9144 90.8845 21.9144C90.6668 21.9144 90.3675 21.9415 90.0682 21.9687C89.7416 22.023 89.4695 22.0773 89.1702 22.1859C88.8981 22.2946 88.6532 22.4575 88.4627 22.6476C88.2722 22.8377 88.1634 23.1092 88.1634 23.4351C88.1634 23.8424 88.2995 24.1411 88.5716 24.3855C88.8437 24.6299 89.1974 24.82 89.66 25.0101C90.0954 25.1731 90.6124 25.3088 91.1838 25.4175C91.7553 25.5261 92.3539 25.6619 92.9525 25.7976C93.5512 25.9334 94.1226 26.0963 94.694 26.2864C95.2655 26.4765 95.7825 26.7209 96.2179 27.074C96.6532 27.3998 97.0342 27.8072 97.3063 28.296C97.5784 28.7848 97.7145 29.4093 97.7145 30.1154C97.7145 30.9844 97.524 31.7176 97.1158 32.3421C96.7077 32.9396 96.1907 33.4555 95.5648 33.8357C94.9389 34.2159 94.2042 34.4874 93.4423 34.6775C92.6532 34.8405 91.8913 34.9491 91.1294 34.9491C90.2042 34.9491 89.3335 34.8405 88.5444 34.6232C87.7552 34.406 87.0477 34.0801 86.4763 33.6728C85.9049 33.2383 85.4423 32.7223 85.1158 32.0706C84.7892 31.446 84.5988 30.6856 84.5715 29.7895H87.8641V29.8167H87.8913ZM98.6396 19.7963H101.116V15.3427H104.381V19.7691H107.32V22.1859H104.381V30.0611C104.381 30.4141 104.408 30.6856 104.436 30.9572C104.463 31.2016 104.544 31.4188 104.626 31.5818C104.735 31.7447 104.898 31.8805 105.089 31.962C105.306 32.0434 105.578 32.0977 105.959 32.0977C106.177 32.0977 106.422 32.0977 106.64 32.0706C106.857 32.0434 107.102 32.0163 107.32 31.962V34.4874C106.966 34.5417 106.612 34.5689 106.259 34.5961C105.905 34.6504 105.578 34.6504 105.197 34.6504C104.327 34.6504 103.646 34.5689 103.129 34.406C102.612 34.243 102.204 33.9986 101.905 33.6999C101.606 33.3741 101.415 32.9939 101.306 32.5322C101.197 32.0706 101.143 31.5003 101.116 30.9029V22.2131H98.6396V19.7419V19.7963ZM109.606 19.7963H112.681V21.8058H112.735C113.198 20.9368 113.823 20.3394 114.64 19.9592C115.456 19.579 116.327 19.3889 117.306 19.3889C118.476 19.3889 119.483 19.579 120.354 20.0135C121.225 20.4208 121.932 20.9639 122.504 21.6971C123.075 22.4032 123.511 23.245 123.783 24.1955C124.055 25.1459 124.218 26.1778 124.218 27.2369C124.218 28.2416 124.082 29.1921 123.837 30.1154C123.565 31.0387 123.184 31.8805 122.667 32.5865C122.15 33.2926 121.497 33.8628 120.681 34.2973C119.864 34.7318 118.939 34.9491 117.851 34.9491C117.388 34.9491 116.898 34.8948 116.436 34.8133C115.973 34.7318 115.51 34.5961 115.075 34.406C114.64 34.2159 114.232 33.9715 113.878 33.6728C113.497 33.3741 113.198 33.021 112.953 32.6409H112.898V40H109.633V19.7963H109.606ZM121.007 27.1826C121.007 26.5308 120.925 25.8791 120.735 25.2545C120.572 24.6299 120.3 24.0868 119.946 23.598C119.592 23.1092 119.157 22.7291 118.667 22.4303C118.15 22.1316 117.551 21.9959 116.898 21.9959C115.538 21.9959 114.504 22.4575 113.796 23.408C113.116 24.3584 112.762 25.6347 112.762 27.2097C112.762 27.9701 112.844 28.649 113.034 29.2736C113.225 29.8981 113.47 30.4412 113.851 30.9029C114.204 31.3645 114.64 31.7176 115.157 31.9891C115.674 32.2607 116.245 32.3964 116.925 32.3964C117.687 32.3964 118.286 32.2335 118.803 31.9348C119.32 31.6361 119.728 31.2288 120.082 30.7671C120.408 30.2783 120.653 29.7352 120.789 29.1106C120.925 28.4589 121.007 27.8343 121.007 27.1826ZM126.749 14.175H130.014V17.2436H126.749V14.175ZM126.749 19.7963H130.014V34.5417H126.749V19.7963ZM132.926 14.175H136.191V34.5417H132.926V14.175ZM146.15 34.9491C144.98 34.9491 143.919 34.759 142.994 34.3517C142.068 33.9443 141.307 33.4284 140.653 32.7495C140.028 32.0706 139.538 31.2288 139.211 30.2783C138.885 29.3279 138.694 28.2688 138.694 27.1554C138.694 26.042 138.858 25.0101 139.211 24.0597C139.538 23.1092 140.028 22.2946 140.653 21.5885C141.279 20.9096 142.068 20.3665 142.994 19.9863C143.919 19.6062 144.98 19.3889 146.15 19.3889C147.32 19.3889 148.381 19.579 149.307 19.9863C150.232 20.3665 150.994 20.9096 151.647 21.5885C152.273 22.2674 152.762 23.1092 153.089 24.0597C153.415 25.0101 153.606 26.042 153.606 27.1554C153.606 28.296 153.443 29.3279 153.089 30.2783C152.735 31.2288 152.273 32.0434 151.647 32.7495C151.021 33.4284 150.232 33.9715 149.307 34.3517C148.381 34.7318 147.347 34.9491 146.15 34.9491ZM146.15 32.3693C146.858 32.3693 147.511 32.2064 148.028 31.9076C148.572 31.6089 148.98 31.2016 149.334 30.7128C149.688 30.224 149.932 29.6537 150.096 29.0563C150.259 28.4317 150.341 27.8072 150.341 27.1554C150.341 26.5308 150.259 25.9063 150.096 25.2817C149.932 24.6571 149.688 24.114 149.334 23.6252C148.98 23.1364 148.545 22.7562 148.028 22.4575C147.483 22.1588 146.858 21.9959 146.15 21.9959C145.443 21.9959 144.79 22.1588 144.273 22.4575C143.728 22.7562 143.32 23.1635 142.966 23.6252C142.613 24.114 142.368 24.6571 142.204 25.2817C142.041 25.9063 141.96 26.5308 141.96 27.1554C141.96 27.8072 142.041 28.4317 142.204 29.0563C142.368 29.6809 142.613 30.224 142.966 30.7128C143.32 31.2016 143.756 31.6089 144.273 31.9076C144.817 32.2335 145.443 32.3693 146.15 32.3693ZM154.585 19.7963H157.062V15.3427H160.327V19.7691H163.266V22.1859H160.327V30.0611C160.327 30.4141 160.354 30.6856 160.381 30.9572C160.409 31.2016 160.49 31.4188 160.572 31.5818C160.681 31.7447 160.844 31.8805 161.034 31.962C161.252 32.0434 161.524 32.0977 161.905 32.0977C162.123 32.0977 162.368 32.0977 162.586 32.0706C162.803 32.0434 163.048 32.0163 163.266 31.962V34.4874C162.912 34.5417 162.558 34.5689 162.205 34.5961C161.851 34.6504 161.524 34.6504 161.143 34.6504C160.273 34.6504 159.592 34.5689 159.075 34.406C158.558 34.243 158.15 33.9986 157.851 33.6999C157.551 33.3741 157.361 32.9939 157.252 32.5322C157.143 32.0706 157.089 31.5003 157.062 30.9029V22.2131H154.585V19.7419V19.7963Z" fill="white"/>
<path d="M39.1022 14.1752H24.1634L19.5647 0L14.9388 14.1752L0 14.1481L12.0817 22.9193L7.45582 37.0945L19.5375 28.3233L31.6192 37.0945L27.0205 22.9193L39.1022 14.1752Z" fill="#00B67A"/>
<path d="M28.0543 26.1238L27.0203 22.9194L19.5645 28.3234L28.0543 26.1238Z" fill="#005128"/>
</svg>
