<svg width="558" height="692" viewBox="0 0 558 692" fill="none" xmlns="http://www.w3.org/2000/svg">
<g opacity="0.05">
<path d="M101.882 303.981C46.0877 393.543 54.783 473.539 54.783 473.539C88.8395 449.483 117.099 425.571 155.793 377.022C144.344 367.457 144.199 367.892 101.882 303.981Z" fill="white"/>
<path d="M209.266 642.228C246.076 633.968 282.017 618.461 313.9 600.491C514.906 487.162 655.189 229.202 596.496 84.4258C566.497 10.371 493.747 -10.6426 415.2 4.71904C572.729 14.7186 599.54 182.393 482.878 359.487C432.155 436.44 362.013 503.828 286.799 551.073C284.625 507.017 296.074 459.048 311.581 417.455H311.871L272.307 353.545C246.511 312.097 229.121 283.258 213.179 258.911C165.355 264.273 96.0828 256.448 53.6209 223.985C51.7369 222.681 49.4182 224.855 50.7225 226.739C61.4466 242.825 70.8665 257.027 79.272 269.635C26.2308 352.385 -12.4632 473.25 19.2745 558.898C116.807 487.162 173.181 388.616 173.181 388.616L177.963 391.369C182.021 393.688 185.065 395.282 185.065 395.282C192.311 398.615 198.977 401.224 205.933 403.543C192.311 426.73 138.4 516.436 75.3591 595.564C38.694 639.33 0 636.576 0 636.576C7.39099 643.967 57.099 683.531 156.225 691.646C121.444 678.458 117.531 646.431 129.27 623.388L238.396 411.658C246.221 413.108 254.047 414.267 264.481 415.281C264.481 415.281 268.394 415.571 274.481 416.006C276.8 416.151 279.408 416.296 282.307 416.441C282.162 416.586 219.121 513.973 209.266 642.228ZM54.7803 473.54C54.7803 473.54 45.9401 393.543 101.88 303.982C144.342 367.892 144.342 367.457 155.79 377.022C117.096 425.571 88.8368 449.483 54.7803 473.54ZM163.036 360.791L101.3 267.172C101.3 267.172 149.559 288.04 201.006 283.113L270.133 393.978C270.133 393.833 208.252 393.398 163.036 360.791Z" fill="white"/>
<path d="M263.035 127.178C250.427 194.276 166.517 216.884 121.592 166.741L121.447 166.596C93.9116 183.117 74.3473 194.856 70.8691 197.03C82.0281 208.189 96.5202 214.565 114.78 219.203C164.778 231.666 221.008 229.492 222.022 229.492L360.422 30.0802C362.451 27.3267 359.118 23.7037 356.219 25.5877C337.38 36.8916 300.57 59.0645 259.412 83.7011C264.484 97.4686 265.933 112.396 263.035 127.178Z" fill="white"/>
<path d="M29.8548 165.292C29.8548 165.292 66.5199 99.9329 151.009 107.469C134.343 112.686 124.054 136.018 142.749 153.989C174.921 185.002 230.716 168.626 239.411 122.83C241.15 113.7 240.57 104.715 238.252 96.5997C223.905 46.0221 155.212 42.9788 146.951 75.8759C154.487 73.992 162.458 76.6005 167.53 82.5423C172.602 88.4841 173.907 96.7446 170.863 103.846C168.11 110.367 162.313 115.005 155.357 116.164C155.067 116.164 154.922 116.309 154.632 116.309C154.197 116.454 153.763 116.454 153.328 116.454C165.211 111.237 159.704 95.7301 151.009 98.1938C151.299 98.6285 151.589 98.9185 151.879 99.3532C133.619 97.904 56.8102 96.1649 7.97168 165.582C8.84121 164.423 20.29 155.583 29.8548 165.292Z" fill="white"/>
<path d="M309.265 356.733L323.758 380.355L420.13 205.29C430.42 186.74 432.449 165.147 426.217 145.148L309.265 344.56C306.947 348.328 306.947 352.965 309.265 356.733Z" fill="white"/>
<path d="M277.669 294.997L398.679 98.0484L383.752 69.6438L286.8 215.869C270.858 239.781 267.67 268.331 277.669 294.997Z" fill="white"/>
<path d="M637.219 146.886C650.117 227.028 630.118 317.459 579.83 404.702C504.037 536.145 374.912 640.923 236.512 684.835C264.482 680.922 304.77 671.357 351.869 648.169C440.851 604.403 503.747 540.348 540.847 494.263C580.555 444.99 599.83 405.426 600.554 403.687C655.769 297.46 655.769 221.666 646.204 176.885C643.741 165.436 640.552 155.437 637.219 146.886Z" fill="white"/>
</g>
</svg>
