<svg width="72" height="32" viewBox="0 0 72 32" fill="none" xmlns="http://www.w3.org/2000/svg">
<g clip-path="url(#clip0)">
<path d="M32.4199 24.3841H28.0698L30.7907 7.76807H35.1405L32.4199 24.3841Z" fill="#00579F"/>
<path d="M48.1892 8.17421C47.3312 7.838 45.9703 7.4668 44.2875 7.4668C39.9917 7.4668 36.9666 9.72928 36.948 12.964C36.9123 15.3505 39.1139 16.676 40.7605 17.4718C42.4435 18.2849 43.0156 18.8156 43.0156 19.5404C42.9984 20.6536 41.6556 21.1667 40.4032 21.1667C38.6664 21.1667 37.7359 20.9022 36.3217 20.2829L35.7489 20.0174L35.1401 23.7473C36.1604 24.2064 38.0401 24.6138 39.9917 24.6316C44.5561 24.6316 47.5276 22.4041 47.5628 18.9571C47.5802 17.0656 46.4177 15.6162 43.9114 14.4319C42.3899 13.6716 41.4582 13.159 41.4582 12.3811C41.476 11.6739 42.2463 10.9496 43.9637 10.9496C45.3779 10.9141 46.417 11.2498 47.2041 11.5858L47.5976 11.7622L48.1892 8.17421Z" fill="#00579F"/>
<path d="M53.971 18.4976C54.3293 17.543 55.7078 13.8486 55.7078 13.8486C55.6897 13.8841 56.0653 12.8764 56.2801 12.2578L56.5841 13.6895C56.5841 13.6895 57.4079 17.6669 57.5868 18.4976C56.9069 18.4976 54.8302 18.4976 53.971 18.4976ZM59.3406 7.76807H55.9759C54.9382 7.76807 54.1499 8.06832 53.7022 9.1467L47.2407 24.3838H51.8051C51.8051 24.3838 52.5566 22.333 52.7181 21.8913C53.2188 21.8913 57.6591 21.8913 58.3033 21.8913C58.4281 22.4747 58.8223 24.3838 58.8223 24.3838H62.8501L59.3406 7.76807Z" fill="#00579F"/>
<path d="M24.4363 7.76807L20.1761 19.0986L19.7106 16.8006C18.9229 14.1491 16.4528 11.2682 13.6963 9.83579L17.5984 24.3664H22.1985L29.0361 7.76807H24.4363Z" fill="#00579F"/>
<path d="M16.2204 7.76807H9.2215L9.1499 8.1038C14.6094 9.48267 18.2252 12.8064 19.7107 16.8013L18.1893 9.16479C17.9388 8.10356 17.169 7.80307 16.2204 7.76807Z" fill="#FAA61A"/>
</g>
<defs>
<clipPath id="clip0">
<rect width="72" height="32" fill="white"/>
</clipPath>
</defs>
</svg>
