<svg width="160" height="160" viewBox="0 0 160 160" fill="none" xmlns="http://www.w3.org/2000/svg">
<path opacity="0.3" fill-rule="evenodd" clip-rule="evenodd" d="M136.667 100C142.189 100 146.667 95.5228 146.667 90C146.667 84.4772 142.189 80 136.667 80C131.144 80 126.667 84.4772 126.667 90C126.667 95.5228 131.144 100 136.667 100Z" fill="#444B4D"/>
<rect opacity="0.3" x="16.0059" y="42.9907" width="120" height="46.6667" rx="6.66667" transform="rotate(-15 16.0059 42.9907)" fill="#444B4D"/>
<path fill-rule="evenodd" clip-rule="evenodd" d="M26.6668 33.3333C19.303 33.3333 13.3335 39.3028 13.3335 46.6666V126.667C13.3335 134.03 19.303 140 26.6668 140H133.333C140.697 140 146.667 134.03 146.667 126.667V111.088C143.636 112.528 140.245 113.333 136.667 113.333C123.78 113.333 113.333 102.887 113.333 90C113.333 77.1134 123.78 66.6667 136.667 66.6667C140.245 66.6667 143.636 67.4723 146.667 68.9122V46.6666C146.667 39.3028 140.697 33.3333 133.333 33.3333H26.6668Z" fill="#444B4D"/>
</svg>
