<svg width="20" height="20" viewBox="0 0 20 20" fill="none" xmlns="http://www.w3.org/2000/svg">
<path d="M9.9938 3.75C9.9938 3.75 3.74298 3.75001 2.17411 4.15049C1.33408 4.38108 0.642384 5.06061 0.40767 5.89799C9.2881e-06 7.43925 0 10.6311 0 10.6311C0 10.6311 9.2881e-06 13.835 0.40767 15.352C0.642384 16.1894 1.32173 16.8568 2.17411 17.0874C3.75534 17.5 9.9938 17.5 9.9938 17.5C9.9938 17.5 16.257 17.5 17.8259 17.0995C18.6782 16.8689 19.3576 16.2137 19.5799 15.3642C20 13.835 20 10.6432 20 10.6432C20 10.6432 20.0123 7.43925 19.5799 5.89799C19.3576 5.06061 18.6782 4.39323 17.8259 4.17478C16.257 3.75002 9.9938 3.75 9.9938 3.75ZM8.00489 7.68209L13.2057 10.6311L8.00489 13.5679V7.68209Z" fill="#F9EEFF"/>
</svg>
