<svg width="24" height="24" viewBox="0 0 24 24" fill="none" xmlns="http://www.w3.org/2000/svg">
<path d="M11.9932 5C11.9932 5 5.11728 5.00001 3.39152 5.4369C2.46749 5.68845 1.70662 6.42975 1.44844 7.34326C1.00001 9.02463 1 12.5066 1 12.5066C1 12.5066 1.00001 16.0018 1.44844 17.6567C1.70662 18.5702 2.4539 19.2983 3.39152 19.5499C5.13087 20 11.9932 20 11.9932 20C11.9932 20 18.8827 20 20.6084 19.5631C21.5461 19.3116 22.2933 18.5967 22.5379 17.67C22.9999 16.0018 23 12.5199 23 12.5199C23 12.5199 23.0135 9.02463 22.5379 7.34326C22.2933 6.42975 21.5461 5.7017 20.6084 5.46339C18.8827 5.00002 11.9932 5 11.9932 5ZM9.80538 9.28956L15.5263 12.5066L9.80538 15.7104V9.28956Z" fill="#F80000"/>
</svg>
