<?xml version="1.0" encoding="utf-8"?>
<!-- Generator: Adobe Illustrator 24.0.0, SVG Export Plug-In . SVG Version: 6.00 Build 0)  -->
<!DOCTYPE svg PUBLIC "-//W3C//DTD SVG 1.1//EN" "http://www.w3.org/Graphics/SVG/1.1/DTD/svg11.dtd" [
	<!ENTITY ns_extend "http://ns.adobe.com/Extensibility/1.0/">
	<!ENTITY ns_ai "http://ns.adobe.com/AdobeIllustrator/10.0/">
	<!ENTITY ns_graphs "http://ns.adobe.com/Graphs/1.0/">
	<!ENTITY ns_vars "http://ns.adobe.com/Variables/1.0/">
	<!ENTITY ns_imrep "http://ns.adobe.com/ImageReplacement/1.0/">
	<!ENTITY ns_sfw "http://ns.adobe.com/SaveForWeb/1.0/">
	<!ENTITY ns_custom "http://ns.adobe.com/GenericCustomNamespace/1.0/">
	<!ENTITY ns_adobe_xpath "http://ns.adobe.com/XPath/1.0/">
]>
<svg version="1.1" id="Layer_1" xmlns:x="&ns_extend;" xmlns:i="&ns_ai;" xmlns:graph="&ns_graphs;"
	 xmlns="http://www.w3.org/2000/svg" xmlns:xlink="http://www.w3.org/1999/xlink" x="0px" y="0px" viewBox="0 0 24 24"
	 style="enable-background:new 0 0 24 24;" xml:space="preserve">
<style type="text/css">
	.st0{fill:none;}
	.st1{fill:#D5D9E0;}
</style>
<metadata>
	<sfw  xmlns="&ns_sfw;">
		<slices></slices>
		<sliceSourceBounds  bottomLeftOrigin="true" height="24" width="23.2" x="0" y="0"></sliceSourceBounds>
	</sfw>
</metadata>
<ellipse class="st0" cx="11.6" cy="12" rx="11.6" ry="12"/>
<g transform="translate(0.000000,2048.000000) scale(0.100000,-0.100000)">
	<path class="st1" d="M68.4,20443.2c-1.1-2.3-6.1-5.8-9.8-7c-1.7-0.5-2.2-0.5-2.4,0.1c-0.5,1.1-1.9,2-3.1,1.8
		c-1.5-0.2-2.7-1.5-3.2-3.2c-0.1-0.5-0.3-1-0.3-1.1s-0.4-0.2-0.9-0.1c-1.6,0.2-2.5-0.6-4-3c-0.4-0.6-0.8-1.2-0.9-1.2s-1.5,0.3-3,0.7
		s-3.1,0.7-3.5,0.7c-1.1,0-2.8-1-4-2.3c-1.9-2-2.8-4.5-3-7.4c-0.1-2.8,0.6-5.4,2-7.3c0.7-0.9,1.9-1.5,4.3-2.1c1-0.2,1.8-0.5,1.8-0.5
		c0.1,0-0.2-2.5-0.3-2.8c0-0.1-0.3-0.3-0.7-0.4c-0.9-0.2-2-1.2-2.4-2.1c-0.7-1.4-0.6-4.9,0.3-7.6c0.2-0.8,0.4-1.4,0.5-1.5
		c0.1,0,4.7-1.6,10.3-3.3c5.6-1.9,11.9-3.8,13.9-4.5l3.8-1.3l26.4,7.4c24.1,6.8,26.5,7.3,27.6,7.3c1.1,0,3-0.5,17.9-4.5
		c9.1-2.4,16.9-4.6,17.1-4.8c1-0.5,1.3-1.1,2.8-4.5l1.6-3.4l12.5-3.8c7-2.2,12.8-3.9,13.2-4.1c0.6-0.3,0.7-0.3,1,0
		c0.2,0.2,0.3,0.5,0.3,0.8c0,0.7-1.9,11.3-2.1,12c-0.1,0.3-0.2,0.6-0.2,0.7s-30.6,10.9-31,10.9c-0.5,0-2.2,1.6-4.9,4.4l-3,3.1
		l-11.2,3.6c-6.2,2-15.5,5-20.7,6.7c-5.2,1.7-15.3,5-22.4,7.3c-7.1,2.4-13.7,4.5-14.7,4.8l-1.8,0.6l1,2c2.6,5.3,2.3,10-1,11
		C70.6,20445.6,69,20444.9,68.4,20443.2z M163,20395.6c0.4-1.6,0.8-6.4,0.7-7.2c-0.1-0.8-0.7-1.7-1.5-2.3c-0.5-0.4-1.9-0.6-2.6-0.3
		c-0.9,0.3-1.9,1.5-2.1,2.5c-0.3,1.2-0.7,5.2-0.7,6.2c0,1.2,0.7,2.4,1.5,2.9C160.2,20398.7,162.7,20397.7,163,20395.6z
		 M170.9,20392.8c0.2-0.8,0.4-3.2,0.4-5.3c0.1-1.7-0.3-2.5-1.4-3.2c-0.5-0.4-0.8-0.5-1.7-0.5c-0.9,0-1.2,0.1-1.8,0.5
		c-1.2,0.9-1.5,1.7-1.7,4.7c-0.1,1.5-0.1,3-0.1,3.5c0.1,1.1,0.7,2.1,1.7,2.5C168.3,20395.9,170.5,20394.8,170.9,20392.8z
		 M177,20392.1c1.3-0.7,1.7-1.4,2.1-4.2c0.6-3.5,0.5-4.4-0.7-5.4c-1.7-1.4-4.1-0.9-5,1.1c-0.4,1-1.1,5.3-0.9,6.2
		c0.2,1.2,1,2.2,2,2.5C175.2,20392.6,176.5,20392.5,177,20392.1z"/>
	<path class="st1" d="M149.7,20405.1c0.8-0.8,0.9-0.8,12.3-4.9c6.3-2.3,11.9-4.3,12.3-4.5c0.4-0.2,3.3-1.3,6.4-2.4
		c3.1-1.1,5.7-2.1,5.9-2.2c0.6-0.4,2.6-8.9,3.7-15.6c0.1-0.9,0.2-2.3,0.2-3v-1.6l-5.7-5.4c-3.1-3-6.8-6.6-8-7.8
		c-2.3-2.3-2.4-2.4-2.3-2.9c0.1-0.9,0.3-1.3,5.2-10.4c2.9-5.5,6.5-13.7,9-21.1c3.5-10.2,5.7-19.2,6.7-28.2c0.2-2,0.4-3.6,0.5-3.7
		c0.1-0.2-0.4-0.8-1.1-1.2c-2.3-1.3-5.7-4.4-7.3-6.6c-1.8-2.4-2.7-4.5-2.9-6.8c-0.1-1-0.1-1.2,0.1-1.2c1.8,0.1,9.7,5.4,12.5,8.3
		c0.9,1,0.9,0.9,0.3,6.8c-0.8,8.1-1.1,9.8-2.5,16.6c-1.4,6.5-4.2,15.6-6.8,22.1c-2.3,5.7-5.9,13.4-8.4,18c-2.3,4.1-2.9,5.5-2.7,5.6
		c0.4,0.2,4.7,3.1,5.9,4.1c0.7,0.6,2,1.8,2.8,2.5c0.9,0.9,1.8,1.7,2,1.9c0.7,0.5,4,4.3,5.4,6.1c1.7,2.2,3.7,5.3,5.1,7.7
		c1.3,2.2,1.3,2.4,0.5,4.5c-1.1,3-2.5,5.6-5.5,9.4l-1.9,2.5l-16,5.6c-8.7,3-18.3,6.4-21.3,7.3c-2.9,0.9-5.5,1.7-5.6,1.8
		C147.7,20406.9,148.2,20406.1,149.7,20405.1z"/>
	<path class="st1" d="M117.4,20396c-0.2,0-12.2-3.3-26.7-7.3c-14.4-4.1-26.6-7.4-27-7.5c-0.8-0.2-1-0.1-3.7,0.8
		c-1.6,0.5-2.9,1.1-3.1,1.2c-0.3,0.3,0,0.1-13.7,4.8c-6.4,2.2-11.8,3.9-12,3.9c-0.6,0-1.2-0.5-1.7-1.6c-1.4-2.9-1.4-6.4,0-6.9
		c0.3-0.1,1.6-0.5,2.8-0.8l2.4-0.6l-1.2-1.3c-0.7-0.7-2.4-2.5-3.8-3.9c-1.5-1.5-2.6-2.8-2.7-2.9c-0.3-0.4-0.4-4.2-0.3-6.4
		c0.3-4.5,1.6-8.9,3.9-13.7c4.8-9.8,13.2-18.2,23.3-23.2c2.5-1.3,3.5-1.8,5.9-2.5c10.3-3.6,20.8-2.8,27.8,2c1.9,1.3,3.8,2.9,3.9,3.4
		c0.1,0.2,0.2,0.6,0.3,0.8c0.1,0.2,0.3,1.1,0.5,2s0.6,2.4,0.9,3.3c0.3,1,0.6,1.9,0.6,2.1c0,0.4,0.2,0.3,1.3-0.4
		c0.6-0.4,1.6-1,2.2-1.3c2.9-1.6,12.4-5,16.2-5.9c6.2-1.5,17.9-4.1,21.6-4.8c1.7-0.3,2.2-0.4,2.2-0.6c0-0.1-0.2-1.2-0.4-2.4
		c-0.1-1.3-0.3-2.5-0.4-2.7c-0.1-0.4,0.1-0.7,1.1-2.1c2.2-2.8,4.7-7.8,5.9-11.1c1.6-4.7,1.9-6.6,1.8-12.2c-0.1-4.2-0.1-4.3-0.6-6.3
		c-1-3.5-3-9.7-3.8-11.2c-0.6-1.1-0.5-2,0.6-3.6c0.8-1.3,1.7-2.3,2.2-2.5c0.8-0.4,1.2-0.2,1.5,0.9c0.6,1.8,1.4,2.7,4.7,5.5
		c0.8,0.7,2,1.7,2.5,2.2c2.7,2.3,4.4,4.6,5.3,7.2c0.4,0.9,0.5,1.5,0.4,2.2c-0.1,0.9-0.2,1.1-1.3,2.6c-1.4,1.9-2.2,3.7-2.7,6.1
		c-1.3,5-1.3,11,0,14.1l0.4,1.1l-0.7,0.9c-0.6,0.8-0.9,1.5-1.4,2.6c-0.1,0.2-1.1,0.6-4.7,1.8c-5.4,1.7-5.3,1.7-6.5,2.3l-1,0.5
		l-0.1,1c-0.1,1.5,0.1,7.4,0.4,9.1c0.3,1.6,1.2,3.4,1.8,4c0.2,0.2,0.9,0.3,2.5,0.5c2.1,0.2,6,0.9,6.2,1c0,0.1-0.5,1.1-1.2,2.4
		l-1.2,2.3l-2,0.6c-3.4,1.1-3.8,1.4-4.7,2.8c-0.2,0.4-1,1.6-1.7,2.6c-1.3,1.9-1.3,1.9-2,2c-0.4,0-1.6,0.2-2.7,0.4s-2.6,0.4-3.3,0.5
		c-2.2,0.3-2.4,0.4-3.2,1.5c-0.8,1-2.4,2.5-3.4,3.1c-1.9,1.3-5.2,2.5-8.1,2.8c-1.4,0.2-1.6,0.2-6.4-0.6l-2.5-0.4l-0.9,0.6
		c-0.4,0.3-0.9,0.6-1,0.6c-0.1,0-2.1,1.1-4.3,2.4c-4.8,2.7-5.1,3-5.2,4.8c-0.1,0.9,0,1.1,0.4,1.8c0.7,1.1,1.7,1.6,2.9,1.5
		c0.8-0.1,1.5-0.5,5.5-2.7l4.6-2.6l2,0.5c1.1,0.2,2.4,0.6,2.7,0.8c1,0.4,2.5,0.5,3.4,0.1c0.3-0.1,5.5-1.7,11.5-3.3
		c11.7-3.2,11.6-3.2,12.4-4.5c0.2-0.3,0.4-0.7,0.4-0.9c0-0.3,3.6-6.2,4.3-7c0.1-0.2,1.4-0.7,2.8-1.2c2.9-1,3.5-1.5,4.1-2.9
		c0.2-0.4,1.3-2.4,2.4-4.5l2-3.7v-1.6c0-1.1-0.1-1.7-0.3-2.1c-0.3-0.6-1.2-1.4-1.8-1.6c-0.2-0.1-2.5-0.6-5.2-1
		c-2.6-0.5-4.9-0.9-4.9-0.9s-0.1-0.8-0.2-1.8l-0.1-1.8l3.9-1.3c2.3-0.7,4.6-1.5,5.4-1.7c1.8-0.5,2.5-1,3.1-2c0.5-0.8,0.6-2,0.4-2.7
		c-0.2-0.4,0.3-0.8,1.8-1.8c1-0.7,1.6-1.6,1.6-2.6s-0.4-1.9-1.5-3c-1.3-1.4-1.4-1.9-1.3-6c0.1-2.4,0.2-3.3,0.5-4.7
		c0.6-2.4,0.8-2.8,2.1-4.3c2-2.4,2.5-3.9,2.4-7.1c-0.1-2-0.4-3.1-1.3-5.1c-1.2-2.7-2.1-4.1-4.3-6.4c-1.9-2-4-3.6-5-3.9
		c-0.9-0.2-0.2-0.5,2.4-1c2-0.4,7.7-0.4,10-0.1c3,0.4,6.4,1.5,10,3.1c1,0.5,1.9,1,1.9,1.1s0.1,0.8,0.3,1.5c0.4,1.6,1.5,4,2.4,5.6
		c1.8,2.6,4.9,5.9,7.8,8c1.3,0.9,1.3,0.9,1.2,1.5c-0.1,0.4-0.4,2.3-0.7,4.2c-1,6.2-3.1,15-4.8,20.3c-0.6,2-3,7.8-5,12.3
		c-0.8,1.8-2.5,5.4-4,8c-2.5,4.8-3.4,6.4-6.1,10.6l-1.4,2.3l-3.7,0.1c-2.1,0.1-4.6,0.3-5.7,0.4c-1.1,0.1-2.5,0.2-3.1,0.3
		c-1.5,0.1-2.4,0.6-3.1,1.5c-0.3,0.4-1,1.1-1.5,1.6c-0.5,0.5-2.4,2.3-4.2,4.1c-2.7,2.7-3.4,3.3-4,3.4c-0.3,0.1-9.6,2.5-20.6,5.4
		c-14.7,3.9-20.2,5.4-20.8,5.7c-1.6,0.9-2.2,3-1.4,4.7c0.7,1.4,5.1,7.6,5.8,8.1c0.8,0.6,1.7,1,2.4,1c0.3,0,4.3-0.8,8.9-1.7
		s10.6-2.1,13.4-2.6c2.8-0.6,6.6-1.3,8.3-1.7c1.8-0.3,3.4-0.7,3.6-0.7c0.3-0.1,1-0.2,1.7-0.3l1.3-0.2l2.4,1.3
		c1.3,0.7,2.4,1.4,2.4,1.5c0,0.1-0.2,0.7-0.5,1.3c-0.4,0.9-0.6,1.1-1,1.2c-0.3,0-7.3,1.9-15.4,4.1
		C124.7,20394.3,117.8,20396.1,117.4,20396z M46.2,20360.1c1.2-0.4,2.5-1.8,3-3c0.5-1.4,0.5-3.2-0.1-4.5c-1.6-3.5-6.1-4.4-8.8-1.9
		c-1.5,1.4-2.2,3.5-1.7,5.5c0.5,2,1.8,3.3,3.4,4C43.3,20360.7,45.1,20360.6,46.2,20360.1z M118,20359.5c1.5,0,2.4-0.8,3-2.5
		c0.5-1.3,0.5-2,0.1-4c-0.5-2.3-1.3-3.8-3-6.1l-0.8-1l-1.1,0.4c-4.9,1.8-8.7,3.6-9.8,4.7c-0.6,0.6-0.9,1.1-1.3,2.2
		c-0.8,2.1-0.7,3.1,0.5,5l0.7,1.1l0.7-0.4c0.9-0.5,1.1-0.5,3.7-0.1c1.2,0.2,3.1,0.5,4.3,0.7
		C116.2,20359.5,117.6,20359.7,118,20359.5z M59.5,20349.4c1.7,0.1,2.1,0,3.3-0.9c2.4-1.7,3.1-4.6,1.9-7.3c-0.6-1.2-1.4-2-2.6-2.5
		c-0.8-0.3-1.2-0.4-2.4-0.4c-1.4,0-1.6,0.1-2.5,0.6c-1.2,0.6-2,1.5-2.5,2.7c-0.5,1.3-0.5,3.3,0.1,4.6c0.6,1.1,1.7,2.3,2.7,2.7
		C58,20349.4,58.5,20349.5,59.5,20349.4z M130.1,20347c0.1,0,0.8-0.1,1.7-0.3c0.9-0.1,2.4-0.4,3.5-0.6c1.1-0.1,2.4-0.3,3-0.4
		c1.4-0.2,1.4-0.2,1.6-2.2l0.1-1.3l-1.2,0.1c-0.7,0.1-2.4,0.2-3.7,0.3c-2.4,0.2-6.8,0.5-9,0.8l-1.1,0.1l1.8,1.2c1,0.6,2,1.5,2.3,1.8
		C129.5,20347,130.1,20347.2,130.1,20347z M79.6,20343.7c2.4-0.9,3.8-2.9,3.8-5.5c0-2.4-1.5-4.6-3.7-5.4c-0.8-0.3-1.2-0.4-2.3-0.3
		c-1.7,0.1-2.7,0.6-3.8,1.8c-2.7,3-1.7,7.9,2.1,9.3C76.8,20344,78.5,20344.1,79.6,20343.7z"/>
	<path class="st1" d="M109.3,20383c-0.4,0-0.6-0.1-1.2-1c-0.4-0.5-0.7-1-0.7-1.1c0-0.1,35.1-9.3,36.5-9.5c1.9-0.3,2-0.3,6.1-4.4
		c5-5,6.2-6.1,6.9-6.2c2.4-0.3,13.2-0.9,13.6-0.6c0.2,0.1,1.3,0.9,2.6,1.9c2.4,1.7,4.6,3.4,6.9,5.6c0.6,0.6,1.6,1.4,2.1,1.9
		c0.5,0.5,1,1,0.9,1c0,0.1-6,2-13.2,4.1c-12.5,3.8-13.2,4-13.9,3.8c-0.9-0.2-2,0-2.6,0.6l-0.5,0.4l-3-1.6l-3-1.6h-1.4
		c-1,0-6,1-18.3,3.4C117.6,20381.6,109.6,20383.2,109.3,20383z"/>
</g>
</svg>
