<?xml version="1.0" encoding="utf-8"?>
<!-- Generator: Adobe Illustrator 24.0.0, SVG Export Plug-In . SVG Version: 6.00 Build 0)  -->
<!DOCTYPE svg PUBLIC "-//W3C//DTD SVG 1.1//EN" "http://www.w3.org/Graphics/SVG/1.1/DTD/svg11.dtd" [
	<!ENTITY ns_extend "http://ns.adobe.com/Extensibility/1.0/">
	<!ENTITY ns_ai "http://ns.adobe.com/AdobeIllustrator/10.0/">
	<!ENTITY ns_graphs "http://ns.adobe.com/Graphs/1.0/">
	<!ENTITY ns_vars "http://ns.adobe.com/Variables/1.0/">
	<!ENTITY ns_imrep "http://ns.adobe.com/ImageReplacement/1.0/">
	<!ENTITY ns_sfw "http://ns.adobe.com/SaveForWeb/1.0/">
	<!ENTITY ns_custom "http://ns.adobe.com/GenericCustomNamespace/1.0/">
	<!ENTITY ns_adobe_xpath "http://ns.adobe.com/XPath/1.0/">
]>
<svg version="1.1" id="Layer_1" xmlns:x="&ns_extend;" xmlns:i="&ns_ai;" xmlns:graph="&ns_graphs;"
	 xmlns="http://www.w3.org/2000/svg" xmlns:xlink="http://www.w3.org/1999/xlink" x="0px" y="0px" viewBox="0 0 24 24"
	 style="enable-background:new 0 0 24 24;" xml:space="preserve">
<style type="text/css">
	.st0{fill:none;}
	.st1{fill:#D5D9E0;}
</style>
<metadata>
	<sfw  xmlns="&ns_sfw;">
		<slices></slices>
		<sliceSourceBounds  bottomLeftOrigin="true" height="24" width="23.2" x="0" y="0"></sliceSourceBounds>
	</sfw>
</metadata>
<ellipse class="st0" cx="11.6" cy="12" rx="11.6" ry="12"/>
<g transform="translate(0.000000,2048.000000) scale(0.100000,-0.100000)">
	<path class="st1" d="M144.1,20425.1c-0.5-0.1-1.3-0.7-3.3-2.3l-2.6-2.1l-4.2-0.6c-2.3-0.3-5.1-0.7-6.2-0.8
		c-1.1-0.1-2.8-0.3-3.7-0.4c-2-0.2-0.5-0.3-17.7,1.1l-13,1.1l-0.6,0.5c-1.3,0.9-2.5,0.7-4.7-1.1c-0.8-0.6-1.5-1.1-1.6-1.1
		c-0.1,0-0.1,0.4,0,1c0.1,0.9,0,1-0.3,1.6c-0.6,1.1-1.1,1.3-3.3,1.6c-1,0.1-2.7,0.4-3.7,0.6c-1,0.2-3.2,0.5-4.9,0.6
		c-2.7,0.3-3.2,0.3-3.8,0.1c-0.8-0.2-1.8-0.9-2-1.6c-0.2-0.7-0.5-1.1-0.9-1.7c-0.4-0.4-0.5-0.5-1-0.5l-0.5,0l0.9,1.2
		c0.9,1.2,0.9,1.2,1,2.2c0.1,0.9,0.1,1.1-0.3,1.5c-0.4,0.6-0.7,0.9-1.4,1.1c-0.3,0.1-5.8,0.6-12.4,1.1c-6.6,0.5-12.8,1-13.9,1.2
		c-3.5,0.5-4.9,0-5.5-1.8c-0.1-0.2-0.7-1-1.3-1.9c-1.7-2.2-2.3-3.7-2.6-7.2c-0.1-0.9-0.3-2.3-0.4-3.2l-0.2-1.7l-0.4,0
		c-0.2,0-2.1,0.1-4.1,0.2c-3.4,0.2-3.6,0.2-4.3,0c-0.8-0.3-1.7-1.3-2.1-2.3c-0.5-1.2-0.2-3.2,0.6-4.1c0.6-0.7,1.1-0.9,3.5-1.1
		l2.2-0.2l-0.1-1c-0.1-0.9,0-1.1,0.2-1.6c0.2-0.3,0.6-0.8,0.9-1.1c0.5-0.4,0.8-0.5,2.1-0.7l1.5-0.2l-0.2-1.9c-0.2-2.2-0.1-2.1-1.4-2
		c-1,0.1-1.9-0.2-2.5-0.8c-0.4-0.4-0.5-0.6-0.6-1.7c-0.2-1.6,0-2.3,0.9-3c0.5-0.4,0.8-0.5,2.1-0.6l1.5-0.2l-0.3-2.7
		c-0.4-3.3-0.4-3.1,1.3-5.1l1.1-1.3l-0.5-4.2c-0.3-2.3-0.7-5-0.8-6l-0.3-1.8l-0.4-0.1c-0.6-0.2-1.5-1-1.7-1.6
		c-0.3-0.8-0.5-2.7-0.5-3.5c0.1-0.9,1-2,1.8-2.4c0.5-0.2,2.9-0.4,11.1-0.8c40.8-2.5,43.6-2.6,44-2.8c0.3-0.2,5.7-0.9,18-2.4
		c3.7-0.4,5-0.6,5.3-0.5c0.3,0.1,1.4,0.6,2.6,1.1c1.1,0.5,2.4,1.2,2.9,1.4c0.4,0.2,1.5,0.7,2.4,1.2c0.9,0.4,1.7,0.8,1.7,0.8
		c0.2,0,0-1.5-0.4-2.3c-0.2-0.4-0.6-1.2-1-1.7c-0.8-1.2-1-1.6-1.1-2.4c-0.1-1.2,0.2-1.8,1.8-3.1c2.3-1.9,4.1-4.3,5.2-6.7
		c1.9-4,1.6-8.8-0.8-12.7c-1-1.5-1.9-2.6-3.4-4c-1.7-1.5-2.1-2.4-1.5-3.7c0.5-1.3,1.4-1.7,4.5-2c1.1-0.1,2.3-0.3,2.7-0.3l0.7-0.2
		l-1.1-2.3l-1.1-2.3l-2.2-1.8c-1.2-1-2.9-2.3-3.8-3c-1.8-1.3-2.3-1.9-2.4-2.8c-0.1-0.6,0-4.7,0.1-5.8c0.1-0.6,0-0.7-0.3-0.9
		c-0.2-0.1-1-0.7-1.7-1.3c-0.7-0.6-1.8-1.3-2.4-1.7c-0.8-0.5-1.2-0.9-1.5-1.4c-0.7-1.1-0.7-1.6,0.2-5.1c0.4-1.7,0.8-3.2,0.8-3.3
		c0-0.1-0.2-0.4-0.4-0.7c-0.8-1.4-0.4-2.8,1.1-3.7c0.4-0.2,0.7-0.4,0.7-0.4c0,0-0.4-1.1-1-2.5c-0.6-1.3-1.2-2.7-1.3-3
		c-0.2-0.6-0.2-0.6-0.7-0.5c-1.8,0.2-3.2-1.7-2.5-3.4c0.9-2.4,6.8-5.6,13.2-7.2c2.1-0.5,6.8-1,8.5-0.8c3.1,0.3,5.5,1.3,6.4,2.8
		c0.3,0.4,0.3,0.4,0.8,0.1c0.9-0.6,3-0.4,4,0.4c0.2,0.1,0.6,0.2,1.1,0.2c0.5,0,1.1,0.2,2,0.5c4.2,1.8,7.3,3.2,7.9,3.5
		c1.3,0.7,1.8,2.3,1.2,3.5c-0.4,0.7-0.9,1.1-2.1,1.6c-1.7,0.7-3,1.8-3,2.5c0,0.2,4.2,8,9.3,17.3l9.3,16.9l1.9-0.1
		c2.8-0.1,3.4,0.1,4.8,2.5c0.4,0.7,0.6,1.2,0.7,1.7c0.1,0.5,0.4,1.5,1.6,4.1c1.5,3.3,1.6,3.4,2.1,3.6c0.3,0.1,2.6,1.3,5.1,2.5
		c2.5,1.3,4.8,2.4,5.2,2.6c0.3,0.1,0.8,0.4,1,0.6c0.2,0.2,2.6,3.8,5.3,8c2.8,4.2,9.4,14.3,14.8,22.6c5.4,8.2,10.9,16.7,12.3,18.8
		c3.2,4.8,3.2,4.9,2.2,6.8c-0.3,0.5-1,2-1.6,3.3c-1.3,3-1.7,3.4-2.7,3.8c-0.4,0.2-2.8,1.2-5.3,2.3l-4.6,2l-0.5,0.7
		c-0.6,0.8-2.2,2.1-3.6,2.8c-0.6,0.3-2.3,1.1-3.8,1.8c-3.3,1.5-6,2.3-7.4,2.3c-0.5,0-5.9,0.4-12.1,1l-11.2,1l-0.7,0.6
		c-0.4,0.3-5.3,3.4-10.8,6.9c-9.2,5.8-10.1,6.4-10.8,6.5C145,20425.2,144.5,20425.2,144.1,20425.1z M106.8,20412.1
		c32.3-3.2,58.7-5.8,58.7-5.8c0.1-0.2-2.1-1.7-3.2-2.2c-0.7-0.3-2.2-0.9-3.3-1.2c-3.1-0.9-4.1-1.4-5.4-2.5c-1.3-1.1-2-2.2-2.4-3.6
		c-0.3-1.3-0.2-3,0.2-4.5c0.2-0.7,0.3-1.1,0.2-1.2c-0.1,0-0.6,0-1.2,0c-0.9,0-1,0.1-1.1,0.3c-0.1,0.3-1.3,2.3-2,3.2
		c-0.6,0.7-2.9,2.9-3.6,3.2c-1.2,0.6-2.4,0.9-7.5,1.7c-2.6,0.4-3.6,0.5-4.6,0.5c-0.9,0-5.1,0.3-14.7,1.3c-7.4,0.7-13.6,1.4-13.9,1.4
		c-0.2,0-3.6,0.4-7.4,0.8l-7,0.7l-0.6-0.3c-0.5-0.3-7.9-5.3-11.6-7.9l-1.1-0.7l-18.6,1.8c-10.2,1-19.3,1.9-20.1,2l-1.5,0.1l0.2,1
		c0.1,0.6,0.2,1.1,0.2,1.1c0,0,8.6-0.6,19-1.4c10.4-0.8,19.3-1.5,19.8-1.5c1.1,0.1,1.8,0.5,2.3,1.3c0.4,0.7,0.5,1.2,0.2,2
		c-0.2,0.7-0.9,1.4-1.5,1.6c-0.4,0.1-6.9,0.7-20.7,1.8c-11.1,0.9-20.2,1.6-20.2,1.6c0,0,0.8,6.4,1.3,10.7l0.3,1.8l6.1-0.6
		C45.4,20418.1,74.5,20415.3,106.8,20412.1z M195.6,20400.1c0.4-0.5,0.4-0.8,0.3-1.7c-0.1-0.4-17.7-39-18.2-39.8
		c-0.8-1.4-2.8-1.3-3.5,0c-0.2,0.4-0.2,0.6-0.1,1.2c0.1,0.5,3.2,7.3,8.9,19.8c4.8,10.5,8.9,19.4,9.1,19.8
		C192.8,20401.1,194.6,20401.4,195.6,20400.1z M201.6,20399.9c0.6-0.4,0.9-1.1,0.9-1.9c0-0.4-2.8-6.5-10.6-23.4
		c-5.8-12.5-10.7-22.9-10.8-23.2c-0.9-1.2-2.6-1.1-3.4,0.2c-0.2,0.3-0.3,0.7-0.2,1.1c0,0.3,3.5,8,10.3,22.7
		c11.6,25,11.1,23.9,11.5,24.2C199.8,20400.2,200.8,20400.3,201.6,20399.9z M188.3,20400.2c0.6-0.4,0.9-1.1,0.8-1.9
		c0-0.5-1.9-4.6-7.1-16.5c-3.9-8.7-7.2-16-7.3-16.2c-0.1-0.2-0.5-0.4-0.9-0.6c-0.8-0.3-1.5-0.1-2.1,0.6c-0.4,0.4-0.5,0.6-0.4,1.3
		c0,0.7,0.4,1.7,5.2,12.4c2.9,6.4,6,13.5,7,15.7c1,2.2,1.9,4.2,2.1,4.4C186,20400.4,187.3,20400.7,188.3,20400.2z M180.5,20399.7
		c0.5-0.4,0.8-1.1,0.7-1.7c-0.1-0.7-10-23.5-10.6-24.3c-0.3-0.4-0.6-0.6-1-0.7c-0.8-0.2-0.9-0.2-1.6,0.2c-0.7,0.4-1,1.1-0.9,1.9
		c0.1,0.4,1.6,4.2,4.6,11c2.5,5.7,4.8,11,5.2,11.8c0.3,0.8,0.8,1.6,1,1.8C178.6,20400.2,179.8,20400.3,180.5,20399.7z
		 M173.3,20399.1c0.3-0.2,0.6-0.5,0.7-0.7c0.5-0.9,0.5-1-3.1-9.1c-1.9-4.2-3.5-7.8-3.7-8c-1.3-1.4-3.6-0.4-3.4,1.5
		c0,0.4,1.1,2.9,3.3,8c1.8,4.1,3.4,7.6,3.5,7.8c0.3,0.5,1.1,0.8,1.7,0.8C172.6,20399.4,173,20399.3,173.3,20399.1z M209.8,20394.6
		l3.9-1.7l0.9-2.1c0.5-1.2,0.9-2.2,0.9-2.2c-0.1-0.1-7.7-11.8-28.1-42.9l-5-7.7l-2.3-1.2c-1.3-0.7-2.3-1.2-2.3-1.2
		c0,0,2.9,6.3,6.5,14.1c7.2,15.6,18.1,39.2,20,43.2c1.5,3.3,1.6,3.4,1.7,3.4C205.9,20396.3,207.7,20395.5,209.8,20394.6z
		 M165.7,20397.1c0.4-0.4,0.7-1.1,0.7-1.8c-0.1-0.6-2.9-6.6-3.3-7.2c-0.9-1.1-2.7-0.9-3.3,0.3c-0.4,0.8-0.2,1.5,1.4,4.9
		c0.8,1.7,1.7,3.4,1.8,3.6c0.2,0.2,0.5,0.5,0.8,0.5C164.3,20397.6,165.2,20397.4,165.7,20397.1z M157.1,20397.7
		c0.7-0.4,0.9-0.6,1.2-1.2c0.7-1.5-0.5-3.1-2.3-2.9c-1,0.1-1.7,0.6-2.1,1.7c-0.2,0.6-0.1,1.7,0.2,2.1
		C154.8,20398.1,156.2,20398.3,157.1,20397.7z M156.2,20378.8c0.7-0.4,1.4-1.4,1.6-2.2c0.2-0.8-0.1-2.9-0.5-4
		c-0.3-0.8-6.1-11.3-6.7-11.9c-0.1-0.2-0.5-0.8-0.7-1.3c-0.6-1.2-1.4-2-2.5-2.4c-1.3-0.4-2.8-0.1-3.5,0.7c-0.2,0.2-1.4,3.4-2.8,7.2
		c-1.3,3.7-2.6,7.3-2.9,7.9c-1.2,3.2-0.2,6.1,2.4,7.1c1.5,0.6,1.9,0.6,8.7-0.2C154.9,20379.2,155.7,20379.1,156.2,20378.8z
		 M102.4,20379.3c2.5-1.5,3.7-3.8,3.5-6.3c-0.1-1.1-0.6-2.5-1.2-3.2c-0.9-1.1-1.2-2-0.9-2.9c0.3-1.2,1.8-2.1,3-1.7
		c0.3,0.1,3.3,1.6,7.7,4c1.1,0.6,1.2,0.6,1.3,0.4c0.1-0.1,0.1-0.3,0.1-0.3c-0.1-0.1-9.9-5.8-10.1-5.9c-0.3-0.1-11.3,1.7-11.7,1.9
		c-0.5,0.2-0.7,0.8-0.7,2.3c0,1,0.1,1.9,0.7,5.7c0.9,5.8,0.9,5.6,1.5,6.2c0.9,0.9,1.4,1,4,0.7
		C101.2,20379.9,101.3,20379.9,102.4,20379.3z M87.8,20377.2c0.9-0.8,1-2,0.3-2.9c-0.7-0.8,1.3-1-26.3,1.3
		c-13.8,1.1-25.2,2.1-25.5,2.2c-0.6,0.2-1.3,1-1.4,1.7c-0.1,1.1,0.7,2.1,2,2.2c0.7,0.1,30.1-2.3,44.3-3.6l6.2-0.6L87.8,20377.2z
		 M167.4,20360.5c7-15.1,7.9-17,7.9-17.3c0-0.1-2.2-5.1-4.9-11l-5-10.7l-1.7,0.2c-4.5,0.6-13.9,1.8-14,1.8c-0.1,0.1,3.2,5.3,5.6,9.1
		c0.9,1.4,2.5,4.1,3.7,6.2c1.1,2,2.6,4.5,3.1,5.5l1.1,1.8l0.9,0.3c1.1,0.4,1.7,1,2.3,2c0.4,0.7,0.5,1,0.6,2.1
		c0.1,1.2,0.1,1.4-0.2,2.3c-0.3,0.9-2.3,4.3-4.2,7.3l-0.8,1.3l0.8,1.5c1.4,2.5,2,3.5,2.1,3.4
		C164.7,20366.2,166,20363.6,167.4,20360.5z M86,20370.3c1.9-0.7,1.8-3.2-0.1-3.8c-0.4-0.1-5.6,0.2-25.1,1.7
		c-13.5,1-24.8,1.9-25.1,2c-0.3,0.1-0.7,0.4-1,0.7c-0.4,0.5-0.5,0.7-0.4,1.2c0.1,0.8,0.4,1.3,1.1,1.7c0.5,0.2,0.7,0.3,2.8,0.1
		c1.2-0.1,12.1-0.9,24.1-1.8s22.1-1.6,22.5-1.6C85.2,20370.5,85.7,20370.4,86,20370.3z M144.5,20319.6c7.7-0.9,14-1.6,14-1.6
		c0,0-0.6-1.1-1.3-2.4l-1.3-2.4l-5.7,0.6c-3.1,0.3-6.5,0.7-7.4,0.8c-1.7,0.2-1.8,0.2-2.3-0.2c-0.3-0.2-0.7-0.6-0.9-0.8
		c-0.2-0.3-3.9-7.3-8.2-15.5c-4.3-8.3-7.9-15.1-8-15.1c-0.1-0.1-8.8,5.3-8.8,5.5c0,0.1,2.7,5.8,6,12.7c9.2,19.3,9.3,19.5,9.4,19.9
		c0,0.2,0.1,0.3,0.3,0.3C130.5,20321.2,136.9,20320.5,144.5,20319.6z M122.2,20277.5c4.3-2.7,4.7-2.9,4.6-3.2
		c-0.1-0.2-0.2-0.6-0.4-1.1c-0.2-0.7-0.3-0.8-0.8-0.8c-1-0.1-4.8,0.4-6.3,0.7c-1.9,0.5-5,1.5-5,1.8c-0.1,0.3,2.8,5.6,3.1,5.6
		C117.5,20280.4,119.6,20279.1,122.2,20277.5z"/>
</g>
</svg>
