<?xml version="1.0" encoding="utf-8"?>
<!-- Generator: Adobe Illustrator 24.0.0, SVG Export Plug-In . SVG Version: 6.00 Build 0)  -->
<!DOCTYPE svg PUBLIC "-//W3C//DTD SVG 1.1//EN" "http://www.w3.org/Graphics/SVG/1.1/DTD/svg11.dtd" [
	<!ENTITY ns_extend "http://ns.adobe.com/Extensibility/1.0/">
	<!ENTITY ns_ai "http://ns.adobe.com/AdobeIllustrator/10.0/">
	<!ENTITY ns_graphs "http://ns.adobe.com/Graphs/1.0/">
	<!ENTITY ns_vars "http://ns.adobe.com/Variables/1.0/">
	<!ENTITY ns_imrep "http://ns.adobe.com/ImageReplacement/1.0/">
	<!ENTITY ns_sfw "http://ns.adobe.com/SaveForWeb/1.0/">
	<!ENTITY ns_custom "http://ns.adobe.com/GenericCustomNamespace/1.0/">
	<!ENTITY ns_adobe_xpath "http://ns.adobe.com/XPath/1.0/">
]>
<svg version="1.1" id="Layer_1" xmlns:x="&ns_extend;" xmlns:i="&ns_ai;" xmlns:graph="&ns_graphs;"
	 xmlns="http://www.w3.org/2000/svg" xmlns:xlink="http://www.w3.org/1999/xlink" x="0px" y="0px" viewBox="0 0 24 24"
	 style="enable-background:new 0 0 24 24;" xml:space="preserve">
<style type="text/css">
	.st0{fill:none;}
	.st1{fill:#D5D9E0;}
</style>
<metadata>
	<sfw  xmlns="&ns_sfw;">
		<slices></slices>
		<sliceSourceBounds  bottomLeftOrigin="true" height="24" width="24" x="0" y="0"></sliceSourceBounds>
	</sfw>
</metadata>
<ellipse class="st0" cx="12" cy="12" rx="12" ry="12"/>
<g>
	<path class="st1" d="M5.7,15.2c-0.1-0.1-0.1-0.1-0.1-0.3c0-0.1-0.1-0.2-0.1-0.3c-0.3-0.1-0.5,0.1-0.8,0.1l0,0
		c0.3-0.1,0.6-0.3,0.8-0.5c0-0.2-0.1-0.4-0.1-0.6c0.1,0.1,0.1,0.1,0.2,0.1c0.2,0.1,0.4,0.1,0.6,0.1c0.4-0.1,0.9-0.2,1.3-0.4
		c0.1-0.1,0.2-0.1,0.4-0.1H8c-0.1,0.1-0.3,0.4-0.4,0.5C7.4,13.9,7.2,14,7,14.2c0.2,0.1,0.4,0.1,0.5,0.1s0.1,0.1,0.1,0.1h0.1
		c0,0.1,0.1,0.1,0.2,0.2c0.1-0.1,0.3-0.2,0.4-0.4c0.1-0.1,0.1-0.2,0.3-0.3c0.1-0.1,0.1-0.1,0.1-0.2c0.1-0.1,0-0.2,0-0.3
		c-0.1-0.1-0.1-0.1-0.1-0.2c0.1-0.1,0.1-0.1,0.2-0.1C8.9,13,9,12.9,9.1,12.8s0.1-0.1,0.1-0.1c-0.1-0.1-0.2-0.2-0.3-0.2
		c-0.4,0-0.7,0.1-1,0.1H7.8c0.1-0.1,0.1-0.1,0.1-0.1C8.2,12.2,8.6,12,9,11.8c0.3-0.1,0.6-0.2,0.9-0.4c0.1,0,0.1-0.1,0.2-0.1
		c-0.1-0.1-0.1-0.1-0.2-0.1c-0.1-0.1-0.3-0.2-0.4-0.4c-0.3-0.4-0.6-0.7-0.9-1C8.2,9.5,8,9.2,7.8,9C7.4,8.6,7,8.3,6.6,8
		C6.3,7.7,6,7.5,5.8,7.2C5.5,7,5.3,6.8,5.2,6.5C5,6.2,4.8,6,4.7,5.7C4.6,5.4,4.4,5.1,4.4,4.9C4.3,4.6,4.2,4.3,4.1,4
		C4.1,3.9,4,3.8,4,3.6c0.1,0,0.1,0,0.1,0c0.4,0.2,0.8,0.3,1.2,0.5C5.5,4.2,5.7,4.3,6,4.4C6.3,4.5,6.6,4.8,6.9,5
		C7,5.1,7.3,5.4,7.5,5.6c0.3,0.3,0.5,0.6,0.8,1C8.4,6.8,8.7,7,8.8,7.3C9,7.4,9.1,7.6,9.3,7.9C9.4,8,9.6,8.2,9.7,8.3
		c0.2,0.3,0.4,0.4,0.6,0.6C10.3,9,10.4,9,10.4,9c0.2,0.2,0.4,0.4,0.6,0.6c0.1,0.1,0.1,0.1,0.1,0.3c0.1,0.1,0.1,0.1,0.1,0.2
		c0.1-0.1,0.2,0,0.3,0.1c0.1-0.1,0.1-0.1,0.2-0.2s0.1-0.1,0.2-0.1c0.2,0,0.2,0,0.2-0.1c0.1-0.2,0.2-0.4,0.4-0.6
		c0.4-0.4,0.7-0.7,1.1-1.1c0.3-0.3,0.6-0.7,0.8-1s0.4-0.6,0.6-0.9c0.2-0.1,0.4-0.4,0.7-0.7c0.4-0.4,0.7-0.8,1.2-1.1
		c0.2-0.1,0.5-0.3,0.7-0.4c0.3-0.1,0.6-0.3,0.8-0.4c0.1-0.1,0.4-0.1,0.6-0.2c0.1,0,0.1,0,0.2,0c0,0.1-0.1,0.3-0.1,0.4
		C19,4,19,4.2,19,4.4c-0.1,0.2-0.1,0.4-0.2,0.6s-0.1,0.4-0.2,0.6c-0.2,0.4-0.4,0.8-0.7,1.1c-0.1,0.1-0.3,0.3-0.4,0.4
		c-0.2,0.2-0.5,0.4-0.7,0.7c-0.3,0.3-0.6,0.6-0.9,0.9c-0.3,0.3-0.6,0.6-0.8,0.9c-0.2,0.2-0.4,0.5-0.6,0.8c-0.1,0.2-0.3,0.4-0.6,0.6
		c-0.1,0.1-0.2,0.1-0.3,0.2c0,0.1,0,0.1,0.1,0.2c0.1,0,0.1,0.1,0.2,0.1c0.3,0.1,0.6,0.2,0.9,0.3c0.4,0.1,0.7,0.4,1,0.6
		c0.1,0.1,0.1,0.1,0.2,0.2c-0.1,0-0.2,0-0.3-0.1c-0.3,0-0.5-0.1-0.8-0.1c-0.1,0-0.3,0.1-0.4,0.2c0,0.1,0,0.1,0,0.1
		c0.1,0.1,0.2,0.2,0.4,0.2C15,12.9,15,13,15,13c-0.1,0.1-0.1,0.2-0.2,0.4v0.1c0.1,0.1,0.1,0.2,0.1,0.3c0.1,0.1,0.3,0.3,0.4,0.4
		c0.1,0.1,0.1,0.1,0.2,0.2c0.1-0.1,0.1-0.1,0.2-0.2c0-0.1,0.1-0.1,0.1-0.1c0.1-0.1,0.3-0.1,0.4-0.1h0.1c0.1-0.1,0-0.1-0.1-0.1
		c-0.4-0.1-0.6-0.4-0.8-0.7l0,0c0.1-0.1,0.1,0,0.1,0c0.1,0.1,0.4,0.1,0.5,0.2c0.4,0.1,0.7,0.2,1,0.3s0.5,0,0.7-0.1
		c0,0,0.1,0,0.1-0.1c0.1,0.1,0,0.2,0,0.3s0,0.2,0,0.3c0.3,0.1,0.5,0.3,0.8,0.4c-0.1,0.1-0.1,0.1-0.2,0c-0.2-0.1-0.4-0.1-0.6-0.1
		c-0.1,0.2-0.1,0.4-0.2,0.6c-0.1-0.1-0.3-0.1-0.4-0.2c0,0.1-0.2,0.1-0.4,0.1s-0.3,0-0.4,0.1c-0.3,0.1-0.4,0.1-0.4,0.3
		c0.1,0.1,0.1,0.2,0.1,0.3s0.1,0.1,0.1,0.1c0.1,0.1,0.2,0.2,0.4,0.4c0.1,0.1,0.1,0.1,0.1,0.1s0.1,0.2,0.1,0.3c0,0.1,0.1,0.2,0.2,0.3
		c0.1,0.1,0.3,0.4,0.4,0.5s0.3,0.4,0.4,0.5s0.2,0.3,0.4,0.4c0.1,0.1,0.1,0.1,0.1,0.1h0.1c0.2,0.1,0.4,0.1,0.7,0.1c0,0,0,0,0.1,0
		c0,0.1,0,0.1,0,0.2c0.1,0,0.1,0,0.2,0s0.1-0.1,0.1-0.1c0.1-0.1,0.1-0.2,0.2-0.3c0.1-0.1,0.1-0.1,0.1-0.2c0.1,0.1,0.1,0.1,0.1,0.2
		c0,0.2,0.1,0.5,0,0.8c0,0.1-0.1,0.2-0.1,0.3c-0.1,0.4-0.1,0.7,0,1.1v0.1c-0.1,0-0.1,0-0.1-0.1c-0.3-0.1-0.6-0.1-0.9-0.1
		c-0.1,0-0.4,0.1-0.5,0.1c-0.3,0-0.6,0-0.9-0.1c-0.1,0-0.1-0.1-0.1-0.1c0.1-0.1,0.1-0.1,0.2-0.1s0.2-0.1,0.3-0.1s0.1-0.1,0.1-0.1
		v-0.1c-0.1,0-0.1,0-0.2,0c0-0.1,0-0.1,0-0.2s0-0.3,0-0.5c0-0.1-0.1-0.2-0.1-0.3c-0.2-0.2-0.4-0.4-0.7-0.7c-0.1-0.1-0.3-0.3-0.4-0.4
		s-0.2-0.2-0.3-0.3c-0.1-0.1-0.1-0.1-0.3-0.1h-0.1c-0.1,0-0.2-0.1-0.3-0.2c-0.1-0.2-0.3-0.4-0.6-0.4c-0.1,0-0.1-0.1-0.1-0.1
		c-0.1,0-0.2,0.1-0.3,0.2s-0.1,0.2-0.1,0.4c-0.1,0.3-0.1,0.5,0,0.8c0.1,0.1,0.1,0.2,0.1,0.4c-0.1,0.1-0.4,0.1-0.7,0.1
		c0,0.1,0,0.1,0,0.1c0,0.1,0,0.3,0,0.4s0,0.1-0.1,0.2c-0.1-0.3-0.3-0.6-0.4-0.9c-0.2,0-0.4,0-0.6,0c0.1-0.1,0.1-0.1,0.1-0.1
		c0.1-0.2,0.2-0.4,0.2-0.7c-0.1-0.5-0.2-1-0.3-1.5c0-0.1-0.1-0.1-0.1-0.1v-0.1c0.4,0.3,0.6,0.7,0.7,1.1c0-0.1,0.1-0.1,0.1-0.1
		c0.1-0.1,0.1-0.3,0.2-0.4c0-0.1,0.1-0.1,0.1-0.1l0.1-0.1c-0.1-0.1-0.2-0.3-0.3-0.4c-0.1-0.1-0.3-0.4-0.5-0.4c-0.1,0-0.1-0.1-0.1,0
		c-0.1,0.1-0.2,0.1-0.4,0.1l-0.1-0.1c0-0.1-0.1-0.3-0.2-0.4c-0.1-0.1-0.1-0.1-0.1-0.1c0-0.2,0-0.1-0.1,0c0,0.1,0,0.1,0,0.2
		c0,0.3,0,0.6,0.1,0.9c-0.1,0-0.1-0.1-0.2-0.1s-0.1-0.1-0.1-0.2c-0.1,0.1-0.1,0.3-0.3,0.4c0-0.1,0-0.1,0-0.1c0-0.3,0.1-0.5,0-0.8
		c0-0.3-0.1-0.4-0.4-0.4c-0.2,0.1-0.2,0.4-0.3,0.7c-0.1-0.1-0.1-0.1-0.2-0.1c-0.1-0.1-0.2-0.1-0.4,0c-0.1,0.1-0.1,0.1-0.2,0.1
		c-0.1,0.1-0.3,0.3-0.4,0.5c-0.1,0.1-0.1,0.1-0.1,0.2c0.1,0.1,0.1,0.1,0.2,0.1l0.1,0.1c0.1,0.1,0.1,0.3,0.2,0.4
		c0,0.1,0.1,0.1,0.1,0.2c0-0.1,0.1-0.1,0.1-0.1c0.1-0.2,0.1-0.4,0.3-0.6c0.1-0.1,0.2-0.3,0.4-0.4c0,0.1,0,0.1,0,0.1
		c-0.1,0.3-0.1,0.6-0.2,0.8c-0.1,0.3-0.1,0.6-0.1,0.9s0.1,0.4,0.2,0.7c0,0,0.1,0,0.1,0.1c0,0,0,0,0,0.1h-0.1c-0.1,0-0.2,0-0.4,0
		c-0.1,0-0.1,0-0.2,0.1c-0.1,0.2-0.1,0.4-0.2,0.6c0,0.1-0.1,0.1-0.1,0.1c-0.1-0.2,0-0.5-0.1-0.7c-0.2,0-0.4,0-0.7-0.1
		c0-0.5,0-0.5,0-0.6c0.1-0.3,0.1-0.6,0.1-0.9c0-0.1-0.1-0.3-0.1-0.4c-0.2-0.4-0.4-0.6-0.5-0.7c-0.1,0.1-0.1,0.1-0.2,0.1
		C8.2,16.2,8,16.4,8,16.5c0,0.3-0.2,0.4-0.3,0.4s-0.3,0-0.4,0.2c-0.2,0.2-0.4,0.4-0.6,0.7C6.5,18,6.3,18.3,6,18.5
		c-0.1,0.1-0.1,0.1-0.2,0.2c0,0.3,0,0.5,0,0.8c-0.1,0-0.1,0-0.2,0l0,0c0,0.2,0.1,0.3,0.3,0.4C6,20,6.1,20,6.1,20.1
		c0.1,0,0.1,0.1,0.1,0.1c0,0.1-0.1,0.1-0.1,0.1c-0.2,0.1-0.4,0.1-0.7,0.1c-0.3,0-0.6,0-0.8,0c-0.3,0-0.5,0.1-0.8,0.1l0,0
		c0-0.1,0.1-0.2,0.1-0.3c0.1-0.2,0-0.5,0-0.7c-0.1-0.2-0.1-0.4-0.1-0.7c0-0.2,0-0.4,0.1-0.7c0,0,0-0.1,0.1-0.1l0.1,0.1
		c0.1,0.1,0.1,0.2,0.2,0.3c0,0.1,0.1,0.1,0.1,0.1c0.1,0.1,0.1,0.1,0.1,0.1c0.1,0,0.1,0,0.1,0c0-0.1,0-0.1,0-0.2h0.1
		c0.3,0,0.5-0.1,0.7-0.1c0,0,0.1,0,0.1-0.1c0.3-0.3,0.6-0.7,0.8-1c0.1-0.2,0.4-0.4,0.5-0.7c0.1-0.1,0.1-0.1,0.1-0.3
		c0-0.1,0-0.1,0-0.2S7,15.8,7,15.7c0.1-0.1,0.4-0.3,0.4-0.6l0,0C7.4,15,7.5,15,7.5,15c-0.1-0.1-0.1-0.1-0.1-0.2
		C7.2,15,7.1,14.9,7,14.9c-0.3-0.1-0.6-0.1-0.8,0.1C6.1,15,5.9,15,5.7,15.2z M12.6,13.3L12.6,13.3c-0.1-0.3-0.1-0.5-0.3-0.8
		c0-0.1-0.1-0.1-0.1-0.2c0.3,0.1,0.6,0.3,0.9,0.4c-0.1-0.1-0.1-0.1-0.2-0.2c-0.2-0.2-0.4-0.4-0.6-0.6c-0.3-0.4-0.7-0.7-1-1.1
		c-0.3-0.3-0.6-0.7-1-1c-0.2-0.3-0.4-0.5-0.7-0.7C9.4,9,9.3,8.8,9.1,8.7C8.9,8.4,8.6,8.1,8.4,7.8S8,7.1,7.7,6.8S7.3,6.3,7.2,6.1
		S6.8,5.7,6.6,5.6S6.3,5.3,6.1,5.2C5.8,5,5.4,4.8,5,4.6c0,0,0,0-0.1,0C5,4.9,5.1,5.1,5.2,5.4c0.1,0.1,0.1,0.3,0.2,0.5
		c0.3,0.4,0.6,0.9,1,1.2c0.3,0.2,0.7,0.5,1,0.8c0.4,0.3,0.7,0.6,1,0.9C8.8,9.2,9.1,9.6,9.5,10c0.1,0.2,0.3,0.4,0.5,0.6
		c0.1,0.1,0.3,0.3,0.4,0.4c0.2,0.3,0.5,0.6,0.7,0.8c0.4,0.4,0.7,0.7,1,1.1C12.3,13.1,12.4,13.2,12.6,13.3z M18.2,4.4L18.2,4.4
		c-0.1,0-0.1,0-0.1,0c-0.2,0.1-0.4,0.2-0.7,0.4C17.2,4.9,17,5,16.9,5.2c-0.1,0.1-0.3,0.3-0.4,0.4c-0.3,0.3-0.5,0.6-0.7,0.9
		s-0.4,0.7-0.7,1c-0.2,0.3-0.4,0.5-0.6,0.8c-0.3,0.3-0.6,0.6-0.8,0.9c-0.4,0.4-0.7,0.7-1,1.1c-0.1,0.1-0.1,0.2-0.3,0.3
		c0.2,0.1,0.4,0.3,0.6,0.4c0.1-0.1,0.1-0.1,0.1-0.1c0.1-0.1,0.2-0.2,0.3-0.4c0.2-0.2,0.4-0.5,0.7-0.7c0.2-0.2,0.4-0.5,0.6-0.7
		c0.2-0.2,0.4-0.4,0.7-0.7s0.6-0.6,1-0.9c0.2-0.2,0.5-0.4,0.7-0.7c0.2-0.2,0.4-0.4,0.7-0.7C17.9,6,18,5.7,18.2,5.6
		c-0.1-0.3-0.1-0.5,0-0.7C18.1,4.9,18.1,4.6,18.2,4.4z M10.2,11.6C10.2,11.6,10.2,11.7,10.2,11.6c0.1,0.1,0.3,0.3,0.4,0.4
		c0.3,0.2,0.5,0.4,0.8,0.6c0.1,0,0.1,0.1,0.1,0.1c0.1,0.2,0.2,0.5,0.3,0.7c0,0.1,0.1,0.1,0.1,0.2c0.2,0.1,0.5,0.2,0.7,0.3
		C12.7,14,12.8,14,13,14c-0.1-0.1-0.1-0.2-0.2-0.3s-0.1-0.1-0.2-0.1c-0.2-0.1-0.4-0.1-0.6-0.2l-0.1-0.1c-0.1-0.2-0.1-0.4-0.1-0.7
		c0-0.1-0.1-0.1-0.1-0.2c-0.1-0.1-0.2-0.2-0.3-0.4l-0.1-0.1c-0.1-0.1-0.4-0.1-0.6-0.2C10.5,11.7,10.4,11.7,10.2,11.6z M11.6,10.3
		C11.6,10.3,11.6,10.4,11.6,10.3c0.1,0.3,0.2,0.6,0.3,0.9c0.1,0.1,0.1,0.3,0.2,0.4c0.1,0.1,0.2,0.2,0.3,0.3l0.1,0.1
		c0.2,0.1,0.4,0.1,0.7,0.2c0.1,0,0.1,0.1,0.1,0.1c0.1,0.1,0.1,0.3,0.1,0.4c0.1,0.1,0.1,0.4,0.2,0.4c0.1,0.1,0.1,0.1,0.1,0.1
		s0.1,0,0.1,0.1c0-0.1-0.1-0.2-0.1-0.3c-0.1-0.3-0.1-0.6-0.3-0.9c0-0.1-0.1-0.1-0.1-0.1c-0.1-0.1-0.4-0.1-0.5-0.2
		c-0.2-0.1-0.4-0.2-0.4-0.4c-0.1-0.2-0.3-0.4-0.4-0.7C11.9,10.6,11.8,10.5,11.6,10.3z M14.2,13.9L14.2,13.9c0.1,0.3-0.1,0.7-0.7,0.5
		c0.3,0.4,0.6,0.6,0.9,0.9c0-0.2-0.1-0.4-0.1-0.6c0-0.1,0-0.1,0.1-0.1s0.1,0.1,0.2,0.1s0.2,0.1,0.3,0.1l0,0
		C14.7,14.4,14.5,14.2,14.2,13.9z M8.4,14.7L8.4,14.7c0.1,0,0.1,0,0.2-0.1c0.1-0.1,0.3-0.1,0.4-0.1c0.1,0,0.1,0,0.1,0.1
		s0,0.4-0.1,0.5v0.1c0.3-0.3,0.6-0.6,0.9-0.9c-0.2,0.1-0.4,0.1-0.5-0.1c-0.1-0.1-0.1-0.3-0.1-0.4l0,0C9,14.1,8.7,14.4,8.4,14.7z
		 M4.2,19.1c0.1,0.2,0.1,0.4,0.2,0.5s0.1,0.2,0.3,0.2c0.1,0,0.1,0.1,0.2,0.1s0.1,0,0.3,0c-0.1-0.2-0.1-0.5-0.2-0.7
		C4.7,19.1,4.4,19.1,4.2,19.1z M18.4,19.9c0.2,0,0.4-0.1,0.5-0.1s0.1-0.1,0.1-0.1c0.1-0.1,0.2-0.4,0.2-0.6c-0.3,0-0.5,0.1-0.7,0.1
		C18.5,19.4,18.4,19.6,18.4,19.9z M13.3,14.2c0-0.1-0.1-0.2-0.1-0.3c0-0.2,0.1-0.4,0.4-0.4c0.1,0,0.2,0.1,0.3,0.1
		c-0.1-0.1-0.2-0.2-0.3-0.4c0,0.1,0,0.1,0,0.2c-0.2-0.1-0.4-0.1-0.6-0.1c0,0.2,0.1,0.4,0.1,0.6c-0.1,0-0.1,0-0.2-0.1
		C13.2,14,13.2,14.1,13.3,14.2z M10.2,13.9c0-0.1,0-0.2,0-0.3s0-0.1,0-0.3c-0.2,0.1-0.4,0.1-0.6,0.1c0-0.1,0-0.1,0-0.1
		c-0.1,0.1-0.2,0.2-0.2,0.3c0.1,0,0.1-0.1,0.3-0.1C9.9,13.4,10.1,13.6,10.2,13.9c-0.1,0-0.1,0.1-0.1,0.3c0.1-0.1,0.2-0.2,0.3-0.3
		C10.3,13.8,10.2,13.8,10.2,13.9z M10.2,12.8c0.1,0,0.2-0.1,0.4-0.1c0-0.1-0.1-0.1-0.1-0.1C10.4,12.5,10.2,12.6,10.2,12.8z
		 M10.7,13.5C10.8,13.5,10.8,13.5,10.7,13.5c0.1,0,0.1,0,0.2-0.1c0-0.1,0-0.1-0.1-0.1C10.9,13.3,10.8,13.4,10.7,13.5z M10.8,13.3
		c0.1,0,0.1-0.1,0.1-0.1C10.8,13.2,10.8,13.2,10.8,13.3z"/>
</g>
</svg>
