<?xml version="1.0" encoding="utf-8"?>
<!-- Generator: Adobe Illustrator 24.0.0, SVG Export Plug-In . SVG Version: 6.00 Build 0)  -->
<!DOCTYPE svg PUBLIC "-//W3C//DTD SVG 1.1//EN" "http://www.w3.org/Graphics/SVG/1.1/DTD/svg11.dtd" [
	<!ENTITY ns_extend "http://ns.adobe.com/Extensibility/1.0/">
	<!ENTITY ns_ai "http://ns.adobe.com/AdobeIllustrator/10.0/">
	<!ENTITY ns_graphs "http://ns.adobe.com/Graphs/1.0/">
	<!ENTITY ns_vars "http://ns.adobe.com/Variables/1.0/">
	<!ENTITY ns_imrep "http://ns.adobe.com/ImageReplacement/1.0/">
	<!ENTITY ns_sfw "http://ns.adobe.com/SaveForWeb/1.0/">
	<!ENTITY ns_custom "http://ns.adobe.com/GenericCustomNamespace/1.0/">
	<!ENTITY ns_adobe_xpath "http://ns.adobe.com/XPath/1.0/">
]>
<svg version="1.1" id="Layer_1" xmlns:x="&ns_extend;" xmlns:i="&ns_ai;" xmlns:graph="&ns_graphs;"
	 xmlns="http://www.w3.org/2000/svg" xmlns:xlink="http://www.w3.org/1999/xlink" x="0px" y="0px" viewBox="0 0 24 24"
	 style="enable-background:new 0 0 24 24;" xml:space="preserve">
<style type="text/css">
	.st0{fill:none;}
	.st1{fill:#D5D9E0;}
</style>
<metadata>
	<sfw  xmlns="&ns_sfw;">
		<slices></slices>
		<sliceSourceBounds  bottomLeftOrigin="true" height="24" width="23.2" x="0" y="0"></sliceSourceBounds>
	</sfw>
</metadata>
<ellipse class="st0" cx="11.6" cy="12" rx="11.6" ry="12"/>
<g transform="translate(0.000000,2048.000000) scale(0.100000,-0.100000)">
	<path class="st1" d="M122.7,20460.5c-4-0.4-9.4-1.8-13.7-3.4c-2.8-1.1-8.8-4.1-12-6c-3.3-2-3.2-1.6-1.6-3.9
		c2.4-3.5,3.6-6.4,4.9-11.8c0.6-2.6,0.8-3.7,1.3-7.9c0.1-0.6,0.3-5,0.4-9.9c0.2-5.9,0.4-9.3,0.6-10.5c0.2-1,1.3-4.1,2.3-7
		c1.2-3.1,2.2-6.5,2.7-8.4c0.4-1.7,0.8-3.4,1-3.8s0.4-1.9,0.4-3.4l0.2-2.8l2.3-0.3c19.1-2.3,39.6-8.4,54.6-16
		c12-6.2,21.7-14.2,26-21.5c0.4-0.7,0.8-1.3,0.9-1.3s0.4,0.3,0.5,0.7c0.4,0.7,4,5.9,6.3,8.9c1.8,2.4,3.1,3.9,7.5,8.7
		c4.8,5.3,5.9,6.7,6.9,8.9c0.4,1.1,1.1,2.4,1.4,3c0.8,1.3,1.1,2.4,1.3,4.9c0.3,3.6-0.7,9.7-2.1,12.7c-0.8,1.8-3,4.8-5.5,7.7
		c-2.5,2.9-3.5,4.6-4.8,8.2c-1.2,3.2-1.4,3.6-2.8,5s-2.3,2-4.4,2.3c-1.3,0.3-1.5,0.4-1.6,1c-0.6,2.8-1.3,4-2.4,5.2
		c-1,0.9-1.8,1.2-5,1.5c-3,0.4-3.6,0.6-3.6,1.6c0,0.4,0,2.5,0.1,4.8c0.1,3.7,0,4.5-0.4,6.1c-0.7,2.7-1.3,4-2.6,5.3
		c-2.2,2.2-5.1,3-8.9,2c-2.2-0.6-4.9-0.5-6.5,0.1c-0.4,0.2-2,1.5-3.4,3c-5.9,6-12.4,10.3-20.4,13.4c-3,1.2-5.5,1.7-10.3,2.3
		C128.1,20460.8,126,20460.8,122.7,20460.5z M125.1,20431.5c0.8-0.5,2.1-1.4,2.7-2.1l1.3-1.2h-1c-0.5,0-1.6,0.1-2.5,0.3
		c-1.4,0.3-3.9,0-7-0.6l-0.7-0.2l0.9,1.7c0.4,0.9,1.3,2.1,1.7,2.5c0.8,0.7,1,0.8,2,0.6C123.2,20432.4,124.3,20431.9,125.1,20431.5z"
		/>
	<path class="st1" d="M89.9,20445.5c-0.3-0.2-2.3-0.8-4.5-1.3c-6.5-1.6-11.3-3.7-16-6.8c-2.6-1.8-5.8-4.7-7.2-6.5
		c-2.2-3.2-4.2-6.4-5.4-8.8c-3-5.9-5.8-8.6-10.8-10.4c-2.5-0.9-10.2-2.4-15.4-3c-5.5-0.6-10.5-2.4-11.9-4.2c-1-1.3-1.7-3.1-1.7-4.5
		s0.7-3.8,1.7-5.2c0.8-1.3,3.7-4.2,4.1-4.2c0.7,0,0-0.9-2.1-2.5c-3.7-2.9-4.8-5-4.6-7.9c0.2-1.3,0.1-1.4-1-2.9
		c-3-3.7-3-6.5-0.4-10.3c0.6-0.9,1.2-2,1.3-2.5c0.2-1.1-0.7-3.9-2.9-8.7c-2.1-4.5-2.6-6.6-2.6-9.5c0-1.9,0.1-2.3,0.8-4
		c2.2-5,4.7-7.1,11.7-9.4c4.2-1.4,6.9-1.8,10-1.4c2.8,0.4,12.2,3,15.1,4.1c3.4,1.4,11.1,6.1,15.1,9c2.1,1.5,5,3.6,6.6,4.6
		c3.2,2,10.7,7.5,16.2,12c3.9,3.2,11.7,10.8,13.6,13.3c1.3,1.7,2.2,3.7,3.6,6.7c0.8,1.9,0.8,2.1,0.8,5c0,3.6-0.4,5.1-1.9,8.5
		c-1.7,3.7-3.8,10-4.1,12.7c-0.2,1.3-0.4,5.3-0.6,8.8c-0.4,11.6-1,16.1-2.7,21.6c-0.8,2.6-2.4,6-3.6,7.3
		C90.5,20445.9,90.4,20445.9,89.9,20445.5z"/>
	<path class="st1" d="M105.8,20375.5c-2.2-4.8-8.3-11.1-17.1-18.3c-8.3-6.7-14.2-10.8-26.8-18.8c-2-1.3-4.6-3-5.7-3.7
		c-2.5-1.8-5.5-3.3-8.3-4.5c-1.2-0.4-3.1-1.3-4.4-2c-1.2-0.6-2.7-1.3-3.3-1.5c-1-0.4-1.2-0.6-1.3-1.3c-1.8-11.1-2.5-17.6-2.2-23.3
		c0.2-4.2,0.7-6.6,2.2-9.9c2.8-5.8,9.3-10.4,18.6-12.8c2.2-0.5,3.1-0.6,8.8-0.4c3.7,0.1,4.7-0.1,8.5-1.8c2.8-1.3,2.8-1.3,5.4-1.3
		c2.3,0,2.7,0.1,3.7,0.7c0.6,0.4,1.4,1.1,1.7,1.5c0.6,1,1.1,1.1,4.6,0.4c2.3-0.4,3-0.5,14.2-0.4c9.9,0.1,12.3,0.2,15.7,0.6
		c11.9,1.5,14.4,2.2,20.6,5.6c6.1,3.3,8.3,4.1,14.6,5.3c3.7,0.7,5.6,1.3,9.4,3c6.6,2.9,12.3,7.2,17.4,13.3c5,6,6.6,9,8.6,16.1
		c1.1,4,1.2,4.5,1.3,8c0.1,2.9,0,3.9-0.3,4.8c-0.2,0.6-0.4,1.6-0.5,2.2c-0.4,3-7.6,11.4-13.6,15.9c-13.1,9.9-31.8,17.6-53.4,21.8
		c-4.8,1-15.6,2.7-16.6,2.7C107,20377.4,106.6,20377,105.8,20375.5z M126.2,20355c1.5-2.1,3.6-4.6,4.5-5.6s2.1-2.5,2.4-3.4l0.8-1.5
		l-0.2-2.8c-0.2-2.9-0.4-4.5-0.9-4.7c-0.4-0.2-4,2.4-5.4,3.9c-1.7,1.8-3.3,5.4-4.2,9.5c-0.4,2.3-0.4,8.4,0,8.4
		C123.3,20358.7,124.5,20357.1,126.2,20355z M143.6,20303.2c0.9-0.5,2.5-2.3,3.9-4.3c1.4-2.2,1.9-3.2,2.2-4.7l0.2-1.3l-1.6-0.2
		c-0.9-0.1-2.2-0.4-3-0.5c-1.3-0.4-1.3-0.4-2.1,0.4c-0.4,0.4-0.8,0.9-1,1.3c-0.5,1-0.9,4.4-0.8,6.7
		C141.5,20303.6,141.9,20304.2,143.6,20303.2z"/>
	<path class="st1" d="M214.9,20362c-0.6-0.7-2.8-3.1-4.9-5.5c-2.2-2.3-4.7-5.3-5.6-6.5c-5.9-7.8-8.1-11.4-8-13.3
		c0-0.5,0.1-2.8,0.2-5c0.2-4.6,0.1-4.9-1.5-11.1c-1.6-6.3-3.4-10-6.5-14.2c-7.2-9.5-14.2-15.1-23.7-19c-3.4-1.3-5.3-1.9-9.4-2.7
		c-4.1-0.7-9-2.4-12.3-4.1c-1.3-0.6-2.4-1.3-2.6-1.5c-0.3-0.2,0.4-1,3-3.4c3.1-3,3.3-3.3,6-4.6c1.5-0.7,3.8-1.7,5-2.1
		c2.2-0.7,5.7-1.3,6.9-1.1c0.4,0.1,2.4,0.4,4.6,0.6c6.3,0.8,8.2,1.5,11.3,4.5c1.8,1.6,2.2,1.9,3.8,2.3c3.8,1.1,4.7,1.6,6.8,3.9
		c1.5,1.6,2.2,2.2,3,2.4c1.1,0.4,3,2.2,3.8,3.7c0.5,1.1,0.5,1.1,2.8,1.7c4.2,1.1,6.1,3.2,6.7,7.6c0.3,2.2,0,3.8-1.3,8.9
		c-0.4,1.3-0.7,3.1-0.8,4.2c-0.2,3,0.1,3.6,7.5,11c3.4,3.5,6.6,6.9,7.2,7.5c1.3,1.7,3.4,5.9,4,7.5c0.6,1.9,0.9,3,1.3,6.3
		c0.8,5.6-0.4,13-2.8,17.2c-0.3,0.4-1,2-1.6,3.5c-0.6,1.4-1.3,2.6-1.3,2.6C216,20363.4,215.5,20362.7,214.9,20362z"/>
</g>
</svg>
