<?xml version="1.0" encoding="utf-8"?>
<!-- Generator: Adobe Illustrator 24.0.0, SVG Export Plug-In . SVG Version: 6.00 Build 0)  -->
<!DOCTYPE svg PUBLIC "-//W3C//DTD SVG 1.1//EN" "http://www.w3.org/Graphics/SVG/1.1/DTD/svg11.dtd" [
	<!ENTITY ns_extend "http://ns.adobe.com/Extensibility/1.0/">
	<!ENTITY ns_ai "http://ns.adobe.com/AdobeIllustrator/10.0/">
	<!ENTITY ns_graphs "http://ns.adobe.com/Graphs/1.0/">
	<!ENTITY ns_vars "http://ns.adobe.com/Variables/1.0/">
	<!ENTITY ns_imrep "http://ns.adobe.com/ImageReplacement/1.0/">
	<!ENTITY ns_sfw "http://ns.adobe.com/SaveForWeb/1.0/">
	<!ENTITY ns_custom "http://ns.adobe.com/GenericCustomNamespace/1.0/">
	<!ENTITY ns_adobe_xpath "http://ns.adobe.com/XPath/1.0/">
]>
<svg version="1.1" id="Layer_1" xmlns:x="&ns_extend;" xmlns:i="&ns_ai;" xmlns:graph="&ns_graphs;"
	 xmlns="http://www.w3.org/2000/svg" xmlns:xlink="http://www.w3.org/1999/xlink" x="0px" y="0px" viewBox="0 0 24 24"
	 style="enable-background:new 0 0 24 24;" xml:space="preserve">
<style type="text/css">
	.st0{fill:none;}
	.st1{fill:#D5D9E0;}
</style>
<metadata>
	<sfw  xmlns="&ns_sfw;">
		<slices></slices>
		<sliceSourceBounds  bottomLeftOrigin="true" height="24" width="23.2" x="0" y="0"></sliceSourceBounds>
	</sfw>
</metadata>
<ellipse class="st0" cx="11.6" cy="12" rx="11.6" ry="12"/>
<g transform="translate(0.000000,2048.000000) scale(0.100000,-0.100000)">
	<path class="st1" d="M32.2,20427.6c-0.2-0.3-0.3-0.3-0.1-0.6c0.2-0.6,0.4-1.6,0.4-2.5c0-1.2-0.7-3.8-1.3-5.1
		c-1.3-2.5-3.6-5.1-6-6.9c-1.3-0.9-3.4-2.1-4.8-2.5c0,0,0.1-0.3,0.2-0.6c1.6-3.7,1.3-9.2-0.8-13.7c-0.3-0.6-0.7-1.3-0.9-1.7
		c-0.3-0.4-0.4-0.8-0.5-1c-0.1-0.8,0.2-6.5,0.3-7.3c0.3-1.5,0.9-3.7,1.6-5.4c0.9-2.2,2.1-4.3,3.6-6.3c1.9-2.5,2-2.6,1.7-1.8
		c-0.2,0.6-0.5,2.5-0.6,3.5c-0.1,1.4,0.2,3.2,0.6,4.3c0.4,1.1,1.2,2.6,2,3.5c0.9,1,3.3,2.5,5.8,3.5l0.8,0.3l7.6-1.9
		c4.2-1.1,10.8-2.8,14.8-3.8c4-1,11.1-2.9,15.8-4.1l8.6-2.2l-1.2-1c-0.9-0.8-1.2-1.1-1.3-1.5c-0.1-0.3-0.2-0.5-0.1-0.5
		c0,0,0.5,0.1,1.1,0.3c2,0.7,4.3,1,6.5,0.9c1.3-0.1,1.4-0.1,4.6-1c3.1-0.9,3.3-1,4.2-1.5c1.4-0.8,2.1-1.3,3.3-2.4
		c1.6-1.3,2.6-2.6,3.6-4.3c1.5-2.5,2.1-5,1.9-7.6l0-0.7l0.3,0.2c0.2,0.1,0.5,0.4,0.8,0.7c0.4,0.4,0.5,0.5,0.7,0.4c0.1,0,0.6,0,1,0
		c1.3,0.2,2.2,0.1,3.5-0.3c1-0.3,1.3-0.5,2-1c1.6-1.2,3.1-3.2,3.9-5.6c0.5-1.4,1.1-4.3,1.2-6c0.2-4-0.4-8.3-1.7-12
		c-0.3-1-0.7-2.1-0.9-2.4c-0.4-0.8-0.5-1.5-0.4-1.8c0.3-0.8,1.2-1.2,1.9-0.8c0.6,0.3,10.1,6.9,10.7,7.4c0.5,0.4,0.6,0.7,0.5,1.2
		c-0.1,0.5-0.4,0.7-1.6,1.1c-1.2,0.3-1.9,0.7-2.6,1.3c-1.1,0.9-1.7,2.5-1.6,4c0.2,2.9,2.8,5.9,6.2,7.2c3.3,1.3,6.8,1.1,8.8-0.7
		c0.7-0.6,1.3-1.8,1.5-2.6c0.5-2.6-1.2-5.6-4.1-7.5c-0.8-0.5-1-0.7-1.1-1.2c-0.1-0.5,0.2-1.1,0.8-1.3c0.6-0.2,2.2,0.3,4.3,1.2
		c1.7,0.7,3.8,2.4,4.9,3.8c0.3,0.4,0.7,0.8,0.8,0.9c0.2,0.2,4.2,1.7,4.7,1.8l0.4,0.1l0.1-0.7c0.5-3.2-1.3-6.4-4.6-8.2
		c-1.8-1-3.9-1.5-6-1.5c-1,0-1.4,0.1-2.8,0.5c-0.9,0.2-2.1,0.6-2.6,0.8c-1.1,0.5-1.3,0.4-2.6-0.3c-2.6-1.6-5.5-4.6-7.8-8.1
		c-1.5-2.3-1.7-2.8-1.4-3.4c0.1-0.2,0.3-0.5,0.5-0.5c0.4-0.2,1.1-0.1,1.5,0.3c1.9,1.7,2.1,1.9,4.1,3c1.3,0.7,2.5,1.3,3.1,1.5
		c0.9,0.3,1,0.3,2,0.1c3.7-0.7,9.4,0,13.7,1.7c1.2,0.5,2.9,1.5,4.1,2.3c1.1,0.8,2.2,1.4,2.2,1.3c0.1-0.2,6-34.6,5.9-34.7
		c0-0.1-0.7-0.6-1.4-1.3c-2.1-1.7-5.2-4.5-7.2-6.4l-1.7-1.7l0.7-0.3c0.4-0.1,1.4-0.4,2.3-0.6c1.9-0.4,3.6-0.4,5.4-0.2
		c2.2,0.3,6.1,1.2,7.3,1.6l1.1,0.4l9.4-2.2c5.2-1.2,11.3-2.6,13.6-3.2c2.3-0.5,4.8-1.1,5.4-1.3c1.4-0.3,1.5-0.3,1.9,0.2
		c0.5,0.7,1,5,1.1,9.1c0.2,8.8-2.1,19.5-5.2,25c-1.6,2.8-2.7,4.5-3.3,5.3c-0.9,1.1-2.7,4.1-3.5,6c-1.2,2.6-2.2,6.1-2.3,8
		c0,0.3,0,0.9,0,1.3c-0.1,2.3,0.7,4.7,2.1,6.3c1.6,1.8,3.8,2.8,7.6,3.4c0.3,0,1.6-0.1,3.6-0.4l3.2-0.5l2.1,0.4
		c2.5,0.4,2.8,0.6,3,1.3c0.2,0.4,0.2,0.6,0,0.9c-0.1,0.2-0.3,0.5-0.4,0.5c-0.3,0.2-10,4.1-10.5,4.2c-0.2,0.1-0.9,0.2-1.6,0.3
		c-1.3,0.2-2.4,0.6-3.7,1.2c-1.3,0.7-2.8,1.7-2.7,1.8c0.1,0,0.9-0.1,1.9-0.2c2.6-0.4,9-2.2,11-3c1.6-0.7,4.4-1.8,5-2
		c0.8-0.2,1.6,0.6,1.3,1.4c-0.2,0.5-4.8,4.6-7.3,6.4c-2,1.5-3.8,2.5-5.5,2.9c-1.1,0.3-1.3,0.3-2.1,0.2c-0.5,0-1.7-0.3-2.6-0.6
		c-1.3-0.4-1.9-0.5-2.9-0.5c-0.7,0-1.5,0-1.8,0.1c-0.5,0.1-1.8,0.8-1.9,1c-0.1,0.2,0.6,1.9,1,2.7c0.5,0.9,1.6,2.1,2.3,2.6
		c1,0.6,1.2,0.9,1,1.6c-0.1,0.5-0.6,0.8-1.7,1.3c-0.5,0.2-1.7,0.8-2.8,1.3c-1,0.5-2.3,1.2-2.8,1.4c-1.3,0.7-1.8,0.8-2.3,0.5
		c-0.8-0.5-0.7-1.4,0.4-2.3c0.3-0.3,0.8-0.8,1.1-1.3c0.5-0.7,0.6-1.1,0.8-2.1c0.2-1.1,0.2-3.4,0.1-3.5c-0.2-0.1-1.5,1.8-2.4,3.3
		c-0.5,0.9-1.2,2.2-1.5,2.9c-1.8,4.1-2.9,9.4-2.5,11.9c0.2,1.1,0,1.9-0.5,2.6c-0.7,0.9-0.7,0.9-7.8,3c-1.2,0.4-3.1,0.9-4.1,1.2
		c-1,0.3-3,0.9-4.4,1.3c-1.4,0.4-3.2,0.9-4,1.2c-0.8,0.2-2.8,0.8-4.4,1.3c-1.6,0.5-3.4,1-4,1.2c-0.6,0.2-2.5,0.8-4.3,1.3
		c-1.8,0.5-3.6,1.1-4.1,1.2c-0.4,0.1-2.4,0.7-4.4,1.3c-2,0.6-3.8,1.1-4.1,1.2c-0.7,0.3-8,2.4-8.9,2.6c-0.8,0.2-1.8,0.3-2.6,0.1
		c-0.2,0-3.8-0.3-7.8-0.5l-7.4-0.4l-22.7,6.4c-30,8.4-32.9,9.2-33.5,9.3l-0.5,0l-0.4,0.9c-1,2.4-3.1,5.4-5.2,7.3
		c-0.6,0.5-2.2,1.6-2.5,1.7C32.5,20427.8,32.3,20427.7,32.2,20427.6z M35.3,20421.1c0.3-0.8,1.6-2.9,2.3-3.9c0.9-1.2,2.5-3,3.2-3.5
		c0.4-0.3,0.7-0.6,0.7-0.7c0-0.1-0.4-0.3-1.5-0.5c-0.8-0.2-1.9-0.5-2.4-0.6c-0.5-0.2-1.7-0.5-2.7-0.7c-1-0.2-2.2-0.6-2.7-0.7
		c-0.5-0.2-1-0.3-1-0.3c0,0-0.3,0.4-0.5,0.8c-0.2,0.4-0.5,1-0.7,1.3c-0.2,0.3-0.3,0.6-0.3,0.6c0,0,0.5,0.6,1,1.2
		c0.5,0.6,1.3,1.7,1.8,2.3c0.4,0.7,0.9,1.3,1,1.4c0.2,0.2,0.3,0.6,0.8,2.2c0.3,1.1,0.6,2,0.6,1.9
		C35,20421.9,35.1,20421.5,35.3,20421.1z M134.4,20388.7c0.5-0.2,0.6-0.3,0.4-0.3c-0.1,0-0.9-0.1-1.7-0.2c-3.7-0.4-6.6-1-9.2-1.9
		l-0.3-0.1l0.5,1.9c0.5,1.8,0.8,2.8,1.1,2.9C125.4,20391.2,133,20389.3,134.4,20388.7z M149.8,20382.2c1.1-0.6,2-1.1,2-1.1
		c0,0-0.4-1.7-0.9-3.7l-0.9-3.6l-0.8,0.2c-4.4,1.2-11.1,1.2-15.4-0.1c-0.8-0.2-0.9-0.2-1.3,0c-0.5,0.3-1.8,2-2.7,3.4
		c-0.3,0.5-0.9,1.4-1.3,2c-0.4,0.6-1,1.5-1.3,2l-0.6,0.9l1.5,0.4c3.9,0.9,10.3,1.5,13.3,1.2c0.6-0.1,1.9-0.2,2.8-0.4
		c1.9-0.3,2.3-0.3,2.9-0.1c0.2,0.1,0.5,0.1,0.6,0.1S148.7,20382.8,149.8,20382.2z M49.2,20407.6c3.2-0.9,8.8-2.6,12.5-3.6
		c3.7-1.1,9.2-2.7,12.4-3.6s10.8-3.1,17.1-4.9l11.3-3.2l0.5-0.4c1-0.9,2.8-3.1,2.8-3.4c0-0.5-4.1-1.7-6.6-2l-1.2-0.1l-5.5,1.5
		c-3,0.8-5.5,1.5-5.5,1.6c0,0-3.6,1.1-7.9,2.2c-10.4,2.9-31.3,8.7-33.9,9.5c-2.8,0.8-5.3,1.9-8.7,3.8c-3.2,1.7-3.7,2-4.1,2.4
		l-0.5,0.4l0.7,0.2c2.2,0.6,5.7,1.2,7.3,1.4c1.1,0.1,2.2,0.3,2.6,0.3c0.5,0.1,0.7,0.1,0.9-0.1C43.2,20409.3,46,20408.5,49.2,20407.6
		z M29,20408.1c1.2-1.8,2.5-3.1,3.8-4.1c0.9-0.7,3.5-2.2,4.8-2.8l1.2-0.6l-0.8-0.5c-1.3-0.9-3.7-2.7-4.3-3.3c-1.1-1.1-2.4-3-2.6-3.9
		c0-0.2-0.1-0.3-0.2-0.4c-0.1,0-6.9,16-7,16.4c0,0.1,0.4,0.4,1,0.6c0.6,0.3,1.3,0.7,1.7,0.9l0.7,0.5l0.6-1.1
		C28.3,20409.2,28.8,20408.4,29,20408.1z M123.2,20378.7c0.6-0.9,1.3-2,1.6-2.4c0.3-0.4,0.8-1.2,1.1-1.7c0.3-0.5,0.9-1.3,1.3-1.8
		c0.4-0.5,0.7-1,0.6-1c0,0-0.7-0.2-1.4-0.5c-1.8-0.6-3.8-1.5-6-2.7l-1.9-1l1.7,6.4c1,3.5,1.8,6.4,1.8,6.4
		C122.1,20380.4,122.6,20379.6,123.2,20378.7z M148.1,20366.4c-0.4-1.5-0.7-2.8-0.7-2.8c0,0-0.6,0.1-1.2,0.2
		c-1.4,0.3-3.4,1.2-5.5,2.3c-1.5,0.8-5.1,3.1-5.1,3.3c0,0.1,1.8,0.4,3.2,0.5c3.3,0.3,6.2,0.1,9.4-0.7l0.5-0.1L148.1,20366.4z
		 M26.9,20394.1c1.4-3.3,2.5-6.1,2.5-6.2c0-0.1-0.4-0.4-0.8-0.7c-0.4-0.3-1.2-1-1.8-1.4l-1-0.8l-0.7,1.3c-1.3,2.2-2,4.5-2.4,7.9
		c-0.1,0.6-0.2,1.2-0.2,1.3c-0.1,0.2,0,0.4,0.4,1.2c0.3,0.5,0.7,1.6,0.9,2.4c0.3,0.8,0.5,1.4,0.5,1.3
		C24.3,20400.2,25.5,20397.4,26.9,20394.1z M85.4,20383c4.9-1.9,5.8-2.3,7.7-3.2c2.7-1.3,6.7-3.3,7.2-3.7c0.4-0.3,0.3-0.3-1.5,0.3
		c-1,0.3-3.7,1.1-5.9,1.7c-2.2,0.6-15.5,4.3-29.5,8.2s-26.1,7.4-26.9,7.6c-0.8,0.2-1.5,0.4-1.4,0.5c0,0.1,0.5,0.5,1.1,1l1.1,0.9
		l23.1-6.3C82.8,20384,83.5,20383.8,85.4,20383z M131.3,20366.8c1-1,2.1-1.8,4.2-3.1c3.6-2.3,6.4-3.6,9.1-4.3l1.6-0.4l-0.4-1.3
		l-0.4-1.3l-2,0.5c-4.8,1.1-8.4,1.5-17.3,1.8c-1.2,0-2.6,0.1-3.1,0c-0.5,0-1,0-1.1,0c-0.3,0.1-1.3,1.3-2,2.3c-0.3,0.6-0.6,1-0.6,1.1
		c0,0.2,1.1,0.9,2.3,1.7c1.1,0.7,3.9,2.1,5.1,2.6c1.1,0.4,3.6,1.1,3.8,1.1C130.6,20367.5,130.9,20367.2,131.3,20366.8z
		 M174.4,20348.6c-1.9-0.8-3.3-1.5-5.9-2.7c-6.1-2.9-9.3-4.3-9.3-4.2c0,0.1,2,1.9,2.9,2.7c1.8,1.5,2.9,2.3,4.9,3.5
		c1.4,0.8,1.2,0.8,5.4,0.9C174.6,20348.8,174.8,20348.8,174.4,20348.6z M179.5,20346.9c-0.3-0.4-1.2-2.2-1.5-2.9
		c-0.2-0.5-0.5-1.4-0.8-2.1l-0.4-1.3l-1,0.2c-3.5,0.7-5.9,0.9-7.9,0.8c-0.8,0-1.5-0.1-1.5,0c0,0.1,13,5.4,13.1,5.4
		C179.5,20347,179.5,20347,179.5,20346.9z M21.3,20387.5c0.6-1.6,1.5-3.2,2.4-4.5l0.4-0.6l-0.4-1.6c-0.2-0.9-0.4-1.8-0.5-2.1
		c-0.1-0.4-0.1-0.6-0.2-0.6c-0.3,0.1-1.6,3.2-2,4.7c-0.5,1.9-0.7,4.1-0.6,6c0,0.2,0,0.4,0,0.6c0,0.2,0,0.2,0.1,0
		C20.5,20389.3,20.9,20388.5,21.3,20387.5z M176.3,20335.9c0-0.5,0-1.4,0.1-1.9s0.1-0.9,0.1-0.9c0,0-1.2,0.5-2.7,1.2
		c-5,2.4-8.7,3.8-11.1,4.2c-0.6,0.1-1,0.2-1.1,0.2c-0.1,0.1,3.5,0.1,5.6-0.1c1.4-0.1,3.4-0.4,4.8-0.6c0.2,0,1.3-0.3,2.4-0.6l2-0.5
		L176.3,20335.9z M167.9,20328.3c8-3.3,14-9.7,17.6-18.7c0.6-1.4,1.5-4.3,1.5-4.4c0,0-0.3,0.3-0.6,0.8c-1.5,2.2-4.3,5.6-6.5,7.9
		c-6,6.4-13,11.3-19,13.6c-0.6,0.2-1.1,0.4-1.1,0.4c0,0-0.1,0.6-0.2,1.2c-0.2,1.1-0.2,1.2,0,1.2c0.2,0,1.1-0.1,3-0.4
		C163.3,20329.8,166.9,20328.7,167.9,20328.3z M163,20319.6c4.7-2.7,9.5-6.7,13.9-11.7c0.7-0.9,1.4-1.6,1.4-1.7c0-0.1-0.4,0.3-1,0.8
		c-2.5,2.2-5.7,4.7-8.4,6.4c-1.8,1.1-4.9,2.9-6.4,3.6l-1,0.5l-0.3,1.5c-0.2,0.8-0.3,1.5-0.3,1.5
		C161,20320.7,161.4,20320.5,163,20319.6z M165.3,20308.6c5.3-3.5,9.5-7.2,13.5-11.7c0.8-0.9,1.4-1.6,1.4-1.7c0-0.1,0-0.1,0-0.1
		c0,0.1-2.8,2-6.2,4.4c-5.7,4-6.2,4.4-6.8,4.5c-0.4,0.1-0.8,0.2-0.9,0.1c-0.1,0-0.6-0.3-1.2-0.6l-1-0.6l-0.2,1.1
		c-0.1,0.6-0.4,2.2-0.6,3.5l-0.4,2.4l0.4-0.2C163.4,20309.8,164.3,20309.2,165.3,20308.6z"/>
</g>
</svg>
