<svg width="99" height="40" viewBox="0 0 99 40" fill="none" xmlns="http://www.w3.org/2000/svg">
<path d="M18.222 34.5742C29.8835 28.0483 38.0113 13.1973 34.6081 4.86458C32.8642 0.595307 28.6544 -0.616862 24.0989 0.275112C33.2406 0.854513 34.8001 10.5061 28.0245 20.699C25.0822 25.1284 21.0184 29.0089 16.6472 31.7229C16.5243 29.1918 17.1926 26.4244 18.0838 24.0306H18.0991L15.8022 20.3483C14.3042 17.9621 13.2901 16.3001 12.3683 14.905C9.595 15.21 5.57724 14.7602 3.11127 12.8923C3.00372 12.8161 2.87312 12.9381 2.94226 13.0524C3.56452 13.9825 4.10995 14.7983 4.59392 15.5225C1.10623 20.9354 -1.31365 29.1842 2.11259 34.071C5.40823 30.7471 7.24426 28.6048 10.7396 22.7574C11.1545 22.9556 11.5463 23.1005 11.9457 23.2301C11.1545 24.5642 8.02784 29.7331 4.37114 34.2845C2.25087 36.8155 0 36.6554 0 36.6554C0.4302 37.0824 3.311 39.3619 9.06493 39.8269C7.05221 39.0645 6.81406 37.2196 7.50546 35.9007L13.8355 23.7104C14.2965 23.7942 14.7497 23.8629 15.3412 23.9238C12.5449 28.742 11.0008 31.7763 9.61036 37.3263C12.591 37.1891 15.6408 36.015 18.222 34.5742ZM3.18809 27.263C3.18809 27.263 2.68107 22.6583 5.91525 17.4971C8.37354 21.1717 8.38122 21.1564 9.04188 21.7053C6.7987 24.4956 5.1624 25.8755 3.18809 27.263Z" fill="#C24DFE"/>
<path d="M17.5929 20.7605L18.8143 22.7427L24.7526 12.0237C25.5362 10.6057 25.567 8.88275 24.7911 7.41138L17.5775 19.6169C17.3701 19.9752 17.3701 20.4174 17.5929 20.7605Z" fill="#C24DFE"/>
<path d="M16.0482 18.2981C16.0866 18.2371 23.5998 6.10018 23.8687 5.67325C22.5473 3.1803 22.8623 3.76733 22.6779 3.43188C22.5243 3.13456 22.1018 3.11169 21.9174 3.39376C20.8649 4.96425 18.0686 9.15729 16.1097 12.0772C14.9266 13.8535 14.7653 16.2245 16.0482 18.2981Z" fill="#C24DFE"/>
<path d="M7.05945 9.60706C7.05945 9.59943 7.05945 9.59943 7.05945 9.60706C5.45388 10.5524 4.32461 11.2309 4.11719 11.3529C4.77017 12.0009 5.60752 12.3668 6.66766 12.626C9.57151 13.3427 12.8364 13.2207 12.8902 13.2207L20.918 1.73177C21.0333 1.57167 20.8412 1.36583 20.6722 1.47256C19.5813 2.12058 17.4457 3.39373 15.0566 4.81937C15.3485 5.61223 15.433 6.47371 15.264 7.31994C14.5342 11.1852 9.6637 12.4888 7.05945 9.60706Z" fill="#C24DFE"/>
<path d="M10.2793 39.8655C11.8004 40.201 15.7874 40.0561 20.6118 37.708C30.7599 32.7602 35.2309 23.4441 35.2309 23.4441C41.5533 11.3529 35.8455 5.75708 35.8455 5.75708C40.6391 19.1595 26.189 36.9151 10.2793 39.8655Z" fill="#C24DFE"/>
<path d="M1.74386 9.51564C1.74386 9.51564 3.87181 5.75716 8.76534 6.18408C7.79738 6.48141 7.20586 7.8308 8.28136 8.86C10.1481 10.6439 13.3823 9.70623 13.8893 7.06081C13.9892 6.53477 13.9585 6.02399 13.8279 5.55132C12.9291 2.3951 8.30441 2.44847 8.48878 4.88043C8.7807 4.84993 9.07262 4.94904 9.28004 5.11676C9.9407 5.65805 9.61037 6.64151 8.89593 6.68725C9.57964 6.38992 9.27236 5.49795 8.75765 5.63518C8.77302 5.65805 8.78838 5.68092 8.80375 5.70379C7.75897 5.61993 3.29565 5.5132 0.460938 9.51564C0.460938 9.51564 1.16001 8.93624 1.74386 9.51564Z" fill="#C24DFE"/>
<path d="M46.776 19.9065H53.9819C54.2969 19.9065 54.4889 19.7464 54.558 19.4338L55.019 17.2992C55.0804 16.9866 54.9575 16.8265 54.6349 16.8265H47.5519C46.7223 16.8265 46.4073 16.6817 46.4073 16.148C46.4073 15.9574 46.4534 15.7211 46.9604 13.3577C47.2139 12.1761 47.4674 11.9397 48.5967 11.9397H55.672C55.9869 11.9397 56.179 11.7796 56.2481 11.467L56.709 9.33241C56.7705 9.01984 56.6476 8.85974 56.3249 8.85974H49.1191C45.8235 8.85974 44.3177 9.99567 43.6801 13.0299C42.812 17.2611 41.7903 19.9065 46.776 19.9065Z" fill="#565656"/>
<path d="M55.372 19.9067C58.5601 19.9067 58.5601 19.9982 58.7906 19.6551L59.9506 18.0008H66.2807L66.757 19.6551C66.8031 19.8457 66.9029 19.9067 67.1564 19.9067H69.9681C70.3215 19.9067 70.4137 19.7009 70.3368 19.4341L67.5866 10.4533C67.1872 9.1573 66.6033 8.85997 65.5201 8.85997C63.7763 8.85997 63.0311 8.64651 61.7175 10.4533L55.2107 19.4341C55.0263 19.7009 55.0263 19.9067 55.372 19.9067ZM64.3448 11.9171C64.4523 11.9171 64.5445 11.9018 64.5675 12.0238L65.5662 15.5155H61.7021C64.3985 11.6807 64.1834 11.9171 64.3448 11.9171Z" fill="#565656"/>
<path d="M71.5278 19.9066H73.9169C74.2319 19.9066 74.424 19.7465 74.4931 19.4339L75.3228 15.5687C77.7888 15.5687 77.9117 15.462 78.1882 16.0109L80.0934 19.655C80.2778 19.9905 80.2009 19.9066 83.4659 19.9066C83.8807 19.9066 83.9114 19.5102 83.85 19.3882C81.3994 14.9969 81.2918 14.692 80.731 14.1964C81.0767 13.9144 81.1459 13.8229 85.5861 9.33253C85.7475 9.15718 85.7628 8.85986 85.4248 8.85986C82.1676 8.85986 82.2905 8.78362 81.9909 9.11144L78.6492 12.6488C78.1498 13.1901 78.0346 13.091 75.8529 13.091L76.6672 9.33253C76.7286 9.01995 76.6211 8.85986 76.2984 8.85986H73.9016C73.5866 8.85986 73.3792 9.01995 73.3101 9.33253L71.1437 19.4339C71.0822 19.7465 71.2128 19.9066 71.5278 19.9066Z" fill="#565656"/>
<path d="M98.0854 8.85974H91.0562C87.7605 8.85974 86.2548 9.99567 85.6172 13.0299C84.7338 17.2611 83.7197 19.9141 88.7054 19.9141H95.7346C96.0496 19.9141 96.2416 19.754 96.3108 19.4414L96.7563 17.3907C96.8178 17.0781 96.6949 16.918 96.3722 16.918H89.3892C88.2368 16.918 88.1293 16.6207 88.3213 15.6677H96.5412C96.8562 15.6677 97.0483 15.5076 97.1174 15.195L97.4861 13.5026C97.5476 13.19 97.4247 13.0299 97.102 13.0299H88.8821C89.1203 12.0693 89.4199 11.8635 90.4723 11.8635H97.4554C97.7704 11.8635 97.9624 11.7034 98.0316 11.3908L98.4771 9.34004C98.5309 9.01222 98.408 8.85974 98.0854 8.85974Z" fill="#565656"/>
<path d="M49.3574 22.8647H42.3359C42.0978 22.8647 41.9441 22.9867 41.898 23.2231L40.2771 30.7934C40.231 31.0297 40.3232 31.1517 40.5614 31.1517H47.8671C49.4496 31.1517 50.1564 30.2902 50.4175 29.0018C50.5789 28.1937 50.8017 27.4466 50.164 26.8748C50.6403 26.547 50.986 26.0591 51.1166 25.4416C51.2856 24.6487 51.3087 24.4352 51.3087 24.237C51.3087 23.3145 50.7402 22.8647 49.3574 22.8647ZM48.0361 28.552C47.9746 28.8036 47.821 28.918 47.5214 28.918H43.3423C43.1349 28.918 43.2117 28.7884 43.4114 27.8278H47.7518C48.2435 27.8278 48.1206 28.1708 48.0361 28.552ZM48.643 25.7389C48.5969 25.9752 48.4279 26.0972 48.1283 26.0972H43.7802C43.9722 25.2205 43.9492 25.0909 44.1643 25.0909H48.3434C48.5969 25.0909 48.7121 25.1824 48.7121 25.3501C48.7121 25.3806 48.7121 25.4034 48.643 25.7389Z" fill="#565656"/>
<path d="M59.9899 22.8647H56.2334C53.7674 22.8647 52.6381 23.7186 52.1542 25.9905C51.4935 29.1619 50.733 31.1441 54.4665 31.1441H58.223C60.689 31.1441 61.8183 30.2902 62.3023 28.0184C62.817 25.5559 62.863 25.1824 62.863 24.8469C62.863 23.4213 61.9873 22.8647 59.9899 22.8647ZM59.8363 27.8278C59.6442 28.7121 59.4522 28.8951 58.6071 28.8951H55.0426C54.4204 28.8951 54.1822 28.7884 54.1822 28.3843C54.1822 28.2395 54.2206 28.0641 54.6201 26.1734C54.8122 25.2891 55.0042 25.1061 55.8493 25.1061H59.4138C60.036 25.1061 60.2742 25.2128 60.2742 25.6169C60.2742 25.7618 60.2358 25.9371 59.8363 27.8278Z" fill="#565656"/>
<path d="M71.6735 22.8647H67.917C65.451 22.8647 64.3217 23.7186 63.8378 25.9905C63.1771 29.1619 62.4166 31.1441 66.1501 31.1441H69.9066C72.3726 31.1441 73.5019 30.2902 73.9859 28.0184C74.5006 25.5559 74.5467 25.1824 74.5467 24.8469C74.5467 23.4213 73.6786 22.8647 71.6735 22.8647ZM71.5199 27.8278C71.3278 28.7121 71.1358 28.8951 70.2908 28.8951H66.7262C66.104 28.8951 65.8658 28.7884 65.8658 28.3843C65.8658 28.2395 65.9042 28.0641 66.3037 26.1734C66.4958 25.2891 66.6878 25.1061 67.5329 25.1061H71.0974C71.7196 25.1061 71.9578 25.2128 71.9578 25.6169C71.9578 25.7618 71.927 25.9371 71.5199 27.8278Z" fill="#565656"/>
<path d="M84.7115 22.8647H78.5121C76.9756 22.8647 76.023 23.6805 75.7619 24.9003C75.5237 25.9981 75.5007 26.2039 75.5007 26.3869C75.5007 27.3932 76.1536 27.9574 77.3828 27.9574H81.485C81.654 27.9574 81.7232 28.026 81.7232 28.1708C81.7232 28.4758 81.6156 28.8951 81.2699 28.8951H75.2779C75.0397 28.8951 74.8938 29.0171 74.8477 29.2534L74.5173 30.7934C74.4713 31.0297 74.5634 31.1517 74.8016 31.1517H81.293C82.8294 31.1517 83.7743 30.336 84.0355 29.1162C84.289 27.9574 84.3121 27.7439 84.3121 27.5533C84.3121 26.5622 83.6668 25.9905 82.4376 25.9905H78.3354C78.1664 25.9905 78.0972 25.9219 78.0972 25.777C78.0972 25.4721 78.1894 25.1137 78.5274 25.1137H84.2199C84.458 25.1137 84.6117 24.9918 84.6578 24.7554L84.9804 23.2154C85.0342 22.9791 84.9497 22.8647 84.7115 22.8647Z" fill="#565656"/>
<path d="M95.4199 22.8647H86.0784C85.8403 22.8647 85.6943 22.9867 85.6482 23.2231L85.3025 24.8164C85.2564 25.0528 85.3486 25.1747 85.5867 25.1747H89.0053L87.7992 30.7934C87.7531 31.0297 87.8453 31.1517 88.0834 31.1517H89.8734C90.1115 31.1517 90.2575 31.0297 90.3036 30.7934L91.5097 25.1747H94.9282C95.1664 25.1747 95.3123 25.0528 95.3584 24.8164L95.7041 23.2231C95.7502 22.9791 95.658 22.8647 95.4199 22.8647Z" fill="#565656"/>
</svg>
