<svg width="98" height="24" viewBox="0 0 98 24" fill="none" xmlns="http://www.w3.org/2000/svg">
<path d="M25.7468 8.50537H35.6569V10.3465H31.7549V20.7253H29.6162V10.3465H25.7305L25.7468 8.50537ZM35.2325 11.8781H37.061V13.5888H37.0937C37.159 13.3444 37.2733 13.1163 37.4365 12.8882C37.5998 12.6601 37.7957 12.4483 38.0406 12.2691C38.2692 12.0736 38.5304 11.9269 38.8243 11.8129C39.1018 11.6988 39.3957 11.6337 39.6896 11.6337C39.9181 11.6337 40.0814 11.65 40.163 11.65C40.2447 11.6662 40.3426 11.6825 40.4243 11.6825V13.5563C40.2937 13.5237 40.1467 13.5074 39.9998 13.4911C39.8528 13.4748 39.7222 13.4585 39.5753 13.4585C39.2488 13.4585 38.9386 13.5237 38.6447 13.654C38.3508 13.7844 38.1059 13.9799 37.8773 14.2243C37.6651 14.485 37.4855 14.7945 37.3549 15.1693C37.2243 15.544 37.159 15.9839 37.159 16.4727V20.6764H35.1998L35.2325 11.8781ZM49.4038 20.7253H47.4773V19.487H47.4446C47.1997 19.9432 46.8406 20.2853 46.3671 20.5623C45.8936 20.8393 45.4038 20.9697 44.914 20.9697C43.7549 20.9697 42.9059 20.6927 42.3834 20.1061C41.861 19.5359 41.5998 18.656 41.5998 17.4992V11.8781H43.5589V17.3037C43.5589 18.0858 43.7059 18.6397 44.0161 18.9493C44.31 19.2752 44.7344 19.4381 45.2732 19.4381C45.6814 19.4381 46.0242 19.3729 46.3018 19.2426C46.5793 19.1122 46.8079 18.9493 46.9712 18.7375C47.1508 18.5257 47.265 18.265 47.3467 17.9717C47.4283 17.6784 47.461 17.3526 47.461 17.0104V11.8781H49.4201V20.7253H49.4038ZM52.7344 17.8902C52.7997 18.4605 53.012 18.8515 53.3875 19.0959C53.763 19.324 54.2201 19.4381 54.7426 19.4381C54.9221 19.4381 55.1344 19.4218 55.363 19.3892C55.5915 19.3566 55.8201 19.3078 56.016 19.2263C56.2283 19.1448 56.3915 19.0308 56.5221 18.8678C56.6528 18.7049 56.7181 18.5094 56.7017 18.265C56.6854 18.0206 56.6038 17.8088 56.4242 17.6458C56.2446 17.4829 56.0323 17.3689 55.7711 17.2548C55.5099 17.1571 55.1997 17.0756 54.8568 17.0104C54.514 16.9452 54.1711 16.8638 53.8119 16.7823C53.4528 16.7008 53.0936 16.6031 52.7507 16.489C52.4079 16.375 52.114 16.2283 51.8364 16.0165C51.5752 15.821 51.3467 15.5766 51.1997 15.267C51.0365 14.9575 50.9548 14.599 50.9548 14.1428C50.9548 13.654 51.0691 13.263 51.314 12.9371C51.5426 12.6113 51.8528 12.3506 52.212 12.155C52.5711 11.9595 52.9793 11.8129 53.4201 11.7314C53.8609 11.65 54.2854 11.6174 54.6772 11.6174C55.1344 11.6174 55.5752 11.6662 55.9834 11.764C56.3915 11.8618 56.7834 12.0084 57.1099 12.2365C57.4527 12.4483 57.7303 12.7416 57.9425 13.0838C58.1711 13.4259 58.3017 13.8495 58.367 14.3383H56.3262C56.2283 13.8658 56.016 13.5563 55.6895 13.3933C55.3466 13.2304 54.9711 13.1489 54.5303 13.1489C54.3997 13.1489 54.2201 13.1652 54.0405 13.1815C53.8446 13.2141 53.6813 13.2467 53.5017 13.3119C53.3385 13.377 53.1915 13.4748 53.0773 13.5888C52.963 13.7029 52.8977 13.8658 52.8977 14.0613C52.8977 14.3057 52.9793 14.485 53.1426 14.6316C53.3058 14.7782 53.5181 14.8923 53.7956 15.0064C54.0568 15.1041 54.367 15.1856 54.7099 15.2508C55.0528 15.3159 55.4119 15.3974 55.7711 15.4789C56.1303 15.5603 56.4732 15.6581 56.816 15.7721C57.1589 15.8862 57.4691 16.0328 57.7303 16.2446C57.9915 16.4402 58.2201 16.6846 58.3834 16.9778C58.5466 17.2711 58.6283 17.6458 58.6283 18.0695C58.6283 18.5909 58.514 19.0308 58.2691 19.4055C58.0242 19.764 57.714 20.0735 57.3385 20.3016C56.963 20.5297 56.5221 20.6927 56.065 20.8067C55.5915 20.9045 55.1344 20.9697 54.6772 20.9697C54.1222 20.9697 53.5997 20.9045 53.1262 20.7741C52.6528 20.6438 52.2283 20.4483 51.8854 20.2039C51.5426 19.9432 51.265 19.6336 51.0691 19.2426C50.8732 18.8678 50.7589 18.4116 50.7426 17.874H52.7181V17.8902H52.7344ZM59.1833 11.8781H60.6691V9.20598H62.6282V11.8618H64.3915V13.3119H62.6282V18.0369C62.6282 18.2487 62.6446 18.4116 62.6609 18.5746C62.6772 18.7212 62.7262 18.8515 62.7752 18.9493C62.8405 19.0471 62.9384 19.1285 63.0527 19.1774C63.1833 19.2263 63.3466 19.2589 63.5752 19.2589C63.7058 19.2589 63.8527 19.2589 63.9833 19.2426C64.1139 19.2263 64.2609 19.21 64.3915 19.1774V20.6927C64.1792 20.7253 63.967 20.7416 63.7548 20.7578C63.5425 20.7904 63.3466 20.7904 63.118 20.7904C62.5956 20.7904 62.1874 20.7416 61.8772 20.6438C61.567 20.546 61.3221 20.3994 61.1425 20.2202C60.9629 20.0247 60.8486 19.7965 60.7833 19.5196C60.718 19.2426 60.6854 18.9004 60.6691 18.542V13.3282H59.1833V11.8455V11.8781ZM65.7629 11.8781H67.6078V13.0838H67.6404C67.918 12.5624 68.2935 12.2039 68.7833 11.9758C69.2731 11.7477 69.7955 11.6337 70.3833 11.6337C71.0853 11.6337 71.6894 11.7477 72.2118 12.0084C72.7343 12.2528 73.1588 12.5787 73.5016 13.0186C73.8445 13.4422 74.1057 13.9473 74.269 14.5176C74.4322 15.0878 74.5302 15.707 74.5302 16.3424C74.5302 16.9452 74.4486 17.5155 74.3016 18.0695C74.1384 18.6234 73.9098 19.1285 73.5996 19.5522C73.2894 19.9758 72.8976 20.3179 72.4078 20.5786C71.918 20.8393 71.3629 20.9697 70.7098 20.9697C70.4323 20.9697 70.1384 20.9371 69.8608 20.8882C69.5833 20.8393 69.3057 20.7579 69.0445 20.6438C68.7833 20.5297 68.5384 20.3831 68.3262 20.2039C68.0976 20.0247 67.918 19.8128 67.7711 19.5847H67.7384V24.0002H65.7792V11.8781H65.7629ZM72.6037 16.3098C72.6037 15.9188 72.5547 15.5277 72.4404 15.153C72.3425 14.7782 72.1792 14.4524 71.9669 14.1591C71.7547 13.8658 71.4935 13.6377 71.1996 13.4585C70.8894 13.2793 70.5302 13.1978 70.1384 13.1978C69.3221 13.1978 68.7017 13.4748 68.2772 14.0451C67.869 14.6153 67.6568 15.3811 67.6568 16.3261C67.6568 16.7823 67.7057 17.1896 67.82 17.5644C67.9343 17.9391 68.0813 18.265 68.3098 18.542C68.5221 18.819 68.7833 19.0308 69.0935 19.1937C69.4037 19.3566 69.7466 19.4381 70.1547 19.4381C70.6119 19.4381 70.971 19.3403 71.2812 19.1611C71.5914 18.9819 71.8363 18.7375 72.0486 18.4605C72.2445 18.1672 72.3914 17.8414 72.4731 17.4666C72.5547 17.0756 72.6037 16.7008 72.6037 16.3098ZM76.0486 8.50537H78.0077V10.3465H76.0486V8.50537ZM76.0486 11.8781H78.0077V20.7253H76.0486V11.8781ZM79.7547 8.50537H81.7138V20.7253H79.7547V8.50537ZM87.6893 20.9697C86.9873 20.9697 86.3505 20.8556 85.7954 20.6112C85.2403 20.3668 84.7832 20.0572 84.3914 19.6499C84.0159 19.2426 83.722 18.7375 83.5261 18.1672C83.3302 17.597 83.2159 16.9615 83.2159 16.2935C83.2159 15.6255 83.3138 15.0064 83.5261 14.4361C83.722 13.8658 84.0159 13.377 84.3914 12.9534C84.7669 12.5461 85.2403 12.2202 85.7954 11.9921C86.3505 11.764 86.9873 11.6337 87.6893 11.6337C88.3913 11.6337 89.0281 11.7477 89.5832 11.9921C90.1383 12.2202 90.5954 12.5461 90.9873 12.9534C91.3628 13.3607 91.6566 13.8658 91.8526 14.4361C92.0485 15.0064 92.1628 15.6255 92.1628 16.2935C92.1628 16.9778 92.0648 17.597 91.8526 18.1672C91.6403 18.7375 91.3628 19.2263 90.9873 19.6499C90.6117 20.0572 90.1383 20.3831 89.5832 20.6112C89.0281 20.8393 88.4077 20.9697 87.6893 20.9697ZM87.6893 19.4218C88.1138 19.4218 88.5056 19.324 88.8158 19.1448C89.1424 18.9656 89.3873 18.7212 89.5995 18.4279C89.8118 18.1346 89.9587 17.7925 90.0566 17.434C90.1546 17.0593 90.2036 16.6846 90.2036 16.2935C90.2036 15.9188 90.1546 15.544 90.0566 15.1693C89.9587 14.7945 89.8118 14.4687 89.5995 14.1754C89.3873 13.8821 89.126 13.654 88.8158 13.4748C88.4893 13.2956 88.1138 13.1978 87.6893 13.1978C87.2648 13.1978 86.873 13.2956 86.5628 13.4748C86.2363 13.654 85.9914 13.8984 85.7791 14.1754C85.5669 14.4687 85.4199 14.7945 85.322 15.1693C85.224 15.544 85.175 15.9188 85.175 16.2935C85.175 16.6846 85.224 17.0593 85.322 17.434C85.4199 17.8088 85.5669 18.1346 85.7791 18.4279C85.9914 18.7212 86.2526 18.9656 86.5628 19.1448C86.8893 19.3403 87.2648 19.4218 87.6893 19.4218ZM92.7505 11.8781H94.2362V9.20598H96.1954V11.8618H97.9586V13.3119H96.1954V18.0369C96.1954 18.2487 96.2117 18.4116 96.2281 18.5746C96.2444 18.7212 96.2934 18.8515 96.3423 18.9493C96.4076 19.0471 96.5056 19.1285 96.6199 19.1774C96.7505 19.2263 96.9138 19.2589 97.1423 19.2589C97.2729 19.2589 97.4199 19.2589 97.5505 19.2426C97.6811 19.2263 97.828 19.21 97.9586 19.1774V20.6927C97.7464 20.7253 97.5342 20.7416 97.3219 20.7578C97.1097 20.7904 96.9138 20.7904 96.6852 20.7904C96.1627 20.7904 95.7546 20.7416 95.4444 20.6438C95.1342 20.546 94.8893 20.3994 94.7097 20.2202C94.5301 20.0247 94.4158 19.7965 94.3505 19.5196C94.2852 19.2426 94.2525 18.9004 94.2362 18.542V13.3282H92.7505V11.8455V11.8781Z" fill="black"/>
<path d="M23.4611 8.50517H14.4979L11.7387 0.00012207L8.96322 8.50517L0 8.48888L7.24894 13.7516L4.47345 22.2566L11.7224 16.9939L18.9713 22.2566L16.2122 13.7516L23.4611 8.50517Z" fill="#00B67A"/>
<path d="M16.8341 15.6741L16.2137 13.7515L11.7402 16.9938L16.8341 15.6741Z" fill="#005128"/>
</svg>
